<?xml version="1.0" encoding="utf-8"?>
<!-- Generator: Adobe Illustrator 21.1.0, SVG Export Plug-In . SVG Version: 6.00 Build 0)  -->
<svg version="1.1" id="Cadillac" xmlns="http://www.w3.org/2000/svg" xmlns:xlink="http://www.w3.org/1999/xlink" x="0px" y="0px"
	 viewBox="0 0 60 60" style="enable-background:new 0 0 60 60;" xml:space="preserve">
<style type="text/css">
	.st0{fill:url(#SVGID_1_);}
	.st1{fill:url(#SVGID_2_);}
	.st2{fill:url(#SVGID_3_);}
	.st3{fill:url(#SVGID_4_);}
	.st4{fill:url(#SVGID_5_);}
	.st5{fill:url(#SVGID_6_);}
	.st6{fill:url(#SVGID_7_);}
	.st7{clip-path:url(#SVGID_9_);}
	.st8{fill:#80868A;}
	.st9{fill:#7E8388;}
	.st10{fill:#798085;}
	.st11{fill:#757D82;}
	.st12{fill:#717A80;}
	.st13{fill:#6E777D;}
	.st14{fill:#6A737A;}
	.st15{fill:#667178;}
	.st16{fill:#626E75;}
	.st17{fill:#5E6A72;}
	.st18{fill:#5A6870;}
	.st19{fill:#57656E;}
	.st20{fill:#52626B;}
	.st21{fill:#4F6069;}
	.st22{clip-path:url(#SVGID_11_);}
	.st23{fill:#FFFFFF;}
	.st24{fill:#CFCFCF;}
	.st25{clip-path:url(#SVGID_13_);fill:#CFCFCF;}
	.st26{clip-path:url(#SVGID_13_);}
	.st27{fill:#CFD1D3;}
	.st28{fill:#CACCCF;}
	.st29{fill:#C5C8CB;}
	.st30{fill:#C1C4C7;}
	.st31{fill:#BEC2C4;}
	.st32{fill:#BABEC1;}
	.st33{fill:#B6B9BC;}
	.st34{fill:#B2B6B9;}
	.st35{fill:#AFB3B6;}
	.st36{fill:#ABB0B3;}
	.st37{fill:#A8ACB0;}
	.st38{fill:#A4A9AD;}
	.st39{fill:#A1A6AA;}
	.st40{fill:#9EA3A7;}
	.st41{fill:#9AA0A4;}
	.st42{fill:#979DA1;}
	.st43{fill:#939A9E;}
	.st44{fill:#91979B;}
	.st45{fill:#8D9499;}
	.st46{fill:#8A9196;}
	.st47{fill:#878E93;}
	.st48{fill:#848C90;}
	.st49{fill:#81898E;}
	.st50{fill:#7F868B;}
	.st51{fill:#7C8389;}
	.st52{clip-path:url(#SVGID_13_);fill:#788085;}
	.st53{fill:url(#SVGID_14_);}
	.st54{fill:#D5DCE3;}
	.st55{fill:url(#SVGID_15_);}
	.st56{fill:url(#SVGID_16_);}
	.st57{fill:url(#SVGID_17_);}
	.st58{fill:url(#SVGID_18_);}
	.st59{clip-path:url(#SVGID_20_);fill:#E0E8F5;}
	.st60{clip-path:url(#SVGID_22_);fill:#D5DCE3;}
	.st61{clip-path:url(#SVGID_22_);}
	.st62{fill:#CBD4DB;}
	.st63{fill:#C5CDD4;}
	.st64{fill:#BEC6CD;}
	.st65{fill:#B9C0C7;}
	.st66{fill:#B2BAC1;}
	.st67{fill:#ABB4BA;}
	.st68{fill:#A5ADB3;}
	.st69{fill:#9EA6AC;}
	.st70{fill:#98A0A6;}
	.st71{fill:#919A9F;}
	.st72{fill:#8B9399;}
	.st73{fill:#858C92;}
	.st74{fill:#7F868C;}
	.st75{fill:#7A8085;}
	.st76{fill:#737B80;}
	.st77{fill:#6D7479;}
	.st78{fill:#686F73;}
	.st79{fill:#62686D;}
	.st80{fill:#5C6266;}
	.st81{fill:#555C60;}
	.st82{clip-path:url(#SVGID_22_);fill:#4F5559;}
	.st83{clip-path:url(#SVGID_22_);fill:#E0E0E0;}
	.st84{fill:#E0E8F5;}
	.st85{fill:#E0E0E0;}
	.st86{fill:url(#SVGID_23_);}
	.st87{fill:url(#SVGID_24_);}
	.st88{fill:url(#SVGID_25_);}
	.st89{fill:url(#SVGID_26_);}
	.st90{fill:url(#SVGID_27_);}
	.st91{fill:url(#SVGID_28_);}
	.st92{fill:url(#SVGID_29_);}
	.st93{fill:url(#SVGID_30_);}
	.st94{fill:url(#SVGID_31_);}
	.st95{fill:url(#SVGID_32_);}
	.st96{fill:url(#SVGID_33_);}
	.st97{fill:url(#SVGID_34_);}
	.st98{fill:url(#SVGID_35_);}
	.st99{fill:url(#SVGID_36_);}
	.st100{fill:url(#SVGID_37_);}
	.st101{fill:url(#SVGID_38_);}
	.st102{fill:url(#SVGID_39_);}
	.st103{fill:url(#SVGID_40_);}
	.st104{fill:url(#SVGID_41_);}
	.st105{fill:url(#SVGID_42_);}
	.st106{fill:url(#SVGID_43_);}
	.st107{fill:url(#SVGID_44_);}
	.st108{fill:url(#SVGID_45_);}
	.st109{fill:url(#SVGID_46_);}
	.st110{fill:url(#SVGID_47_);}
	.st111{fill:none;}
	.st112{fill:url(#SVGID_48_);}
	.st113{fill:url(#SVGID_49_);}
	.st114{fill:url(#SVGID_50_);}
	.st115{fill:url(#SVGID_51_);}
	.st116{fill:url(#SVGID_52_);}
	.st117{fill:url(#SVGID_53_);}
	.st118{fill:url(#SVGID_54_);}
	.st119{fill:url(#SVGID_55_);}
	.st120{fill:url(#SVGID_56_);}
	.st121{fill:url(#SVGID_57_);}
	.st122{fill:url(#SVGID_58_);}
	.st123{fill:url(#SVGID_59_);}
	.st124{fill:url(#SVGID_60_);}
	.st125{fill:url(#SVGID_61_);}
	.st126{fill:url(#SVGID_62_);}
	.st127{fill:url(#SVGID_63_);}
	.st128{fill:url(#SVGID_64_);}
	.st129{fill:url(#SVGID_65_);}
	.st130{fill:url(#SVGID_66_);}
	.st131{fill:url(#SVGID_67_);}
	.st132{fill:url(#SVGID_68_);}
	.st133{fill:url(#SVGID_69_);}
	.st134{fill:url(#SVGID_70_);}
	.st135{fill:url(#SVGID_71_);}
	.st136{fill:url(#SVGID_72_);}
	.st137{fill:url(#SVGID_73_);}
	.st138{fill:url(#SVGID_74_);}
	.st139{fill:url(#SVGID_75_);}
	.st140{fill:url(#SVGID_76_);}
	.st141{fill:url(#SVGID_77_);}
	.st142{fill:#85878A;}
	.st143{clip-path:url(#SVGID_79_);fill:#8A8C8F;}
	.st144{fill:#CCCECF;}
	.st145{clip-path:url(#SVGID_81_);fill:#DDE8F6;}
	.st146{fill:#C0C1C3;}
	.st147{fill:#949699;}
	.st148{fill:#87898B;}
	.st149{fill:#8FA1B0;}
	.st150{fill:#B7B9BB;}
	.st151{fill:url(#SVGID_82_);}
	.st152{fill:url(#SVGID_83_);}
	.st153{fill:#6D7579;}
	.st154{fill:#D6E1F0;}
	.st155{fill:url(#SVGID_84_);}
	.st156{fill:url(#SVGID_85_);}
	.st157{fill:url(#SVGID_86_);}
	.st158{fill:url(#SVGID_87_);}
	.st159{fill:url(#SVGID_88_);}
	.st160{fill:url(#SVGID_89_);}
	.st161{fill:url(#SVGID_90_);}
	.st162{fill:url(#SVGID_91_);}
	.st163{fill:url(#SVGID_92_);}
	.st164{fill:#231F20;}
	.st165{fill:url(#SVGID_93_);}
	.st166{fill:url(#SVGID_94_);}
	.st167{fill:url(#SVGID_95_);}
	.st168{fill:url(#SVGID_96_);}
	.st169{fill:#344961;}
	.st170{fill:#A0524D;}
	.st171{fill:#7E7459;}
	.st172{fill:#9F5752;}
	.st173{fill:#355578;}
	.st174{fill:#6A7786;}
</style>
<g>
	
		<linearGradient id="SVGID_1_" gradientUnits="userSpaceOnUse" x1="306.371" y1="104.8335" x2="305.5339" y2="112.4152" gradientTransform="matrix(0.0934 0 0 0.0934 11.5182 6.9285)">
		<stop  offset="0" style="stop-color:#8CB2DE"/>
		<stop  offset="1" style="stop-color:#B9CEEB"/>
	</linearGradient>
	<polygon class="st0" points="50.33,17.61 49.26,17.49 29.99,15.34 29.99,16.06 49.19,18.2 	"/>
	
		<linearGradient id="SVGID_2_" gradientUnits="userSpaceOnUse" x1="364.1089" y1="269.0384" x2="209.7851" y2="231.8107" gradientTransform="matrix(0.0934 0 0 0.0934 11.5182 6.9285)">
		<stop  offset="0" style="stop-color:#C2D5EE"/>
		<stop  offset="1" style="stop-color:#8AAEDB"/>
	</linearGradient>
	<path class="st1" d="M29.99,16.06l19.2,2.14l-2.9,5.16c0,0-0.35,6.95-0.59,9.68c-0.24,2.73-0.3,4.87-2.37,5.75
		c-4.14,1.78-9.26,3.38-13.34,4.26V16.06z"/>
	
		<linearGradient id="SVGID_3_" gradientUnits="userSpaceOnUse" x1="393.9037" y1="-156.7964" x2="400.5369" y2="-153.0496" gradientTransform="matrix(0.0934 0 0 0.0934 11.5182 35.1273)">
		<stop  offset="0.58" style="stop-color:#505E62"/>
		<stop  offset="1" style="stop-color:#636D71"/>
	</linearGradient>
	<polygon class="st2" points="50.33,17.61 49.19,18.2 46.28,23.36 47,23.46 49.8,18.55 	"/>
	
		<linearGradient id="SVGID_4_" gradientUnits="userSpaceOnUse" x1="146.178" y1="-289.4901" x2="101.3632" y2="91.8792" gradientTransform="matrix(0.0726 0 0 0.0728 11.211 34.6512)">
		<stop  offset="0" style="stop-color:#EEF2F9"/>
		<stop  offset="0.52" style="stop-color:#697F92"/>
		<stop  offset="1" style="stop-color:#596E7D"/>
	</linearGradient>
	<path class="st3" d="M9.65,17.61l1.07-0.12l19.28-2.15v0.72l-19.2,2.14l2.9,5.16c0,0,0.36,6.95,0.6,9.68
		c0.23,2.73,0.29,4.87,2.37,5.75c4.14,1.78,9.25,3.38,13.34,4.26v0.74c-4.34-0.95-9.63-2.63-13.62-4.35
		c-2.34-1.01-2.53-3.27-2.75-5.89l-0.04-0.46c-0.22-2.47-0.54-8.56-0.6-9.63l-2.81-4.92L9.65,17.61z"/>
	
		<linearGradient id="SVGID_5_" gradientUnits="userSpaceOnUse" x1="271.3833" y1="-751.689" x2="291.5465" y2="-685.7021" gradientTransform="matrix(0.0261 0 0 0.0261 12.5507 35.4916)">
		<stop  offset="0" style="stop-color:#AEC0D7"/>
		<stop  offset="1" style="stop-color:#C6D9F0"/>
	</linearGradient>
	<polygon class="st4" points="9.65,17.61 10.71,17.49 29.99,15.34 29.99,16.06 10.79,18.2 	"/>
	
		<linearGradient id="SVGID_6_" gradientUnits="userSpaceOnUse" x1="237.3466" y1="-69.9936" x2="16.5216" y2="-69.9936" gradientTransform="matrix(0.0726 0 0 0.0728 11.211 34.6512)">
		<stop  offset="0" style="stop-color:#EBEFF8"/>
		<stop  offset="1" style="stop-color:#B6CEEB"/>
	</linearGradient>
	<path class="st5" d="M29.99,16.06l-19.2,2.14l2.9,5.16c0,0,0.36,6.95,0.6,9.68c0.23,2.73,0.29,4.87,2.37,5.75
		c4.14,1.78,9.25,3.38,13.34,4.26V16.06z"/>
	
		<linearGradient id="SVGID_7_" gradientUnits="userSpaceOnUse" x1="5.867" y1="-159.2062" x2="-0.7613" y2="-155.4621" gradientTransform="matrix(0.0934 0 0 0.0934 11.5182 35.1273)">
		<stop  offset="0.58" style="stop-color:#505E62"/>
		<stop  offset="1" style="stop-color:#636D71"/>
	</linearGradient>
	<polygon class="st6" points="9.65,17.61 10.79,18.2 13.69,23.36 12.98,23.46 10.17,18.55 	"/>
	<g>
		<g>
			<defs>
				<path id="SVGID_8_" d="M46.28,23.36c0,0-0.35,6.95-0.59,9.68c-0.24,2.73-0.3,4.87-2.37,5.75c-4.14,1.78-9.26,3.38-13.34,4.26
					v0.74c4.34-0.95,9.63-2.63,13.62-4.35c2.35-1.01,2.54-3.27,2.76-5.89l0.04-0.46c0.21-2.47,0.54-8.56,0.6-9.63L46.28,23.36z"/>
			</defs>
			<clipPath id="SVGID_9_">
				<use xlink:href="#SVGID_8_"  style="overflow:visible;"/>
			</clipPath>
			<g class="st7">
				<path class="st8" d="M46.28,23.36c0,0-0.35,6.95-0.59,9.68c-0.24,2.73-0.3,4.87-2.37,5.75c-4.14,1.78-9.26,3.38-13.34,4.26v0.74
					c4.34-0.95,9.63-2.63,13.62-4.35c2.35-1.01,2.54-3.27,2.76-5.89l0.04-0.46c0.21-2.47,0.54-8.56,0.6-9.63L46.28,23.36z"/>
				<g>
					<path class="st9" d="M46.94,23.45c-0.05,0.99-0.38,7.14-0.59,9.64c0,0.01-0.04,0.45-0.04,0.47c-0.22,2.61-0.41,4.84-2.72,5.83
						c-4,1.72-9.28,3.4-13.6,4.34L29.93,43c4.08-0.89,9.2-2.48,13.34-4.26c2.07-0.89,2.13-3.01,2.36-5.74
						c0.24-2.73,0.59-9.68,0.59-9.68L46.94,23.45z"/>
					<path class="st10" d="M46.89,23.45c-0.05,0.91-0.37,7.13-0.6,9.64c0,0.03-0.04,0.45-0.04,0.48c-0.21,2.59-0.41,4.8-2.69,5.78
						c-4.01,1.73-9.28,3.39-13.58,4.33l-0.11-0.72c4.08-0.89,9.2-2.48,13.34-4.27c2.07-0.89,2.13-2.98,2.37-5.72
						c0.24-2.73,0.59-9.67,0.59-9.67L46.89,23.45z"/>
					<path class="st11" d="M46.83,23.44c-0.04,0.82-0.37,7.1-0.59,9.64c0,0.04-0.04,0.44-0.04,0.48c-0.22,2.59-0.41,4.76-2.66,5.73
						c-4.03,1.73-9.28,3.39-13.55,4.32l-0.16-0.72c4.09-0.89,9.2-2.49,13.34-4.26c2.07-0.89,2.13-2.97,2.37-5.7
						c0.24-2.73,0.59-9.68,0.59-9.68L46.83,23.44z"/>
					<path class="st12" d="M46.78,23.43c-0.04,0.74-0.37,7.09-0.59,9.64c-0.01,0.06-0.04,0.43-0.04,0.49
						c-0.22,2.57-0.4,4.72-2.62,5.68c-4.04,1.74-9.27,3.39-13.53,4.32l-0.21-0.71c4.08-0.89,9.19-2.48,13.34-4.27
						c2.07-0.89,2.13-2.94,2.37-5.67c0.24-2.73,0.59-9.68,0.59-9.68L46.78,23.43z"/>
					<path class="st13" d="M46.72,23.42c-0.03,0.67-0.37,7.07-0.59,9.65c0,0.07-0.04,0.43-0.04,0.5c-0.22,2.56-0.4,4.69-2.59,5.62
						c-4.05,1.74-9.27,3.39-13.51,4.31l-0.27-0.71c4.09-0.89,9.2-2.48,13.34-4.26c2.07-0.89,2.14-2.93,2.37-5.66
						c0.24-2.73,0.59-9.67,0.59-9.67L46.72,23.42z"/>
					<path class="st14" d="M46.67,23.41c-0.03,0.58-0.37,7.06-0.59,9.65c-0.01,0.09-0.04,0.42-0.05,0.51
						c-0.21,2.55-0.4,4.65-2.55,5.57c-4.06,1.75-9.27,3.39-13.49,4.3l-0.32-0.7c4.09-0.89,9.2-2.48,13.34-4.27
						c2.07-0.89,2.14-2.9,2.37-5.63c0.24-2.73,0.6-9.67,0.6-9.67L46.67,23.41z"/>
					<path class="st15" d="M46.62,23.41c-0.03,0.5-0.37,7.04-0.6,9.66c-0.01,0.1-0.03,0.42-0.05,0.52c-0.21,2.53-0.4,4.6-2.52,5.51
						c-4.07,1.76-9.27,3.39-13.47,4.3l-0.38-0.7c4.08-0.89,9.2-2.48,13.34-4.26c2.07-0.89,2.14-2.89,2.38-5.61
						c0.23-2.73,0.59-9.67,0.59-9.67L46.62,23.41z"/>
					<path class="st16" d="M46.56,23.4c-0.02,0.41-0.36,7.03-0.59,9.66c-0.01,0.12-0.04,0.41-0.05,0.52
						c-0.21,2.52-0.4,4.57-2.48,5.46c-4.09,1.76-9.27,3.38-13.45,4.29l-0.43-0.69c4.08-0.89,9.2-2.48,13.34-4.26
						c2.07-0.89,2.14-2.86,2.37-5.59c0.24-2.73,0.59-9.67,0.59-9.67L46.56,23.4z"/>
					<path class="st17" d="M46.51,23.39c-0.02,0.33-0.36,7.01-0.59,9.66c-0.01,0.14-0.04,0.4-0.05,0.53
						c-0.21,2.51-0.4,4.53-2.45,5.41c-4.1,1.76-9.26,3.38-13.43,4.29l-0.48-0.69c4.08-0.89,9.2-2.49,13.34-4.26
						c2.07-0.89,2.14-2.84,2.38-5.57c0.24-2.73,0.59-9.67,0.59-9.67L46.51,23.39z"/>
					<path class="st18" d="M46.45,23.38c-0.01,0.25-0.36,6.99-0.59,9.66c-0.01,0.15-0.03,0.4-0.05,0.54
						c-0.21,2.5-0.4,4.49-2.42,5.35c-4.11,1.77-9.26,3.38-13.4,4.28l-0.54-0.68c4.08-0.89,9.2-2.48,13.34-4.26
						c2.07-0.89,2.14-2.82,2.38-5.55c0.24-2.73,0.59-9.67,0.59-9.67L46.45,23.38z"/>
					<path class="st19" d="M46.4,23.37c-0.01,0.17-0.36,6.98-0.59,9.67c-0.01,0.16-0.03,0.39-0.05,0.55
						c-0.21,2.48-0.4,4.44-2.39,5.3c-4.12,1.77-9.26,3.38-13.38,4.28l-0.59-0.68c4.08-0.89,9.2-2.48,13.34-4.26
						c2.07-0.89,2.14-2.79,2.38-5.53c0.24-2.73,0.6-9.67,0.6-9.67L46.4,23.37z"/>
					<path class="st20" d="M46.34,23.37c-0.01,0.08-0.36,6.96-0.59,9.67c-0.02,0.17-0.03,0.38-0.05,0.56
						c-0.21,2.47-0.39,4.4-2.35,5.24c-4.13,1.78-9.26,3.38-13.36,4.27l-0.65-0.67c4.08-0.89,9.2-2.49,13.34-4.26
						c2.07-0.9,2.14-2.78,2.38-5.51c0.24-2.73,0.59-9.67,0.59-9.67L46.34,23.37z"/>
				</g>
				<path class="st21" d="M29.29,42.38c4.08-0.89,9.2-2.48,13.34-4.26c2.07-0.89,2.15-2.76,2.38-5.49c0.24-2.73,0.59-9.68,0.59-9.68
					l0.68,0.4c0,0-0.35,6.95-0.59,9.68c-0.02,0.19-0.03,0.38-0.05,0.57c-0.21,2.46-0.39,4.36-2.32,5.19
					c-4.14,1.78-9.26,3.38-13.34,4.26L29.29,42.38z"/>
			</g>
		</g>
	</g>
	<g>
		<g>
			<defs>
				<path id="SVGID_10_" d="M13.68,23.36c0,0,0.36,6.95,0.59,9.68c0.24,2.73,0.3,4.87,2.37,5.75c4.14,1.78,9.26,3.38,13.34,4.26
					v0.74c-4.34-0.95-9.63-2.63-13.62-4.35c-2.35-1.01-2.54-3.27-2.76-5.89l-0.04-0.46c-0.21-2.47-0.54-8.56-0.6-9.63L13.68,23.36z"
					/>
			</defs>
			<clipPath id="SVGID_11_">
				<use xlink:href="#SVGID_10_"  style="overflow:visible;"/>
			</clipPath>
			<g class="st22">
				<path class="st8" d="M13.68,23.36c0,0,0.36,6.95,0.59,9.68c0.24,2.73,0.3,4.87,2.37,5.75c4.14,1.78,9.26,3.38,13.34,4.26v0.74
					c-4.34-0.95-9.63-2.63-13.62-4.35c-2.35-1.01-2.54-3.27-2.76-5.89l-0.04-0.46c-0.21-2.47-0.54-8.56-0.6-9.63L13.68,23.36z"/>
				<g>
					<path class="st9" d="M13.02,23.45c0.05,0.99,0.38,7.14,0.59,9.64c0,0.01,0.04,0.45,0.04,0.47c0.22,2.61,0.41,4.84,2.72,5.83
						c4,1.72,9.28,3.4,13.6,4.34L30.03,43c-4.08-0.89-9.19-2.48-13.34-4.26c-2.07-0.89-2.13-3.01-2.37-5.74
						c-0.23-2.73-0.59-9.68-0.59-9.68L13.02,23.45z"/>
					<path class="st10" d="M13.08,23.45c0.05,0.91,0.38,7.13,0.6,9.64c0,0.03,0.04,0.45,0.04,0.48c0.22,2.59,0.41,4.8,2.69,5.78
						c4.02,1.73,9.28,3.39,13.58,4.33l0.11-0.72c-4.08-0.89-9.2-2.48-13.34-4.27c-2.07-0.89-2.14-2.98-2.37-5.72
						c-0.24-2.73-0.59-9.67-0.59-9.67L13.08,23.45z"/>
					<path class="st11" d="M13.13,23.44c0.04,0.82,0.37,7.1,0.59,9.64c0,0.04,0.04,0.44,0.04,0.48c0.22,2.59,0.41,4.76,2.65,5.73
						c4.03,1.73,9.28,3.39,13.56,4.32l0.16-0.72c-4.08-0.89-9.2-2.49-13.34-4.26c-2.07-0.89-2.13-2.97-2.37-5.7
						c-0.24-2.73-0.59-9.68-0.59-9.68L13.13,23.44z"/>
					<path class="st12" d="M13.19,23.43c0.04,0.74,0.37,7.09,0.59,9.64c0.01,0.06,0.04,0.43,0.04,0.49c0.21,2.57,0.4,4.72,2.62,5.68
						c4.04,1.74,9.28,3.39,13.54,4.32l0.21-0.71c-4.08-0.89-9.19-2.48-13.34-4.27c-2.07-0.89-2.13-2.94-2.37-5.67
						c-0.23-2.73-0.59-9.68-0.59-9.68L13.19,23.43z"/>
					<path class="st13" d="M13.24,23.42c0.03,0.67,0.37,7.07,0.59,9.65c0.01,0.07,0.04,0.43,0.04,0.5c0.22,2.56,0.41,4.69,2.59,5.62
						c4.05,1.74,9.27,3.39,13.51,4.31l0.27-0.71c-4.08-0.89-9.19-2.48-13.34-4.26c-2.07-0.89-2.14-2.93-2.37-5.66
						c-0.24-2.73-0.59-9.67-0.59-9.67L13.24,23.42z"/>
					<path class="st14" d="M13.29,23.41c0.03,0.58,0.37,7.06,0.6,9.65c0.01,0.09,0.04,0.42,0.05,0.51c0.21,2.55,0.4,4.65,2.55,5.57
						c4.06,1.75,9.27,3.39,13.49,4.3l0.32-0.7c-4.08-0.89-9.2-2.48-13.34-4.27c-2.07-0.89-2.14-2.9-2.38-5.63
						c-0.24-2.73-0.59-9.67-0.59-9.67L13.29,23.41z"/>
					<path class="st15" d="M13.35,23.41c0.02,0.5,0.36,7.04,0.6,9.66c0.01,0.1,0.03,0.42,0.04,0.52c0.22,2.53,0.4,4.6,2.52,5.51
						c4.08,1.76,9.27,3.39,13.47,4.3l0.37-0.7c-4.08-0.89-9.2-2.48-13.34-4.26c-2.07-0.89-2.14-2.89-2.38-5.61
						c-0.24-2.73-0.59-9.67-0.59-9.67L13.35,23.41z"/>
					<path class="st16" d="M13.4,23.4c0.02,0.41,0.37,7.03,0.6,9.66c0.01,0.12,0.03,0.41,0.04,0.52c0.21,2.52,0.4,4.57,2.48,5.46
						c4.08,1.76,9.27,3.38,13.45,4.29l0.43-0.69c-4.08-0.89-9.2-2.48-13.34-4.26c-2.07-0.89-2.14-2.86-2.38-5.59
						c-0.24-2.73-0.59-9.67-0.59-9.67L13.4,23.4z"/>
					<path class="st17" d="M13.46,23.39c0.02,0.33,0.36,7.01,0.59,9.66c0.01,0.14,0.04,0.4,0.04,0.53c0.21,2.51,0.4,4.53,2.46,5.41
						c4.09,1.76,9.26,3.38,13.43,4.29l0.48-0.69c-4.08-0.89-9.2-2.49-13.34-4.26c-2.07-0.89-2.14-2.84-2.38-5.57
						c-0.24-2.73-0.59-9.67-0.59-9.67L13.46,23.39z"/>
					<path class="st18" d="M13.51,23.38c0.01,0.25,0.36,6.99,0.59,9.66c0.01,0.15,0.03,0.4,0.04,0.54c0.21,2.5,0.4,4.49,2.42,5.35
						c4.11,1.77,9.26,3.38,13.41,4.28l0.53-0.68c-4.08-0.89-9.19-2.48-13.34-4.26c-2.07-0.89-2.14-2.82-2.38-5.55
						c-0.24-2.73-0.59-9.67-0.59-9.67L13.51,23.38z"/>
					<path class="st19" d="M13.57,23.37c0.01,0.17,0.36,6.98,0.59,9.67c0.01,0.16,0.03,0.39,0.05,0.55c0.21,2.48,0.4,4.44,2.38,5.3
						c4.12,1.77,9.26,3.38,13.39,4.28l0.59-0.68c-4.08-0.89-9.2-2.48-13.34-4.26c-2.07-0.89-2.14-2.79-2.38-5.53
						c-0.24-2.73-0.59-9.67-0.59-9.67L13.57,23.37z"/>
					<path class="st20" d="M13.62,23.37c0,0.08,0.36,6.96,0.59,9.67c0.02,0.17,0.03,0.38,0.05,0.56c0.21,2.47,0.39,4.4,2.35,5.24
						c4.13,1.78,9.26,3.38,13.36,4.27l0.64-0.67c-4.08-0.89-9.2-2.49-13.34-4.26c-2.07-0.9-2.14-2.78-2.38-5.51
						c-0.23-2.73-0.59-9.67-0.59-9.67L13.62,23.37z"/>
				</g>
				<path class="st21" d="M30.67,42.38c-4.08-0.89-9.19-2.48-13.34-4.26c-2.07-0.89-2.14-2.76-2.38-5.49
					c-0.24-2.73-0.59-9.68-0.59-9.68l-0.69,0.4c0,0,0.36,6.95,0.59,9.68c0.02,0.19,0.03,0.38,0.05,0.57
					c0.21,2.46,0.4,4.36,2.32,5.19c4.14,1.78,9.26,3.38,13.34,4.26L30.67,42.38z"/>
			</g>
		</g>
	</g>
	<path class="st23" d="M29.99,16.03l-19.2,2.14l-0.04,0l0.02,0.04l2.9,5.16l0-0.02c0,0.07,0.36,6.98,0.59,9.68l0.04,0.46
		c0.21,2.5,0.38,4.48,2.35,5.33c3.95,1.7,9.06,3.33,13.34,4.27h0.01h0.01c4.28-0.94,9.39-2.57,13.34-4.27
		c1.97-0.84,2.14-2.82,2.35-5.33l0.04-0.46c0.24-2.7,0.59-9.6,0.6-9.68l0,0.02l2.9-5.16l0.02-0.04l-0.04,0L29.99,16.03L29.99,16.03
		L29.99,16.03z M49.16,18.18l-2.9,5.16l0,0.01v0.01c0,0.07-0.36,6.98-0.59,9.68l-0.04,0.46c-0.21,2.48-0.37,4.44-2.31,5.28
		c-3.95,1.7-9.06,3.33-13.34,4.26h0.01c-4.28-0.93-9.39-2.56-13.34-4.26c-1.94-0.83-2.1-2.79-2.31-5.28l-0.04-0.46
		c-0.23-2.7-0.59-9.6-0.59-9.68v-0.01l0-0.01l-2.9-5.16l-0.02,0.04l19.2-2.14h-0.01l19.2,2.14L49.16,18.18z"/>
	<path class="st24" d="M22.35,2.89C11.46,6.08,2.04,14.2,2.04,27.91c0,14.1,12.11,26.12,27.96,26.94l0,2.76
		C16.06,57.6,0,46.16,0,28.65C0,13.6,9.33,6.01,20.46,2.42c0.14-0.03,0.29-0.02,0.41,0.01C21.35,2.52,21.84,2.63,22.35,2.89"/>
	<g>
		<defs>
			<path id="SVGID_12_" d="M22.35,2.89C11.46,6.08,2.04,14.2,2.04,27.91c0,14.1,12.11,26.12,27.96,26.94l-0.01,2.76
				C16.05,57.6,0,46.16,0,28.65C0,13.6,9.33,6.01,20.46,2.42c0.14-0.03,0.29-0.02,0.41,0.01C21.35,2.52,21.84,2.63,22.35,2.89"/>
		</defs>
		<clipPath id="SVGID_13_">
			<use xlink:href="#SVGID_12_"  style="overflow:visible;"/>
		</clipPath>
		<path class="st25" d="M30.01,58.47c-17.88,0-30.74-15.22-30.74-29.67c0-5.32,3.66-17.19,11.72-17.19
			c-1.67,1.67-6.31,7.23-6.31,15.18c0,10.92,7.38,22.79,25.32,24.6C34.77,51.86,38.99,58.47,30.01,58.47z"/>
		<g class="st26">
			<path class="st27" d="M29.83,51.41c4.04,0.38,7.47,5.05,3.26,6.47c-0.82,0.28-1.92,0.44-3.36,0.43
				C12.79,58.18,0.49,44.5-0.55,30.68c-0.05-0.64-0.07-1.28-0.07-1.91c0.02-4.31,2.34-12.44,7.16-15.64
				c1.25-0.81,2.68-1.27,4.3-1.22c-1.34,1.42-4.54,5.3-5.71,10.83C4.85,24.07,4.69,25.5,4.7,27C4.77,37.94,12.28,49.67,29.83,51.41z
				"/>
			<path class="st28" d="M29.67,51.45c4.09,0.37,7.33,4.99,3.13,6.33c-0.82,0.26-1.92,0.4-3.33,0.38
				C12.65,57.89,0.55,44.43-0.44,30.63c-0.05-0.63-0.07-1.27-0.07-1.89c0.03-4.42,2.39-12.4,7.12-15.49
				c1.19-0.74,2.54-1.13,4.07-1.03C9.36,13.71,6.24,17.58,5.13,23c-0.26,1.33-0.41,2.74-0.4,4.23
				C4.86,38.19,12.49,49.78,29.67,51.45z"/>
			<path class="st29" d="M29.52,51.49c4.12,0.35,7.2,4.93,2.99,6.17c-0.83,0.24-1.91,0.37-3.3,0.34
				C12.51,57.6,0.62,44.36-0.34,30.59c-0.04-0.63-0.06-1.26-0.06-1.88c0.05-4.52,2.45-12.35,7.08-15.34c1.12-0.67,2.4-1,3.85-0.84
				c-1.31,1.55-4.33,5.42-5.41,10.73c-0.26,1.32-0.4,2.72-0.38,4.19C4.96,38.43,12.72,49.89,29.52,51.49z"/>
			<path class="st30" d="M29.36,51.53c4.17,0.34,7.06,4.88,2.85,6.03c-0.83,0.22-1.91,0.33-3.28,0.3
				C12.38,57.3,0.68,44.3-0.23,30.54c-0.04-0.62-0.06-1.25-0.05-1.86c0.07-4.63,2.5-12.31,7.04-15.19c1.06-0.6,2.26-0.86,3.63-0.65
				c-1.29,1.61-4.23,5.48-5.26,10.68c-0.24,1.31-0.37,2.7-0.34,4.16C5.05,38.68,12.94,50,29.36,51.53z"/>
			<path class="st31" d="M29.2,51.57c4.21,0.33,6.92,4.82,2.71,5.88c-0.84,0.2-1.9,0.3-3.25,0.26C12.24,57.01,0.74,44.23-0.13,30.5
				c-0.04-0.62-0.06-1.23-0.06-1.85c0.08-4.73,2.57-12.26,7-15.03c0.99-0.53,2.12-0.73,3.41-0.47c-1.28,1.68-4.13,5.54-5.11,10.63
				c-0.23,1.3-0.35,2.68-0.32,4.12C5.14,38.92,13.16,50.11,29.2,51.57z"/>
			<path class="st32" d="M29.03,51.61c4.25,0.31,6.78,4.76,2.58,5.73c-0.84,0.18-1.9,0.27-3.22,0.21
				C12.1,56.72,0.81,44.16-0.02,30.46c-0.04-0.61-0.05-1.23-0.05-1.83c0.1-4.84,2.62-12.21,6.95-14.89
				c0.93-0.46,1.98-0.58,3.19-0.27c-1.26,1.74-4.03,5.6-4.96,10.58c-0.22,1.3-0.33,2.66-0.29,4.09
				C5.24,39.17,13.38,50.21,29.03,51.61z"/>
			<path class="st33" d="M28.87,51.65c4.29,0.29,6.64,4.7,2.44,5.58c-0.84,0.16-1.89,0.23-3.19,0.17
				C11.96,56.43,0.87,44.09,0.08,30.41c-0.04-0.61-0.05-1.21-0.04-1.82c0.12-4.95,2.68-12.17,6.91-14.74
				c0.87-0.39,1.85-0.45,2.97-0.08c-1.26,1.81-3.92,5.66-4.81,10.53C4.9,25.6,4.8,26.95,4.85,28.36
				C5.33,39.42,13.6,50.32,28.87,51.65z"/>
			<path class="st34" d="M28.71,51.68c4.34,0.28,6.51,4.65,2.31,5.43c-0.85,0.15-1.89,0.2-3.17,0.13
				C11.82,56.14,0.93,44.02,0.19,30.37c-0.04-0.6-0.05-1.2-0.04-1.8c0.13-5.05,2.73-12.12,6.87-14.58c0.8-0.32,1.71-0.31,2.75,0.1
				c-1.24,1.88-3.82,5.72-4.66,10.48c-0.2,1.28-0.29,2.62-0.24,4.02C5.43,39.66,13.82,50.43,28.71,51.68z"/>
			<path class="st35" d="M28.55,51.72c4.38,0.27,6.37,4.59,2.17,5.28c-0.85,0.13-1.88,0.17-3.14,0.09
				C11.69,55.85,1,43.96,0.29,30.33c-0.03-0.6-0.04-1.19-0.03-1.78c0.15-5.16,2.79-12.08,6.83-14.43c0.74-0.25,1.57-0.17,2.53,0.29
				c-1.23,1.94-3.72,5.78-4.51,10.43c-0.19,1.28-0.26,2.61-0.21,3.98C5.52,39.91,14.04,50.54,28.55,51.72z"/>
			<path class="st36" d="M28.39,51.76c4.42,0.25,6.23,4.53,2.03,5.13c-0.86,0.11-1.89,0.14-3.11,0.05
				C11.55,55.56,1.06,43.89,0.39,30.28c-0.03-0.59-0.04-1.18-0.03-1.76c0.17-5.27,2.85-12.04,6.79-14.29
				c0.67-0.18,1.43-0.04,2.31,0.48c-1.21,2-3.62,5.83-4.36,10.38c-0.18,1.27-0.25,2.58-0.18,3.95
				C5.61,40.15,14.26,50.65,28.39,51.76z"/>
			<path class="st37" d="M28.23,51.8c4.46,0.23,6.09,4.47,1.9,4.98c-0.86,0.09-1.88,0.1-3.09,0C11.41,55.27,1.12,43.82,0.5,30.24
				c-0.03-0.59-0.04-1.17-0.02-1.75c0.18-5.37,2.91-11.99,6.74-14.14c0.61-0.11,1.29,0.1,2.09,0.67c-1.2,2.07-3.51,5.89-4.21,10.33
				c-0.17,1.26-0.23,2.57-0.16,3.91C5.71,40.4,14.48,50.76,28.23,51.8z"/>
			<path class="st38" d="M28.07,51.84c4.51,0.22,5.96,4.42,1.76,4.83c-0.86,0.07-1.87,0.07-3.06-0.04
				C11.27,54.98,1.18,43.75,0.61,30.2c-0.03-0.58-0.03-1.16-0.02-1.73c0.2-5.48,2.97-11.95,6.7-13.98c0.55-0.04,1.15,0.23,1.86,0.86
				c-1.18,2.13-3.41,5.95-4.06,10.28c-0.15,1.25-0.21,2.55-0.13,3.88C5.8,40.65,14.7,50.86,28.07,51.84z"/>
			<path class="st39" d="M27.91,51.88c4.55,0.2,5.82,4.36,1.63,4.68c-0.87,0.05-1.87,0.03-3.03-0.08
				C11.13,54.69,1.25,43.68,0.71,30.15C0.69,29.57,0.68,29,0.7,28.43c0.22-5.58,3.02-11.9,6.66-13.83c0.48,0.02,1.02,0.37,1.64,1.05
				c-1.17,2.2-3.31,6.02-3.91,10.23c-0.15,1.25-0.19,2.53-0.1,3.85C5.9,40.89,14.92,50.97,27.91,51.88z"/>
			<path class="st40" d="M27.75,51.92c4.59,0.19,5.68,4.3,1.49,4.53c-0.87,0.03-1.87,0-3.01-0.12C11,54.4,1.31,43.61,0.81,30.11
				c-0.02-0.58-0.03-1.14-0.01-1.7c0.23-5.69,3.08-11.86,6.62-13.68c0.42,0.1,0.88,0.51,1.42,1.24c-1.16,2.27-3.2,6.07-3.76,10.18
				c-0.13,1.24-0.16,2.51-0.07,3.81C5.99,41.14,15.14,51.08,27.75,51.92z"/>
			<path class="st41" d="M27.59,51.95c4.63,0.17,5.54,4.24,1.35,4.38c-0.88,0.02-1.86-0.03-2.98-0.16
				C10.86,54.11,1.37,43.54,0.92,30.07c-0.02-0.57-0.02-1.13,0-1.69c0.24-5.8,3.14-11.81,6.57-13.54c0.35,0.17,0.74,0.65,1.2,1.43
				c-1.14,2.33-3.1,6.13-3.61,10.13c-0.12,1.23-0.14,2.49-0.04,3.77C6.09,41.38,15.36,51.19,27.59,51.95z"/>
			<path class="st42" d="M27.43,52c4.68,0.16,5.4,4.18,1.21,4.23c-0.88,0-1.86-0.06-2.95-0.21c-14.97-2.2-24.26-12.55-24.67-26
				c-0.02-0.56-0.02-1.12,0-1.67c0.27-5.9,3.2-11.77,6.53-13.38c0.29,0.24,0.6,0.78,0.98,1.61c-1.13,2.4-3,6.2-3.47,10.08
				c-0.11,1.23-0.12,2.47-0.01,3.74C6.18,41.63,15.58,51.3,27.43,52z"/>
			<path class="st43" d="M27.27,52.03c4.72,0.14,5.27,4.13,1.08,4.08c-0.88-0.03-1.85-0.1-2.92-0.25
				C10.59,53.53,1.5,43.41,1.13,29.98c-0.02-0.56-0.02-1.11,0-1.65c0.28-6,3.26-11.72,6.49-13.23c0.23,0.31,0.46,0.92,0.76,1.81
				c-1.11,2.46-2.9,6.25-3.31,10.03c-0.1,1.22-0.1,2.45,0.01,3.7C6.27,41.88,15.8,51.4,27.27,52.03z"/>
			<path class="st44" d="M27.11,52.07c4.76,0.12,5.13,4.07,0.94,3.94c-0.89-0.04-1.85-0.13-2.9-0.29
				C10.45,53.24,1.57,43.34,1.23,29.93c-0.02-0.56-0.01-1.1,0.01-1.64c0.3-6.11,3.31-11.67,6.45-13.08c0.16,0.38,0.32,1.06,0.54,2
				c-1.1,2.52-2.79,6.31-3.17,9.98c-0.08,1.21-0.07,2.43,0.04,3.67C6.37,42.12,16.02,51.52,27.11,52.07z"/>
			<path class="st45" d="M26.95,52.11c4.8,0.11,4.98,4.01,0.8,3.79c-0.89-0.06-1.84-0.17-2.87-0.33
				C10.31,52.94,1.63,43.27,1.34,29.89c-0.01-0.55-0.01-1.09,0.02-1.62c0.31-6.22,3.37-11.63,6.41-12.93
				c0.1,0.45,0.18,1.19,0.32,2.19C7,20.11,5.39,23.89,5.06,27.45c-0.08,1.2-0.06,2.42,0.07,3.63C6.46,42.37,16.24,51.62,26.95,52.11
				z"/>
			<path class="st46" d="M26.79,52.15c4.84,0.09,4.84,3.96,0.67,3.64c-0.9-0.08-1.84-0.2-2.85-0.38
				C10.18,52.66,1.69,43.2,1.44,29.85c-0.01-0.55,0-1.08,0.02-1.61c0.34-6.32,3.43-11.58,6.37-12.78c0.03,0.52,0.04,1.33,0.1,2.37
				c-1.07,2.66-2.58,6.43-2.86,9.88c-0.07,1.2-0.03,2.4,0.1,3.6C6.55,42.62,16.46,51.73,26.79,52.15z"/>
			<path class="st47" d="M26.63,52.19c4.89,0.08,4.71,3.9,0.53,3.49c-0.9-0.1-1.84-0.23-2.82-0.42C10.04,52.36,1.75,43.13,1.55,29.8
				c-0.01-0.54,0-1.07,0.02-1.59c0.35-6.43,3.48-11.54,6.32-12.63c-0.03,0.59-0.1,1.47-0.12,2.56c-1.06,2.72-2.48,6.49-2.72,9.83
				C5,29.16,5.04,30.35,5.19,31.53C6.65,42.86,16.68,51.84,26.63,52.19z"/>
			<path class="st48" d="M26.47,52.23c4.93,0.06,4.57,3.84,0.39,3.34c-0.9-0.12-1.83-0.27-2.79-0.46
				C9.9,52.07,1.82,43.06,1.65,29.76c-0.01-0.54,0-1.06,0.03-1.58c0.36-6.54,3.54-11.49,6.29-12.48c-0.1,0.66-0.24,1.6-0.35,2.75
				C6.58,21.24,5.24,25,5.05,28.23c-0.04,1.18,0.01,2.36,0.16,3.52C6.74,43.1,16.9,51.95,26.47,52.23z"/>
			<path class="st49" d="M26.31,52.27c4.97,0.04,4.43,3.78,0.26,3.19c-0.91-0.14-1.83-0.3-2.76-0.5
				C9.76,51.79,1.88,42.99,1.76,29.71c-0.01-0.53,0-1.05,0.03-1.56c0.38-6.64,3.6-11.44,6.24-12.33c-0.16,0.73-0.37,1.74-0.56,2.94
				c-1.03,2.85-2.28,6.61-2.42,9.73c-0.04,1.18,0.03,2.34,0.19,3.49C6.84,43.35,17.12,52.05,26.31,52.27z"/>
			<path class="st50" d="M26.15,52.3c5.01,0.03,4.3,3.72,0.12,3.04c-0.91-0.15-1.82-0.33-2.73-0.54
				C9.63,51.49,1.95,42.93,1.86,29.67c0-0.52,0.01-1.04,0.04-1.54c0.4-6.75,3.66-11.4,6.2-12.18c-0.22,0.8-0.51,1.88-0.78,3.13
				c-1.01,2.92-2.18,6.67-2.27,9.68c-0.02,1.17,0.05,2.32,0.21,3.45C6.93,43.6,17.34,52.16,26.15,52.3z"/>
			<path class="st51" d="M25.99,52.34c5.05,0.02,4.16,3.67-0.02,2.89c-0.91-0.17-1.82-0.37-2.71-0.59
				C9.49,51.2,2.01,42.86,1.97,29.63c-0.01-0.52,0.01-1.03,0.04-1.53c0.41-6.86,3.71-11.36,6.16-12.03
				c-0.28,0.86-0.65,2.01-1.01,3.32c-1,2.98-2.07,6.73-2.12,9.63c-0.01,1.16,0.07,2.31,0.24,3.42
				C7.02,43.84,17.56,52.27,25.99,52.34z"/>
		</g>
		<path class="st52" d="M25.68,55.12c-15.37-3.2-23.6-11.49-23.6-25.54c0-7.84,3.65-12.78,6.16-13.39c-1.14,3.04-3.2,9.05-3.2,13.09
			c0,13.13,11.96,23.1,20.79,23.1C30.92,52.38,29.85,55.99,25.68,55.12z"/>
	</g>
	
		<linearGradient id="SVGID_14_" gradientUnits="userSpaceOnUse" x1="516.2471" y1="-355.3113" x2="340.1755" y2="230.3586" gradientTransform="matrix(0.0726 0 0 0.0728 11.1847 34.6512)">
		<stop  offset="0" style="stop-color:#4B616C"/>
		<stop  offset="0.27" style="stop-color:#4B616C"/>
		<stop  offset="0.51" style="stop-color:#B9CADE"/>
		<stop  offset="0.91" style="stop-color:#B9CADE"/>
		<stop  offset="1" style="stop-color:#819EC0"/>
	</linearGradient>
	<path class="st53" d="M36.5,3.72c-0.01,0.01-0.02,0.03-0.03,0.04l-0.05,0.12c8.9,2.78,18.89,10.57,18.89,22.89
		c0,10.7-7.45,23.07-25.32,24.61l0,0.71c17.88-1.54,25.9-14.42,25.9-24.93C55.9,14.85,47.09,6.51,36.5,3.72z"/>
	<path class="st54" d="M37.63,2.89C48.52,6.07,57.97,14.2,57.97,27.91c0,14.1-12.12,26.12-27.98,26.94l0,2.76
		c13.94,0,29.99-11.45,29.99-28.96c0-15.05-9.34-22.64-20.47-26.23c-0.14-0.03-0.32-0.01-0.45,0.01c-0.21,0.03-0.49,0.09-0.81,0.19
		C38.05,2.69,37.78,2.81,37.63,2.89"/>
	
		<linearGradient id="SVGID_15_" gradientUnits="userSpaceOnUse" x1="407.8279" y1="-41.2547" x2="336.6933" y2="-348.2553" gradientTransform="matrix(0.0934 0 0 0.0934 12.8244 33.9554)">
		<stop  offset="0" style="stop-color:#B2CBEA"/>
		<stop  offset="1" style="stop-color:#7E9DC2"/>
	</linearGradient>
	<path class="st55" d="M36.5,3.72c10.59,2.79,19.4,11.13,19.4,23.44l2.07,0.75c0-13.71-9.45-21.84-20.34-25.02
		C37.12,3.12,36.72,3.47,36.5,3.72z"/>
	
		<linearGradient id="SVGID_16_" gradientUnits="userSpaceOnUse" x1="1208.0314" y1="748.4001" x2="725.8591" y2="112.0299" gradientTransform="matrix(0.0726 0 0 0.0728 -7.6225 34.6566)">
		<stop  offset="0" style="stop-color:#FFFFFF"/>
		<stop  offset="0.92" style="stop-color:#FFFFFF"/>
		<stop  offset="0.9296" style="stop-color:#ECF2FA"/>
		<stop  offset="0.9458" style="stop-color:#D3E1F3"/>
		<stop  offset="0.9626" style="stop-color:#C0D5EE"/>
		<stop  offset="0.9803" style="stop-color:#B6CDEB"/>
		<stop  offset="1" style="stop-color:#B2CBEA"/>
	</linearGradient>
	<path class="st56" d="M57.97,27.91c0,14.1-12.11,26.12-27.96,26.94v-2.76C47.88,50.55,55.9,37.67,55.9,27.16L57.97,27.91z"/>
	
		<linearGradient id="SVGID_17_" gradientUnits="userSpaceOnUse" x1="-36.6771" y1="-294.083" x2="188.2716" y2="222.0536" gradientTransform="matrix(0.0934 0 0 0.0934 11.5182 35.1356)">
		<stop  offset="0" style="stop-color:#7091B3"/>
		<stop  offset="0.48" style="stop-color:#8AADD7"/>
		<stop  offset="0.94" style="stop-color:#CBDEF2"/>
		<stop  offset="1" style="stop-color:#EEF2F9"/>
	</linearGradient>
	<path class="st57" d="M23.49,3.72C12.9,6.52,4.08,14.86,4.08,27.16c0,10.51,8.04,23.38,25.91,24.93v2.76
		C14.15,54.03,2.04,42.01,2.04,27.91c0-13.71,9.42-21.83,20.31-25.01C22.75,3.08,23.25,3.44,23.49,3.72"/>
	
		<linearGradient id="SVGID_18_" gradientUnits="userSpaceOnUse" x1="42.8279" y1="-412.451" x2="92.942" y2="231.7551" gradientTransform="matrix(0.0726 0 0 0.0728 11.211 34.6566)">
		<stop  offset="0" style="stop-color:#4B616C"/>
		<stop  offset="0.91" style="stop-color:#97B1D1"/>
		<stop  offset="1" style="stop-color:#81A1C7"/>
	</linearGradient>
	<path class="st58" d="M4.68,26.78c0-12.32,9.98-20.11,18.88-22.89l-0.05-0.12c-0.01-0.02-0.02-0.03-0.02-0.04
		C12.9,6.52,4.08,14.86,4.08,27.16c0,10.51,8.04,23.38,25.91,24.93l0-0.71C12.13,49.84,4.68,37.28,4.68,26.78z"/>
	<g>
		<defs>
			<path id="SVGID_19_" d="M30.01,52.09l0,2.76c0,0-0.01,0-0.01,0l0,2.76c13.94,0,29.99-11.45,29.99-28.96
				c0-15.05-9.34-22.64-20.47-26.23c-0.14-0.03-0.32-0.01-0.45,0.01c-0.21,0.03-0.49,0.09-0.81,0.19c-0.22,0.08-0.49,0.19-0.64,0.27
				c-0.51,0.24-0.92,0.59-1.13,0.83c-0.01,0.01-0.02,0.03-0.03,0.04l-0.05,0.12c8.9,2.78,18.89,10.57,18.89,22.89
				c0,10.7-7.45,23.07-25.32,24.61L30.01,52.09z"/>
		</defs>
		<clipPath id="SVGID_20_">
			<use xlink:href="#SVGID_19_"  style="overflow:visible;"/>
		</clipPath>
		<path class="st59" d="M36.49,3.74c2.66,0.7,5.17,1.74,7.47,3.1c2.37,1.4,4.45,3.09,6.18,5.04c1.83,2.04,3.24,4.34,4.2,6.82
			c1.03,2.64,1.55,5.49,1.55,8.46c0,2.67-0.53,5.47-1.53,8.1c-1.08,2.83-2.67,5.43-4.71,7.71c-2.23,2.49-4.94,4.52-8.06,6.03
			c-3.43,1.67-7.32,2.7-11.58,3.07l0,0.04c4.26-0.37,8.16-1.4,11.6-3.07c3.12-1.52,5.84-3.55,8.07-6.04
			c2.05-2.29,3.63-4.88,4.72-7.73c1.01-2.64,1.54-5.45,1.54-8.12c0-2.98-0.52-5.83-1.55-8.48c-0.97-2.49-2.38-4.79-4.2-6.84
			c-1.74-1.95-3.82-3.65-6.19-5.05c-2.29-1.35-4.8-2.39-7.45-3.1C36.51,3.69,36.48,3.73,36.49,3.74z"/>
	</g>
	<g>
		<defs>
			<path id="SVGID_21_" d="M37.65,2.89c10.89,3.18,20.31,11.3,20.31,25.01c0,14.1-12.11,26.12-27.96,26.94l0,2.76
				C43.93,57.6,60,46.16,60,28.65C60,13.6,50.67,6.01,39.54,2.42c-0.14-0.03-0.29-0.02-0.41,0.01C38.65,2.52,38.16,2.63,37.65,2.89"
				/>
		</defs>
		<clipPath id="SVGID_22_">
			<use xlink:href="#SVGID_21_"  style="overflow:visible;"/>
		</clipPath>
		<path class="st60" d="M29.75,59.02c17.88,0,30.98-15.77,30.98-30.23c0-5.32-3.65-17.19-11.72-17.19
			c1.67,1.67,6.31,7.23,6.31,15.18c0,10.92-7.38,22.79-25.32,24.6C25.23,51.86,20.77,59.02,29.75,59.02z"/>
		<g class="st61">
			<path class="st62" d="M29.89,58.87c17.76-0.15,30.64-15.59,30.64-30.03c0-5.45-3.65-16.99-11.46-17.01
				c1.65,1.74,6.17,7.31,6.17,15.08c0,11.03-7.6,22.81-25.11,24.53C25.35,51.9,20.99,58.95,29.89,58.87z"/>
			<path class="st63" d="M30.03,58.73c17.64-0.3,30.3-15.42,30.3-29.83c0-5.57-3.65-16.78-11.19-16.83c1.63,1.8,6.02,7.4,6.02,14.98
				c0,11.13-7.82,22.82-24.89,24.46C25.46,51.94,21.22,58.87,30.03,58.73z"/>
			<path class="st64" d="M30.16,58.59c17.52-0.45,29.97-15.24,29.97-29.63c0-5.69-3.66-16.57-10.93-16.66
				c1.6,1.87,5.87,7.49,5.87,14.88c0,11.24-8.04,22.83-24.67,24.39C25.58,51.98,21.44,58.8,30.16,58.59z"/>
			<path class="st65" d="M30.3,58.44c17.4-0.6,29.63-15.06,29.63-29.44c0-5.8-3.65-16.35-10.66-16.47
				c1.57,1.94,5.72,7.57,5.72,14.78c0,11.34-8.25,22.85-24.46,24.31C25.7,52.02,21.67,58.72,30.3,58.44z"/>
			<path class="st66" d="M30.45,58.3c17.28-0.75,29.28-14.88,29.28-29.24c0-5.92-3.65-16.14-10.4-16.29c1.55,2,5.57,7.66,5.57,14.68
				c0,11.44-8.47,22.86-24.24,24.24C25.81,52.06,21.89,58.65,30.45,58.3z"/>
			<path class="st67" d="M30.58,58.15c17.16-0.9,28.95-14.7,28.95-29.05c0-6.04-3.65-15.93-10.13-16.11
				c1.52,2.07,5.42,7.75,5.42,14.58c0,11.55-8.69,22.88-24.02,24.17C25.93,52.1,22.12,58.57,30.58,58.15z"/>
			<path class="st68" d="M30.72,58.01c17.05-1.05,28.6-14.53,28.6-28.85c0-6.16-3.65-15.73-9.87-15.93
				c1.5,2.13,5.28,7.84,5.28,14.48c0,11.66-8.91,22.89-23.81,24.1C26.05,52.13,22.35,58.5,30.72,58.01z"/>
			<path class="st69" d="M30.87,57.87c16.93-1.21,28.26-14.35,28.26-28.65c0-6.28-3.65-15.51-9.6-15.75
				c1.47,2.19,5.13,7.92,5.13,14.38c0,11.76-9.13,22.91-23.59,24.02C26.16,52.17,22.57,58.43,30.87,57.87z"/>
			<path class="st70" d="M31,57.72c16.81-1.35,27.92-14.17,27.92-28.45c0-6.4-3.65-15.31-9.34-15.57c1.45,2.26,4.98,8.01,4.98,14.28
				c0,11.86-9.35,22.92-23.38,23.96C26.28,52.21,22.8,58.35,31,57.72z"/>
			<path class="st71" d="M31.15,57.58c16.69-1.5,27.58-14,27.58-28.26c0-6.52-3.65-15.09-9.07-15.38c1.42,2.33,4.83,8.1,4.83,14.18
				c0,11.97-9.57,22.94-23.17,23.89C26.39,52.26,23.02,58.28,31.15,57.58z"/>
			<path class="st72" d="M31.28,57.43c16.57-1.66,27.25-13.82,27.25-28.06c0-6.64-3.65-14.88-8.81-15.2
				c1.4,2.39,4.68,8.18,4.68,14.08c0,12.08-9.78,22.95-22.95,23.81C26.51,52.29,23.25,58.2,31.28,57.43z"/>
			<path class="st73" d="M31.43,57.29c16.45-1.81,26.91-13.64,26.91-27.86c0-6.76-3.65-14.68-8.55-15.02
				c1.37,2.46,4.53,8.27,4.53,13.98c0,12.18-10,22.97-22.73,23.74C26.63,52.34,23.48,58.13,31.43,57.29z"/>
			<path class="st74" d="M31.56,57.14c16.34-1.96,26.57-13.46,26.57-27.66c0-6.88-3.65-14.46-8.28-14.84
				c1.35,2.52,4.39,8.36,4.39,13.89c0,12.29-10.22,22.98-22.51,23.67C26.74,52.38,23.7,58.06,31.56,57.14z"/>
			<path class="st75" d="M31.71,57c16.21-2.11,26.22-13.29,26.22-27.47c0-7-3.65-14.25-8.02-14.66c1.32,2.59,4.24,8.44,4.24,13.78
				c0,12.4-10.44,23-22.3,23.6C26.86,52.42,23.93,57.98,31.71,57z"/>
			<path class="st76" d="M31.85,56.86c16.09-2.26,25.88-13.11,25.88-27.27c0-7.12-3.65-14.04-7.75-14.48
				c1.3,2.65,4.09,8.53,4.09,13.68c0,12.5-10.66,23.01-22.08,23.53C26.98,52.45,24.15,57.91,31.85,56.86z"/>
			<path class="st77" d="M31.98,56.71c15.97-2.41,25.55-12.93,25.55-27.08c0-7.24-3.65-13.83-7.49-14.29
				c1.27,2.72,3.94,8.61,3.94,13.58c0,12.6-10.87,23.02-21.87,23.45C27.09,52.49,24.38,57.83,31.98,56.71z"/>
			<path class="st78" d="M32.12,56.57c15.85-2.56,25.2-12.76,25.2-26.88c0-7.36-3.65-13.62-7.22-14.11
				c1.24,2.78,3.79,8.7,3.79,13.48c0,12.71-11.09,23.04-21.65,23.39C27.21,52.53,24.6,57.76,32.12,56.57z"/>
			<path class="st79" d="M32.27,56.42C48,53.71,57.13,43.84,57.13,29.74c0-7.48-3.65-13.41-6.96-13.94
				c1.22,2.85,3.64,8.79,3.64,13.39c0,12.82-11.31,23.05-21.44,23.31C27.33,52.57,24.83,57.69,32.27,56.42z"/>
			<path class="st80" d="M32.4,56.28c15.61-2.86,24.53-12.4,24.53-26.48c0-7.6-3.65-13.2-6.69-13.75c1.19,2.91,3.49,8.88,3.49,13.29
				c0,12.92-11.53,23.07-21.22,23.25C27.44,52.62,25.06,57.62,32.4,56.28z"/>
			<path class="st81" d="M32.55,56.13c15.49-3.01,24.19-12.22,24.19-26.28c0-7.72-3.65-12.99-6.43-13.57
				c1.17,2.98,3.34,8.97,3.34,13.19c0,13.03-11.75,23.08-21,23.17C27.56,52.66,25.28,57.54,32.55,56.13z"/>
		</g>
		<path class="st82" d="M32.68,55.99c15.38-3.16,23.85-12.04,23.85-26.09c0-7.84-3.65-12.78-6.17-13.39
			c1.14,3.04,3.19,9.06,3.19,13.09c0,13.13-11.96,23.1-20.79,23.1C27.68,52.69,25.5,57.47,32.68,55.99z"/>
		<path class="st83" d="M29.99,57.65c3.77,0,7.74-0.84,11.5-2.44c3.83-1.62,7.37-4,10.25-6.88c2.58-2.58,4.6-5.51,6.01-8.7
			c1.52-3.45,2.29-7.14,2.29-10.98c0-3.63-0.55-6.97-1.64-9.96c-1.01-2.77-2.5-5.29-4.43-7.48c-3.42-3.87-8.27-6.85-14.43-8.83l0,0
			c-0.02-0.01-0.05,0.01-0.05,0.03c-0.01,0.02,0,0.05,0.03,0.05l0,0c6.15,1.98,10.99,4.95,14.39,8.8c1.93,2.19,3.41,4.7,4.42,7.46
			c1.08,2.97,1.63,6.32,1.63,9.93c0,4.18-0.92,8.18-2.72,11.89c-1.67,3.42-4.04,6.49-7.04,9.12c-2.81,2.46-6.14,4.48-9.65,5.84
			c-3.47,1.35-7.12,2.06-10.55,2.06l0,0c-0.03,0-0.04,0.02-0.04,0.04C29.95,57.63,29.97,57.65,29.99,57.65L29.99,57.65z"/>
	</g>
	<path class="st84" d="M23.48,3.7c-2.68,0.71-5.2,1.75-7.5,3.11c-2.37,1.4-4.45,3.1-6.18,5.05c-1.82,2.05-3.23,4.34-4.19,6.83
		c-1.03,2.64-1.55,5.49-1.55,8.47c0,2.68,0.53,5.49,1.54,8.12c1.08,2.84,2.67,5.44,4.73,7.72c4.72,5.25,11.53,8.41,19.68,9.11
		l0-0.06c-8.14-0.7-14.93-3.84-19.64-9.09c-2.05-2.28-3.64-4.87-4.72-7.7c-1.01-2.63-1.53-5.43-1.53-8.1c0-2.97,0.52-5.82,1.54-8.45
		c0.96-2.48,2.37-4.78,4.18-6.82c1.73-1.95,3.8-3.64,6.16-5.04c2.3-1.36,4.83-2.4,7.51-3.11L23.48,3.7z"/>
	<path class="st85" d="M38.13,4.06c2.77,0.04,4.47,0.46,7.22,2.16C42.56,6.13,40.18,4.94,38.13,4.06z"/>
	
		<linearGradient id="SVGID_23_" gradientUnits="userSpaceOnUse" x1="328.2126" y1="-610.7988" x2="337.8362" y2="-600.5642" gradientTransform="matrix(0.0934 0 0 0.0934 11.5182 62.6517)">
		<stop  offset="0" style="stop-color:#2A383D"/>
		<stop  offset="1" style="stop-color:#8293A3"/>
	</linearGradient>
	<path class="st86" d="M45.35,6.23c-2.75-1.71-4.45-2.12-7.22-2.16C40.95,4.68,42.79,5.24,45.35,6.23z"/>
	
		<linearGradient id="SVGID_24_" gradientUnits="userSpaceOnUse" x1="306.1906" y1="-345.9988" x2="401.1224" y2="-291.4035" gradientTransform="matrix(0.0934 0 0 0.0934 11.5182 35.1356)">
		<stop  offset="0" style="stop-color:#7091B3"/>
		<stop  offset="0.48" style="stop-color:#8AADD7"/>
		<stop  offset="0.94" style="stop-color:#CBDEF2"/>
		<stop  offset="1" style="stop-color:#EEF2F9"/>
	</linearGradient>
	<path class="st87" d="M45.55,4.91c0.97,1.72,2.76,3.37,4.91,4.93C49.57,7.69,49.16,6.78,45.55,4.91z"/>
	
		<linearGradient id="SVGID_25_" gradientUnits="userSpaceOnUse" x1="366.8106" y1="-18.4654" x2="419.4109" y2="34.2893" gradientTransform="matrix(0.0934 0 0 0.0934 11.5182 6.9354)">
		<stop  offset="0" style="stop-color:#2A383D"/>
		<stop  offset="1" style="stop-color:#8293A3"/>
	</linearGradient>
	<path class="st88" d="M50.46,9.84c-1.41-1.75-2.89-3.52-4.91-4.93C46.52,6.63,48.31,8.28,50.46,9.84z"/>
	
		<linearGradient id="SVGID_26_" gradientUnits="userSpaceOnUse" x1="476.6422" y1="-222.9528" x2="426.9398" y2="-249.026" gradientTransform="matrix(0.0934 0 0 0.0934 11.5182 35.1356)">
		<stop  offset="0" style="stop-color:#8DA9C8"/>
		<stop  offset="1" style="stop-color:#E6EDF8"/>
	</linearGradient>
	<path class="st89" d="M48.33,9.9c2.29,0.62,3.44,1.07,5.28,3.78C50.9,12.57,50.37,12.06,48.33,9.9z"/>
	
		<linearGradient id="SVGID_27_" gradientUnits="userSpaceOnUse" x1="427.6952" y1="-529.3927" x2="419.7524" y2="-551.9994" gradientTransform="matrix(0.0934 0 0 0.0934 11.5182 62.6517)">
		<stop  offset="0" style="stop-color:#2A383D"/>
		<stop  offset="1" style="stop-color:#8293A3"/>
	</linearGradient>
	<path class="st90" d="M48.33,9.9c1.51,0.78,3.44,2.11,5.28,3.78C51.76,10.96,50.61,10.52,48.33,9.9z"/>
	
		<linearGradient id="SVGID_28_" gradientUnits="userSpaceOnUse" x1="461.3818" y1="-541.9078" x2="465.0483" y2="-522.3533" gradientTransform="matrix(0.0934 0 0 0.0934 11.5182 62.6517)">
		<stop  offset="0" style="stop-color:#8DA9C8"/>
		<stop  offset="1" style="stop-color:#E6EDF8"/>
	</linearGradient>
	<path class="st91" d="M53.54,10.96c0.24,2.27,1.2,4.63,2.71,6.9C56.21,15.55,56.43,13.68,53.54,10.96z"/>
	
		<linearGradient id="SVGID_29_" gradientUnits="userSpaceOnUse" x1="463.593" y1="-453.8228" x2="469.7079" y2="-462.9951" gradientTransform="matrix(0.0934 0 0 0.0934 11.5182 62.6517)">
		<stop  offset="0" style="stop-color:#8DA9C8"/>
		<stop  offset="1" style="stop-color:#E6EDF8"/>
	</linearGradient>
	<path class="st92" d="M53.4,16.23c2.49,1.87,3.55,3.41,3.99,6.33C55.96,21.04,54.79,19.81,53.4,16.23z"/>
	
		<linearGradient id="SVGID_30_" gradientUnits="userSpaceOnUse" x1="468.3966" y1="-472.3141" x2="471.1478" y2="-453.9739" gradientTransform="matrix(0.0934 0 0 0.0934 11.5182 62.6517)">
		<stop  offset="0" style="stop-color:#2A383D"/>
		<stop  offset="1" style="stop-color:#8293A3"/>
	</linearGradient>
	<path class="st93" d="M53.4,16.23c1.91,2.22,2.93,3.92,3.99,6.33C56.95,19.65,55.9,18.1,53.4,16.23z"/>
	
		<linearGradient id="SVGID_31_" gradientUnits="userSpaceOnUse" x1="498.1785" y1="-55.6077" x2="506.1973" y2="-97.3778" gradientTransform="matrix(0.0934 0 0 0.0934 11.5182 35.1356)">
		<stop  offset="0" style="stop-color:#8DA9C8"/>
		<stop  offset="1" style="stop-color:#E6EDF8"/>
	</linearGradient>
	<path class="st94" d="M59.11,21.65c-0.38,1.56-0.8,1.96-0.93,3.16c-0.13,1.2-0.09,3.41-0.15,4.92
		C58.8,28.12,60.71,26.55,59.11,21.65z"/>
	
		<linearGradient id="SVGID_32_" gradientUnits="userSpaceOnUse" x1="512.638" y1="-395.482" x2="503.0853" y2="-395.8004" gradientTransform="matrix(0.0934 0 0 0.0934 11.5182 62.6517)">
		<stop  offset="0" style="stop-color:#2A383D"/>
		<stop  offset="1" style="stop-color:#8293A3"/>
	</linearGradient>
	<path class="st95" d="M58.18,24.81c-0.13,1.2-0.09,3.41-0.15,4.92c0.92-3.07,1.21-5.22,1.09-8.08
		C58.74,23.2,58.32,23.6,58.18,24.81z"/>
	
		<linearGradient id="SVGID_33_" gradientUnits="userSpaceOnUse" x1="485.2394" y1="308.5033" x2="480.2019" y2="225.2573" gradientTransform="matrix(0.0934 0 0 0.0934 11.5182 6.9354)">
		<stop  offset="0" style="stop-color:#8DA9C8"/>
		<stop  offset="1" style="stop-color:#E6EDF8"/>
	</linearGradient>
	<path class="st96" d="M56.14,27.62c0.67,2.16,2.13,4.11,0.46,8.03C56.52,33.8,55.21,32.64,56.14,27.62z"/>
	
		<linearGradient id="SVGID_34_" gradientUnits="userSpaceOnUse" x1="483.0108" y1="225.0955" x2="488.1724" y2="310.1542" gradientTransform="matrix(0.0934 0 0 0.0934 11.5182 6.9354)">
		<stop  offset="0" style="stop-color:#2A383D"/>
		<stop  offset="1" style="stop-color:#8293A3"/>
	</linearGradient>
	<path class="st97" d="M56.6,35.65c1.67-3.92,0.2-5.87-0.46-8.03C56.48,30.92,57.03,32.9,56.6,35.65z"/>
	
		<linearGradient id="SVGID_35_" gradientUnits="userSpaceOnUse" x1="454.5679" y1="61.4629" x2="491.2409" y2="26.9826" gradientTransform="matrix(0.0934 0 0 0.0934 11.5182 35.1356)">
		<stop  offset="0" style="stop-color:#8DA9C8"/>
		<stop  offset="1" style="stop-color:#E6EDF8"/>
	</linearGradient>
	<path class="st98" d="M59.29,34.62c-1.02,1.45-2.64,1.9-5.09,6.52C57.52,39.45,58.56,37.94,59.29,34.62z"/>
	
		<linearGradient id="SVGID_36_" gradientUnits="userSpaceOnUse" x1="505.1725" y1="-267.6156" x2="470.9541" y2="-263.6438" gradientTransform="matrix(0.0934 0 0 0.0934 11.5182 62.6517)">
		<stop  offset="0" style="stop-color:#2A383D"/>
		<stop  offset="1" style="stop-color:#8293A3"/>
	</linearGradient>
	<path class="st99" d="M54.21,41.14c2.64-2.46,4.01-4.06,5.09-6.52C58.27,36.07,56.65,36.52,54.21,41.14z"/>
	
		<linearGradient id="SVGID_37_" gradientUnits="userSpaceOnUse" x1="456.3471" y1="-236.8543" x2="446.0698" y2="-240.28" gradientTransform="matrix(0.0934 0 0 0.0934 11.5182 62.6517)">
		<stop  offset="0" style="stop-color:#8DA9C8"/>
		<stop  offset="1" style="stop-color:#E6EDF8"/>
	</linearGradient>
	<path class="st100" d="M54.08,36.4c-1.05,1.97-1.51,3.07-1.7,3.71c-0.19,0.64-0.31,3.25-0.43,3.8c1.48-1.68,1.7-2.88,1.85-3.54
		C53.95,39.7,54.16,37.87,54.08,36.4z"/>
	
		<linearGradient id="SVGID_38_" gradientUnits="userSpaceOnUse" x1="450.0891" y1="-239.1799" x2="442.7455" y2="-241.3218" gradientTransform="matrix(0.0934 0 0 0.0934 11.5182 62.6517)">
		<stop  offset="0" style="stop-color:#2A383D"/>
		<stop  offset="1" style="stop-color:#8293A3"/>
	</linearGradient>
	<path class="st101" d="M51.95,43.91c0.8-1.92,1.71-5.28,2.13-7.51c-1.05,1.97-1.51,3.07-1.7,3.71
		C52.2,40.72,52.08,43.36,51.95,43.91C51.95,43.91,51.95,43.91,51.95,43.91z"/>
	
		<linearGradient id="SVGID_39_" gradientUnits="userSpaceOnUse" x1="392.5483" y1="-157.8538" x2="383.3065" y2="-163.0908" gradientTransform="matrix(0.0934 0 0 0.0934 11.5182 62.6517)">
		<stop  offset="0" style="stop-color:#8DA9C8"/>
		<stop  offset="1" style="stop-color:#E6EDF8"/>
	</linearGradient>
	<path class="st102" d="M48.92,43.86c-1.39,1.3-2.22,2.11-2.88,3.15c-0.67,1.04-0.86,2.25-1.56,3.27
		C48.21,48.2,48.28,45.85,48.92,43.86z"/>
	
		<linearGradient id="SVGID_40_" gradientUnits="userSpaceOnUse" x1="488.4126" y1="170.3384" x2="471.2679" y2="164.2154" gradientTransform="matrix(0.0726 0 0 0.0728 11.211 34.6566)">
		<stop  offset="0" style="stop-color:#2A383D"/>
		<stop  offset="1" style="stop-color:#8293A3"/>
	</linearGradient>
	<path class="st103" d="M46.04,47c-0.67,1.04-0.86,2.25-1.56,3.27c1.53-1.48,3.24-4.07,4.44-6.42C47.53,45.16,46.7,45.97,46.04,47z"
		/>
	
		<linearGradient id="SVGID_41_" gradientUnits="userSpaceOnUse" x1="401.7006" y1="-173.9164" x2="430.4148" y2="-170.2509" gradientTransform="matrix(0.0934 0 0 0.0934 11.5182 62.6517)">
		<stop  offset="0" style="stop-color:#8DA9C8"/>
		<stop  offset="1" style="stop-color:#E6EDF8"/>
	</linearGradient>
	<path class="st104" d="M54.54,44.77c-1.16,0.52-2.29,0.71-3.48,1.23c-1.2,0.52-2.67,1.97-3.56,2.56
		C50.68,48.34,53,47.32,54.54,44.77z"/>
	
		<linearGradient id="SVGID_42_" gradientUnits="userSpaceOnUse" x1="378.4355" y1="239.1825" x2="370.6366" y2="232.2046" gradientTransform="matrix(0.0726 0 0 0.0728 11.211 34.6566)">
		<stop  offset="0" style="stop-color:#8DA9C8"/>
		<stop  offset="1" style="stop-color:#E6EDF8"/>
	</linearGradient>
	<path class="st105" d="M34.96,54.05c1.11-1.02,1.45-1.98,2.52-2.81c1.06-0.82,2.82-1.71,3.95-2.05
		C40.12,50.78,38.46,53.36,34.96,54.05z"/>
	
		<linearGradient id="SVGID_43_" gradientUnits="userSpaceOnUse" x1="370.3072" y1="231.7129" x2="360.8191" y2="221.8123" gradientTransform="matrix(0.0726 0 0 0.0728 11.211 34.6566)">
		<stop  offset="0" style="stop-color:#2A383D"/>
		<stop  offset="1" style="stop-color:#8293A3"/>
	</linearGradient>
	<path class="st106" d="M34.96,54.05c2.75-1.5,3.96-3.23,6.47-4.85c-1.13,0.34-2.88,1.22-3.95,2.05
		C36.41,52.07,36.07,53.03,34.96,54.05z"/>
	
		<linearGradient id="SVGID_44_" gradientUnits="userSpaceOnUse" x1="295.3565" y1="190.3193" x2="342.2603" y2="187.4135" gradientTransform="matrix(0.0934 0 0 0.0934 11.5182 35.1356)">
		<stop  offset="0" style="stop-color:#8DA9C8"/>
		<stop  offset="1" style="stop-color:#E6EDF8"/>
	</linearGradient>
	<path class="st107" d="M42.82,53.45c-2.38,0.16-2.8-0.25-3.95-0.27c3.46-1.38,4.08-1.49,8.21-1.22
		C45.73,53.03,44.42,53.32,42.82,53.45z"/>
	
		<linearGradient id="SVGID_45_" gradientUnits="userSpaceOnUse" x1="436.921" y1="241.0815" x2="434.4648" y2="222.25" gradientTransform="matrix(0.0726 0 0 0.0728 11.211 34.6566)">
		<stop  offset="0" style="stop-color:#2A383D"/>
		<stop  offset="1" style="stop-color:#8293A3"/>
	</linearGradient>
	<path class="st108" d="M38.87,53.18c2.91-0.84,5.61-0.22,8.21-1.22C42.95,51.69,42.34,51.8,38.87,53.18z"/>
	
		<linearGradient id="SVGID_46_" gradientUnits="userSpaceOnUse" x1="203.2652" y1="210.2076" x2="242.2782" y2="216.6539" gradientTransform="matrix(0.0934 0 0 0.0934 11.5182 35.1356)">
		<stop  offset="0" style="stop-color:#8DA9C8"/>
		<stop  offset="1" style="stop-color:#E6EDF8"/>
	</linearGradient>
	<path class="st109" d="M34.92,56.39c-2.3-0.17-3.78-1.11-4.75-1.49c2.31-0.21,4.6-0.38,6.04-0.11c1.47,0.27,2.07,0.98,3.13,1.02
		C37.56,56.43,36.14,56.48,34.92,56.39z"/>
	
		<linearGradient id="SVGID_47_" gradientUnits="userSpaceOnUse" x1="326.0263" y1="275.2566" x2="327.2513" y2="268.7228" gradientTransform="matrix(0.0726 0 0 0.0728 11.211 34.6566)">
		<stop  offset="0" style="stop-color:#2A383D"/>
		<stop  offset="1" style="stop-color:#8293A3"/>
	</linearGradient>
	<path class="st110" d="M30.17,54.9c3.04,0.35,5.59,0.89,9.17,0.91c-1.06-0.04-1.66-0.75-3.13-1.02
		C34.77,54.52,32.48,54.69,30.17,54.9z"/>
	<path class="st111" d="M56.6,35.48c-0.16-1.74-1.34-2.98-0.47-7.78"/>
	<path class="st111" d="M59.21,34.73c-0.87,1.16-2.15,1.72-3.97,4.61"/>
	<path class="st111" d="M58.07,29.63c0.61-1.19,1.79-2.4,1.65-5.02"/>
	
		<linearGradient id="SVGID_48_" gradientUnits="userSpaceOnUse" x1="573.3682" y1="159.1337" x2="505.3433" y2="180.3152" gradientTransform="matrix(0.0726 -4.000000e-04 4.000000e-04 0.0728 11.2087 34.7077)">
		<stop  offset="0" style="stop-color:#2A383D"/>
		<stop  offset="1" style="stop-color:#8293A3"/>
	</linearGradient>
	<path class="st112" d="M47.5,48.56c1.85-1.02,4.56-1.64,7.04-3.79c-1.16,0.52-2.29,0.71-3.48,1.23
		C49.86,46.52,48.39,47.97,47.5,48.56z"/>
	
		<linearGradient id="SVGID_49_" gradientUnits="userSpaceOnUse" x1="468.0639" y1="-497.8635" x2="463.1759" y2="-520.7754" gradientTransform="matrix(0.0934 0 0 0.0934 11.5182 62.6517)">
		<stop  offset="0" style="stop-color:#2A383D"/>
		<stop  offset="1" style="stop-color:#8293A3"/>
	</linearGradient>
	<path class="st113" d="M53.54,10.96c0.24,2.27,1.2,4.63,2.71,6.9C55.64,15,54.84,13.6,53.54,10.96z"/>
	
		<radialGradient id="SVGID_50_" cx="60.8856" cy="-645.9607" r="41.0754" fx="70.2731" fy="-619.5365" gradientTransform="matrix(0.0934 0 0 0.0934 11.5182 62.6517)" gradientUnits="userSpaceOnUse">
		<stop  offset="0" style="stop-color:#759ABC"/>
		<stop  offset="0.1581" style="stop-color:#7FA1C1"/>
		<stop  offset="0.4273" style="stop-color:#9AB5D0"/>
		<stop  offset="0.7725" style="stop-color:#C5D5E7"/>
		<stop  offset="1" style="stop-color:#E6EDF8"/>
	</radialGradient>
	<path class="st114" d="M21.88,4.06c-2.76,0.04-4.47,0.46-7.22,2.16C17.46,6.13,19.84,4.94,21.88,4.06z"/>
	
		<linearGradient id="SVGID_51_" gradientUnits="userSpaceOnUse" x1="84.7554" y1="-622.3528" x2="65.1988" y2="-613.7968" gradientTransform="matrix(0.0934 0 0 0.0934 11.5182 62.6517)">
		<stop  offset="0" style="stop-color:#2A383D"/>
		<stop  offset="1" style="stop-color:#8293A3"/>
	</linearGradient>
	<path class="st115" d="M14.66,6.23c2.75-1.71,4.46-2.12,7.22-2.16C19.12,4.7,17.22,5.24,14.66,6.23z"/>
	
		<linearGradient id="SVGID_52_" gradientUnits="userSpaceOnUse" x1="30.7787" y1="-22.5559" x2="-22.7752" y2="27.8808" gradientTransform="matrix(0.0934 0 0 0.0934 11.5182 6.9354)">
		<stop  offset="0" style="stop-color:#2A383D"/>
		<stop  offset="1" style="stop-color:#8293A3"/>
	</linearGradient>
	<path class="st116" d="M14.47,4.91c-0.98,1.72-2.76,3.37-4.91,4.93C10.45,7.69,10.86,6.78,14.47,4.91z"/>
	
		<linearGradient id="SVGID_53_" gradientUnits="userSpaceOnUse" x1="13.253" y1="-585.9288" x2="7.2516" y2="-590.3914" gradientTransform="matrix(0.0934 0 0 0.0934 11.5182 62.6517)">
		<stop  offset="0" style="stop-color:#55728E"/>
		<stop  offset="0.2183" style="stop-color:#839AB1"/>
		<stop  offset="0.3921" style="stop-color:#A2B3C8"/>
		<stop  offset="0.49" style="stop-color:#ADBDD1"/>
		<stop  offset="1" style="stop-color:#D1E0F3"/>
	</linearGradient>
	<path class="st117" d="M9.56,9.84c1.68-1.83,2.36-2.91,4.91-4.93C13.49,6.63,11.71,8.28,9.56,9.84z"/>
	
		<radialGradient id="SVGID_54_" cx="-41.7776" cy="-568.3618" r="42.8601" gradientTransform="matrix(0.0934 0 0 0.0934 11.5182 62.6517)" gradientUnits="userSpaceOnUse">
		<stop  offset="0" style="stop-color:#759ABC"/>
		<stop  offset="0.1581" style="stop-color:#7FA1C1"/>
		<stop  offset="0.4273" style="stop-color:#9AB5D0"/>
		<stop  offset="0.7725" style="stop-color:#C5D5E7"/>
		<stop  offset="1" style="stop-color:#E6EDF8"/>
	</radialGradient>
	<path class="st118" d="M11.69,9.9c-2.28,0.62-3.44,1.07-5.28,3.78C9.12,12.57,9.65,12.06,11.69,9.9z"/>
	
		<linearGradient id="SVGID_55_" gradientUnits="userSpaceOnUse" x1="-24.9078" y1="-542.4298" x2="-29.5245" y2="-548.8932" gradientTransform="matrix(0.0934 0 0 0.0934 11.5182 62.6517)">
		<stop  offset="0" style="stop-color:#2A383D"/>
		<stop  offset="1" style="stop-color:#8293A3"/>
	</linearGradient>
	<path class="st119" d="M11.69,9.9c-1.51,0.78-3.41,2.18-5.28,3.78C8.25,10.96,9.4,10.52,11.69,9.9z"/>
	
		<linearGradient id="SVGID_56_" gradientUnits="userSpaceOnUse" x1="-333.0203" y1="-825.9899" x2="-303.4019" y2="-814.8832" gradientTransform="matrix(0.0261 0 0 0.0261 12.5507 35.4994)">
		<stop  offset="0" style="stop-color:#8DA9C8"/>
		<stop  offset="1" style="stop-color:#E6EDF8"/>
	</linearGradient>
	<path class="st120" d="M6.47,10.96c-0.24,2.27-1.06,4.53-2.71,6.9C3.81,15.55,3.75,13.74,6.47,10.96z"/>
	
		<linearGradient id="SVGID_57_" gradientUnits="userSpaceOnUse" x1="-69.997" y1="-517.0138" x2="-62.1421" y2="-514.1197" gradientTransform="matrix(0.0934 0 0 0.0934 11.5182 62.6517)">
		<stop  offset="0" style="stop-color:#2A383D"/>
		<stop  offset="1" style="stop-color:#8293A3"/>
	</linearGradient>
	<path class="st121" d="M6.47,10.96c-0.24,2.27-1.22,4.63-2.71,6.9C4.54,14.68,5.41,13.48,6.47,10.96z"/>
	
		<radialGradient id="SVGID_58_" cx="-99.188" cy="-489.69" r="47.3769" fx="-71.9654" fy="-481.4407" gradientTransform="matrix(0.0934 0 0 0.0934 11.5182 62.6517)" gradientUnits="userSpaceOnUse">
		<stop  offset="0" style="stop-color:#759ABC"/>
		<stop  offset="0.1581" style="stop-color:#7FA1C1"/>
		<stop  offset="0.4273" style="stop-color:#9AB5D0"/>
		<stop  offset="0.7725" style="stop-color:#C5D5E7"/>
		<stop  offset="1" style="stop-color:#E6EDF8"/>
	</radialGradient>
	<path class="st122" d="M6.63,16.24c-2.51,1.85-3.57,3.38-4.04,6.3C4.03,21.02,5.21,19.8,6.63,16.24z"/>
	
		<linearGradient id="SVGID_59_" gradientUnits="userSpaceOnUse" x1="-67.0661" y1="-465.526" x2="-85.4003" y2="-459.4147" gradientTransform="matrix(0.0934 0 0 0.0934 11.5182 62.6517)">
		<stop  offset="0" style="stop-color:#2A383D"/>
		<stop  offset="1" style="stop-color:#8293A3"/>
	</linearGradient>
	<path class="st123" d="M6.63,16.24c-1.38,1.48-3.72,5.26-4.04,6.3C3.06,19.62,4.12,18.09,6.63,16.24z"/>
	
		<radialGradient id="SVGID_60_" cx="-78.8584" cy="-399.8955" r="47.1841" gradientTransform="matrix(0.0934 0 0 0.0934 11.5182 62.6517)" gradientUnits="userSpaceOnUse">
		<stop  offset="0" style="stop-color:#759ABC"/>
		<stop  offset="0.1581" style="stop-color:#7FA1C1"/>
		<stop  offset="0.4273" style="stop-color:#9AB5D0"/>
		<stop  offset="0.7725" style="stop-color:#C5D5E7"/>
		<stop  offset="1" style="stop-color:#E6EDF8"/>
	</radialGradient>
	<path class="st124" d="M0.9,21.65c0.38,1.56,0.8,1.96,0.93,3.16c0.13,1.2,0.09,3.41,0.15,4.92C1.21,28.12-0.44,26.58,0.9,21.65z"/>
	
		<linearGradient id="SVGID_61_" gradientUnits="userSpaceOnUse" x1="-109.94" y1="-395.6345" x2="-100.4856" y2="-396.279" gradientTransform="matrix(0.0934 0 0 0.0934 11.5182 62.6517)">
		<stop  offset="0" style="stop-color:#2A383D"/>
		<stop  offset="1" style="stop-color:#8293A3"/>
	</linearGradient>
	<path class="st125" d="M1.83,24.81c0.13,1.2,0.09,3.41,0.15,4.92c-0.85-2.54-0.95-5.18-1.09-8.08C1.28,23.2,1.7,23.6,1.83,24.81z"
		/>
	
		<radialGradient id="SVGID_62_" cx="-108.1556" cy="-331.8429" r="42.2745" gradientTransform="matrix(0.0934 0 0 0.0934 11.5182 62.6517)" gradientUnits="userSpaceOnUse">
		<stop  offset="0" style="stop-color:#759ABC"/>
		<stop  offset="0.1581" style="stop-color:#7FA1C1"/>
		<stop  offset="0.4273" style="stop-color:#9AB5D0"/>
		<stop  offset="0.7725" style="stop-color:#C5D5E7"/>
		<stop  offset="1" style="stop-color:#E6EDF8"/>
	</radialGradient>
	<path class="st126" d="M3.88,27.62c-0.66,2.16-2.13,4.11-0.47,8.03C3.5,33.8,4.81,32.64,3.88,27.62z"/>
	
		<linearGradient id="SVGID_63_" gradientUnits="userSpaceOnUse" x1="-81.4755" y1="-332.2527" x2="-91.3805" y2="-331.8401" gradientTransform="matrix(0.0934 0 0 0.0934 11.5182 62.6517)">
		<stop  offset="0" style="stop-color:#2A383D"/>
		<stop  offset="1" style="stop-color:#8293A3"/>
	</linearGradient>
	<path class="st127" d="M3.41,35.65c-1.67-3.92-0.2-5.87,0.47-8.03C3.81,31,2.87,32.9,3.41,35.65z"/>
	
		<linearGradient id="SVGID_64_" gradientUnits="userSpaceOnUse" x1="-90.0441" y1="30.9108" x2="-95.032" y2="35.275" gradientTransform="matrix(0.0934 0 0 0.0934 11.5182 35.1356)">
		<stop  offset="0" style="stop-color:#8DA9C8"/>
		<stop  offset="1" style="stop-color:#E6EDF8"/>
	</linearGradient>
	<path class="st128" d="M0.73,34.62c1.02,1.45,2.64,1.9,5.08,6.52C2.5,39.45,1.46,37.94,0.73,34.62z"/>
	
		<linearGradient id="SVGID_65_" gradientUnits="userSpaceOnUse" x1="-48.6568" y1="-240.8222" x2="-57.6847" y2="-239.1807" gradientTransform="matrix(0.0934 0 0 0.0934 11.5182 62.6517)">
		<stop  offset="0" style="stop-color:#2A383D"/>
		<stop  offset="1" style="stop-color:#8293A3"/>
	</linearGradient>
	<path class="st129" d="M5.93,36.4c1.05,1.97,1.51,3.07,1.7,3.71c0.19,0.64,0.3,3.25,0.43,3.8c-1.48-1.68-1.88-2.84-2.03-3.51
		C5.89,39.74,5.86,37.87,5.93,36.4z"/>
	
		<radialGradient id="SVGID_66_" cx="-46.818" cy="-259.7748" r="44.6224" fx="-32.8308" fy="-257.3065" gradientTransform="matrix(0.0934 0 0 0.0934 8.5524 65.7093)" gradientUnits="userSpaceOnUse">
		<stop  offset="0" style="stop-color:#759ABC"/>
		<stop  offset="0.1581" style="stop-color:#7FA1C1"/>
		<stop  offset="0.4273" style="stop-color:#9AB5D0"/>
		<stop  offset="0.7725" style="stop-color:#C5D5E7"/>
		<stop  offset="1" style="stop-color:#E6EDF8"/>
	</radialGradient>
	<path class="st130" d="M8.07,43.91c-1.1-1.66-1.46-5.43-2.13-7.51c1.05,1.97,1.51,3.07,1.7,3.71C7.82,40.72,7.94,43.36,8.07,43.91
		L8.07,43.91z"/>
	
		<linearGradient id="SVGID_67_" gradientUnits="userSpaceOnUse" x1="17.4822" y1="-165.592" x2="8.8631" y2="-159.4355" gradientTransform="matrix(0.0934 0 0 0.0934 11.5182 62.6517)">
		<stop  offset="0" style="stop-color:#2A383D"/>
		<stop  offset="1" style="stop-color:#8293A3"/>
	</linearGradient>
	<path class="st131" d="M11.1,43.86c1.39,1.3,2.22,2.11,2.88,3.15c0.67,1.04,0.86,2.25,1.55,3.27C11.81,48.2,11.73,45.85,11.1,43.86
		z"/>
	
		<radialGradient id="SVGID_68_" cx="-21.1046" cy="-138.4123" r="59.4894" gradientTransform="matrix(0.0934 0 0 0.0934 11.5182 62.6517)" gradientUnits="userSpaceOnUse">
		<stop  offset="0" style="stop-color:#759ABC"/>
		<stop  offset="0.1581" style="stop-color:#7FA1C1"/>
		<stop  offset="0.4273" style="stop-color:#9AB5D0"/>
		<stop  offset="0.7725" style="stop-color:#C5D5E7"/>
		<stop  offset="1" style="stop-color:#E6EDF8"/>
	</radialGradient>
	<path class="st132" d="M13.98,47c0.67,1.04,0.86,2.25,1.55,3.27c-0.87-0.57-3.56-4.7-4.44-6.42C12.49,45.16,13.32,45.97,13.98,47z"
		/>
	
		<linearGradient id="SVGID_69_" gradientUnits="userSpaceOnUse" x1="-32.4849" y1="99.7197" x2="-23.93" y2="135.7715" gradientTransform="matrix(0.0934 0 0 0.0934 11.5182 35.1356)">
		<stop  offset="0" style="stop-color:#8DA9C8"/>
		<stop  offset="1" style="stop-color:#E6EDF8"/>
	</linearGradient>
	<path class="st133" d="M5.47,44.77c1.17,0.52,2.29,0.69,3.49,1.22c1.2,0.52,2.67,1.96,3.57,2.54C9.35,48.33,7.03,47.32,5.47,44.77z
		"/>
	
		<linearGradient id="SVGID_70_" gradientUnits="userSpaceOnUse" x1="-28.4559" y1="-167.3457" x2="-23.9303" y2="-179.2767" gradientTransform="matrix(0.0934 0 0 0.0934 11.5182 62.6517)">
		<stop  offset="0" style="stop-color:#2A383D"/>
		<stop  offset="1" style="stop-color:#8293A3"/>
	</linearGradient>
	<path class="st134" d="M12.53,48.52c-1.85-1.01-4.38-1.7-7.06-3.75c1.17,0.52,2.29,0.69,3.49,1.22
		C10.16,46.5,11.64,47.94,12.53,48.52z"/>
	
		<linearGradient id="SVGID_71_" gradientUnits="userSpaceOnUse" x1="102.6978" y1="172.9095" x2="150.286" y2="201.2072" gradientTransform="matrix(0.0934 0 0 0.0934 11.5182 35.1356)">
		<stop  offset="0" style="stop-color:#2A383D"/>
		<stop  offset="1" style="stop-color:#8293A3"/>
	</linearGradient>
	<path class="st135" d="M25.06,54.05c-1.11-1.02-1.45-1.98-2.52-2.81c-1.07-0.82-2.82-1.71-3.95-2.05
		C19.9,50.78,21.55,53.36,25.06,54.05z"/>
	
		<radialGradient id="SVGID_72_" cx="100.4952" cy="-102.6728" r="24.8744" gradientTransform="matrix(0.0934 0 0 0.0934 11.5182 62.6517)" gradientUnits="userSpaceOnUse">
		<stop  offset="0" style="stop-color:#759ABC"/>
		<stop  offset="0.1581" style="stop-color:#7FA1C1"/>
		<stop  offset="0.4273" style="stop-color:#9AB5D0"/>
		<stop  offset="0.7725" style="stop-color:#C5D5E7"/>
		<stop  offset="1" style="stop-color:#E6EDF8"/>
	</radialGradient>
	<path class="st136" d="M25.06,54.05c-2.36-1.3-3.75-3.1-6.47-4.85c1.13,0.34,2.89,1.22,3.95,2.05
		C23.6,52.07,23.95,53.03,25.06,54.05z"/>
	
		<linearGradient id="SVGID_73_" gradientUnits="userSpaceOnUse" x1="59.66" y1="-118.4346" x2="58.4097" y2="-96.8674" gradientTransform="matrix(0.0934 0 0 0.0934 11.5182 62.6517)">
		<stop  offset="0" style="stop-color:#8DA9C8"/>
		<stop  offset="1" style="stop-color:#E6EDF8"/>
	</linearGradient>
	<path class="st137" d="M17.19,53.45c2.37,0.16,2.8-0.25,3.95-0.27c-3.46-1.38-4.08-1.49-8.21-1.22
		C14.28,53.03,15.59,53.32,17.19,53.45z"/>
	
		<linearGradient id="SVGID_74_" gradientUnits="userSpaceOnUse" x1="58.6397" y1="-102.0343" x2="59.5841" y2="-115.5709" gradientTransform="matrix(0.0934 0 0 0.0934 11.5182 62.6517)">
		<stop  offset="0" style="stop-color:#2A383D"/>
		<stop  offset="1" style="stop-color:#8293A3"/>
	</linearGradient>
	<path class="st138" d="M21.14,53.18c-3.04-0.61-5.61-0.22-8.21-1.22C17.06,51.69,17.68,51.8,21.14,53.18z"/>
	
		<linearGradient id="SVGID_75_" gradientUnits="userSpaceOnUse" x1="147.103" y1="-78.2246" x2="148.0381" y2="-67.0049" gradientTransform="matrix(0.0934 0 0 0.0934 11.5182 62.6517)">
		<stop  offset="0" style="stop-color:#8DA9C8"/>
		<stop  offset="1" style="stop-color:#E6EDF8"/>
	</linearGradient>
	<path class="st139" d="M25.09,56.39c2.31-0.17,3.78-1.11,4.75-1.49c-2.31-0.21-4.59-0.38-6.04-0.11c-1.47,0.27-2.07,0.98-3.13,1.02
		C22.45,56.43,23.87,56.48,25.09,56.39z"/>
	
		<linearGradient id="SVGID_76_" gradientUnits="userSpaceOnUse" x1="147.66" y1="-72.6388" x2="146.0635" y2="-88.6028" gradientTransform="matrix(0.0934 0 0 0.0934 11.5182 62.6517)">
		<stop  offset="0" style="stop-color:#2A383D"/>
		<stop  offset="1" style="stop-color:#8293A3"/>
	</linearGradient>
	<path class="st140" d="M29.84,54.9c-3.04,0.35-5.59,0.89-9.17,0.91c1.05-0.04,1.66-0.75,3.13-1.02
		C25.25,54.52,27.54,54.69,29.84,54.9z"/>
	
		<linearGradient id="SVGID_77_" gradientUnits="userSpaceOnUse" x1="-91.9083" y1="-262.4572" x2="-84.6037" y2="-268.043" gradientTransform="matrix(0.0934 0 0 0.0934 11.5182 62.6517)">
		<stop  offset="0" style="stop-color:#2A383D"/>
		<stop  offset="1" style="stop-color:#8293A3"/>
	</linearGradient>
	<path class="st141" d="M5.81,41.14c-1.59-1.59-4.09-3.83-5.08-6.52C1.75,36.07,3.37,36.52,5.81,41.14z"/>
	<g>
		<path class="st142" d="M47.09,51.94c-4.1-0.27-4.71-0.18-8.22,1.22l0,0c-0.01,0.01-0.02,0.03-0.02,0.04
			c0.01,0.02,0.02,0.02,0.04,0.02l0,0c3.5-1.39,4.12-1.49,8.2-1.22l0,0c0.01,0,0.03-0.01,0.03-0.03
			C47.11,51.95,47.1,51.94,47.09,51.94L47.09,51.94z"/>
	</g>
	<g>
		<defs>
			<path id="SVGID_78_" d="M47.5,48.56c1.96-0.94,3.96-1.16,7.04-3.79c-1.16,0.52-2.29,0.71-3.48,1.23
				C49.86,46.52,48.39,47.97,47.5,48.56z"/>
		</defs>
		<clipPath id="SVGID_79_">
			<use xlink:href="#SVGID_78_"  style="overflow:visible;"/>
		</clipPath>
		<path class="st143" d="M54.52,44.72c-0.59,0.26-1.18,0.45-1.74,0.62c-0.57,0.17-1.15,0.35-1.74,0.61
			c-0.78,0.34-1.66,1.06-2.43,1.69c-0.42,0.34-0.81,0.67-1.13,0.87l-0.04,0.03l0.05,0.08l0.04-0.03c0.32-0.21,0.71-0.53,1.14-0.87
			c0.77-0.63,1.64-1.34,2.41-1.68c0.58-0.25,1.17-0.43,1.73-0.61c0.57-0.18,1.16-0.36,1.76-0.63l0.04-0.02l-0.04-0.09L54.52,44.72z"
			/>
	</g>
	<path class="st144" d="M57.41,22.54l-0.02-0.02c-1.44-1.53-2.58-2.75-3.97-6.3l0,0c0-0.02-0.02-0.02-0.04-0.02
		c-0.02,0.01-0.03,0.03-0.02,0.04l0,0c1.39,3.56,2.53,4.78,3.98,6.32l0.02,0.02l0,0c0.01,0.01,0.03,0.01,0.04,0
		C57.42,22.58,57.42,22.56,57.41,22.54L57.41,22.54z"/>
	<g>
		<defs>
			<path id="SVGID_80_" d="M53.54,10.96c0.24,2.27,1.2,4.63,2.71,6.9C56.21,15.55,56.43,13.68,53.54,10.96z"/>
		</defs>
		<clipPath id="SVGID_81_">
			<use xlink:href="#SVGID_80_"  style="overflow:visible;"/>
		</clipPath>
		<path class="st145" d="M56.33,17.86l-0.01-0.53c-0.01-2.09-0.04-3.9-2.72-6.42l-0.11,0.11c2.64,2.48,2.65,4.26,2.68,6.31
			l0.01,0.53L56.33,17.86z"/>
	</g>
	<path class="st146" d="M53.62,13.65c-2.69-1.1-3.22-1.6-5.27-3.78l0,0c-0.01-0.01-0.03-0.01-0.04,0c-0.01,0.01-0.01,0.03,0,0.04
		l0,0c2.06,2.18,2.59,2.68,5.29,3.79l0,0c0.01,0.01,0.03,0,0.04-0.01C53.64,13.68,53.64,13.66,53.62,13.65L53.62,13.65z"/>
	<path class="st111" d="M21.14,53.18"/>
	<path class="st111" d="M12.93,51.96"/>
	<path class="st147" d="M12.93,51.99c4.09-0.27,4.7-0.18,8.2,1.22l0,0c0.01,0.01,0.03,0,0.03-0.01c0-0.02,0-0.03-0.02-0.04l0,0
		c-3.51-1.4-4.13-1.49-8.22-1.23l0,0c-0.01,0-0.03,0.02-0.02,0.03C12.9,51.98,12.92,51.99,12.93,51.99L12.93,51.99z"/>
	<path class="st148" d="M20.68,55.84c0.54-0.02,0.96-0.22,1.45-0.44c0.46-0.21,0.97-0.45,1.69-0.58c1.46-0.27,3.78-0.09,6.03,0.11
		l0,0c0.02,0,0.03-0.01,0.03-0.03c0-0.02-0.01-0.03-0.03-0.03l0,0c-2.26-0.2-4.58-0.38-6.04-0.11c-0.72,0.13-1.24,0.38-1.7,0.59
		c-0.48,0.22-0.89,0.41-1.43,0.44l0,0c-0.02,0-0.03,0.01-0.03,0.03C20.65,55.83,20.66,55.84,20.68,55.84L20.68,55.84z"/>
	<path class="st148" d="M39.39,55.84c-0.54-0.02-0.96-0.22-1.45-0.44c-0.45-0.21-0.97-0.45-1.68-0.58
		c-1.46-0.27-3.78-0.09-6.03,0.11l0,0c-0.01,0-0.03-0.01-0.03-0.03c0-0.02,0.01-0.03,0.02-0.03l0,0c2.25-0.2,4.58-0.38,6.05-0.11
		c0.72,0.13,1.24,0.38,1.7,0.59c0.48,0.22,0.89,0.41,1.42,0.44l0,0c0.02,0,0.03,0.01,0.03,0.03C39.42,55.83,39.4,55.84,39.39,55.84
		L39.39,55.84z"/>
	<path class="st149" d="M0.87,21.65c0.17,0.71,0.35,1.17,0.51,1.58c0.19,0.49,0.35,0.92,0.42,1.58c0.08,0.73,0.1,1.86,0.11,2.95
		c0.01,0.68,0.02,1.39,0.05,1.97l0,0c0,0.02,0.01,0.03,0.03,0.03c0.02,0,0.03-0.01,0.03-0.03l0,0c-0.03-0.59-0.04-1.29-0.05-1.97
		c-0.01-1.09-0.03-2.21-0.11-2.95c-0.07-0.66-0.24-1.09-0.42-1.59c-0.16-0.41-0.34-0.88-0.5-1.57l0,0
		c-0.01-0.02-0.02-0.03-0.04-0.02C0.88,21.62,0.87,21.64,0.87,21.65L0.87,21.65z"/>
	<path class="st142" d="M5.46,44.79c0.59,0.27,1.19,0.45,1.76,0.62c0.56,0.17,1.14,0.34,1.73,0.6c0.77,0.33,1.65,1.04,2.43,1.67
		c0.42,0.34,0.82,0.66,1.14,0.87l0,0c0.01,0.01,0.03,0,0.04-0.01c0.01-0.01,0.01-0.03-0.01-0.04l0,0c-0.31-0.2-0.71-0.52-1.13-0.86
		c-0.78-0.63-1.66-1.34-2.44-1.68c-0.59-0.26-1.17-0.43-1.74-0.6C6.67,45.18,6.08,45,5.48,44.74l0,0c-0.01-0.01-0.03,0-0.04,0.02
		C5.44,44.77,5.45,44.78,5.46,44.79L5.46,44.79z"/>
	<path class="st148" d="M0.7,34.64c0.32,0.45,0.71,0.82,1.15,1.23c0.95,0.89,2.26,2.12,3.93,5.28l0,0c0.01,0.01,0.02,0.02,0.04,0.01
		c0.02-0.01,0.02-0.03,0.01-0.04l0,0c-1.68-3.18-2.99-4.4-3.94-5.3c-0.44-0.42-0.82-0.78-1.14-1.23l0,0
		c-0.01-0.01-0.03-0.01-0.04-0.01C0.7,34.61,0.69,34.63,0.7,34.64L0.7,34.64z"/>
	<path class="st150" d="M6.45,10.96c-0.26,2.39-1.14,4.65-2.7,6.88l0,0c-0.01,0.01-0.01,0.03,0.01,0.04
		c0.01,0.01,0.03,0.01,0.04-0.01l0,0c1.57-2.25,2.45-4.51,2.71-6.91l0,0c0-0.01-0.01-0.03-0.03-0.03
		C6.46,10.93,6.45,10.95,6.45,10.96L6.45,10.96z"/>
	<g>
		<path class="st23" d="M37.63,2.91c5.82,1.69,10.74,4.65,14.24,8.55c1.92,2.14,3.42,4.57,4.43,7.21c1.09,2.83,1.64,5.94,1.64,9.24
			c0,3.46-0.72,6.83-2.14,10.03c-1.38,3.12-3.36,5.94-5.89,8.4c-5.22,5.07-12.29,8.08-19.91,8.48l0,0c-0.02,0-0.03,0.01-0.02,0.03
			c0,0.01,0.01,0.03,0.03,0.03l0,0c7.63-0.39,14.71-3.41,19.94-8.49c2.54-2.47,4.52-5.29,5.9-8.42C57.28,34.75,58,31.37,58,27.91
			c0-3.31-0.55-6.43-1.64-9.26c-1.02-2.64-2.51-5.07-4.44-7.22c-3.51-3.9-8.44-6.87-14.27-8.56l0,0c-0.01-0.01-0.04,0.02-0.04,0.03
			C37.6,2.91,37.62,2.91,37.63,2.91L37.63,2.91z"/>
	</g>
	<path class="st23" d="M30,54.82c-7.62-0.39-14.68-3.4-19.9-8.48c-2.53-2.46-4.51-5.28-5.89-8.4c-1.42-3.2-2.13-6.58-2.13-10.03
		c0-3.3,0.55-6.4,1.64-9.24c1.01-2.64,2.5-5.06,4.42-7.2c3.5-3.89,8.42-6.85,14.22-8.55l0,0c0.02-0.01,0.04,0,0.04-0.02
		c0-0.01-0.07-0.03-0.08-0.03c-5.81,1.7-10.73,4.66-14.22,8.56c-1.93,2.15-3.42,4.58-4.44,7.22c-1.09,2.84-1.65,5.95-1.65,9.25
		c0,3.46,0.72,6.84,2.14,10.06c1.38,3.12,3.37,5.95,5.9,8.42c5.23,5.08,12.31,8.1,19.94,8.5l0,0c0.02,0,0.03-0.01,0.03-0.03
		C30.03,54.83,30.02,54.82,30,54.82L30,54.82z"/>
	
		<linearGradient id="SVGID_82_" gradientUnits="userSpaceOnUse" x1="342.4664" y1="358.2573" x2="188.2143" y2="321.0469" gradientTransform="matrix(0.0934 0 0 0.0934 11.5182 6.9285)">
		<stop  offset="0" style="stop-color:#C2D5EE"/>
		<stop  offset="0.48" style="stop-color:#B8CBE3"/>
		<stop  offset="0.83" style="stop-color:#798DA3"/>
	</linearGradient>
	<path class="st151" d="M30.01,43.1c4.08-0.89,9.2-2.51,13.34-4.28c0.51-0.22,0.89-0.56,1.2-0.99v-3.16l-14.54-3.46V43.1z"/>
	
		<linearGradient id="SVGID_83_" gradientUnits="userSpaceOnUse" x1="481.884" y1="-182.0241" x2="96.8699" y2="2.5387" gradientTransform="matrix(0.0726 0 0 0.0728 11.211 34.6512)">
		<stop  offset="0" style="stop-color:#A8C2E5"/>
		<stop  offset="0.44" style="stop-color:#94B6E0"/>
		<stop  offset="0.66" style="stop-color:#D1E0F3"/>
		<stop  offset="1" style="stop-color:#B4CAE7"/>
	</linearGradient>
	<path class="st152" d="M37.62,20.95h8.36l1.08-1.77h-9.74v4.95h-7.15v-4.95h-0.22h-0.09v3.55H15.26l0.11,0.19c0,0,0,0.03,0,0.07
		h14.5v2.51H15.39c0,0.08,0,0.18,0,0.26h14.47v3.33H15.43c0.01,0.08,0.01,0.17,0.01,0.26h7.07v4.77h-6.99c0,0,0,0.01,0,0.01
		c0.02,0.69,0.09,1.3,0.23,1.82h6.77v1.62h-5.72c0.27,0.2,0.59,0.36,0.97,0.47c1.54,0.47,3.32,0.96,5.01,1.39v-5.06l7.1-0.01v6.61
		c0.03,0,0.06,0.01,0.09,0.01c0.05-0.01,0.17-0.02,0.22-0.03v-5.18h14.27c0.02-0.08,0.04-0.18,0.05-0.26H30.17v-2.49h14.48
		c0-0.08,0.01-0.21,0.01-0.3H30.17v-3.38H44.7c0-0.09,0.01-0.19,0.01-0.28h-7.09v-4.71h7.14c0.01-0.89,0.01-1.46,0.01-1.46
		l0.25-0.41h-7.41V20.95z"/>
	<g>
		<polygon class="st153" points="43.79,36.32 30.5,40.56 30.09,41.06 30.09,40.96 30.09,35.79 30.09,35.71 30.17,35.71 44.44,35.71 
			44.54,35.71 		"/>
		<path class="st154" d="M30.5,40.56l13.29-4.24l0.76-0.62l-0.02,0.1c-0.29,1.24-0.97,1.96-2.11,2.31
			c-3.82,1.17-9.27,2.47-12.22,2.92l-0.09,0.02L30.5,40.56z"/>
		<polygon class="st154" points="16.4,33.24 22.59,29.27 22.59,29.35 22.59,34.12 22.59,34.2 22.5,34.2 15.51,34.2 15.44,34.2 		"/>
		<path class="st153" d="M16.4,33.24l-0.96,0.95l-0.01-0.08c-0.02-0.72-0.05-2.32-0.08-4.77v-0.08h0.08h7.07h0.08L16.4,33.24z"/>
		<path class="st154" d="M29.47,34.85l0.48-0.56v0.08v6.61v0.09l-0.09-0.01c-1.63-0.24-4.2-0.8-7.06-1.53l-0.06-0.02L29.47,34.85z"
			/>
		<polygon class="st153" points="29.47,34.85 22.74,39.5 22.74,39.44 22.74,34.37 22.74,34.29 22.82,34.29 29.86,34.29 29.95,34.29 
					"/>
		<polygon class="st154" points="16.92,37.2 22.11,36.3 22.59,35.87 22.59,35.95 22.59,37.57 22.59,37.65 22.51,37.65 16.79,37.65 
					"/>
		<path class="st153" d="M22.11,36.3l-5.18,0.9l-0.13,0.46h-0.03l-0.02-0.02c-0.52-0.38-0.87-0.93-1.07-1.67l-0.03-0.1h0.1h6.77
			h0.08L22.11,36.3z"/>
		<polygon class="st153" points="29.68,25.98 16.13,28.54 15.36,29.18 15.36,29.09 15.32,25.76 15.32,25.68 15.39,25.68 
			29.86,25.68 29.95,25.68 		"/>
		<polygon class="st154" points="16.13,28.54 29.68,25.98 29.95,25.68 29.95,25.76 29.95,29.09 29.95,29.18 29.86,29.18 
			15.43,29.18 15.36,29.18 		"/>
		<polygon class="st154" points="30.69,23.64 36.8,19.78 37.4,19.09 37.4,19.18 37.4,24.12 37.4,24.2 37.32,24.2 30.17,24.2 
			30.09,24.2 		"/>
		<polygon class="st153" points="36.8,19.78 30.69,23.64 30.09,24.2 30.09,24.12 30.09,19.18 30.09,19.09 30.17,19.09 37.32,19.09 
			37.4,19.09 		"/>
		<polygon class="st154" points="29.57,23.26 29.95,22.91 29.95,22.99 29.95,25.5 29.95,25.58 29.86,25.58 15.39,25.58 15.32,25.58 
					"/>
		<polygon class="st153" points="29.57,23.26 15.32,25.58 15.31,25.5 15.29,22.99 15.29,22.91 15.37,22.91 29.86,22.91 29.95,22.91 
					"/>
		<polygon class="st154" points="15.44,22.42 29.61,19.47 29.95,19.09 29.95,19.18 29.95,22.73 29.95,22.81 29.86,22.81 
			15.26,22.81 15.21,22.81 		"/>
		<polygon class="st153" points="29.61,19.47 15.44,22.42 15.21,22.81 15.19,22.77 13.02,19.22 12.95,19.09 13.09,19.09 
			29.86,19.09 29.95,19.09 		"/>
		<polygon class="st153" points="43.94,25.24 38.25,28.57 37.54,29.16 37.54,29.08 37.54,24.37 37.54,24.29 37.62,24.29 
			44.76,24.29 44.84,24.29 		"/>
		<polygon class="st154" points="38.25,28.57 43.94,25.24 44.84,24.29 44.84,24.37 44.79,29.08 44.79,29.16 44.71,29.16 
			37.62,29.16 37.54,29.16 		"/>
		<polygon class="st153" points="45.22,21.31 37.98,22.26 37.54,22.59 37.54,22.5 37.54,20.95 37.54,20.87 37.62,20.87 45.87,20.87 
			46.02,20.87 		"/>
		<polygon class="st154" points="37.98,22.26 45.22,21.31 46.02,20.87 45.94,20.99 45,22.55 44.97,22.59 44.93,22.59 37.62,22.59 
			37.54,22.59 		"/>
		<polygon class="st153" points="43.98,33.5 30.51,35.22 30.09,35.6 30.09,35.52 30.09,33.03 30.09,32.96 30.17,32.96 44.65,32.96 
			44.73,32.96 		"/>
		<path class="st154" d="M30.51,35.22l13.47-1.72l0.76-0.54v0.08l-0.02,1.1c-0.02,0.54-0.06,1-0.14,1.41l-0.01,0.06h-0.07H30.17
			h-0.08L30.51,35.22z"/>
		<polygon class="st153" points="44.33,29.71 30.58,32.36 30.09,32.81 30.09,32.73 30.09,29.35 30.09,29.27 30.17,29.27 44.7,29.27 
			44.79,29.27 		"/>
		<path class="st154" d="M30.58,32.36l13.75-2.65l0.46-0.43l0,0.08c-0.01,1.4-0.04,2.54-0.05,3.38l0,0.08h-0.08H30.17h-0.08
			L30.58,32.36z"/>
		<polygon class="st153" points="37.01,26.23 30.61,27.26 30.09,27.71 30.09,27.63 30.09,25.98 30.09,25.9 30.17,25.9 37.32,25.9 
			37.4,25.9 		"/>
		<polygon class="st154" points="30.61,27.26 37.01,26.23 37.4,25.9 37.4,25.98 37.4,27.63 37.4,27.71 37.32,27.71 30.17,27.71 
			30.09,27.71 		"/>
		<polygon class="st154" points="23.03,32.37 29.62,31.24 29.95,30.86 29.95,30.94 29.95,32.59 29.95,32.67 29.86,32.67 
			22.81,32.67 22.73,32.67 		"/>
		<polygon class="st153" points="29.62,31.24 23.03,32.37 22.73,32.67 22.73,32.59 22.73,30.94 22.73,30.86 22.81,30.86 
			29.86,30.86 29.95,30.86 		"/>
	</g>
	
		<linearGradient id="SVGID_84_" gradientUnits="userSpaceOnUse" x1="363.2258" y1="51.1373" x2="585.7208" y2="51.1373" gradientTransform="matrix(0.0726 0 0 0.0728 11.211 34.6512)">
		<stop  offset="0" style="stop-color:#D5B171"/>
		<stop  offset="1" style="stop-color:#E6CA8F"/>
	</linearGradient>
	<path class="st155" d="M30.17,40.96c2.75-0.41,8.21-1.69,12.21-2.92c1.19-0.36,1.79-1.11,2.06-2.26H30.17V40.96z"/>
	
		<linearGradient id="SVGID_85_" gradientUnits="userSpaceOnUse" x1="55.6146" y1="-40.0237" x2="253.2227" y2="-40.0237" gradientTransform="matrix(0.0726 0 0 0.0728 11.211 34.6512)">
		<stop  offset="0" style="stop-color:#EC1B2E"/>
		<stop  offset="1" style="stop-color:#DC7C6D"/>
	</linearGradient>
	<path class="st156" d="M22.5,29.35h-7.07c0.03,2.02,0.05,3.94,0.08,4.77h6.99V29.35z"/>
	
		<linearGradient id="SVGID_86_" gradientUnits="userSpaceOnUse" x1="123.7552" y1="329.1578" x2="196.748" y2="329.1578" gradientTransform="matrix(0.0934 0 0 0.0934 11.5182 6.9285)">
		<stop  offset="0" style="stop-color:#EC1B2E"/>
		<stop  offset="1" style="stop-color:#DC7C6D"/>
	</linearGradient>
	<path class="st157" d="M22.82,34.37v5.07c2.77,0.71,5.36,1.28,7.05,1.53v-6.61H22.82z"/>
	
		<linearGradient id="SVGID_87_" gradientUnits="userSpaceOnUse" x1="54.5879" y1="28.9844" x2="252.0565" y2="28.9844" gradientTransform="matrix(0.0726 0 0 0.0728 11.211 34.6512)">
		<stop  offset="0" style="stop-color:#003876"/>
		<stop  offset="1" style="stop-color:#4E80C0"/>
	</linearGradient>
	<path class="st158" d="M22.51,35.95h-6.77c0.19,0.69,0.52,1.23,1.04,1.62h5.72V35.95z"/>
	
		<linearGradient id="SVGID_88_" gradientUnits="userSpaceOnUse" x1="53.9844" y1="-99.2214" x2="253.2827" y2="-99.2214" gradientTransform="matrix(0.0726 0 0 0.0728 11.211 34.6512)">
		<stop  offset="0" style="stop-color:#D5B171"/>
		<stop  offset="1" style="stop-color:#E6CA8F"/>
	</linearGradient>
	<path class="st159" d="M29.86,25.76H15.39c0.01,1.02,0.03,2.17,0.04,3.33h14.43V25.76z"/>
	
		<linearGradient id="SVGID_89_" gradientUnits="userSpaceOnUse" x1="320.4441" y1="-178.6128" x2="728.7849" y2="-178.6128" gradientTransform="matrix(0.0726 0 0 0.0728 11.211 34.6512)">
		<stop  offset="0" style="stop-color:#EC1B2E"/>
		<stop  offset="1" style="stop-color:#DC7C6D"/>
	</linearGradient>
	<rect x="30.17" y="19.18" class="st160" width="7.15" height="4.95"/>
	
		<linearGradient id="SVGID_90_" gradientUnits="userSpaceOnUse" x1="22.2148" y1="-188.1729" x2="253.2822" y2="-188.1729" gradientTransform="matrix(0.0726 0 0 0.0728 11.211 34.6512)">
		<stop  offset="0" style="stop-color:#D5B171"/>
		<stop  offset="1" style="stop-color:#E6CA8F"/>
	</linearGradient>
	<polygon class="st161" points="29.86,19.18 13.09,19.18 15.26,22.73 29.86,22.73 	"/>
	
		<linearGradient id="SVGID_91_" gradientUnits="userSpaceOnUse" x1="320.4821" y1="-108.8927" x2="728.585" y2="-108.8927" gradientTransform="matrix(0.0726 0 0 0.0728 11.211 34.6512)">
		<stop  offset="0" style="stop-color:#EC1B2E"/>
		<stop  offset="1" style="stop-color:#DC7C6D"/>
	</linearGradient>
	<path class="st162" d="M37.62,29.08h7.09c0.02-1.74,0.04-3.5,0.05-4.71h-7.14V29.08z"/>
	
		<linearGradient id="SVGID_92_" gradientUnits="userSpaceOnUse" x1="333.9211" y1="-177.5434" x2="629.6445" y2="-177.5434" gradientTransform="matrix(0.0726 0 0 0.0728 11.211 34.6512)">
		<stop  offset="0" style="stop-color:#003876"/>
		<stop  offset="1" style="stop-color:#4E80C0"/>
	</linearGradient>
	<polygon class="st163" points="37.62,20.95 37.62,22.5 44.93,22.5 45.87,20.95 	"/>
	<path class="st164" d="M30.17,35.52h14.32c0.08-0.42,0.12-0.88,0.14-1.39c0-0.27,0.01-0.62,0.02-1.1H30.17V35.52z"/>
	
		<linearGradient id="SVGID_93_" gradientUnits="userSpaceOnUse" x1="363.2062" y1="-49.5505" x2="585.6797" y2="-49.5505" gradientTransform="matrix(0.0726 0 0 0.0728 11.211 34.6512)">
		<stop  offset="0" style="stop-color:#D5B171"/>
		<stop  offset="1" style="stop-color:#E6CA8F"/>
	</linearGradient>
	<path class="st165" d="M30.17,32.73h14.49c0.01-0.94,0.03-2.14,0.05-3.38H30.17V32.73z"/>
	
		<linearGradient id="SVGID_94_" gradientUnits="userSpaceOnUse" x1="54.5925" y1="-39.6213" x2="251.9859" y2="-39.6213" gradientTransform="matrix(0.0726 0 0 0.0728 11.211 34.6512)">
		<stop  offset="0" style="stop-color:#003876"/>
		<stop  offset="1" style="stop-color:#4E80C0"/>
	</linearGradient>
	<rect x="22.81" y="30.94" class="st166" width="7.05" height="1.65"/>
	
		<linearGradient id="SVGID_95_" gradientUnits="userSpaceOnUse" x1="333.8944" y1="-107.8089" x2="629.7595" y2="-107.8089" gradientTransform="matrix(0.0726 0 0 0.0728 11.211 34.6512)">
		<stop  offset="0" style="stop-color:#003876"/>
		<stop  offset="1" style="stop-color:#4E80C0"/>
	</linearGradient>
	<rect x="30.17" y="25.98" class="st167" width="7.15" height="1.65"/>
	<g>
		<path class="st164" d="M29.86,22.99h-14.5c0,0.26,0.01,1.24,0.03,2.51h14.47V22.99z"/>
	</g>
	<g>
		
			<linearGradient id="SVGID_96_" gradientUnits="userSpaceOnUse" x1="363.2188" y1="51.0683" x2="585.6887" y2="51.0683" gradientTransform="matrix(0.0726 0 0 0.0728 11.211 34.6512)">
			<stop  offset="0" style="stop-color:#D5B171"/>
			<stop  offset="1" style="stop-color:#E6CA8F"/>
		</linearGradient>
		<path class="st168" d="M44.34,35.87c-0.29,1.14-0.91,1.78-1.98,2.11c-3.77,1.15-9.13,2.44-12.1,2.9v-5H44.34z"/>
	</g>
	<polygon class="st169" points="45.87,20.95 37.62,20.95 37.62,22.5 37.73,22.5 37.73,21.06 45.87,21.06 	"/>
	<polygon class="st169" points="37.32,25.98 30.17,25.98 30.17,27.63 30.29,27.63 30.29,26.09 37.32,26.09 	"/>
	<polygon class="st170" points="37.32,19.18 30.17,19.18 30.17,24.12 30.29,24.12 30.29,19.29 37.32,19.29 	"/>
	<polygon class="st171" points="29.86,19.18 13.09,19.18 15.26,22.73 15.39,22.73 13.3,19.29 29.86,19.29 	"/>
	<polygon class="st171" points="29.86,25.76 15.39,25.76 15.42,29.09 15.55,29.09 15.51,25.88 29.86,25.88 	"/>
	<polygon class="st172" points="22.5,29.35 15.43,29.35 15.5,34.12 15.64,34.12 15.56,29.47 22.5,29.47 	"/>
	<polygon class="st170" points="44.76,24.37 37.62,24.37 37.62,29.08 37.73,29.08 37.73,24.48 44.76,24.48 	"/>
	<polygon class="st173" points="29.86,30.94 22.81,30.94 22.81,32.59 22.93,32.59 22.93,31.06 29.86,31.06 	"/>
	<polygon class="st172" points="29.87,34.37 22.82,34.37 22.82,39.44 22.93,39.47 22.93,34.48 29.87,34.48 	"/>
	<polygon class="st171" points="44.43,35.79 30.17,35.79 30.17,40.97 30.29,40.97 30.29,35.9 44.43,35.9 	"/>
	<polygon class="st171" points="44.7,29.35 30.17,29.35 30.17,32.73 30.29,32.73 30.29,29.47 44.7,29.47 	"/>
	<path class="st173" d="M15.75,35.95c0.01,0.03,0.02,0.06,0.03,0.08l0.01,0.03c0.18,0.58,0.58,1.14,1.03,1.51H17
		c-0.45-0.33-0.9-0.89-1.1-1.51h6.61v-0.12H15.75z"/>
	<path class="st154" d="M47.15,19.08c-0.46,0.88-1.24,2.22-2.22,3.77c-0.03,3.38-0.11,9.11-0.16,11.26
		c-0.05,2.31-0.73,3.55-2.19,4.03c-1.43,0.46-9.76,2.7-12.56,2.95l0.07-0.09c3.08-0.35,11.03-2.5,12.45-2.96
		c1.41-0.46,2.07-1.67,2.11-3.92c0.04-2.16,0.13-7.9,0.16-11.28v-0.01l0.01-0.02l2.18-3.59L47.15,19.08"/>
	<path class="st174" d="M47.15,19.08h-0.1H13.01h-0.1l0.05,0.09l2.3,3.74c0.03,3.31,0.13,8.97,0.18,11.26
		c0.05,2.26,0.7,3.42,2.19,3.9c1.57,0.51,9.4,2.67,12.39,3.01h0.01h0.01c3.08-0.35,11.06-2.51,12.48-2.97
		c1.47-0.47,2.14-1.71,2.2-4.03c0.04-2.15,0.13-7.88,0.16-11.27l2.23-3.66L47.15,19.08z M44.76,22.79v0.02
		c-0.03,3.38-0.12,9.12-0.16,11.28c-0.05,2.25-0.7,3.46-2.12,3.92c-1.42,0.46-9.38,2.62-12.45,2.96c-2.99-0.34-10.79-2.5-12.36-3.01
		c-1.45-0.47-2.07-1.57-2.11-3.8c-0.05-2.3-0.15-7.97-0.18-11.28v-0.01l-0.01-0.01l-2.26-3.67h33.84l-2.19,3.58L44.76,22.79z"/>
</g>
</svg>
