<?xml version="1.0" encoding="utf-8"?>
<!-- Generator: Adobe Illustrator 22.1.0, SVG Export Plug-In . SVG Version: 6.00 Build 0)  -->
<svg version="1.1" id="Checkout_1" xmlns="http://www.w3.org/2000/svg" xmlns:xlink="http://www.w3.org/1999/xlink" x="0px" y="0px"
	 viewBox="0 0 60 60" style="enable-background:new 0 0 60 60;" xml:space="preserve">
<style type="text/css">
	.st0{fill:#666666;}
</style>
<g>
	<path class="st0" d="M30,53.4c-13,0-23.5-10.5-23.5-23.5S17,6.5,30,6.5S53.5,17,53.5,29.9S43,53.4,30,53.4z M30,8.5
		c-11.9,0-21.4,9.5-21.4,21.4S18.1,51.4,30,51.4s21.4-9.5,21.4-21.4S41.9,8.5,30,8.5z M21.9,5.8c0.7-0.3,1-1,0.8-1.7L22,2.3
		c-0.3-0.7-1-1-1.7-0.8l-1.7,0.6c-0.7,0.3-1,1-0.8,1.7l0.6,1.7c0.3,0.7,1,1,1.7,0.8L21.9,5.8z M4.8,16l1.5,1
		c0.6,0.4,1.4,0.2,1.8-0.4l1-1.5c0.4-0.6,0.2-1.4-0.4-1.8l-1.5-1c-0.6-0.4-1.4-0.2-1.8,0.4l-1,1.5C4.1,14.9,4.2,15.6,4.8,16z
		 M4.6,32.1l-0.1-1.8c0-0.7-0.7-1.3-1.4-1.3H1.4c-0.7,0-1.3,0.7-1.3,1.4l0.1,1.8c0,0.7,0.7,1.3,1.4,1.3l1.8-0.1
		C4,33.3,4.6,32.8,4.6,32.1z M9.5,45.1c-0.5-0.6-1.3-0.7-1.9-0.2L6.1,46c-0.6,0.5-0.7,1.3-0.2,1.9l1.2,1.4c0.5,0.6,1.3,0.7,1.9,0.2
		l1.4-1.1c0.6-0.5,0.7-1.3,0.2-1.9L9.5,45.1z M24.1,54.7l-1.8-0.5c-0.7-0.2-1.4,0.2-1.6,0.9l-0.4,1.7c-0.2,0.7,0.2,1.4,0.9,1.6
		L23,59c0.7,0.2,1.4-0.2,1.6-0.9l0.5-1.8C25.2,55.7,24.8,54.9,24.1,54.7z M41.5,54.2c-0.3-0.7-1-1-1.7-0.8L38,54
		c-0.7,0.3-1,1-0.8,1.7l0.6,1.7c0.3,0.7,1,1,1.7,0.8l1.7-0.6c0.7-0.3,1-1,0.8-1.7L41.5,54.2z M55.2,43.9l-1.5-1
		c-0.6-0.4-1.4-0.2-1.8,0.4l-1,1.5c-0.4,0.6-0.2,1.4,0.4,1.8l1.5,1c0.6,0.4,1.4,0.2,1.8-0.4l1-1.5C55.9,45,55.8,44.3,55.2,43.9z
		 M59.8,27.6c0-0.7-0.7-1.3-1.4-1.3l-1.8,0.1c-0.7,0-1.3,0.7-1.3,1.4l0.1,1.8c0,0.7,0.7,1.3,1.4,1.3l1.8-0.1c0.7,0,1.3-0.7,1.3-1.4
		L59.8,27.6z M52.3,14.9l1.4-1.1c0.6-0.5,0.7-1.3,0.2-1.9l-1.1-1.3c-0.5-0.6-1.3-0.7-1.9-0.2l-1.4,1.1c-0.6,0.5-0.7,1.3-0.2,1.9
		l1.1,1.4C50.9,15.3,51.7,15.4,52.3,14.9z M39.2,4.7l0.5-1.7c0.2-0.7-0.2-1.4-0.9-1.6L37,0.8c-0.7-0.2-1.4,0.2-1.6,0.9l-0.5,1.7
		c-0.2,0.7,0.2,1.4,0.9,1.6l1.8,0.5C38.4,5.9,39,5.4,39.2,4.7z M31,2.7v-1c0-1-0.9-1.7-1.8-1.7h-1c-1,0-1.7,0.9-1.7,1.8v1
		c0,1,0.9,1.7,1.8,1.7h1C30.3,4.5,31.1,3.6,31,2.7z M13.8,10.4l0.7-0.6c0.7-0.6,0.8-1.6,0.3-2.4l-0.6-0.7c-0.6-0.8-1.7-0.9-2.5-0.3
		l-0.7,0.6c-0.8,0.6-0.9,1.7-0.3,2.5l0.6,0.6C11.9,10.8,13,11,13.8,10.4z M2.3,24.7L3.1,25C4,25.3,5,24.7,5.3,23.8l0.3-0.9
		c0.3-0.9-0.3-1.9-1.2-2.2l-0.9-0.3c-0.9-0.3-1.9,0.3-2.2,1.2l-0.2,0.9C0.8,23.3,1.4,24.4,2.3,24.7z M6.3,39.3L6,38.4
		c-0.3-0.9-1.4-1.4-2.3-1l-0.9,0.3c-0.9,0.3-1.4,1.4-1,2.3l0.3,0.9c0.3,0.9,1.4,1.4,2.3,1l0.9-0.3C6.2,41.2,6.6,40.2,6.3,39.3z
		 M16.3,51.4l-0.7-0.5c-0.8-0.5-1.9-0.3-2.4,0.5l-0.5,0.8c-0.5,0.8-0.3,1.9,0.5,2.4l0.8,0.5c0.8,0.5,1.9,0.3,2.4-0.5l0.5-0.8
		C17.4,53.1,17.2,52,16.3,51.4z M31.6,55.4h-1c-1,0-1.7,0.9-1.7,1.8v1c0,1,0.9,1.7,1.8,1.7h1c1,0,1.7-0.9,1.7-1.8v-1
		C33.3,56.1,32.6,55.3,31.6,55.4z M48.8,49.8c-0.6-0.8-1.7-0.9-2.5-0.3l-0.7,0.6c-0.7,0.6-0.8,1.6-0.3,2.4l0.6,0.7
		c0.6,0.8,1.7,0.9,2.5,0.3l0.7-0.6c0.8-0.6,0.9-1.7,0.3-2.5L48.8,49.8z M57.7,35.2l-0.8-0.3c-0.9-0.3-1.9,0.3-2.2,1.2l-0.3,0.9
		c-0.3,0.9,0.3,1.9,1.2,2.2l0.9,0.3c0.9,0.3,1.9-0.3,2.2-1.2l0.3-0.9C59.2,36.5,58.6,35.5,57.7,35.2z M53.7,20.6l0.3,0.9
		c0.3,0.9,1.4,1.4,2.3,1l0.9-0.3c0.9-0.3,1.4-1.4,1-2.3L57.9,19c-0.3-0.9-1.4-1.4-2.3-1l-0.9,0.3C53.8,18.7,53.3,19.7,53.7,20.6z
		 M46.9,8.5l0.5-0.8c0.5-0.8,0.3-1.9-0.5-2.4L46,4.8c-0.8-0.5-1.9-0.3-2.4,0.5L43,6c-0.5,0.8-0.3,1.9,0.5,2.4L44.3,9
		C45.2,9.4,46.3,9.2,46.9,8.5z"/>
</g>
<g>
	<path class="st0" d="M28.6,32.8c-1.1-0.5-2.6-1.8-4.9-2.2c0.5-0.7,1.1-1.8,1.5-3c0.3-0.7,0.2-1.3,0.2-2.2c0-0.7,0.1-1.7,0-2.3
		c-0.5-2-1.8-2.5-3.3-2.5c-1.5,0-2.8,0.5-3.3,2.5c-0.2,0.6,0,1.6,0,2.3c0,0.9-0.1,1.5,0.3,2.2c0.4,1.2,0.9,2.3,1.5,3
		c-2.2,0.4-3.8,1.8-4.8,2.2c-2.1,1.1-2.1,2.2-2.1,2.2v0.4l0,0l0,0V37c0,0.4,0.3,0.6,0.6,0.6h15.9c0.4,0,0.6-0.3,0.6-0.6v-1.5l0,0
		l0,0v-0.4C30.7,35,30.7,33.9,28.6,32.8z"/>
	<path class="st0" d="M46.1,34.4h-12c-0.4,0-0.6,0.3-0.6,0.6v1.1c0,0.4,0.3,0.6,0.6,0.6h12c0.4,0,0.6-0.3,0.6-0.6V35
		C46.7,34.7,46.4,34.4,46.1,34.4z"/>
	<path class="st0" d="M46.1,21.5h-12c-0.4,0-0.6,0.3-0.6,0.6v1.1c0,0.4,0.3,0.6,0.6,0.6h12c0.4,0,0.6-0.3,0.6-0.6v-1.1
		C46.7,21.7,46.4,21.5,46.1,21.5z"/>
	<path class="st0" d="M46.1,27.9h-12c-0.4,0-0.6,0.3-0.6,0.6v1.1c0,0.4,0.3,0.6,0.6,0.6h12c0.4,0,0.6-0.3,0.6-0.6v-1.1
		C46.7,28.2,46.4,27.9,46.1,27.9z"/>
</g>
</svg>
