<?xml version="1.0" encoding="utf-8"?>
<!-- Generator: Adobe Illustrator 21.1.0, SVG Export Plug-In . SVG Version: 6.00 Build 0)  -->
<svg version="1.1" id="Lincoln" xmlns="http://www.w3.org/2000/svg" xmlns:xlink="http://www.w3.org/1999/xlink" x="0px" y="0px"
	 viewBox="0 0 60 60" style="enable-background:new 0 0 60 60;" xml:space="preserve">
<style type="text/css">
	.st0{fill-rule:evenodd;clip-rule:evenodd;fill:#CFD1D2;}
</style>
<path class="st0" d="M25.3,52.6c-1-7.3-1.3-16.6-1.3-21.4c1.5,0.2,3.1,0.3,4.4,0.4c0,8.9,0.4,16.1,0.7,21H25.3h9.5H31
	c0.3-4.9,0.6-12.1,0.7-21c1.3-0.1,2.9-0.2,4.4-0.4c0,4.8-0.3,14-1.3,21.4H25.3L25.3,52.6z M25.3,7.4H29c-0.3,4.9-0.6,12.1-0.7,21
	c-1.4,0.1-2.9,0.2-4.4,0.4C24,24,24.2,14.8,25.3,7.4L25.3,7.4z M34.7,7.4c1,7.3,1.3,16.6,1.3,21.4c-1.5-0.2-3.1-0.3-4.4-0.4
	c0-8.9-0.4-16.1-0.7-21H34.7L34.7,7.4z M38.2,29c0-7.5-0.5-16.1-1.7-23.9c0,0-2.5-0.3-5.7-0.3C30.6,1.7,30.4,0,30.4,0h-0.8
	c0,0-0.2,1.7-0.4,4.8c-3.2,0-5.7,0.3-5.7,0.3c-1.2,7.8-1.6,16.4-1.7,23.9c-2.7,0.3-4.8,0.6-4.8,0.6v0.8c0,0,2.1,0.3,4.8,0.6
	c0,7.5,0.5,16.1,1.7,23.9c0,0,2.5,0.3,5.7,0.3c0.2,3.1,0.4,4.7,0.4,4.7h0.8c0,0,0.2-1.7,0.4-4.7c3.2,0,5.7-0.3,5.7-0.3
	c1.2-7.8,1.6-16.4,1.7-23.9c2.7-0.3,4.8-0.6,4.8-0.6v-0.8C42.9,29.6,40.8,29.3,38.2,29L38.2,29z"/>
</svg>
