<?xml version="1.0" encoding="utf-8"?>
<!-- Generator: Adobe Illustrator 21.1.0, SVG Export Plug-In . SVG Version: 6.00 Build 0)  -->
<svg version="1.1" id="Jeep" xmlns="http://www.w3.org/2000/svg" xmlns:xlink="http://www.w3.org/1999/xlink" x="0px" y="0px"
	 viewBox="0 0 60 60" style="enable-background:new 0 0 60 60;" xml:space="preserve">
<style type="text/css">
	.st0{fill-rule:evenodd;clip-rule:evenodd;fill:#FFFFFF;}
</style>
<g>
	<path class="st0" d="M14.8,39c0,2.9-2.4,5.3-5.3,5.3c-2.9,0-5.3-2.4-5.3-5.3c0-2.9,2.4-5.3,5.3-5.3C12.4,33.7,14.8,36.1,14.8,39
		L14.8,39z"/>
	<path class="st0" d="M56,39c0,2.9-2.4,5.3-5.3,5.3c-2.9,0-5.3-2.4-5.3-5.3c0-2.9,2.4-5.3,5.3-5.3C53.6,33.7,56,36.1,56,39L56,39z"
		/>
	<path class="st0" d="M17.5,34.6c-0.7,0-1.2,0.6-1.2,1v14.3c0,0.4,0.6,1,1.2,1c0.7,0,1.2-0.6,1.2-1V35.6
		C18.8,35.2,18.2,34.6,17.5,34.6L17.5,34.6z"/>
	<path class="st0" d="M21.7,34.6c-0.7,0-1.2,0.6-1.2,1v14.3c0,0.4,0.6,1,1.2,1c0.7,0,1.2-0.6,1.2-1V35.6
		C23,35.2,22.4,34.6,21.7,34.6L21.7,34.6z"/>
	<path class="st0" d="M25.9,34.6c-0.7,0-1.2,0.6-1.2,1v14.3c0,0.4,0.6,1,1.2,1c0.7,0,1.2-0.6,1.2-1V35.6
		C27.1,35.2,26.6,34.6,25.9,34.6L25.9,34.6z"/>
	<path class="st0" d="M30.1,34.6c-0.7,0-1.2,0.6-1.2,1v14.3c0,0.4,0.6,1,1.2,1c0.7,0,1.2-0.6,1.2-1V35.6
		C31.3,35.2,30.8,34.6,30.1,34.6L30.1,34.6z"/>
	<path class="st0" d="M34.3,34.6c-0.7,0-1.2,0.6-1.2,1v14.3c0,0.4,0.6,1,1.2,1c0.7,0,1.2-0.6,1.2-1V35.6
		C35.5,35.2,35,34.6,34.3,34.6L34.3,34.6z"/>
	<path class="st0" d="M38.5,34.6c-0.7,0-1.2,0.6-1.2,1v14.3c0,0.4,0.6,1,1.2,1c0.7,0,1.2-0.6,1.2-1V35.6
		C39.7,35.2,39.1,34.6,38.5,34.6L38.5,34.6z"/>
	<path class="st0" d="M42.7,34.6c-0.7,0-1.2,0.6-1.2,1v14.3c0,0.4,0.6,1,1.2,1c0.7,0,1.2-0.6,1.2-1V35.6
		C43.9,35.2,43.3,34.6,42.7,34.6L42.7,34.6z"/>
	<g>
		<path class="st0" d="M35.5,17.8c-1.1,0-1.9,0.8-2,2l0,0.1h4v-0.1C37.4,18.7,36.6,17.8,35.5,17.8z"/>
		<path class="st0" d="M24.9,17.8c-1.1,0-1.9,0.8-2,2l0,0.1h3.9l0-0.1C26.7,18.7,25.9,17.8,24.9,17.8z"/>
		<path class="st0" d="M58.4,9.1l-56.8,0c-1.7,0-1.6,1.6-1.6,1.6v27.4c0.7-4.2,4.3-7.3,8.7-7.3h4c1.1,0,2.9,0,4,0h26.5
			c1.1,0,2.9,0,4,0h4.1c4.2,0,7.7,3,8.6,6.9v-27C60,10.7,60,9.1,58.4,9.1z M18.9,21.3c0,2.9-1.4,4.3-4.4,4.3c-3,0-4.4-1.5-4.4-4.8
			c0,0,0-0.4,0-0.5c0.1,0,2.9,0,3,0c0,0.1,0,1.1,0,1.1c0,0.9,0.5,1.4,1.4,1.4c0.9,0,1.3-0.5,1.3-1.7c0,0,0-8.4,0-8.5
			c0.1,0,3.1,0,3.2,0C18.9,12.8,18.9,21.3,18.9,21.3z M29.7,21.4c-0.1,0-6.9,0-6.9,0v0.1c0.1,1.4,0.9,2.2,2.2,2.2
			c0.8,0,1.5-0.4,1.8-1c0.1,0,2.5,0,2.7,0c-0.5,1.9-2.2,3-4.5,3c-3.1,0-5-1.9-5-4.9c0-2.7,2.2-4.8,5-4.8c1.4,0,2.6,0.5,3.4,1.3
			c0.9,0.9,1.4,2.3,1.4,3.9C29.7,21.2,29.7,21.3,29.7,21.4z M40.3,21.4c-0.1,0-6.9,0-6.9,0l0,0.1c0.1,1.4,0.9,2.2,2.2,2.2
			c0.8,0,1.5-0.4,1.8-1c0.1,0,2.5,0,2.7,0c-0.5,1.9-2.2,3-4.5,3c-3.1,0-5-1.9-5-4.9c0-2.7,2.2-4.8,5-4.8c1.4,0,2.6,0.5,3.4,1.3
			c0.9,0.9,1.4,2.3,1.4,3.9C40.4,21.2,40.3,21.3,40.3,21.4z M47,25.6c-1.1,0-2-0.4-2.6-1.3l0,0h-0.1c0,0,0,4,0,4.1
			c-0.1,0-2.8,0-2.9,0c0-0.1,0-12.2,0-12.3c0.1,0,2.6,0,2.8,0c0,0.1,0,1.1,0,1.1h0.1l0,0c0.6-0.9,1.4-1.3,2.5-1.3
			c3,0,4.1,2.7,4.1,5.1C50.8,23.3,49.6,25.6,47,25.6z"/>
		<path class="st0" d="M46,18.1c-0.9,0-1.9,0.7-1.9,2.6c0,1.9,0.6,2.8,1.9,2.8c1.4,0,1.9-1.4,1.9-2.8C47.9,19.4,47.4,18.1,46,18.1z"
			/>
	</g>
	<path class="st0" d="M52.3,28.2c-1.1,0-2-0.9-2-2c0-1.1,0.9-2,2-2c1.1,0,2,0.9,2,2C54.3,27.2,53.4,28.2,52.3,28.2L52.3,28.2z
		 M52.3,24.6c-0.8,0-1.5,0.7-1.5,1.5c0,0.8,0.7,1.5,1.5,1.5c0.8,0,1.5-0.7,1.5-1.5C53.8,25.3,53.1,24.6,52.3,24.6L52.3,24.6z
		 M52.6,27.2l-0.3-0.8h-0.4v0.8h-0.5v-2.1h0.9c0.3,0,0.4,0,0.6,0.1c0.1,0.1,0.2,0.3,0.2,0.5c0,0.2-0.1,0.4-0.2,0.5
		c0,0-0.1,0-0.1,0.1l0.4,0.9H52.6L52.6,27.2z M52.2,25.5h-0.3V26h0.3c0.3,0,0.4-0.1,0.4-0.3C52.6,25.5,52.5,25.5,52.2,25.5
		L52.2,25.5z"/>
</g>
</svg>
