<?xml version="1.0" encoding="utf-8"?>
<!-- Generator: Adobe Illustrator 21.1.0, SVG Export Plug-In . SVG Version: 6.00 Build 0)  -->
<svg version="1.1" id="Kawasaki" xmlns="http://www.w3.org/2000/svg" xmlns:xlink="http://www.w3.org/1999/xlink" x="0px" y="0px"
	 viewBox="0 0 60 60" style="enable-background:new 0 0 60 60;" xml:space="preserve">
<style type="text/css">
	.st0{fill-rule:evenodd;clip-rule:evenodd;fill:#EC1C24;}
</style>
<path class="st0" d="M0,30.6v2.4h5.5v-2.4v-0.3h1.1c0.7,0,1.8,0.1,2.9,0.3c1.2,0.3,2.3,0.7,2.3,1.3c0,0.5-0.8,1.1-0.8,1.1h7.9
	c0,0-0.2-0.9-0.6-1.4c-0.3-0.4-0.6-0.7-1.1-1c-0.4-0.2-1-0.4-1.8-0.5V30c0.4,0,1.3-0.3,2.1-0.9c1.1-0.7,1.3-2.1,1.3-2.1H11
	c0,0,0.7,0.5,0.7,1c0,1-3.7,1.8-5,1.8H5.5v-2.8H0V30.6L0,30.6z M20.2,30.6V27h2v2l1.8-2h2.3l-2.2,2.3l0.9,1.4l1.6,2.4h-2.4l-1.5-2.4
	l-0.5,0.5v1.9h-2V30.6L20.2,30.6z M27,30.6c0.9-0.4,2.3-0.2,2.3-0.7c0-0.3-0.4-0.4-0.6-0.4c-0.3,0-0.6,0-0.6,0.4h-1.7
	c0-0.9,0.7-1.5,2.4-1.5c2.1,0,2.2,0.8,2.2,1.8v0.3v1.8c0,0.3,0,0.4,0.2,0.6v0.1h-1.8l-0.1-0.5c-0.5,0.5-1,0.6-1.7,0.6
	c-0.8,0-1.6-0.4-1.6-1.3C26.2,31.2,26.6,30.8,27,30.6L27,30.6z M31.6,30.6l-0.7-2h1.7l0.5,2l0.2,0.7l0.2-0.7l0.5-2h1.5l0.5,2
	l0.2,0.7l0.2-0.7l0.5-2h1.7l-0.6,2l-0.8,2.4h-1.7l-0.6-2.4l0-0.2l0,0.2l-0.6,2.4h-1.7L31.6,30.6L31.6,30.6z M38.9,30.6
	c0.9-0.4,2.3-0.2,2.3-0.7c0-0.3-0.4-0.4-0.6-0.4c-0.2,0-0.6,0-0.6,0.4h-1.7c0-0.9,0.7-1.5,2.4-1.5c2.1,0,2.2,0.8,2.2,1.8v0.3v1.8
	c0,0.3,0,0.4,0.2,0.6v0.1h-1.8l-0.1-0.5c-0.5,0.5-1,0.6-1.7,0.6c-0.8,0-1.6-0.4-1.6-1.3C38,31.2,38.4,30.8,38.9,30.6L38.9,30.6z
	 M43.4,30.6c-0.1-0.2-0.2-0.4-0.2-0.7c0-1.1,1.2-1.5,2.1-1.5c1,0,2.1,0.2,2.2,1.4h-1.6c0-0.1-0.1-0.2-0.2-0.3
	c-0.1-0.1-0.2-0.1-0.4-0.1c-0.3,0-0.5,0.1-0.5,0.3c0,0.4,1.4,0.4,2.2,0.8c0.3,0.2,0.6,0.5,0.6,1c0,0.9-0.8,1.5-2.4,1.5
	c-1,0-2.1-0.3-2.2-1.5h1.7c0,0.2,0.1,0.3,0.2,0.4c0.1,0.1,0.3,0.1,0.4,0.1c0.3,0,0.6-0.1,0.6-0.4C45.9,31.2,44,31.5,43.4,30.6
	L43.4,30.6z M48.6,30.6c0.9-0.4,2.3-0.2,2.3-0.7c0-0.3-0.4-0.4-0.6-0.4c-0.2,0-0.6,0-0.6,0.4H48c0-0.9,0.7-1.5,2.4-1.5
	c2.1,0,2.2,0.8,2.2,1.8v0.3v1.8c0,0.3,0,0.4,0.2,0.6v0.1h-1.8L51,32.6c-0.5,0.5-1,0.6-1.7,0.6c-0.8,0-1.6-0.4-1.6-1.3
	C47.7,31.2,48.1,30.8,48.6,30.6L48.6,30.6z M53,30.6V27h1.8v3l1.1-1.3h2.1l-1.6,1.7l0.2,0.3l1.7,2.4H56l-1-1.6l-0.3,0.3v1.2H53V30.6
	L53,30.6z M58.2,28.6v2v2.4H60v-2.4v-2H58.2L58.2,28.6z M58.2,26.8v1.3H60v-1.3H58.2L58.2,26.8z M50.9,31.1
	c-0.6,0.3-1.3,0.1-1.3,0.7c0,0.2,0.2,0.4,0.6,0.4C50.7,32.2,50.9,31.7,50.9,31.1L50.9,31.1z M41.2,31.1c-0.6,0.3-1.3,0.1-1.3,0.7
	c0,0.2,0.2,0.4,0.6,0.4C41,32.2,41.2,31.7,41.2,31.1L41.2,31.1z M29.4,31.1c-0.6,0.3-1.3,0.1-1.3,0.7c0,0.2,0.2,0.4,0.6,0.4
	C29.2,32.2,29.4,31.7,29.4,31.1L29.4,31.1z"/>
</svg>
