<?xml version="1.0" encoding="utf-8"?>
<!-- Generator: Adobe Illustrator 21.1.0, SVG Export Plug-In . SVG Version: 6.00 Build 0)  -->
<svg version="1.1" id="Layer_84" xmlns="http://www.w3.org/2000/svg" xmlns:xlink="http://www.w3.org/1999/xlink" x="0px" y="0px"
	 viewBox="0 0 60 60" style="enable-background:new 0 0 60 60;" xml:space="preserve">
<style type="text/css">
	.st0{fill:#FFFFFF;}
	.st1{fill:#171715;}
	.st2{fill:#FFAC35;}
</style>
<g>
	<path class="st0" d="M45.5,36.7L43.8,34c-0.5-0.8-0.8-1.8-0.8-2.9V19.5C42.9,14.9,43.3,5,30,5c-10.8,0-14.1,5.7-15.1,9.3
		c-0.4,1.4,0.6,2.8,2,3l4.2,0.4c1,0.1,1.9-0.4,2.4-1.3c0.8-1.7,2.2-4.2,6.6-4.2c1.7,0,4,0.7,4,2.8c0,3,0,4.5,0,4.5
		c0,0.6-0.5,1.1-1.1,1.1h-4.1c-3.1,0-14.8,1.6-14.8,13.3c0,11.7,12.4,10.3,13.2,10.1c1.5-0.4,4.4-1.4,7.1-4c0.5-0.4,1.2-0.4,1.6,0.1
		l2.2,2.7c0.8,1,2.4,1.2,3.4,0.2l3.6-3.3C46,38.9,46.2,37.7,45.5,36.7L45.5,36.7z M27.6,36.1c-4.1,0-4-3.8-3.1-5.5
		c0.9-1.7,3.3-4.6,9.6-4.8l0.1,3.1c0,2.3-1,4.5-2.9,5.8C30.1,35.5,28.9,36.1,27.6,36.1L27.6,36.1z"/>
	<path class="st0" d="M0.2,46.8c-0.6-0.6,0.1-1.6,0.8-1.2c5.4,2.6,15.5,6.7,26.6,6.7c11.4,0,21-2.7,25.8-4.4
		c0.8-0.3,1.3,0.8,0.7,1.3C50.3,52.2,42.2,57,28,57C13.9,57,4.7,50.8,0.2,46.8L0.2,46.8z"/>
	<path class="st0" d="M48.4,45.1c1.5-1.1,5.2-3,10.7-1.3c0.5,0.2,0.9,0.6,0.9,1.2c0,1.8-0.4,6.1-3.9,9.6c-0.2,0.2-0.7,0-0.6-0.3
		c0.6-2.2,1.8-7,1.5-7.7c-0.5-0.8-6-0.8-8.3-0.8C48.3,45.7,48.2,45.3,48.4,45.1L48.4,45.1z"/>
</g>
<g>
	<path class="st1" d="M45.5,34.7L43.8,32c-0.5-0.9-0.8-1.8-0.8-2.9V17.5C42.9,12.9,43.3,3,30,3c-10.8,0-14.1,5.7-15.1,9.3
		c-0.4,1.4,0.6,2.8,2,3l4.2,0.4c1,0.1,1.9-0.4,2.4-1.3c0.8-1.7,2.2-4.2,6.6-4.2c1.7,0,4,0.7,4,2.8c0,3,0,4.5,0,4.5
		c0,0.6-0.5,1.1-1.1,1.1h-4.1c-3.1,0-14.8,1.6-14.8,13.3c0,11.7,12.4,10.3,13.2,10.2c1.5-0.4,4.4-1.4,7.1-4c0.5-0.4,1.2-0.4,1.6,0.1
		l2.2,2.7c0.8,1,2.4,1.2,3.4,0.2l3.6-3.3C46,36.9,46.2,35.7,45.5,34.7L45.5,34.7z M27.6,34.1c-4.1,0-4-3.8-3.1-5.5
		c0.9-1.7,3.3-4.6,9.6-4.8l0.1,3.1c0,2.3-1,4.5-2.9,5.8C30.1,33.5,28.9,34.1,27.6,34.1L27.6,34.1z"/>
	<path class="st2" d="M0.2,44.8c-0.6-0.6,0.1-1.6,0.8-1.2c5.4,2.6,15.5,6.7,26.6,6.7c11.4,0,21-2.7,25.8-4.4
		c0.8-0.3,1.3,0.8,0.7,1.3C50.3,50.2,42.2,55,28,55C13.9,55,4.7,48.8,0.2,44.8L0.2,44.8z"/>
	<path class="st2" d="M48.4,43.1c1.5-1.1,5.2-3,10.7-1.3c0.5,0.2,0.9,0.6,0.9,1.2c0,1.8-0.4,6.1-3.9,9.6c-0.2,0.2-0.7,0-0.6-0.3
		c0.6-2.2,1.8-7,1.5-7.7c-0.5-0.8-6-0.8-8.3-0.8C48.3,43.7,48.2,43.3,48.4,43.1L48.4,43.1z"/>
</g>
</svg>
