<?xml version="1.0" encoding="utf-8"?>
<!-- Generator: Adobe Illustrator 21.1.0, SVG Export Plug-In . SVG Version: 6.00 Build 0)  -->
<svg version="1.1" id="Arrow_Right" xmlns="http://www.w3.org/2000/svg" xmlns:xlink="http://www.w3.org/1999/xlink" x="0px"
	 y="0px" viewBox="0 0 60 60" style="enable-background:new 0 0 60 60;" xml:space="preserve">
<style type="text/css">
	.st0{fill:#919395;}
</style>
<g>
	<path class="st0" d="M60,25c0-1.2-0.1-2.7-0.3-4.6c-0.2-1.8-0.4-3.5-0.7-4.9c-0.4-1.6-1.1-3-2.3-4.1c-1.2-1.1-2.6-1.8-4.2-1.9
		C47.5,8.9,40,8.6,30,8.6c-10,0-17.5,0.3-22.5,0.8c-1.6,0.2-3,0.8-4.2,1.9c-1.2,1.1-2,2.5-2.3,4.1c-0.3,1.5-0.6,3.1-0.8,4.9
		C0.2,22.2,0.1,23.8,0,25c0,1.2,0,2.9,0,5s0,3.8,0,5c0,1.2,0.1,2.7,0.3,4.6c0.2,1.8,0.4,3.5,0.7,4.9c0.4,1.6,1.1,3,2.3,4.1
		c1.2,1.1,2.6,1.8,4.2,1.9c5,0.6,12.4,0.8,22.5,0.8c10,0,17.5-0.3,22.5-0.8c1.6-0.2,3-0.8,4.2-1.9c1.2-1.1,2-2.5,2.3-4.1
		c0.3-1.5,0.6-3.1,0.8-4.9c0.2-1.8,0.3-3.4,0.3-4.6c0-1.2,0-2.9,0-5S60,26.2,60,25L60,25z M41.9,31.8L24.7,42.5
		c-0.3,0.2-0.7,0.3-1.1,0.3c-0.3,0-0.7-0.1-1-0.3c-0.7-0.4-1.1-1-1.1-1.9V19.3c0-0.8,0.4-1.5,1.1-1.9c0.8-0.4,1.5-0.4,2.2,0.1
		l17.1,10.7c0.7,0.4,1,1,1,1.8C42.9,30.8,42.5,31.4,41.9,31.8L41.9,31.8z M41.9,31.8"/>
</g>
</svg>
