<?xml version="1.0" encoding="utf-8"?>
<!-- Generator: Adobe Illustrator 21.1.0, SVG Export Plug-In . SVG Version: 6.00 Build 0)  -->
<svg version="1.1" id="Arrow_Right" xmlns="http://www.w3.org/2000/svg" xmlns:xlink="http://www.w3.org/1999/xlink" x="0px"
	 y="0px" viewBox="0 0 60 60" style="enable-background:new 0 0 60 60;" xml:space="preserve">
<style type="text/css">
	.st0{fill:#919395;}
</style>
<g>
	<path class="st0" d="M57.7,2.3C56.2,0.8,54.4,0,52.3,0H7.7C5.6,0,3.8,0.8,2.3,2.3C0.8,3.8,0,5.6,0,7.7v44.6c0,2.1,0.8,3.9,2.3,5.4
		C3.8,59.2,5.6,60,7.7,60h44.6c2.1,0,3.9-0.8,5.4-2.3c1.5-1.5,2.3-3.3,2.3-5.4V7.7C60,5.6,59.2,3.8,57.7,2.3L57.7,2.3z M21.5,21.6
		c2.4-2.3,5.2-3.4,8.5-3.4c3.3,0,6.2,1.1,8.5,3.4c2.4,2.3,3.5,5,3.5,8.3c0,3.2-1.2,6-3.5,8.3c-2.4,2.3-5.2,3.4-8.5,3.4
		c-3.3,0-6.1-1.1-8.5-3.4c-2.4-2.3-3.5-5-3.5-8.3C18,26.7,19.2,23.9,21.5,21.6L21.5,21.6z M53.2,50.7c0,0.7-0.2,1.2-0.7,1.7
		c-0.5,0.5-1,0.7-1.7,0.7H9.1c-0.7,0-1.2-0.2-1.7-0.7c-0.5-0.5-0.7-1-0.7-1.7V25.4h5.5c-0.5,1.6-0.8,3.3-0.8,5.1
		c0,5,1.8,9.3,5.5,12.8c3.6,3.5,8,5.3,13.2,5.3c3.4,0,6.5-0.8,9.4-2.4c2.9-1.6,5.1-3.8,6.8-6.6c1.7-2.8,2.5-5.8,2.5-9.1
		c0-1.8-0.3-3.5-0.8-5.1h5.3V50.7z M53.2,15.8c0,0.8-0.3,1.4-0.8,1.9c-0.5,0.5-1.2,0.8-1.9,0.8h-6.8c-0.8,0-1.4-0.3-1.9-0.8
		c-0.5-0.5-0.8-1.2-0.8-1.9V9.4c0-0.7,0.3-1.4,0.8-1.9c0.5-0.5,1.2-0.8,1.9-0.8h6.8c0.8,0,1.4,0.3,1.9,0.8c0.5,0.5,0.8,1.2,0.8,1.9
		V15.8z M53.2,15.8"/>
</g>
</svg>
