<?xml version="1.0" encoding="utf-8"?>
<!-- Generator: Adobe Illustrator 21.1.0, SVG Export Plug-In . SVG Version: 6.00 Build 0)  -->
<svg version="1.1" id="Arrow_Right" xmlns="http://www.w3.org/2000/svg" xmlns:xlink="http://www.w3.org/1999/xlink" x="0px"
	 y="0px" viewBox="0 0 60 60" style="enable-background:new 0 0 60 60;" xml:space="preserve">
<style type="text/css">
	.st0{fill:#FFFFFF;}
	.st1{fill:#666666;}
</style>
<g>
	<g>
		<path class="st0" d="M53.3,29.6L26.2,2.5c-0.4-0.4-0.8-0.6-1.4-0.6c-0.5,0-1,0.2-1.4,0.6l-2.9,2.9c-0.3,0.4-0.5,0.9-0.5,1.4
			s0.2,1,0.6,1.4L43.5,31L20.7,53.8c-0.4,0.4-0.6,0.9-0.6,1.4c0,0.5,0.2,1,0.6,1.4l2.9,2.9c0.4,0.4,0.9,0.6,1.4,0.6s1-0.2,1.4-0.6
			l27.1-27.1c0.4-0.4,0.6-0.9,0.6-1.4C53.9,30.5,53.7,30,53.3,29.6L53.3,29.6z"/>
		<circle class="st0" cx="16.7" cy="31" r="8.7"/>
	</g>
	<g>
		<path class="st1" d="M51.3,27.7L24.2,0.6C23.9,0.2,23.5,0,22.9,0c-0.5,0-1,0.2-1.4,0.6l-2.9,2.9c-0.3,0.4-0.5,0.9-0.5,1.4
			s0.2,1,0.6,1.4L41.6,29L18.7,51.9c-0.4,0.4-0.6,0.9-0.6,1.4c0,0.5,0.2,1,0.6,1.4l2.9,2.9c0.4,0.4,0.9,0.6,1.4,0.6s1-0.2,1.4-0.6
			l27.1-27.1C51.8,30,52,29.5,52,29C51.9,28.5,51.7,28.1,51.3,27.7L51.3,27.7z"/>
		<circle class="st1" cx="14.8" cy="29" r="8.7"/>
	</g>
</g>
</svg>
