<?xml version="1.0" encoding="utf-8"?>
<!-- Generator: Adobe Illustrator 21.1.0, SVG Export Plug-In . SVG Version: 6.00 Build 0)  -->
<svg version="1.1" id="Arrow_Right" xmlns="http://www.w3.org/2000/svg" xmlns:xlink="http://www.w3.org/1999/xlink" x="0px"
	 y="0px" viewBox="0 0 60 60" style="enable-background:new 0 0 60 60;" xml:space="preserve">
<style type="text/css">
	.st0{fill:#919395;}
</style>
<g>
	<path class="st0" d="M29.8,54.5c0,2.6-2.1,4.6-4.6,4.6c-2.6,0-4.6-2.1-4.6-4.6s2.1-4.6,4.6-4.6C27.7,49.9,29.8,52,29.8,54.5
		L29.8,54.5z M29.8,54.5"/>
	<path class="st0" d="M51.9,54.5c0,2.6-2.1,4.6-4.6,4.6c-2.6,0-4.6-2.1-4.6-4.6s2.1-4.6,4.6-4.6C49.9,49.9,51.9,52,51.9,54.5
		L51.9,54.5z M51.9,54.5"/>
	<path class="st0" d="M56.6,17.1l-41.7-3.9c-0.2,0-0.4,0-0.7,0l-1.7-8.1c0-0.2-0.1-0.3-0.1-0.5c-0.3-0.6-0.8-1.2-1.5-1.4L3,0.9
		C1.8,0.6,0.5,1.3,0.1,2.5C-0.3,3.7,0.4,5,1.7,5.4l6.6,2l8,38.5c0.1,1.1,1.1,2,2.3,2l34.3,0c1.3,0,2.3-1,2.3-2.3
		c0-1.3-1-2.3-2.3-2.3l-32.4,0l-1.1-5.3h34.1c1.8,0,3.3-1.2,3.7-2.8l2.8-13.9C60.3,19.2,58.8,17.3,56.6,17.1L56.6,17.1z M56.6,17.1"
		/>
</g>
</svg>
