<?xml version="1.0" encoding="utf-8"?>
<!-- Generator: Adobe Illustrator 21.1.0, SVG Export Plug-In . SVG Version: 6.00 Build 0)  -->
<svg version="1.1" id="Arrow_Right" xmlns="http://www.w3.org/2000/svg" xmlns:xlink="http://www.w3.org/1999/xlink" x="0px"
	 y="0px" viewBox="0 0 60 60" style="enable-background:new 0 0 60 60;" xml:space="preserve">
<style type="text/css">
	.st0{fill:#919395;}
</style>
<g>
	<path class="st0" d="M35.6,44.2c-1.5-1.5-3.4-1.5-5,0c-1.2,1.1-2.3,2.3-3.5,3.5c-0.3,0.3-0.6,0.4-1,0.2c-0.7-0.4-1.5-0.7-2.3-1.2
		c-3.4-2.1-6.2-4.8-8.7-7.9c-1.2-1.5-2.3-3.1-3.1-5c-0.1-0.4-0.1-0.6,0.2-0.9c1.2-1.1,2.3-2.3,3.4-3.4c1.6-1.6,1.6-3.5,0-5.1
		c-0.9-0.9-1.8-1.8-2.7-2.7c-0.9-0.9-1.9-1.9-2.8-2.8c-1.5-1.5-3.4-1.5-5,0C4.1,20,3,21.2,1.8,22.3c-1.1,1-1.7,2.3-1.8,3.8
		c-0.2,2.4,0.4,4.7,1.2,6.9c1.7,4.6,4.3,8.7,7.5,12.5c4.3,5.1,9.4,9.1,15.4,12c2.7,1.3,5.5,2.3,8.5,2.5c2.1,0.1,3.9-0.4,5.4-2
		c1-1.1,2.1-2.1,3.2-3.2c1.6-1.6,1.6-3.5,0-5C39.3,47.9,37.4,46,35.6,44.2L35.6,44.2z M35.6,44.2"/>
	<path class="st0" d="M54.5,5.5c-7.4-7.4-19.3-7.4-26.7,0c-7.1,7.1-7.4,18.5-0.8,25.9l0.2,0.2c-0.7,1.5-1.9,3.4-3.9,4.4
		c-0.6,0.3-0.5,1.3,0.2,1.4c2.1,0.3,5.2,0,8-2.2l0,0c7.2,4.3,16.7,3.3,22.9-2.9C61.8,24.9,61.8,12.9,54.5,5.5L54.5,5.5z M41.9,7.2
		c1.7,0,3.1,1.4,3,3.1c0,1.7-1.4,3.1-3.1,3.1c-1.7,0-3.1-1.4-3.1-3.1C38.8,8.6,40.2,7.2,41.9,7.2L41.9,7.2z M46.3,28
		c-0.1,0.3-0.2,0.5-0.4,0.7c-1.1,1.1-2.5,1.8-4.1,1.8c-0.7,0-1.5,0-2.2-0.1c-1.2-0.2-2.8-1.7-2.6-3.3c0.1-1.1,0.3-2.2,0.5-3.3
		c0.3-1.9,0.7-3.9,1-5.8c0-0.1,0-0.2,0-0.4c0-0.8-0.2-1.1-1-1.2c-0.3,0-0.7-0.1-1-0.2c-0.4-0.1-0.6-0.4-0.5-0.8
		c0-0.3,0.2-0.5,0.7-0.6c0.2,0,0.5,0,0.7,0h5.8c0.7,0,1.1,0.3,1.2,1.1c0,0.6-0.1,1.2-0.2,1.8c-0.4,2.2-0.8,4.4-1.2,6.6
		c-0.1,0.7-0.3,1.5-0.4,2.2c0,0.3,0,0.7,0.1,1.1c0.1,0.5,0.5,0.7,0.9,0.7c0.4,0,0.8-0.2,1.1-0.3c0.3-0.1,0.6-0.3,0.9-0.4
		C46,27.2,46.4,27.5,46.3,28L46.3,28z M46.3,28"/>
</g>
</svg>
