<?xml version="1.0" encoding="utf-8"?>
<!-- Generator: Adobe Illustrator 21.1.0, SVG Export Plug-In . SVG Version: 6.00 Build 0)  -->
<svg version="1.1" id="Layer_84" xmlns="http://www.w3.org/2000/svg" xmlns:xlink="http://www.w3.org/1999/xlink" x="0px" y="0px"
	 viewBox="0 0 60 60" style="enable-background:new 0 0 60 60;" xml:space="preserve">
<style type="text/css">
	.st0{fill:#FFFFFF;}
	.st1{fill:#00C8E5;}
</style>
<g>
	<path class="st0" d="M30,2.7C14.3,2.7,1.7,15.3,1.7,31S14.3,59.3,30,59.3S58.3,46.6,58.3,31S45.7,2.7,30,2.7z M33.8,39.9V25.4
		l-10,12.8l-0.2,0.2c-0.7,0.9-1.8,1.4-3,1.4h-0.1h-4.7l1.4-1.7L22,32l10.4-13.2c0.7-1,2-1.5,3.4-1.4c2,0.2,3.4,1.9,3.4,3.8v18.7
		H33.8z"/>
</g>
<g>
	<path class="st1" d="M30,0.7C14.3,0.7,1.7,13.3,1.7,29S14.3,57.3,30,57.3S58.3,44.6,58.3,29S45.7,0.7,30,0.7z M33.8,37.9V23.4
		l-10,12.8l-0.2,0.2c-0.7,0.9-1.8,1.4-3,1.4h-0.1h-4.7l1.4-1.7L22,30l10.4-13.2c0.7-1,2-1.5,3.4-1.4c2,0.2,3.4,1.9,3.4,3.8v18.7
		H33.8z"/>
</g>
</svg>
