<?xml version="1.0" encoding="utf-8"?>
<!-- Generator: Adobe Illustrator 21.1.0, SVG Export Plug-In . SVG Version: 6.00 Build 0)  -->
<svg version="1.1" id="MENU" xmlns="http://www.w3.org/2000/svg" xmlns:xlink="http://www.w3.org/1999/xlink" x="0px" y="0px"
	 viewBox="0 0 60 60" style="enable-background:new 0 0 60 60;" xml:space="preserve">
<style type="text/css">
	.st0{fill:#FFC816;}
	.st1{fill:#FEDD10;}
</style>
<path class="st0" d="M48.2,6.7c-0.6,0-1.1,0.2-1.5,0.6L7.3,46.7c-0.4,0.4-0.6,0.9-0.6,1.5c0,0.6,0.2,1.1,0.6,1.5l3,3
	c0.4,0.4,0.9,0.6,1.5,0.6c0.6,0,1.1-0.2,1.5-0.6l39.4-39.4c0.4-0.4,0.6-0.9,0.6-1.5c0-0.6-0.2-1.1-0.6-1.5l-3-3
	C49.3,6.9,48.8,6.7,48.2,6.7L48.2,6.7z M48.2,6.7"/>
<path class="st1" d="M52.7,46.7L13.3,7.3c-0.4-0.4-0.9-0.6-1.5-0.6c-0.6,0-1.1,0.2-1.5,0.6l-3,3c-0.4,0.4-0.6,0.9-0.6,1.5
	c0,0.6,0.2,1.1,0.6,1.5l39.4,39.4c0.4,0.4,0.9,0.6,1.5,0.6c0.6,0,1.1-0.2,1.5-0.6l3-3c0.4-0.4,0.6-0.9,0.6-1.5
	C53.3,47.6,53.1,47.1,52.7,46.7L52.7,46.7z M52.7,46.7"/>
</svg>
