<?xml version="1.0" encoding="utf-8"?>
<!-- Generator: Adobe Illustrator 21.1.0, SVG Export Plug-In . SVG Version: 6.00 Build 0)  -->
<svg version="1.1" id="Secure" xmlns="http://www.w3.org/2000/svg" xmlns:xlink="http://www.w3.org/1999/xlink" x="0px" y="0px"
	 viewBox="0 0 60 60" style="enable-background:new 0 0 60 60;" xml:space="preserve">
<style type="text/css">
	.st0{fill:#FFFFFF;}
	.st1{fill:#666666;}
</style>
<g>
	<g>
		<path class="st0" d="M20.4,23.8c-0.4-0.4-0.8-0.6-1.4-0.6c-0.6,0-1,0.2-1.3,0.6l-4.6,4.6c-0.4,0.4-0.5,0.8-0.5,1.3
			c0,0.5,0.2,1,0.5,1.4l15.6,15.6c0.3,0.3,0.7,0.5,1.1,0.5c0.1,0,0.1,0,0.2,0c0.5,0,1-0.2,1.4-0.6l28-28c0.4-0.4,0.5-0.8,0.5-1.4
			c0-0.5-0.2-1-0.5-1.4l-4.6-4.6c-0.4-0.4-0.8-0.6-1.4-0.6c-0.5,0-1,0.2-1.4,0.6l-22,22L20.4,23.8z M20.4,23.8"/>
		<path class="st0" d="M57.7,25.5L34,49.2c-1,1-2.3,1.6-3.8,1.6h-1.1l-0.2-0.2c-0.9-0.2-1.8-0.7-2.6-1.4L10.8,33.6
			c-1.1-1.1-1.6-2.4-1.6-3.8c0-1.5,0.5-2.8,1.6-3.8l4.6-4.6c1-1,2.3-1.6,3.8-1.6c1.5,0,2.7,0.5,3.8,1.6l7.2,7.2l15.3-15.3L35.3,3.1
			c-1.4-1.4-3-2-4.9-2c-1.9,0-3.6,0.7-4.9,2L3,25.6c-1.4,1.4-2,3-2,4.9c0,1.9,0.7,3.6,2,4.9l22.5,22.5c1.4,1.4,3,2,4.9,2
			c1.9,0,3.6-0.7,4.9-2l22.5-22.5c1.4-1.4,2-3,2-4.9c0-1.9-0.7-3.6-2-4.9L57.7,25.5z M57.7,25.5"/>
	</g>
	<g>
		<path class="st1" d="M19.5,22.8c-0.4-0.4-0.8-0.6-1.4-0.6c-0.6,0-1,0.2-1.3,0.6l-4.6,4.6c-0.4,0.4-0.5,0.8-0.5,1.3
			c0,0.5,0.2,1,0.5,1.4l15.6,15.6c0.3,0.3,0.7,0.5,1.1,0.5c0.1,0,0.1,0,0.2,0c0.5,0,1-0.2,1.4-0.6l28-28c0.4-0.4,0.5-0.8,0.5-1.4
			c0-0.5-0.2-1-0.5-1.4l-4.6-4.6C53.5,10,53,9.8,52.5,9.8c-0.5,0-1,0.2-1.4,0.6l-22,22L19.5,22.8z M19.5,22.8"/>
		<path class="st1" d="M56.8,24.5L33,48.2c-1,1-2.3,1.6-3.8,1.6h-1.1l-0.2-0.2c-0.9-0.2-1.8-0.7-2.6-1.4L9.8,32.6
			c-1.1-1.1-1.6-2.4-1.6-3.8c0-1.5,0.5-2.8,1.6-3.8l4.6-4.6c1-1,2.3-1.6,3.8-1.6c1.5,0,2.7,0.5,3.8,1.6l7.2,7.2l15.3-15.3L34.3,2.1
			c-1.4-1.4-3-2-4.9-2c-1.9,0-3.6,0.7-4.9,2L2,24.6c-1.4,1.4-2,3-2,4.9c0,1.9,0.7,3.6,2,4.9l22.5,22.5c1.4,1.4,3,2,4.9,2
			c1.9,0,3.6-0.7,4.9-2l22.5-22.5c1.4-1.4,2-3,2-4.9c0-1.9-0.7-3.6-2-4.9L56.8,24.5z M56.8,24.5"/>
	</g>
</g>
</svg>
