<?xml version="1.0" encoding="utf-8"?>
<!-- Generator: Adobe Illustrator 21.1.0, SVG Export Plug-In . SVG Version: 6.00 Build 0)  -->
<svg version="1.1" id="My_Account" xmlns="http://www.w3.org/2000/svg" xmlns:xlink="http://www.w3.org/1999/xlink" x="0px" y="0px"
	 viewBox="0 0 60 60" style="enable-background:new 0 0 60 60;" xml:space="preserve">
<style type="text/css">
	.st0{fill:#666666;}
</style>
<g>
	<path class="st0" d="M12.7,24.8c0.5,3.1,2.8,7,6.7,8.4c1.6,0.6,3.3,0.6,4.9,0c3.8-1.4,6.3-5.3,6.8-8.3c0.5,0,1.2-0.8,1.9-3.3
		c1-3.5-0.1-4.1-1-4c0.2-0.5,0.3-1,0.4-1.5c1.5-9.2-3-9.5-3-9.5s-0.7-1.4-2.7-2.5c-1.3-0.8-3.2-1.4-5.6-1.2c-0.8,0-1.5,0.2-2.2,0.4
		c-0.9,0.3-1.7,0.7-2.4,1.2c-0.9,0.6-1.8,1.3-2.5,2.1c-1.2,1.2-2.3,2.8-2.7,4.8c-0.4,1.5-0.3,3,0,4.7c0.1,0.5,0.2,1,0.4,1.5
		c-0.9-0.1-2,0.4-1,4C11.5,24.1,12.1,24.8,12.7,24.8L12.7,24.8z M12.7,24.8"/>
	<path class="st0" d="M36.2,35.8c-3.8-1.5-6.5-3.4-6.5-3.4l-3.5,11l-0.7,2.1l0,0l-0.6,1.8l-1.8-5.2c4.5-6.3-0.9-6.2-1.2-6.2
		c-0.3,0-5.7-0.1-1.2,6.2l-1.8,5.2l-0.6-1.8l0,0l-0.7-2.1l-3.5-11c0,0-4.5,3.1-9.9,4.5c-4.1,1-4.3,5.8-4.1,8.1c0,0,0.2,3.2,0.5,4.6
		c0,0,8,5.2,21.3,5.2c5.4,0,10-0.9,13.4-1.9c-1.5-2.3-2.3-5-2.3-7.9C33,41.4,34.2,38.3,36.2,35.8L36.2,35.8z M36.2,35.8"/>
	<path class="st0" d="M36.6,46.7h1.5c0.2,1.3,0.7,2.6,1.5,3.7l-1.1,1.1c-0.4,0.4-0.4,1.1,0,1.5l1.1,1.1c0.4,0.4,1.1,0.4,1.5,0
		l1.1-1.1c1.1,0.8,2.4,1.3,3.7,1.5v1.5c0,0.6,0.5,1,1,1h1.6c0.6,0,1-0.5,1-1v-1.5c1.3-0.2,2.6-0.8,3.7-1.5l1.1,1.1
		c0.4,0.4,1.1,0.4,1.5,0L57,53c0.4-0.4,0.4-1.1,0-1.5l-1.1-1.1c0.8-1.1,1.3-2.4,1.5-3.7H59c0.6,0,1-0.5,1-1v-1.6c0-0.6-0.5-1-1-1
		h-1.6c-0.2-1.3-0.7-2.5-1.5-3.7l1.1-1.1c0.4-0.4,0.4-1.1,0-1.5l-1.1-1.1c-0.4-0.4-1.1-0.4-1.5,0l-1.1,1.1c-1.1-0.8-2.4-1.3-3.7-1.5
		v-1.6c0-0.6-0.5-1-1-1H47c-0.6,0-1,0.5-1,1v1.6c-1.3,0.2-2.6,0.7-3.7,1.5l-1.1-1.1c-0.4-0.4-1.1-0.4-1.5,0l-1.1,1.1
		c-0.4,0.4-0.4,1.1,0,1.5l1.1,1.1c-0.8,1.1-1.3,2.4-1.6,3.7h-1.5c-0.6,0-1,0.5-1,1v1.6C35.6,46.3,36,46.7,36.6,46.7L36.6,46.7z
		 M44,41.2c2.1-2.1,5.4-2.1,7.5,0c2.1,2.1,2.1,5.4,0,7.5c-2.1,2.1-5.4,2.1-7.5,0C42,46.6,42,43.2,44,41.2L44,41.2z M44,41.2"/>
</g>
</svg>
