<?xml version="1.0" encoding="utf-8"?>
<!-- Generator: Adobe Illustrator 21.1.0, SVG Export Plug-In . SVG Version: 6.00 Build 0)  -->
<svg version="1.1" id="Arrow_Reset" xmlns="http://www.w3.org/2000/svg" xmlns:xlink="http://www.w3.org/1999/xlink" x="0px"
	 y="0px" viewBox="0 0 60 60" style="enable-background:new 0 0 60 60;" xml:space="preserve">
<style type="text/css">
	.st0{fill:#999999;}
</style>
<path class="st0" d="M18.6,54.3C22.2,56,26,56.8,30,56.8c3.6,0,7.1-0.7,10.4-2.1c3.3-1.4,6.2-3.3,8.6-5.7c2.4-2.4,4.3-5.3,5.7-8.6
	c1.4-3.3,2.1-6.8,2.1-10.4c0-3.6-0.7-7.1-2.1-10.4c-1.4-3.3-3.3-6.2-5.7-8.6c-2.4-2.4-5.3-4.3-8.6-5.7C37.1,3.9,33.6,3.2,30,3.2
	c-3.4,0-6.7,0.7-9.9,1.9c-3.2,1.3-6.1,3.1-8.6,5.5l-1.1,1l-1-1L4.6,5.8l0,0l0,0C4.3,5.5,4.2,5.5,4.1,5.5c-0.1,0-0.3,0-0.4,0.1
	C3.3,5.8,3.2,5.9,3.2,6.4v16.5c0,0.2,0.1,0.4,0.3,0.6c0.2,0.2,0.4,0.3,0.6,0.3h16.5c0.4,0,0.6-0.1,0.8-0.6c0.2-0.4,0.2-0.6-0.2-0.9
	l-5.1-5.1L15,16.1l1.1-1.1C20,11.4,24.7,9.6,30,9.6c2.8,0,5.4,0.5,7.9,1.6c2.5,1.1,4.7,2.5,6.5,4.4c1.8,1.8,3.3,4,4.4,6.5
	c1.1,2.5,1.6,5.2,1.6,7.9c0,2.8-0.5,5.4-1.6,7.9c-1.1,2.5-2.5,4.7-4.4,6.5c-1.8,1.8-4,3.3-6.5,4.4c-2.5,1.1-5.2,1.6-7.9,1.6
	c-3.1,0-6.2-0.7-9-2.1c-2.7-1.3-5-3.2-6.9-5.6l-4.6,4.6C12,50.3,15.1,52.7,18.6,54.3z"/>
</svg>
