<?xml version="1.0" encoding="utf-8"?>
<!-- Generator: Adobe Illustrator 21.1.0, SVG Export Plug-In . SVG Version: 6.00 Build 0)  -->
<svg version="1.1" id="Arrow_Right" xmlns="http://www.w3.org/2000/svg" xmlns:xlink="http://www.w3.org/1999/xlink" x="0px"
	 y="0px" viewBox="0 0 60 60" style="enable-background:new 0 0 60 60;" xml:space="preserve">
<style type="text/css">
	.st0{fill:#919395;}
</style>
<path class="st0" d="M53.8,48.2L43.4,37.8l-0.7,0.7l-1.2-1.2c5.9-7.9,5.3-19.2-1.9-26.4C31.7,3,18.8,3,10.9,10.9s-7.9,20.7,0,28.6
	c7.2,7.2,18.5,7.8,26.4,1.9l1.2,1.2l-0.7,0.7l10.4,10.4c1.6,1.6,4.1,1.6,5.7,0C55.4,52.3,55.4,49.7,53.8,48.2L53.8,48.2z M35.2,35.2
	c-5.5,5.5-14.4,5.5-19.8,0s-5.5-14.4,0-19.8c5.5-5.5,14.4-5.5,19.8,0C40.7,20.8,40.7,29.7,35.2,35.2L35.2,35.2z M35.2,35.2"/>
</svg>
