<?xml version="1.0" encoding="utf-8"?>
<!-- Generator: Adobe Illustrator 21.1.0, SVG Export Plug-In . SVG Version: 6.00 Build 0)  -->
<svg version="1.1" id="Arrow_Right" xmlns="http://www.w3.org/2000/svg" xmlns:xlink="http://www.w3.org/1999/xlink" x="0px"
	 y="0px" viewBox="0 0 60 60" style="enable-background:new 0 0 60 60;" xml:space="preserve">
<style type="text/css">
	.st0{fill:#919395;}
</style>
<g>
	<path class="st0" d="M56.7,3.3C54.5,1.1,51.8,0,48.8,0H11.2C8.2,0,5.5,1.1,3.3,3.3C1.1,5.5,0,8.2,0,11.2v37.5
		c0,3.1,1.1,5.7,3.3,7.9c2.2,2.2,4.9,3.3,7.9,3.3h37.5c3.1,0,5.7-1.1,7.9-3.3c2.2-2.2,3.3-4.9,3.3-7.9V11.2
		C60,8.2,58.9,5.5,56.7,3.3L56.7,3.3z M51.1,30.9h-6.8v24.8H34V30.9h-5.1v-8.6H34v-5.1c0-3.7,0.9-6.4,2.6-8.3
		c1.7-1.9,4.6-2.8,8.5-2.8h6.8v8.6h-4.3c-1.5,0-2.4,0.3-2.8,0.8c-0.4,0.5-0.6,1.4-0.6,2.7v4.3H52L51.1,30.9z M51.1,30.9"/>
</g>
</svg>
