<?xml version="1.0" encoding="utf-8"?>
<!-- Generator: Adobe Illustrator 21.1.0, SVG Export Plug-In . SVG Version: 6.00 Build 0)  -->
<svg version="1.1" id="Arrow_Right" xmlns="http://www.w3.org/2000/svg" xmlns:xlink="http://www.w3.org/1999/xlink" x="0px"
	 y="0px" viewBox="0 0 60 60" style="enable-background:new 0 0 60 60;" xml:space="preserve">
<style type="text/css">
	.st0{fill:none;}
	.st1{fill:#919395;}
</style>
<path class="st0" d="M24.3,31.9c0-0.3,0.1-0.4,0.1-0.6c0.6-4.1-1.3-4.2-1.3-4.2s-0.3-0.6-1.1-1.1c-0.5-0.4-1.4-0.6-2.4-0.5
	c-0.4,0-0.8,0-1,0.1c-0.4,0.1-0.6,0.3-1,0.5c-0.4,0.3-0.8,0.5-1.1,0.9c-0.5,0.5-0.9,1.1-1.1,2c-0.1,0.6-0.1,1.3,0,2
	c0,0.3,0,0.4,0.1,0.6c-0.4,0-0.8,0.3-0.4,1.8c0.4,1.1,0.6,1.5,0.9,1.5c0.1,1.4,1.3,3.1,2.9,3.7c0.6,0.3,1.4,0.3,2.2,0
	c1.7-0.6,2.7-2.3,2.9-3.7c0.3-0.1,0.6-0.4,0.9-1.5C25.3,31.9,24.8,31.6,24.3,31.9z"/>
<path class="st1" d="M24.9,15.2h10.3c1.5,0,2.7-1.2,2.7-2.7v-1.8c0-1.5-1.2-2.7-2.7-2.7h-0.9V7c0-1.1-0.9-2-2-2h-4.5
	c-1.1,0-2,0.9-2,2V8h-0.9c-1.5,0-2.7,1.2-2.7,2.7v1.8C22.3,14,23.5,15.2,24.9,15.2z"/>
<path class="st1" d="M20,22.6c-6.8,0-12.2,5.5-12.2,12.2c0,2.9,1,5.6,2.7,7.6c0.1-1,0.5-2.2,1.8-2.4c2.4-0.6,4.3-2,4.3-2l1.8,5.7
	l0.3,0.8l0.8-2.3c-2-2.8,0.5-2.7,0.5-2.7s2.5-0.1,0.5,2.7l0.8,2.3l0.3-0.8l0.3-0.9l1.5-4.8c0,0,1.9,1.4,4.3,2
	c1.3,0.3,1.7,1.4,1.8,2.4c1.7-2,2.7-4.7,2.7-7.6C32.2,28.1,26.7,22.6,20,22.6z M24.8,33.4c-0.3,1.1-0.6,1.4-0.9,1.5
	c-0.3,1.4-1.3,3.1-2.9,3.7c-0.8,0.3-1.5,0.3-2.2,0C17.2,38,16,36.4,15.9,35c-0.3,0-0.5-0.4-0.9-1.5c-0.4-1.5,0-1.8,0.4-1.8
	c-0.1-0.3-0.1-0.4-0.1-0.6c-0.1-0.8-0.1-1.4,0-2c0.3-0.9,0.6-1.5,1.1-2c0.4-0.4,0.8-0.6,1.1-0.9c0.4-0.3,0.6-0.4,1-0.5
	c0.3-0.1,0.6-0.1,1-0.1c1-0.1,1.9,0.1,2.4,0.5c0.9,0.5,1.1,1.1,1.1,1.1s1.9,0.1,1.3,4.2c0,0.3-0.1,0.4-0.1,0.6
	C24.8,31.6,25.3,31.9,24.8,33.4z"/>
<path class="st1" d="M52.6,11.9H40.2v0.6c0,2.8-2.2,5.1-5.1,5.1H24.9c-2.8,0-5.1-2.2-5.1-5.1v-0.6H7.4c-4.1,0-7.4,3.3-7.4,7.4v28.4
	c0,4.1,3.3,7.4,7.4,7.4h45.2c4.1,0,7.4-3.3,7.4-7.4V19.3C60,15.2,56.7,11.9,52.6,11.9z M36.5,32h12.1h4.1l0.1,2.8h-4.1H36.5h-1.4
	c0,0,0,0.1,0,0.1c0,1-0.1,1.9-0.3,2.9h1.7h12.1h4.1l0.1,2.8h-4.1H36.5H34c-2.2,5.6-7.7,9.5-14.1,9.5c-8.4,0-15.2-6.8-15.2-15.2
	c0-8.4,6.8-15.2,15.2-15.2c5.2,0,9.7,2.6,12.4,6.5h4.1h11.1h5.1l0.1,2.8h-5.1H36.5h-2.6c0.4,1,0.7,2,0.9,3H36.5z"/>
</svg>
