<?xml version="1.0" encoding="utf-8"?>
<!-- Generator: Adobe Illustrator 21.1.0, SVG Export Plug-In . SVG Version: 6.00 Build 0)  -->
<svg version="1.1" id="BLOG_POST" xmlns="http://www.w3.org/2000/svg" xmlns:xlink="http://www.w3.org/1999/xlink" x="0px" y="0px"
	 viewBox="0 0 60 60" style="enable-background:new 0 0 60 60;" xml:space="preserve">
<style type="text/css">
	.st0{fill:#FFF090;}
	.st1{fill:#333333;}
</style>
<g>
	<g>
		<path class="st0" d="M30.5,53.6c-12.8,0-23.1-10.3-23.1-23.1S17.7,7.4,30.5,7.4s23.1,10.3,23.1,23.1S43.3,53.6,30.5,53.6z
			 M30.5,9.4c-11.7,0-21.1,9.4-21.1,21.1s9.4,21.1,21.1,21.1s21.1-9.4,21.1-21.1S42.2,9.4,30.5,9.4z"/>
	</g>
	<g>
		<path class="st0" d="M22.5,6.7c0.7-0.3,1-1,0.8-1.7l-0.7-1.7c-0.3-0.7-1-1-1.7-0.8l-1.7,0.6c-0.7,0.3-1,1-0.8,1.7l0.6,1.7
			c0.3,0.7,1,1,1.7,0.8L22.5,6.7z"/>
		<path class="st0" d="M5.7,16.8l1.5,1C7.8,18.2,8.6,18,9,17.4l1-1.5c0.4-0.6,0.2-1.4-0.4-1.8l-1.5-1c-0.6-0.4-1.4-0.2-1.8,0.4
			l-1,1.5C5,15.7,5.1,16.4,5.7,16.8z"/>
		<path class="st0" d="M5.5,32.6l-0.1-1.8c0-0.7-0.7-1.3-1.4-1.3H2.3c-0.7,0-1.3,0.7-1.3,1.4l0.1,1.8c0,0.7,0.7,1.3,1.4,1.3l1.8-0.1
			C4.9,33.8,5.5,33.3,5.5,32.6z"/>
		<path class="st0" d="M10.3,45.4c-0.5-0.6-1.3-0.7-1.9-0.2l-1.4,1.1c-0.6,0.5-0.7,1.3-0.2,1.9L8,49.6c0.5,0.6,1.3,0.7,1.9,0.2
			l1.4-1.1c0.6-0.5,0.7-1.3,0.2-1.9L10.3,45.4z"/>
		<path class="st0" d="M24.7,54.9l-1.8-0.5c-0.7-0.2-1.4,0.2-1.6,0.9L20.9,57c-0.2,0.7,0.2,1.4,0.9,1.6l1.8,0.5
			c0.7,0.2,1.4-0.2,1.6-0.9l0.5-1.8C25.8,55.9,25.4,55.1,24.7,54.9z"/>
		<path class="st0" d="M41.8,54.4c-0.3-0.7-1-1-1.7-0.8l-1.7,0.6c-0.7,0.3-1,1-0.8,1.7l0.6,1.7c0.3,0.7,1,1,1.7,0.8l1.7-0.6
			c0.7-0.3,1-1,0.8-1.7L41.8,54.4z"/>
		<path class="st0" d="M55.3,44.2l-1.5-1c-0.6-0.4-1.4-0.2-1.8,0.4l-1,1.5c-0.4,0.6-0.2,1.4,0.4,1.8l1.5,1c0.6,0.4,1.4,0.2,1.8-0.4
			l1-1.5C56,45.3,55.9,44.6,55.3,44.2z"/>
		<path class="st0" d="M59.9,28.2c0-0.7-0.7-1.3-1.4-1.3l-1.8,0.1c-0.7,0-1.3,0.7-1.3,1.4l0.1,1.8c0,0.7,0.7,1.3,1.4,1.3l1.8-0.1
			c0.7,0,1.3-0.7,1.3-1.4L59.9,28.2z"/>
		<path class="st0" d="M52.5,15.8l1.4-1.1c0.6-0.5,0.7-1.3,0.2-1.9L53,11.4c-0.5-0.6-1.3-0.7-1.9-0.2l-1.4,1.1
			c-0.6,0.5-0.7,1.3-0.2,1.9l1.1,1.4C51.2,16.1,51.9,16.2,52.5,15.8z"/>
		<path class="st0" d="M39.6,5.6L40.1,4c0.2-0.7-0.2-1.4-0.9-1.6l-1.8-0.5c-0.7-0.2-1.4,0.2-1.6,0.9l-0.5,1.7
			c-0.2,0.7,0.2,1.4,0.9,1.6l1.8,0.5C38.8,6.8,39.4,6.3,39.6,5.6z"/>
		<path class="st0" d="M31.5,3.7v-1c0-1-0.9-1.7-1.8-1.7h-1c-1,0-1.7,0.9-1.7,1.8v1c0,1,0.9,1.7,1.8,1.7h1
			C30.8,5.4,31.6,4.5,31.5,3.7z"/>
		<path class="st0" d="M14.5,11.2l0.7-0.6C15.9,10,16,9,15.5,8.2l-0.6-0.7c-0.6-0.8-1.7-0.9-2.5-0.3l-0.7,0.6
			c-0.8,0.6-0.9,1.7-0.3,2.5l0.6,0.7C12.7,11.6,13.8,11.8,14.5,11.2z"/>
		<path class="st0" d="M3.2,25.3L4,25.6c0.9,0.3,1.9-0.3,2.2-1.2l0.3-0.9c0.3-0.9-0.3-1.9-1.2-2.2l-0.9-0.3
			c-0.9-0.3-1.9,0.3-2.2,1.2L2,23.1C1.7,24,2.3,25,3.2,25.3z"/>
		<path class="st0" d="M7.2,39.7l-0.3-0.9c-0.3-0.9-1.4-1.4-2.3-1l-0.9,0.3c-0.9,0.3-1.4,1.4-1,2.3l0.3,0.9c0.3,0.9,1.4,1.4,2.3,1
			L6.2,42C7.1,41.6,7.5,40.6,7.2,39.7z"/>
		<path class="st0" d="M17,51.6l-0.7-0.5c-0.8-0.5-1.9-0.3-2.4,0.5l-0.5,0.8c-0.5,0.8-0.3,1.9,0.5,2.4l0.8,0.5
			c0.8,0.5,1.9,0.3,2.4-0.5l0.5-0.8C18.1,53.3,17.9,52.2,17,51.6z"/>
		<path class="st0" d="M32.1,55.6h-1c-1,0-1.7,0.9-1.7,1.8v1c0,1,0.9,1.7,1.8,1.7h1c1,0,1.7-0.9,1.7-1.8v-1
			C33.8,56.3,33.1,55.5,32.1,55.6z"/>
		<path class="st0" d="M49,50.1c-0.6-0.8-1.7-0.9-2.5-0.3l-0.7,0.6C45.1,51,45,52,45.5,52.8l0.6,0.7c0.6,0.8,1.7,0.9,2.5,0.3
			l0.7-0.6c0.8-0.6,0.9-1.7,0.3-2.5L49,50.1z"/>
		<path class="st0" d="M57.8,35.7L57,35.4c-0.9-0.3-1.9,0.3-2.2,1.2l-0.3,0.9c-0.3,0.9,0.3,1.9,1.2,2.2l0.9,0.3
			c0.9,0.3,1.9-0.3,2.2-1.2l0.3-0.9C59.3,37,58.7,36,57.8,35.7z"/>
		<path class="st0" d="M53.8,21.3l0.3,0.9c0.3,0.9,1.4,1.4,2.3,1l0.9-0.3c0.9-0.3,1.4-1.4,1-2.3l-0.3-0.9c-0.3-0.9-1.4-1.4-2.3-1
			L54.8,19C53.9,19.4,53.5,20.4,53.8,21.3z"/>
		<path class="st0" d="M47.1,9.4l0.5-0.8c0.5-0.8,0.3-1.9-0.5-2.4l-0.8-0.5c-0.8-0.5-1.9-0.3-2.4,0.5l-0.6,0.7
			c-0.5,0.8-0.3,1.9,0.5,2.4l0.8,0.6C45.5,10.3,46.6,10.1,47.1,9.4z"/>
	</g>
	<path class="st0" d="M40.9,20.1c-5.8-5.8-15.1-5.8-20.8,0c-5.5,5.5-5.8,14.4-0.6,20.2l0.2,0.1c-0.6,1.2-1.5,2.7-3,3.4
		c-0.5,0.2-0.4,1,0.2,1.1c1.7,0.3,4,0,6.3-1.7l0,0c5.6,3.3,13.1,2.6,17.9-2.3C46.7,35.2,46.7,25.8,40.9,20.1L40.9,20.1z M35.3,36.8
		c-0.3,0.3-0.7,0.6-1,1c-0.5,0.5-1,0.7-1.7,0.6c-0.9,0-1.8-0.4-2.7-0.8c-1.9-0.9-3.4-2.2-4.7-3.7c-1-1.2-1.8-2.5-2.4-3.8
		c-0.3-0.7-0.4-1.4-0.4-2.2c0-0.5,0.2-0.9,0.6-1.2c0.4-0.4,0.7-0.7,1.1-1.1c0.5-0.5,1.1-0.5,1.6,0c0.3,0.3,0.6,0.6,0.9,0.9
		c0.3,0.3,0.6,0.6,0.9,0.9c0.5,0.5,0.5,1.1,0,1.6c-0.4,0.4-0.7,0.7-1.1,1.1c-0.1,0.1-0.1,0.2-0.1,0.3c0.2,0.6,0.6,1.1,1,1.6
		c0.8,1,1.7,1.8,2.7,2.5c0.2,0.1,0.5,0.2,0.7,0.4c0.1,0.1,0.2,0,0.3-0.1c0.4-0.4,0.7-0.7,1.1-1.1c0.5-0.5,1.1-0.5,1.6,0
		c0.6,0.6,1.2,1.2,1.7,1.7C35.8,35.7,35.8,36.3,35.3,36.8L35.3,36.8z M29.9,27.3l0.2-1.3c1.3,0.2,2.5,0.8,3.3,1.7
		c0.9,0.9,1.5,2,1.7,3.1L33.8,31c-0.2-0.9-0.6-1.8-1.3-2.5C31.8,27.8,30.9,27.5,29.9,27.3L29.9,27.3z M37.2,30.8
		c-0.3-1.7-1.1-3.2-2.4-4.5c-1.3-1.3-2.9-2.2-4.8-2.4l0.2-1.3c2.1,0.3,4,1.3,5.5,2.8c1.5,1.5,2.4,3.2,2.8,5.2L37.2,30.8z"/>
</g>
<g>
	<g>
		<path class="st1" d="M29.5,52.6c-12.8,0-23.1-10.3-23.1-23.1S16.7,6.4,29.5,6.4s23.1,10.3,23.1,23.1S42.3,52.6,29.5,52.6z
			 M29.5,8.4c-11.7,0-21.1,9.4-21.1,21.1s9.4,21.1,21.1,21.1s21.1-9.4,21.1-21.1S41.2,8.4,29.5,8.4z"/>
	</g>
	<g>
		<path class="st1" d="M21.5,5.7c0.7-0.3,1-1,0.8-1.7l-0.7-1.7c-0.3-0.7-1-1-1.7-0.8l-1.7,0.6c-0.7,0.3-1,1-0.8,1.7l0.6,1.7
			c0.3,0.7,1,1,1.7,0.8L21.5,5.7z"/>
		<path class="st1" d="M4.7,15.8l1.5,1C6.8,17.2,7.6,17,8,16.4l1-1.5c0.4-0.6,0.2-1.4-0.4-1.8l-1.5-1c-0.6-0.4-1.4-0.2-1.8,0.4
			l-1,1.5C4,14.7,4.1,15.4,4.7,15.8z"/>
		<path class="st1" d="M4.5,31.6l-0.1-1.8c0-0.7-0.7-1.3-1.4-1.3H1.3c-0.7,0-1.3,0.7-1.3,1.4l0.1,1.8c0,0.7,0.7,1.3,1.4,1.3l1.8-0.1
			C3.9,32.8,4.5,32.3,4.5,31.6z"/>
		<path class="st1" d="M9.3,44.4c-0.5-0.6-1.3-0.7-1.9-0.2l-1.4,1.1c-0.6,0.5-0.7,1.3-0.2,1.9L7,48.6c0.5,0.6,1.3,0.7,1.9,0.2
			l1.4-1.1c0.6-0.5,0.7-1.3,0.2-1.9L9.3,44.4z"/>
		<path class="st1" d="M23.7,53.9l-1.8-0.5c-0.7-0.2-1.4,0.2-1.6,0.9L19.9,56c-0.2,0.7,0.2,1.4,0.9,1.6l1.8,0.5
			c0.7,0.2,1.4-0.2,1.6-0.9l0.5-1.8C24.8,54.9,24.4,54.1,23.7,53.9z"/>
		<path class="st1" d="M40.8,53.4c-0.3-0.7-1-1-1.7-0.8l-1.7,0.6c-0.7,0.3-1,1-0.8,1.7l0.6,1.7c0.3,0.7,1,1,1.7,0.8l1.7-0.6
			c0.7-0.3,1-1,0.8-1.7L40.8,53.4z"/>
		<path class="st1" d="M54.3,43.2l-1.5-1c-0.6-0.4-1.4-0.2-1.8,0.4l-1,1.5c-0.4,0.6-0.2,1.4,0.4,1.8l1.5,1c0.6,0.4,1.4,0.2,1.8-0.4
			l1-1.5C55,44.3,54.9,43.6,54.3,43.2z"/>
		<path class="st1" d="M58.9,27.2c0-0.7-0.7-1.3-1.4-1.3l-1.8,0.1c-0.7,0-1.3,0.7-1.3,1.4l0.1,1.8c0,0.7,0.7,1.3,1.4,1.3l1.8-0.1
			c0.7,0,1.3-0.7,1.3-1.4L58.9,27.2z"/>
		<path class="st1" d="M51.5,14.7l1.4-1.1c0.6-0.5,0.7-1.3,0.2-1.9L52,10.4c-0.5-0.6-1.3-0.7-1.9-0.2l-1.4,1.1
			c-0.6,0.5-0.7,1.3-0.2,1.9l1.1,1.4C50.1,15.1,50.9,15.2,51.5,14.7z"/>
		<path class="st1" d="M38.6,4.6l0.5-1.7c0.2-0.7-0.2-1.4-0.9-1.6l-1.8-0.5c-0.7-0.2-1.4,0.2-1.6,0.9l-0.5,1.7
			c-0.2,0.7,0.2,1.4,0.9,1.6l1.8,0.5C37.8,5.8,38.4,5.3,38.6,4.6z"/>
		<path class="st1" d="M30.5,2.7v-1c0-1-0.9-1.7-1.8-1.7h-1c-1,0-1.7,0.9-1.7,1.8v1c0,1,0.9,1.7,1.8,1.7h1
			C29.8,4.4,30.6,3.5,30.5,2.7z"/>
		<path class="st1" d="M13.5,10.2l0.7-0.6C14.9,9,15,8,14.5,7.2l-0.6-0.7c-0.6-0.8-1.7-0.9-2.5-0.3l-0.7,0.6
			c-0.8,0.6-0.9,1.7-0.3,2.5L11,9.9C11.7,10.6,12.8,10.8,13.5,10.2z"/>
		<path class="st1" d="M2.2,24.3L3,24.6c0.9,0.3,1.9-0.3,2.2-1.2l0.3-0.9c0.3-0.9-0.3-1.9-1.2-2.2l-0.9-0.3
			c-0.9-0.3-1.9,0.3-2.2,1.2L1,22.1C0.7,23,1.3,24,2.2,24.3z"/>
		<path class="st1" d="M6.2,38.7l-0.3-0.9c-0.3-0.9-1.4-1.4-2.3-1l-0.9,0.3c-0.9,0.3-1.4,1.4-1,2.3l0.3,0.9c0.3,0.9,1.4,1.4,2.3,1
			L5.2,41C6.1,40.6,6.5,39.6,6.2,38.7z"/>
		<path class="st1" d="M16,50.6l-0.7-0.5c-0.8-0.5-1.9-0.3-2.4,0.5l-0.5,0.8c-0.5,0.8-0.3,1.9,0.5,2.4l0.8,0.5
			c0.8,0.5,1.9,0.3,2.4-0.5l0.5-0.8C17.1,52.3,16.9,51.2,16,50.6z"/>
		<path class="st1" d="M31.1,54.6h-1c-1,0-1.7,0.9-1.7,1.8v1c0,1,0.9,1.7,1.8,1.7h1c1,0,1.7-0.9,1.7-1.8v-1
			C32.8,55.3,32.1,54.5,31.1,54.6z"/>
		<path class="st1" d="M48,49.1c-0.6-0.8-1.7-0.9-2.5-0.3l-0.7,0.6C44.1,50,44,51,44.5,51.8l0.6,0.7c0.6,0.8,1.7,0.9,2.5,0.3
			l0.7-0.6c0.8-0.6,0.9-1.7,0.3-2.5L48,49.1z"/>
		<path class="st1" d="M56.8,34.7L56,34.4c-0.9-0.3-1.9,0.3-2.2,1.2l-0.3,0.9c-0.3,0.9,0.3,1.9,1.2,2.2l0.9,0.3
			c0.9,0.3,1.9-0.3,2.2-1.2l0.3-0.9C58.3,36,57.7,35,56.8,34.7z"/>
		<path class="st1" d="M52.8,20.3l0.3,0.9c0.3,0.9,1.4,1.4,2.3,1l0.9-0.3c0.9-0.3,1.4-1.4,1-2.3l-0.3-0.9c-0.3-0.9-1.4-1.4-2.3-1
			L53.8,18C52.9,18.4,52.5,19.4,52.8,20.3z"/>
		<path class="st1" d="M46.1,8.4l0.5-0.8c0.5-0.8,0.3-1.9-0.5-2.4l-0.8-0.5c-0.8-0.5-1.9-0.3-2.4,0.5l-0.6,0.7
			c-0.5,0.8-0.3,1.9,0.5,2.4l0.8,0.6C44.5,9.3,45.6,9.1,46.1,8.4z"/>
	</g>
	<path class="st1" d="M39.9,19.1c-5.8-5.8-15.1-5.8-20.8,0c-5.5,5.5-5.8,14.4-0.6,20.2l0.2,0.1c-0.6,1.2-1.5,2.7-3,3.4
		c-0.5,0.2-0.4,1,0.2,1.1c1.7,0.3,4,0,6.3-1.7l0,0c5.6,3.3,13.1,2.6,17.9-2.3C45.7,34.2,45.7,24.8,39.9,19.1L39.9,19.1z M34.3,35.8
		c-0.3,0.3-0.7,0.6-1,1c-0.5,0.5-1,0.7-1.7,0.6c-0.9,0-1.8-0.4-2.7-0.8c-1.9-0.9-3.4-2.2-4.7-3.7c-1-1.2-1.8-2.5-2.4-3.8
		c-0.3-0.7-0.4-1.4-0.4-2.2c0-0.5,0.2-0.9,0.6-1.2c0.4-0.4,0.7-0.7,1.1-1.1c0.5-0.5,1.1-0.5,1.6,0c0.3,0.3,0.6,0.6,0.9,0.9
		c0.3,0.3,0.6,0.6,0.9,0.9c0.5,0.5,0.5,1.1,0,1.6c-0.4,0.4-0.7,0.7-1.1,1.1c-0.1,0.1-0.1,0.2-0.1,0.3c0.2,0.6,0.6,1.1,1,1.6
		c0.8,1,1.7,1.8,2.7,2.5c0.2,0.1,0.5,0.2,0.7,0.4c0.1,0.1,0.2,0,0.3-0.1c0.4-0.4,0.7-0.7,1.1-1.1c0.5-0.5,1.1-0.5,1.6,0
		c0.6,0.6,1.2,1.2,1.7,1.7C34.8,34.7,34.8,35.3,34.3,35.8L34.3,35.8z M28.9,26.3l0.2-1.3c1.3,0.2,2.5,0.8,3.3,1.7
		c0.9,0.9,1.5,2,1.7,3.1L32.8,30c-0.2-0.9-0.6-1.8-1.3-2.5C30.8,26.8,29.9,26.5,28.9,26.3L28.9,26.3z M36.2,29.8
		c-0.3-1.7-1.1-3.2-2.4-4.5c-1.3-1.3-3-2.2-4.8-2.4l0.2-1.3c2.1,0.3,4,1.3,5.5,2.8c1.5,1.5,2.4,3.2,2.8,5.2L36.2,29.8z"/>
</g>
</svg>
