<?xml version="1.0" encoding="utf-8"?>
<!-- Generator: Adobe Illustrator 21.1.0, SVG Export Plug-In . SVG Version: 6.00 Build 0)  -->
<svg version="1.1" id="Check_Circle" xmlns="http://www.w3.org/2000/svg" xmlns:xlink="http://www.w3.org/1999/xlink" x="0px"
	 y="0px" viewBox="0 0 60 60" style="enable-background:new 0 0 60 60;" xml:space="preserve">
<style type="text/css">
	.st0{fill:#999999;}
</style>
<g>
	<path class="st0" d="M47.8,7.6c-2-2-4.5-3-7.3-3h-30c-2.9,0-5.3,1-7.3,3c-2,2-3,4.5-3,7.3v30c0,2.9,1,5.3,3,7.3c2,2,4.5,3,7.3,3h30
		c2.9,0,5.3-1,7.3-3c2-2,3-4.5,3-7.3V15C50.8,12.1,49.8,9.7,47.8,7.6L47.8,7.6z M46.2,45c0,1.6-0.6,2.9-1.7,4.1
		c-1.1,1.1-2.5,1.7-4.1,1.7h-30c-1.6,0-2.9-0.6-4.1-1.7C5.2,48,4.6,46.6,4.6,45V15c0-1.6,0.6-2.9,1.7-4.1c1.1-1.1,2.5-1.7,4.1-1.7
		h30c1.6,0,2.9,0.6,4.1,1.7c1.1,1.1,1.7,2.5,1.7,4.1V45z M46.2,45"/>
</g>
</svg>
