<?xml version="1.0" encoding="utf-8"?>
<!-- Generator: Adobe Illustrator 21.1.0, SVG Export Plug-In . SVG Version: 6.00 Build 0)  -->
<svg version="1.1" id="BLOG_POST" xmlns="http://www.w3.org/2000/svg" xmlns:xlink="http://www.w3.org/1999/xlink" x="0px" y="0px"
	 viewBox="0 0 60 60" style="enable-background:new 0 0 60 60;" xml:space="preserve">
<style type="text/css">
	.st0{fill:#FFF090;}
	.st1{fill:#333333;}
</style>
<g>
	<g>
		<path class="st0" d="M30.5,53.6c-12.7,0-23.1-10.4-23.1-23.1S17.8,7.4,30.5,7.4s23.1,10.4,23.1,23.1S43.2,53.6,30.5,53.6z
			 M30.5,9.3c-11.7,0-21.1,9.5-21.1,21.1c0,11.7,9.5,21.1,21.1,21.1c11.7,0,21.1-9.5,21.1-21.1C51.6,18.8,42.2,9.3,30.5,9.3z"/>
	</g>
	<g>
		<path class="st0" d="M22.5,6.7c0.7-0.3,1-1,0.8-1.7l-0.6-1.7c-0.3-0.7-1-1-1.7-0.8l-1.7,0.6c-0.7,0.3-1,1-0.8,1.7l0.6,1.7
			c0.3,0.7,1,1,1.7,0.8L22.5,6.7z"/>
		<path class="st0" d="M5.8,16.8l1.5,1c0.6,0.4,1.4,0.2,1.8-0.4l1-1.5c0.4-0.6,0.2-1.4-0.4-1.8l-1.5-1c-0.6-0.4-1.4-0.2-1.8,0.4
			l-1,1.5C5,15.6,5.2,16.4,5.8,16.8z"/>
		<path class="st0" d="M5.5,32.5l-0.1-1.8c0-0.7-0.6-1.3-1.4-1.2l-1.8,0.1c-0.7,0-1.3,0.6-1.2,1.4l0.1,1.8c0,0.7,0.6,1.3,1.4,1.2
			l1.8-0.1C5,33.8,5.5,33.2,5.5,32.5z"/>
		<path class="st0" d="M10.3,45.4c-0.4-0.6-1.3-0.7-1.8-0.2l-1.4,1.1c-0.6,0.4-0.7,1.3-0.2,1.8L8,49.6c0.4,0.6,1.3,0.7,1.8,0.2
			l1.4-1.1c0.6-0.4,0.7-1.3,0.2-1.8L10.3,45.4z"/>
		<path class="st0" d="M24.7,54.9L23,54.4c-0.7-0.2-1.4,0.2-1.6,0.9l-0.5,1.7c-0.2,0.7,0.2,1.4,0.9,1.6l1.7,0.5
			c0.7,0.2,1.4-0.2,1.6-0.9l0.5-1.7C25.8,55.8,25.4,55.1,24.7,54.9z"/>
		<path class="st0" d="M41.8,54.4c-0.3-0.7-1-1-1.7-0.8l-1.7,0.6c-0.7,0.3-1,1-0.8,1.7l0.6,1.7c0.3,0.7,1,1,1.7,0.8l1.7-0.6
			c0.7-0.3,1-1,0.8-1.7L41.8,54.4z"/>
		<path class="st0" d="M55.2,44.2l-1.5-1c-0.6-0.4-1.4-0.2-1.8,0.4l-1,1.5c-0.4,0.6-0.2,1.4,0.4,1.8l1.5,1c0.6,0.4,1.4,0.2,1.8-0.4
			l1-1.5C56,45.4,55.8,44.6,55.2,44.2z"/>
		<path class="st0" d="M59.9,28.3c0-0.7-0.6-1.3-1.4-1.2l-1.8,0.1c-0.7,0-1.3,0.6-1.2,1.4l0.1,1.8c0,0.7,0.6,1.3,1.4,1.2l1.8-0.1
			c0.7,0,1.3-0.6,1.2-1.4L59.9,28.3z"/>
		<path class="st0" d="M52.5,15.8l1.4-1.1c0.6-0.4,0.7-1.3,0.2-1.8L53,11.4c-0.4-0.6-1.3-0.7-1.8-0.2l-1.4,1.1
			c-0.6,0.4-0.7,1.3-0.2,1.8l1.1,1.4C51.1,16.1,51.9,16.2,52.5,15.8z"/>
		<path class="st0" d="M39.6,5.6l0.5-1.7c0.2-0.7-0.2-1.4-0.9-1.6l-1.7-0.5c-0.7-0.2-1.4,0.2-1.6,0.9l-0.5,1.7
			c-0.2,0.7,0.2,1.4,0.9,1.6L38,6.5C38.7,6.7,39.5,6.3,39.6,5.6z"/>
		<path class="st0" d="M31.5,3.6l0-0.9c0-1-0.9-1.7-1.8-1.7l-0.9,0c-1,0-1.7,0.9-1.7,1.8l0,0.9c0,1,0.9,1.7,1.8,1.7l0.9,0
			C30.8,5.4,31.5,4.6,31.5,3.6z"/>
		<path class="st0" d="M14.5,11.2l0.7-0.6c0.7-0.6,0.9-1.7,0.3-2.4l-0.6-0.7c-0.6-0.7-1.7-0.9-2.4-0.3l-0.7,0.6
			c-0.7,0.6-0.9,1.7-0.3,2.4l0.6,0.7C12.7,11.6,13.7,11.8,14.5,11.2z"/>
		<path class="st0" d="M3.2,25.2l0.9,0.2c0.9,0.3,1.9-0.3,2.1-1.2l0.2-0.9c0.3-0.9-0.3-1.9-1.2-2.1L4.3,21c-0.9-0.3-1.9,0.3-2.1,1.2
			l-0.2,0.9C1.7,24,2.2,25,3.2,25.2z"/>
		<path class="st0" d="M7.2,39.7l-0.3-0.9c-0.3-0.9-1.3-1.4-2.2-1l-0.9,0.3c-0.9,0.3-1.4,1.3-1,2.2l0.3,0.9c0.3,0.9,1.3,1.4,2.2,1
			L6.2,42C7.1,41.6,7.5,40.6,7.2,39.7z"/>
		<path class="st0" d="M17.1,51.7l-0.8-0.5c-0.8-0.5-1.9-0.3-2.4,0.5l-0.5,0.8c-0.5,0.8-0.3,1.9,0.5,2.4l0.8,0.5
			c0.8,0.5,1.9,0.3,2.4-0.5l0.5-0.8C18.1,53.3,17.9,52.2,17.1,51.7z"/>
		<path class="st0" d="M32.1,55.5l-0.9,0c-1,0-1.7,0.9-1.7,1.8l0,0.9c0,1,0.9,1.7,1.8,1.7l0.9,0c1,0,1.7-0.9,1.7-1.8l0-0.9
			C33.9,56.2,33.1,55.5,32.1,55.5z"/>
		<path class="st0" d="M48.9,50.1c-0.6-0.7-1.7-0.9-2.4-0.3l-0.7,0.6c-0.7,0.6-0.9,1.7-0.3,2.4l0.6,0.7c0.6,0.7,1.7,0.9,2.4,0.3
			l0.7-0.6c0.7-0.6,0.9-1.7,0.3-2.4L48.9,50.1z"/>
		<path class="st0" d="M57.8,35.7l-0.9-0.2c-0.9-0.3-1.9,0.3-2.1,1.2l-0.2,0.9c-0.3,0.9,0.3,1.9,1.2,2.1l0.9,0.2
			c0.9,0.3,1.9-0.3,2.1-1.2l0.2-0.9C59.3,36.9,58.8,36,57.8,35.7z"/>
		<path class="st0" d="M53.8,21.2l0.3,0.9c0.3,0.9,1.3,1.4,2.2,1l0.9-0.3c0.9-0.3,1.4-1.3,1-2.2l-0.3-0.9c-0.3-0.9-1.3-1.4-2.2-1
			L54.8,19C53.9,19.3,53.5,20.3,53.8,21.2z"/>
		<path class="st0" d="M47.1,9.3l0.5-0.8c0.5-0.8,0.3-1.9-0.5-2.4l-0.8-0.5c-0.8-0.5-1.9-0.3-2.4,0.5l-0.5,0.8
			c-0.5,0.8-0.3,1.9,0.5,2.4l0.8,0.5C45.5,10.3,46.6,10.1,47.1,9.3z"/>
	</g>
	<path class="st0" d="M38.7,24.2c0.6,0,1.2-0.2,1.7-0.5l4.9-2.9v-1.3l-5.5,3.2c-0.4,0.2-0.9,0.4-1.4,0.4L31.1,23
		c-0.4-0.1-0.7-0.2-0.8-0.3c-2.3-0.5-4.1-0.3-5.3,0c-0.9,0.2-1.9,0.2-2.7-0.2l-6.6-3v12.1l0.7,0.4c1,0.6,1.8,1.4,2.3,2.4l-0.4,0.3
		c-1,0.8-1.3,2.2-0.6,3.3c0.4,0.5,0.9,0.8,1.5,0.9c0.1,0,0.2,0,0.3,0c0.2,0,0.4,0,0.6,0c0,0.5,0.1,1,0.4,1.4
		c0.4,0.6,1.1,0.8,1.8,0.9c0.2,0,0.4,0,0.5,0c-0.1,0.6,0.1,1.1,0.4,1.6c0.4,0.5,0.9,0.8,1.5,0.9c0.1,0,0.2,0,0.3,0
		c0.6,0,1.1-0.1,1.5-0.4l0.2-0.2c0.1,0.3,0.2,0.6,0.4,0.9c0.3,0.4,0.8,0.7,1.3,0.8c0.1,0,0.1,0,0.2,0c0.4,0,0.9-0.1,1.3-0.4h0
		l0.3,0.4c0.5,0.7,1.5,0.9,2.2,0.4c0.6-0.4,0.8-1.2,0.5-1.9l0,0.1c0.5,0.7,1.3,1,2.1,0.7c0.8-0.3,1.2-1.2,0.9-2
		c0.6,0.6,1.5,0.7,2.2,0.3l0,0c0.7-0.5,0.9-1.4,0.5-2.1c0.6,0.6,1.6,0.6,2.2,0.2c0.8-0.6,1-1.7,0.4-2.5l-0.9-1.2l1.9-2.2
		c0.5-0.6,1.1-1.1,1.7-1.4l0.9-0.5v-1.4L44,31.7c-0.7,0.4-1.4,0.9-1.9,1.6l-2,2.3c-0.6-0.6-1.6-0.6-2.2-0.2c-0.8,0.6-1,1.7-0.4,2.5
		l0,0.1h0c-0.6-0.4-1.3-0.4-2,0l0,0c-0.5,0.4-0.8,1-0.7,1.7l-0.2,0.1c-0.5-0.3-1.2-0.3-1.7,0.1c-0.5,0.3-0.8,1-0.7,1.5l-0.5,0.3
		c-0.4-0.1-0.8,0-1.2,0.2c-0.4,0.3-0.7,0.8-0.7,1.3l-0.3,0.2c-0.2,0.1-0.4,0.2-0.6,0.2c-0.2,0-0.4-0.2-0.6-0.4
		C28,43.1,28,42.8,28,42.6c0-0.2,0.2-0.4,0.4-0.6l2.9-2.2c0.2-0.1,0.2-0.2,0.2-0.4c0-0.3-0.3-0.6-0.6-0.6c-0.1,0-0.2,0-0.3,0.1
		L26,42.3c-0.3,0.2-0.6,0.3-0.9,0.2c-0.3-0.1-0.6-0.2-0.8-0.5c-0.4-0.5-0.3-1.3,0.3-1.6l5.5-3.9c0.1-0.1,0.2-0.3,0.2-0.5
		c0-0.3-0.3-0.6-0.6-0.6c-0.2,0-0.3,0.1-0.4,0.2l-5.4,3.9c-0.2,0.1-0.2,0.2-0.3,0.3c-0.6,0.4-1.6,0.3-1.9-0.1
		c-0.3-0.5-0.3-1.2,0.2-1.6l0.5-0.4l6-4.1c0.2-0.1,0.2-0.2,0.2-0.4c0-0.2-0.1-0.4-0.2-0.5c-0.2-0.2-0.4-0.2-0.6,0L21.2,37
		c0,0.1-0.1,0.1-0.2,0.1l-0.6,0.4c-0.5,0.4-1.3,0.3-1.6-0.3c-0.4-0.5-0.3-1.3,0.3-1.6l12.1-8.9c1,0.6,1.7,1.7,1.7,1.7
		c1.2,3.7,2.7,3.7,3.6,3.3c0.5-0.2,0.7-0.8,0.5-1.3c-0.5-1.4-0.7-4.2-0.7-4.2c-0.3-0.7-1.4-1.5-2.6-2.1l3.9,0.1L38.7,24.2z
		 M38.7,24.2"/>
</g>
<g>
	<g>
		<path class="st1" d="M29.5,52.6c-12.7,0-23.1-10.4-23.1-23.1S16.8,6.4,29.5,6.4s23.1,10.4,23.1,23.1S42.2,52.6,29.5,52.6z
			 M29.5,8.3c-11.7,0-21.1,9.5-21.1,21.1c0,11.7,9.5,21.1,21.1,21.1c11.7,0,21.1-9.5,21.1-21.1C50.6,17.8,41.2,8.3,29.5,8.3z"/>
	</g>
	<g>
		<path class="st1" d="M21.5,5.7c0.7-0.3,1-1,0.8-1.7l-0.6-1.7c-0.3-0.7-1-1-1.7-0.8l-1.7,0.6c-0.7,0.3-1,1-0.8,1.7l0.6,1.7
			c0.3,0.7,1,1,1.7,0.8L21.5,5.7z"/>
		<path class="st1" d="M4.8,15.8l1.5,1c0.6,0.4,1.4,0.2,1.8-0.4l1-1.5c0.4-0.6,0.2-1.4-0.4-1.8l-1.5-1c-0.6-0.4-1.4-0.2-1.8,0.4
			l-1,1.5C4,14.6,4.2,15.4,4.8,15.8z"/>
		<path class="st1" d="M4.5,31.5l-0.1-1.8c0-0.7-0.6-1.3-1.4-1.2l-1.8,0.1c-0.7,0-1.3,0.6-1.2,1.4l0.1,1.8c0,0.7,0.6,1.3,1.4,1.2
			l1.8-0.1C4,32.8,4.5,32.2,4.5,31.5z"/>
		<path class="st1" d="M9.3,44.4c-0.4-0.6-1.3-0.7-1.8-0.2l-1.4,1.1c-0.6,0.4-0.7,1.3-0.2,1.8L7,48.6c0.4,0.6,1.3,0.7,1.8,0.2
			l1.4-1.1c0.6-0.4,0.7-1.3,0.2-1.8L9.3,44.4z"/>
		<path class="st1" d="M23.7,53.9L22,53.4c-0.7-0.2-1.4,0.2-1.6,0.9l-0.5,1.7c-0.2,0.7,0.2,1.4,0.9,1.6l1.7,0.5
			c0.7,0.2,1.4-0.2,1.6-0.9l0.5-1.7C24.8,54.8,24.4,54.1,23.7,53.9z"/>
		<path class="st1" d="M40.8,53.4c-0.3-0.7-1-1-1.7-0.8l-1.7,0.6c-0.7,0.3-1,1-0.8,1.7l0.6,1.7c0.3,0.7,1,1,1.7,0.8l1.7-0.6
			c0.7-0.3,1-1,0.8-1.7L40.8,53.4z"/>
		<path class="st1" d="M54.2,43.2l-1.5-1c-0.6-0.4-1.4-0.2-1.8,0.4l-1,1.5c-0.4,0.6-0.2,1.4,0.4,1.8l1.5,1c0.6,0.4,1.4,0.2,1.8-0.4
			l1-1.5C55,44.4,54.8,43.6,54.2,43.2z"/>
		<path class="st1" d="M58.9,27.3c0-0.7-0.6-1.3-1.4-1.2l-1.8,0.1c-0.7,0-1.3,0.6-1.2,1.4l0.1,1.8c0,0.7,0.6,1.3,1.4,1.2l1.8-0.1
			c0.7,0,1.3-0.6,1.2-1.4L58.9,27.3z"/>
		<path class="st1" d="M51.5,14.8l1.4-1.1c0.6-0.4,0.7-1.3,0.2-1.8L52,10.4c-0.4-0.6-1.3-0.7-1.8-0.2l-1.4,1.1
			c-0.6,0.4-0.7,1.3-0.2,1.8l1.1,1.4C50.1,15.1,50.9,15.2,51.5,14.8z"/>
		<path class="st1" d="M38.6,4.6l0.5-1.7c0.2-0.7-0.2-1.4-0.9-1.6l-1.7-0.5c-0.7-0.2-1.4,0.2-1.6,0.9l-0.5,1.7
			c-0.2,0.7,0.2,1.4,0.9,1.6L37,5.5C37.7,5.7,38.5,5.3,38.6,4.6z"/>
		<path class="st1" d="M30.5,2.6l0-0.9c0-1-0.9-1.7-1.8-1.7l-0.9,0c-1,0-1.7,0.9-1.7,1.8l0,0.9c0,1,0.9,1.7,1.8,1.7l0.9,0
			C29.8,4.4,30.5,3.6,30.5,2.6z"/>
		<path class="st1" d="M13.5,10.2l0.7-0.6C15,9,15.1,7.9,14.5,7.1l-0.6-0.7c-0.6-0.7-1.7-0.9-2.4-0.3l-0.7,0.6
			C10,7.3,9.9,8.4,10.5,9.2l0.6,0.7C11.7,10.6,12.7,10.8,13.5,10.2z"/>
		<path class="st1" d="M2.2,24.2l0.9,0.2c0.9,0.3,1.9-0.3,2.1-1.2l0.2-0.9c0.3-0.9-0.3-1.9-1.2-2.1L3.3,20c-0.9-0.3-1.9,0.3-2.1,1.2
			l-0.2,0.9C0.7,23,1.2,24,2.2,24.2z"/>
		<path class="st1" d="M6.2,38.7l-0.3-0.9c-0.3-0.9-1.3-1.4-2.2-1l-0.9,0.3c-0.9,0.3-1.4,1.3-1,2.2l0.3,0.9c0.3,0.9,1.3,1.4,2.2,1
			L5.2,41C6.1,40.6,6.5,39.6,6.2,38.7z"/>
		<path class="st1" d="M16.1,50.7l-0.8-0.5c-0.8-0.5-1.9-0.3-2.4,0.5l-0.5,0.8c-0.5,0.8-0.3,1.9,0.5,2.4l0.8,0.5
			c0.8,0.5,1.9,0.3,2.4-0.5l0.5-0.8C17.1,52.3,16.9,51.2,16.1,50.7z"/>
		<path class="st1" d="M31.1,54.5l-0.9,0c-1,0-1.7,0.9-1.7,1.8l0,0.9c0,1,0.9,1.7,1.8,1.7l0.9,0c1,0,1.7-0.9,1.7-1.8l0-0.9
			C32.9,55.2,32.1,54.5,31.1,54.5z"/>
		<path class="st1" d="M47.9,49.1c-0.6-0.7-1.7-0.9-2.4-0.3l-0.7,0.6c-0.7,0.6-0.9,1.7-0.3,2.4l0.6,0.7c0.6,0.7,1.7,0.9,2.4,0.3
			l0.7-0.6c0.7-0.6,0.9-1.7,0.3-2.4L47.9,49.1z"/>
		<path class="st1" d="M56.8,34.7l-0.9-0.2c-0.9-0.3-1.9,0.3-2.1,1.2l-0.2,0.9c-0.3,0.9,0.3,1.9,1.2,2.1l0.9,0.2
			c0.9,0.3,1.9-0.3,2.1-1.2l0.2-0.9C58.3,35.9,57.8,35,56.8,34.7z"/>
		<path class="st1" d="M52.8,20.2l0.3,0.9c0.3,0.9,1.3,1.4,2.2,1l0.9-0.3c0.9-0.3,1.4-1.3,1-2.2l-0.3-0.9c-0.3-0.9-1.3-1.4-2.2-1
			L53.8,18C52.9,18.3,52.5,19.3,52.8,20.2z"/>
		<path class="st1" d="M46.1,8.3l0.5-0.8c0.5-0.8,0.3-1.9-0.5-2.4l-0.8-0.5c-0.8-0.5-1.9-0.3-2.4,0.5l-0.5,0.8
			c-0.5,0.8-0.3,1.9,0.5,2.4l0.8,0.5C44.5,9.3,45.6,9.1,46.1,8.3z"/>
	</g>
	<path class="st1" d="M37.7,23.2c0.6,0,1.2-0.2,1.7-0.5l4.9-2.9v-1.3l-5.5,3.2c-0.4,0.2-0.9,0.4-1.4,0.4L30.1,22
		c-0.4-0.1-0.7-0.2-0.8-0.3c-2.3-0.5-4.1-0.3-5.3,0c-0.9,0.2-1.9,0.2-2.7-0.2l-6.6-3v12.1l0.7,0.4c1,0.6,1.8,1.4,2.3,2.4l-0.4,0.3
		c-1,0.8-1.3,2.2-0.6,3.3c0.4,0.5,0.9,0.8,1.5,0.9c0.1,0,0.2,0,0.3,0c0.2,0,0.4,0,0.6,0c0,0.5,0.1,1,0.4,1.4
		c0.4,0.6,1.1,0.8,1.8,0.9c0.2,0,0.4,0,0.5,0c-0.1,0.6,0.1,1.1,0.4,1.6c0.4,0.5,0.9,0.8,1.5,0.9c0.1,0,0.2,0,0.3,0
		c0.6,0,1.1-0.1,1.5-0.4l0.2-0.2c0.1,0.3,0.2,0.6,0.4,0.9c0.3,0.4,0.8,0.7,1.3,0.8c0.1,0,0.1,0,0.2,0c0.4,0,0.9-0.1,1.3-0.4h0
		l0.3,0.4c0.5,0.7,1.5,0.9,2.2,0.4c0.6-0.4,0.8-1.2,0.5-1.9l0,0.1c0.5,0.7,1.3,1,2.1,0.7c0.8-0.3,1.2-1.2,0.9-2
		c0.6,0.6,1.5,0.7,2.2,0.3l0,0c0.7-0.5,0.9-1.4,0.5-2.1c0.6,0.6,1.6,0.6,2.2,0.2c0.8-0.6,1-1.7,0.4-2.5l-0.9-1.2l1.9-2.2
		c0.5-0.6,1.1-1.1,1.7-1.4l0.9-0.5v-1.4L43,30.7c-0.7,0.4-1.4,0.9-1.9,1.6l-2,2.3c-0.6-0.6-1.6-0.6-2.2-0.2c-0.8,0.6-1,1.7-0.4,2.5
		l0,0.1h0c-0.6-0.4-1.3-0.4-2,0l0,0c-0.5,0.4-0.8,1-0.7,1.7l-0.2,0.1c-0.5-0.3-1.2-0.3-1.7,0.1c-0.5,0.3-0.8,1-0.7,1.5l-0.5,0.3
		c-0.4-0.1-0.8,0-1.2,0.2c-0.4,0.3-0.7,0.8-0.7,1.3l-0.3,0.2c-0.2,0.1-0.4,0.2-0.6,0.2c-0.2,0-0.4-0.2-0.6-0.4
		C27,42.1,27,41.8,27,41.6c0-0.2,0.2-0.4,0.4-0.6l2.9-2.2c0.2-0.1,0.2-0.2,0.2-0.4c0-0.3-0.3-0.6-0.6-0.6c-0.1,0-0.2,0-0.3,0.1
		L25,41.3c-0.3,0.2-0.6,0.3-0.9,0.2c-0.3-0.1-0.6-0.2-0.8-0.5c-0.4-0.5-0.3-1.3,0.3-1.6l5.5-3.9c0.1-0.1,0.2-0.3,0.2-0.5
		c0-0.3-0.3-0.6-0.6-0.6c-0.2,0-0.3,0.1-0.4,0.2l-5.4,3.9c-0.2,0.1-0.2,0.2-0.3,0.3c-0.6,0.4-1.6,0.3-1.9-0.1
		c-0.3-0.5-0.3-1.2,0.2-1.6l0.5-0.4l6-4.1c0.2-0.1,0.2-0.2,0.2-0.4c0-0.2-0.1-0.4-0.2-0.5c-0.2-0.2-0.4-0.2-0.6,0L20.2,36
		c0,0.1-0.1,0.1-0.2,0.1l-0.6,0.4c-0.5,0.4-1.3,0.3-1.6-0.3c-0.4-0.5-0.3-1.3,0.3-1.6l12.1-8.9c1,0.6,1.7,1.7,1.7,1.7
		c1.2,3.7,2.7,3.7,3.6,3.3c0.5-0.2,0.7-0.8,0.5-1.3c-0.5-1.4-0.7-4.2-0.7-4.2c-0.3-0.7-1.4-1.5-2.6-2.1l3.9,0.1L37.7,23.2z
		 M37.7,23.2"/>
</g>
</svg>
