<?xml version="1.0" encoding="utf-8"?>
<!-- Generator: Adobe Illustrator 21.1.0, SVG Export Plug-In . SVG Version: 6.00 Build 0)  -->
<svg version="1.1" id="Check_Circle" xmlns="http://www.w3.org/2000/svg" xmlns:xlink="http://www.w3.org/1999/xlink" x="0px"
	 y="0px" viewBox="0 0 60 60" style="enable-background:new 0 0 60 60;" xml:space="preserve">
<style type="text/css">
	.st0{fill:#999999;}
	.st1{fill:#FFC816;}
</style>
<g>
	<path class="st0" d="M50.1,32.5c-0.1-0.1-0.3-0.1-0.4-0.1c-0.3,0-0.6,0.1-0.8,0.4L46.5,35c-0.2,0.2-0.3,0.5-0.3,0.8V45
		c0,1.6-0.6,2.9-1.7,4.1c-1.1,1.1-2.5,1.7-4.1,1.7h-30c-1.6,0-2.9-0.6-4.1-1.7C5.2,48,4.6,46.6,4.6,45V15c0-1.6,0.6-2.9,1.7-4.1
		c1.1-1.1,2.5-1.7,4.1-1.7h30c0.5,0,1.1,0.1,1.6,0.2c0.1,0,0.3,0.1,0.3,0.1c0.3,0,0.6-0.1,0.8-0.4L45,7.4c0.3-0.3,0.4-0.6,0.3-1
		C45.2,6,45,5.7,44.7,5.6C43.4,5,42,4.7,40.5,4.7h-30c-2.9,0-5.3,1-7.3,3s-3,4.5-3,7.3v30c0,2.9,1,5.3,3,7.3s4.5,3,7.3,3h30
		c2.9,0,5.3-1,7.3-3s3-4.5,3-7.3V33.5C50.8,33,50.6,32.7,50.1,32.5L50.1,32.5z"/>
	<path class="st1" d="M59.1,11.8l-4-4c-0.6-0.6-1.3-0.9-2.1-0.9s-1.5,0.3-2.1,0.9L27.7,31.2l-9.5-9.5c-0.6-0.6-1.3-0.9-2.1-0.9
		c-0.8,0-1.5,0.3-2.1,0.9l-4,4c-0.6,0.6-0.9,1.3-0.9,2.1c0,0.8,0.3,1.5,0.9,2.1l15.5,15.5c0.6,0.6,1.3,0.9,2.1,0.9
		c0.8,0,1.5-0.3,2.1-0.9L59.1,16c0.6-0.6,0.9-1.3,0.9-2.1C60,13,59.7,12.4,59.1,11.8L59.1,11.8z"/>
</g>
</svg>
