<?xml version="1.0" encoding="utf-8"?>
<!-- Generator: Adobe Illustrator 21.1.0, SVG Export Plug-In . SVG Version: 6.00 Build 0)  -->
<svg version="1.1" id="Arrow_Right" xmlns="http://www.w3.org/2000/svg" xmlns:xlink="http://www.w3.org/1999/xlink" x="0px"
	 y="0px" viewBox="0 0 60 60" style="enable-background:new 0 0 60 60;" xml:space="preserve">
<style type="text/css">
	.st0{fill:none;}
	.st1{fill:#CCCCCC;}
	.st2{fill:#FEDD10;}
	.st3{fill:#919395;}
</style>
<path class="st0" d="M25,31.3c0-0.3,0.1-0.4,0.1-0.7c0.7-4.5-1.4-4.6-1.4-4.6s-0.3-0.7-1.2-1.2c-0.5-0.4-1.5-0.7-2.6-0.5
	c-0.4,0-0.9,0-1.1,0.1c-0.4,0.1-0.7,0.3-1.1,0.5c-0.4,0.3-0.9,0.5-1.2,1c-0.5,0.5-1,1.2-1.2,2.2c-0.1,0.7-0.1,1.4,0,2.2
	c0,0.3,0,0.4,0.1,0.7c-0.4,0-0.9,0.3-0.4,2c0.4,1.2,0.7,1.6,1,1.6c0.1,1.5,1.4,3.4,3.1,4c0.7,0.3,1.5,0.3,2.4,0
	c1.8-0.7,2.9-2.5,3.1-4c0.3-0.1,0.7-0.4,1-1.6C26.1,31.3,25.5,31,25,31.3z"/>
<path class="st1" d="M25.9,12.2h8.3c1.5,0,2.7-1.2,2.7-2.7V7.7c0-1.5-1.2-2.7-2.7-2.7h-0.9V4c0-1.1-0.9-2-2-2h-2.5c-1.1,0-2,0.9-2,2
	v1h-0.9c-1.5,0-2.7,1.2-2.7,2.7v1.8C23.3,11,24.5,12.2,25.9,12.2z"/>
<path class="st2" d="M20.3,21.2c-7.4,0-13.2,6-13.2,13.2c0,3.1,1.1,6.1,2.9,8.3c0.1-1.1,0.5-2.4,2-2.6c2.6-0.7,4.7-2.2,4.7-2.2
	l2,6.2l0.3,0.9l0.9-2.5c-2.2-3,0.5-2.9,0.5-2.9s2.7-0.1,0.5,2.9l0.9,2.5l0.3-0.9l0.3-1L24,38c0,0,2.1,1.5,4.7,2.2
	c1.4,0.3,1.8,1.5,2,2.6c1.8-2.2,2.9-5.1,2.9-8.3C33.6,27.2,27.6,21.2,20.3,21.2z M25.5,33c-0.3,1.2-0.7,1.5-1,1.6
	c-0.3,1.5-1.4,3.4-3.1,4c-0.9,0.3-1.6,0.3-2.4,0c-1.7-0.7-3-2.4-3.1-3.9c-0.3,0-0.5-0.4-1-1.6c-0.4-1.6,0-2,0.4-2
	c-0.1-0.3-0.1-0.4-0.1-0.7c-0.1-0.9-0.1-1.5,0-2.2c0.3-1,0.7-1.6,1.2-2.2c0.4-0.4,0.9-0.7,1.2-1c0.4-0.3,0.7-0.4,1.1-0.5
	c0.3-0.1,0.7-0.1,1.1-0.1c1.1-0.1,2.1,0.1,2.6,0.5c1,0.5,1.2,1.2,1.2,1.2s2.1,0.1,1.4,4.6c0,0.3-0.1,0.4-0.1,0.7
	C25.5,31,26.1,31.3,25.5,33z"/>
<path class="st3" d="M7.4,55.6c-3.8,0-6.9-3.1-6.9-6.9V16.3c0-3.8,3.1-6.9,6.9-6.9h12.9v0.1c0,3.1,2.5,5.6,5.6,5.6h8.2
	c3.1,0,5.6-2.5,5.6-5.6V9.4h12.9c3.8,0,6.9,3.1,6.9,6.9v32.4c0,3.8-3.1,6.9-6.9,6.9H7.4z M20.2,17.6c-9.4,0-17,7.6-17,17
	c0,9.4,7.6,17,17,17c6.9,0,13-4,15.6-10.3h20.6l-0.1-4H37c0.1-0.8,0.2-1.5,0.2-2.3h19.2l-0.1-4H36.8c-0.2-0.7-0.4-1.5-0.7-2.3h20.2
	l-0.1-4H33.9C30.8,20.2,25.6,17.6,20.2,17.6z"/>
</svg>
