<?xml version="1.0" encoding="utf-8"?>
<!-- Generator: Adobe Illustrator 21.1.0, SVG Export Plug-In . SVG Version: 6.00 Build 0)  -->
<svg version="1.1" id="Arrow_Right" xmlns="http://www.w3.org/2000/svg" xmlns:xlink="http://www.w3.org/1999/xlink" x="0px"
	 y="0px" viewBox="0 0 60 60" style="enable-background:new 0 0 60 60;" xml:space="preserve">
<style type="text/css">
	.st0{fill:#999999;}
</style>
<g>
	<path class="st0" d="M6.9,31.4l28,28c0.4,0.4,0.9,0.6,1.4,0.6s1-0.2,1.4-0.6l3-3c0.3-0.4,0.5-0.9,0.5-1.4s-0.2-1-0.6-1.4L17,30
		L40.6,6.4C41,6,41.2,5.5,41.2,5S41,4,40.6,3.6l-3-3C37.2,0.2,36.8,0,36.3,0s-1,0.2-1.4,0.6l-28,28C6.5,29,6.3,29.5,6.3,30
		C6.3,30.5,6.5,31,6.9,31.4L6.9,31.4z"/>
	<circle class="st0" cx="44.7" cy="30" r="9"/>
</g>
</svg>
