<?xml version="1.0" encoding="utf-8"?>
<!-- Generator: Adobe Illustrator 21.1.0, SVG Export Plug-In . SVG Version: 6.00 Build 0)  -->
<svg version="1.1" id="MENU" xmlns="http://www.w3.org/2000/svg" xmlns:xlink="http://www.w3.org/1999/xlink" x="0px" y="0px"
	 viewBox="0 0 60 60" style="enable-background:new 0 0 60 60;" xml:space="preserve">
<style type="text/css">
	.st0{fill:#FEDD10;}
	.st1{fill:#FFC816;}
</style>
<path class="st0" d="M57.9,45H2.1c-0.6,0-1.1,0.2-1.5,0.6C0.2,46.1,0,46.6,0,47.1v4.3c0,0.6,0.2,1.1,0.6,1.5
	c0.4,0.4,0.9,0.6,1.5,0.6h55.7c0.6,0,1.1-0.2,1.5-0.6c0.4-0.4,0.6-0.9,0.6-1.5v-4.3c0-0.6-0.2-1.1-0.6-1.5
	C58.9,45.2,58.4,45,57.9,45L57.9,45z M57.9,45"/>
<path class="st0" d="M59.4,7.1c-0.4-0.4-0.9-0.6-1.5-0.6H2.1c-0.6,0-1.1,0.2-1.5,0.6C0.2,7.5,0,8,0,8.6v4.3c0,0.6,0.2,1.1,0.6,1.5
	C1.1,14.8,1.6,15,2.1,15h55.7c0.6,0,1.1-0.2,1.5-0.6c0.4-0.4,0.6-0.9,0.6-1.5V8.6C60,8,59.8,7.5,59.4,7.1L59.4,7.1z M59.4,7.1"/>
<path class="st1" d="M57.9,25.7H2.1c-0.6,0-1.1,0.2-1.5,0.6C0.2,26.8,0,27.3,0,27.9v4.3c0,0.6,0.2,1.1,0.6,1.5
	c0.4,0.4,0.9,0.6,1.5,0.6h55.7c0.6,0,1.1-0.2,1.5-0.6c0.4-0.4,0.6-0.9,0.6-1.5v-4.3c0-0.6-0.2-1.1-0.6-1.5
	C58.9,25.9,58.4,25.7,57.9,25.7L57.9,25.7z M57.9,25.7"/>
</svg>
