<?xml version="1.0" encoding="utf-8"?>
<!-- Generator: Adobe Illustrator 21.1.0, SVG Export Plug-In . SVG Version: 6.00 Build 0)  -->
<svg version="1.1" id="My_Account" xmlns="http://www.w3.org/2000/svg" xmlns:xlink="http://www.w3.org/1999/xlink" x="0px" y="0px"
	 viewBox="0 0 60 60" style="enable-background:new 0 0 60 60;" xml:space="preserve">
<style type="text/css">
	.st0{fill:#FEDD10;}
</style>
<g>
	<path class="st0" d="M12.6,24.8c0.5,3.1,2.8,7,6.7,8.3c1.6,0.6,3.3,0.6,4.9,0c3.8-1.4,6.3-5.3,6.7-8.3c0.5,0,1.2-0.8,1.9-3.3
		c1-3.5-0.1-4-1-4c0.2-0.5,0.3-1,0.4-1.5c1.5-9.1-3-9.5-3-9.5s-0.7-1.4-2.7-2.5c-1.3-0.8-3.1-1.4-5.6-1.2c-0.8,0-1.5,0.2-2.2,0.4
		c-0.9,0.3-1.7,0.7-2.4,1.2c-0.9,0.6-1.8,1.3-2.5,2.1c-1.2,1.2-2.3,2.8-2.7,4.8c-0.4,1.5-0.3,3,0,4.7c0.1,0.5,0.2,1,0.4,1.5
		c-0.9-0.1-2,0.4-1,4C11.4,24.1,12.1,24.8,12.6,24.8L12.6,24.8z M12.6,24.8"/>
	<path class="st0" d="M51.9,47.9L51.9,47.9L51.9,47.9l-2.7-3.1c-0.1-0.1-0.2-0.3-0.2-0.5l-0.4-5.8c0-0.5-0.5-1-1-1
		c-0.5,0-1,0.4-1,0.9v0.1l-0.4,6.4c0,0,0,0.1,0,0.1v0.1c0,0.4,0.1,0.8,0.4,1.1c0.1,0.1,0.1,0.1,0.2,0.2l3.6,3c0.4,0.4,1,0.3,1.4,0
		C52.2,48.9,52.2,48.3,51.9,47.9L51.9,47.9z M51.9,47.9"/>
	<path class="st0" d="M36.1,35.7c-3.8-1.5-6.5-3.4-6.5-3.4l-3.5,11l-0.7,2.1l0,0l-0.6,1.8l-1.8-5.2c4.5-6.3-0.9-6.2-1.2-6.2
		c-0.3,0-5.7-0.1-1.2,6.2l-1.8,5.2l-0.6-1.8l0,0l-0.7-2.1l-3.5-11c0,0-4.5,3.1-9.9,4.5c-4.1,1-4.3,5.8-4.1,8.1c0,0,0.2,3.2,0.5,4.6
		c0,0,8,5.2,21.3,5.2c5.4,0,9.9-0.9,13.4-1.9c-1.5-2.3-2.3-5-2.3-7.9C33,41.4,34.1,38.3,36.1,35.7L36.1,35.7z M36.1,35.7"/>
	<path class="st0" d="M47.7,32.6c-6.8,0-12.3,5.5-12.3,12.3c0,6.8,5.5,12.3,12.3,12.3c6.7,0,12.3-5.5,12.3-12.3
		C60,38.1,54.5,32.6,47.7,32.6L47.7,32.6z M47.7,54c-5,0-9.1-4.1-9.1-9.1c0-5,4.1-9.1,9.1-9.1c5,0,9.1,4.1,9.1,9.1
		C56.8,49.9,52.8,54,47.7,54L47.7,54z M47.7,54"/>
</g>
</svg>
