<?xml version="1.0" encoding="utf-8"?>
<!-- Generator: Adobe Illustrator 21.1.0, SVG Export Plug-In . SVG Version: 6.00 Build 0)  -->
<svg version="1.1" id="Arrow_Right" xmlns="http://www.w3.org/2000/svg" xmlns:xlink="http://www.w3.org/1999/xlink" x="0px"
	 y="0px" viewBox="0 0 60 60" style="enable-background:new 0 0 60 60;" xml:space="preserve">
<style type="text/css">
	.st0{fill:#FEDD10;}
</style>
<g>
	<path class="st0" d="M53.1,28.6l-28-28C24.7,0.2,24.3,0,23.7,0c-0.5,0-1,0.2-1.4,0.6l-3,3C19,4,18.8,4.5,18.8,5
		c0,0.5,0.2,1,0.6,1.4L43,30L19.4,53.6C19,54,18.8,54.5,18.8,55c0,0.5,0.2,1,0.6,1.4l3,3c0.4,0.4,0.9,0.6,1.4,0.6
		c0.5,0,1-0.2,1.4-0.6l28-28c0.4-0.4,0.6-0.9,0.6-1.4C53.7,29.5,53.5,29,53.1,28.6L53.1,28.6z M53.1,28.6"/>
	<circle class="st0" cx="15.3" cy="30" r="9"/>
</g>
</svg>
