<?xml version="1.0" encoding="utf-8"?>
<!-- Generator: Adobe Illustrator 21.1.0, SVG Export Plug-In . SVG Version: 6.00 Build 0)  -->
<svg version="1.1" id="Review_Star_-_full" xmlns="http://www.w3.org/2000/svg" xmlns:xlink="http://www.w3.org/1999/xlink" x="0px"
	 y="0px" viewBox="0 0 60 60" style="enable-background:new 0 0 60 60;" xml:space="preserve">
<style type="text/css">
	.st0{fill:url(#SVGID_1_);}
</style>
<radialGradient id="SVGID_1_" cx="30" cy="30" r="29.3153" gradientUnits="userSpaceOnUse">
	<stop  offset="0" style="stop-color:#FFC816"/>
	<stop  offset="0.4344" style="stop-color:#FFCD15"/>
	<stop  offset="0.9156" style="stop-color:#FEDA11"/>
	<stop  offset="1" style="stop-color:#FEDD10"/>
</radialGradient>
<path class="st0" d="M59.9,23.1c-0.2-0.7-0.9-1.1-1.9-1.2l-18.1-2.6L31.8,2.9c-0.5-1-1.1-1.5-1.8-1.5c-0.7,0-1.3,0.5-1.8,1.5
	l-8.1,16.4L2,21.9c-1.1,0.2-1.7,0.6-1.9,1.2c-0.2,0.7,0.1,1.4,0.8,2.1L14,38.1l-3.1,18c-0.1,0.8,0,1.4,0.2,1.9
	c0.3,0.4,0.7,0.7,1.2,0.7c0.4,0,0.9-0.1,1.4-0.4L30,49.7l16.2,8.5c0.6,0.3,1,0.4,1.4,0.4c0.6,0,1-0.2,1.2-0.7
	c0.3-0.4,0.3-1.1,0.2-1.9l-3.1-18l13.1-12.8C59.9,24.5,60.1,23.8,59.9,23.1z M42.8,34.7L41,36.4l0.4,2.4l2.2,12.8l-11.5-6.1L30,44.4
	V9.7l5.7,11.6l1.1,2.2l2.4,0.4L52,25.7L42.8,34.7z"/>
</svg>
