<?xml version="1.0" encoding="utf-8"?>
<!-- Generator: Adobe Illustrator 21.1.0, SVG Export Plug-In . SVG Version: 6.00 Build 0)  -->
<svg version="1.1" id="Review_Star_-_full" xmlns="http://www.w3.org/2000/svg" xmlns:xlink="http://www.w3.org/1999/xlink" x="0px"
	 y="0px" viewBox="0 0 60 60" style="enable-background:new 0 0 60 60;" xml:space="preserve">
<style type="text/css">
	.st0{fill:url(#SVGID_1_);}
</style>
<g>
	<radialGradient id="SVGID_1_" cx="30" cy="30" r="29.3141" gradientUnits="userSpaceOnUse">
		<stop  offset="0" style="stop-color:#FFC816"/>
		<stop  offset="0.4344" style="stop-color:#FFCD15"/>
		<stop  offset="0.9156" style="stop-color:#FEDA11"/>
		<stop  offset="1" style="stop-color:#FEDD10"/>
	</radialGradient>
	<path class="st0" d="M60,23.6c0-0.9-0.7-1.4-2-1.7l-18.1-2.6L31.8,2.9c-0.5-1-1-1.5-1.8-1.5c-0.7,0-1.3,0.5-1.8,1.5l-8.1,16.4
		L2,21.9c-1.3,0.2-2,0.8-2,1.7c0,0.5,0.3,1.1,0.9,1.7L14,38.1l-3.1,18c0,0.3-0.1,0.6-0.1,0.7c0,0.5,0.1,0.9,0.4,1.3
		c0.3,0.3,0.6,0.5,1.1,0.5c0.4,0,0.9-0.1,1.4-0.4L30,49.7l16.2,8.5c0.5,0.3,1,0.4,1.4,0.4c1,0,1.5-0.6,1.5-1.8c0-0.3,0-0.6,0-0.7
		l-3.1-18l13.1-12.8C59.7,24.7,60,24.1,60,23.6L60,23.6z M41,36.4l2.6,15.2L30,44.4l-13.6,7.2L19,36.4L8,25.7l15.2-2.2L30,9.7
		l6.8,13.8L52,25.7L41,36.4z M41,36.4"/>
</g>
</svg>
