<?xml version="1.0" encoding="utf-8"?>
<!-- Generator: Adobe Illustrator 21.1.0, SVG Export Plug-In . SVG Version: 6.00 Build 0)  -->
<svg version="1.1" id="TechSpecs" xmlns="http://www.w3.org/2000/svg" xmlns:xlink="http://www.w3.org/1999/xlink" x="0px" y="0px"
	 viewBox="0 0 60 60" style="enable-background:new 0 0 60 60;" xml:space="preserve">
<style type="text/css">
	.st0{fill:url(#SVGID_1_);}
	.st1{fill:#FFC816;}
	.st2{fill:#FEDD10;}
</style>
<g>
	<g>
		
			<linearGradient id="SVGID_1_" gradientUnits="userSpaceOnUse" x1="30" y1="1.9505" x2="30" y2="61.9505" gradientTransform="matrix(1 0 0 -1 0 62)">
			<stop  offset="0" style="stop-color:#BABCBE"/>
			<stop  offset="0.2377" style="stop-color:#808083"/>
			<stop  offset="0.5617" style="stop-color:#F1F1F1"/>
			<stop  offset="0.616" style="stop-color:#FFFFFF"/>
			<stop  offset="1" style="stop-color:#CFD1D2"/>
		</linearGradient>
		<path class="st0" d="M30,53.5C17,53.5,6.5,43,6.5,30S17,6.5,30,6.5S53.5,17,53.5,29.9S43,53.5,30,53.5z M30,8.5
			C18.1,8.5,8.6,18,8.6,29.9S18.1,51.5,30,51.5S51.4,42,51.4,30.1S41.9,8.5,30,8.5z M21.9,5.8c0.7-0.3,1-1,0.8-1.7L22,2.3
			c-0.3-0.7-1-1-1.7-0.8l-1.7,0.6c-0.7,0.3-1,1-0.8,1.7l0.6,1.7c0.3,0.7,1,1,1.7,0.8L21.9,5.8z M4.8,16l1.5,1
			c0.6,0.4,1.4,0.2,1.8-0.4l1-1.5c0.4-0.6,0.2-1.4-0.4-1.8l-1.5-1c-0.6-0.4-1.4-0.2-1.8,0.4l-1,1.5C4.1,14.9,4.2,15.6,4.8,16z
			 M4.6,32.1l-0.1-1.8c0-0.7-0.7-1.3-1.4-1.3H1.4c-0.7,0-1.3,0.7-1.3,1.4l0.1,1.8c0,0.7,0.7,1.3,1.4,1.3l1.8-0.1
			C4,33.3,4.6,32.8,4.6,32.1z M9.5,45.1c-0.5-0.6-1.3-0.7-1.9-0.2L6.1,46c-0.6,0.5-0.7,1.3-0.2,1.9l1.2,1.4C7.6,50,8.4,50.1,9,49.6
			l1.4-1.1c0.6-0.5,0.7-1.3,0.2-1.9L9.5,45.1z M24.1,54.8l-1.8-0.5c-0.7-0.2-1.4,0.2-1.6,0.9l-0.4,1.7c-0.2,0.7,0.2,1.4,0.9,1.6
			L23,59c0.7,0.2,1.4-0.2,1.6-0.9l0.5-1.8C25.2,55.8,24.8,55,24.1,54.8z M41.5,54.2c-0.3-0.7-1-1-1.7-0.8L38,54
			c-0.7,0.3-1,1-0.8,1.7l0.6,1.7c0.3,0.7,1,1,1.7,0.8l1.7-0.6c0.7-0.3,1-1,0.8-1.7L41.5,54.2z M55.2,44l-1.5-1
			c-0.6-0.4-1.4-0.2-1.8,0.4l-1,1.5c-0.4,0.6-0.2,1.4,0.4,1.8l1.5,1c0.6,0.4,1.4,0.2,1.8-0.4l1-1.5C55.9,45,55.8,44.3,55.2,44z
			 M59.8,27.6c0-0.7-0.7-1.3-1.4-1.3l-1.8,0.1c-0.7,0-1.3,0.7-1.3,1.4l0.1,1.8c0,0.7,0.7,1.3,1.4,1.3l1.8-0.1c0.7,0,1.3-0.7,1.3-1.4
			L59.8,27.6z M52.3,14.9l1.4-1.1c0.6-0.5,0.7-1.3,0.2-1.9l-1.1-1.3c-0.5-0.6-1.3-0.7-1.9-0.2l-1.4,1.1c-0.6,0.5-0.7,1.3-0.2,1.9
			l1.1,1.4C50.9,15.3,51.7,15.4,52.3,14.9z M39.2,4.7L39.7,3c0.2-0.7-0.2-1.4-0.9-1.6L37,0.8c-0.7-0.2-1.4,0.2-1.6,0.9l-0.5,1.7
			c-0.2,0.7,0.2,1.4,0.9,1.6l1.8,0.5C38.4,5.9,39,5.4,39.2,4.7z M31,2.7v-1c0-1-0.9-1.7-1.8-1.7h-1c-1,0-1.7,0.9-1.7,1.8v1
			c0,1,0.9,1.7,1.8,1.7h1C30.3,4.5,31.1,3.6,31,2.7z M13.8,10.4l0.7-0.6c0.7-0.6,0.8-1.6,0.3-2.4l-0.6-0.7c-0.6-0.8-1.7-0.9-2.5-0.3
			L11,7c-0.8,0.6-0.9,1.7-0.3,2.5l0.6,0.6C11.9,10.8,13,11,13.8,10.4z M2.3,24.8L3.1,25C4,25.3,5,24.8,5.3,23.8l0.3-0.9
			C5.9,22,5.3,21,4.4,20.7l-0.9-0.3c-0.9-0.3-1.9,0.3-2.2,1.2l-0.2,0.9C0.8,23.3,1.4,24.4,2.3,24.8z M6.3,39.3L6,38.5
			c-0.3-0.9-1.4-1.4-2.3-1l-0.9,0.3c-0.9,0.3-1.4,1.4-1,2.3L2.1,41c0.3,0.9,1.4,1.4,2.3,1l0.9-0.3C6.2,41.2,6.6,40.2,6.3,39.3z
			 M16.3,51.5L15.6,51c-0.8-0.5-1.9-0.3-2.4,0.5l-0.5,0.8c-0.5,0.8-0.3,1.9,0.5,2.4l0.8,0.5c0.8,0.5,1.9,0.3,2.4-0.5l0.5-0.8
			C17.4,53.1,17.2,52,16.3,51.5z M31.6,55.5h-1c-1,0-1.7,0.9-1.7,1.8v1c0,1,0.9,1.7,1.8,1.7h1c1,0,1.7-0.9,1.7-1.8v-1
			C33.3,56.1,32.6,55.3,31.6,55.5z M48.8,49.8c-0.6-0.8-1.7-0.9-2.5-0.3l-0.7,0.6c-0.7,0.6-0.8,1.6-0.3,2.4l0.6,0.7
			c0.6,0.8,1.7,0.9,2.5,0.3l0.7-0.6c0.8-0.6,0.9-1.7,0.3-2.5L48.8,49.8z M57.7,35.2L56.9,35c-0.9-0.3-1.9,0.3-2.2,1.2l-0.3,0.9
			c-0.3,0.9,0.3,1.9,1.2,2.2l0.9,0.3c0.9,0.3,1.9-0.3,2.2-1.2l0.3-0.9C59.2,36.5,58.6,35.5,57.7,35.2z M53.7,20.6l0.3,0.9
			c0.3,0.9,1.4,1.4,2.3,1l0.9-0.3c0.9-0.3,1.4-1.4,1-2.3L57.9,19c-0.3-0.9-1.4-1.4-2.3-1l-0.9,0.3C53.8,18.8,53.3,19.8,53.7,20.6z
			 M46.9,8.5l0.5-0.8c0.5-0.8,0.3-1.9-0.5-2.4L46,4.8c-0.8-0.5-1.9-0.3-2.4,0.5L43,6c-0.5,0.8-0.3,1.9,0.5,2.4L44.3,9
			C45.2,9.4,46.3,9.2,46.9,8.5z"/>
	</g>
	<g>
		<path class="st1" d="M30,30.3v12.6L40,41v-6.2c0-0.3,0.2-0.5,0.5-0.4l1.2,0.2c0.2,0,0.4,0.2,0.4,0.4v7.1c0,0.2-0.1,0.4-0.3,0.4
			l-11,2.4c-0.5,0.1-1.1,0.1-1.6,0l-10.9-2.3c-0.2,0-0.3-0.2-0.3-0.4L17.7,35c0-0.2,0.2-0.4,0.4-0.4l9.2-0.8c0.2,0,0.3-0.1,0.4-0.3
			l1.4-3.4C29.3,29.7,30,29.8,30,30.3L30,30.3z"/>
		<path class="st2" d="M17.6,26.1l-2.9,6.2c-0.1,0.3,0.1,0.6,0.4,0.6l10.9-1.1c0.2,0,0.3-0.1,0.4-0.3l3.5-7.9l-12,2.2
			C17.8,25.9,17.7,26,17.6,26.1L17.6,26.1z"/>
		<path class="st2" d="M29.9,23.7l3.7,8.1c0.1,0.1,0.2,0.2,0.4,0.3L44.9,33c0.3,0,0.6-0.3,0.4-0.6l-2.8-6.2
			c-0.1-0.1-0.2-0.2-0.3-0.2L29.9,23.7z"/>
		<path class="st1" d="M26.9,17.3l2.7,4.7c0.2,0.4,0.7,0.4,0.9,0l2.7-4.7c0.2-0.4-0.1-0.8-0.5-0.8h-1.3v-2.9c0-0.3-0.2-0.5-0.5-0.5
			h-1.6c-0.3,0-0.5,0.2-0.5,0.5v2.9h-1.3C26.9,16.4,26.7,16.9,26.9,17.3L26.9,17.3z"/>
	</g>
</g>
</svg>
