<?xml version="1.0" encoding="utf-8"?>
<!-- Generator: Adobe Illustrator 21.1.0, SVG Export Plug-In . SVG Version: 6.00 Build 0)  -->
<svg version="1.1" id="Cart_Speed" xmlns="http://www.w3.org/2000/svg" xmlns:xlink="http://www.w3.org/1999/xlink" x="0px" y="0px"
	 viewBox="0 0 90 60" style="enable-background:new 0 0 90 60;" xml:space="preserve">
<style type="text/css">
	.st0{fill:#FFFFFF;}
	.st1{fill:#666666;}
</style>
<g>
	<g>
		<path class="st0" d="M29.5,14.1H10.7c-1.2,0-2.1,0.9-2.1,2.1c0,1.2,0.9,2.1,2.1,2.1h19.7L29.5,14.1z"/>
		<path class="st0" d="M31.2,21.8h-14c-1.2,0-2.1,0.9-2.1,2.1c0,1.1,0.9,2.1,2.1,2.1h14.9L31.2,21.8z"/>
		<path class="st0" d="M22.1,29.5L22.1,29.5c-1.2,0-2.1,1-2.1,2.1c0,1.2,0.9,2.1,2.1,2.1h11.6l-0.9-4.2H22.1z"/>
		<circle class="st0" cx="49.9" cy="54.5" r="4.5"/>
		<circle class="st0" cx="71.1" cy="54.5" r="4.5"/>
		<path class="st0" d="M80.1,18.6l-0.3,0c-0.2,1-0.7,1.9-1.5,2.6c-1,1-2.4,1.5-3.8,1.5h-3v2.6c0,1.5-0.6,2.8-1.7,3.8
			c-1,1-2.3,1.5-3.8,1.5H63c-1.4,0-2.7-0.5-3.8-1.5c-1.1-1-1.7-2.4-1.7-3.8v-2.6h-3c-1.4,0-2.7-0.5-3.8-1.5c-1.1-1-1.7-2.4-1.7-3.8
			v-1.6L40,14.8c-0.2,0-0.4,0-0.6,0L37.8,7c0-0.2-0.1-0.3-0.1-0.4c-0.2-0.6-0.8-1.1-1.4-1.3L28.5,3c-1.2-0.3-2.4,0.3-2.8,1.5
			c-0.3,1.2,0.3,2.4,1.5,2.8l6.4,1.9l7.7,37c0.1,1.1,1.1,1.9,2.2,1.9l33,0c1.2,0,2.2-1,2.2-2.2c0-1.2-1-2.2-2.2-2.2l-31.2,0
			l-1.1-5.1h32.8c1.7,0,3.2-1.1,3.5-2.7l2.7-13.4C83.6,20.5,82.2,18.7,80.1,18.6z"/>
		<path class="st0" d="M54.7,18.7h6.8v6.5c0,0.4,0.2,0.8,0.5,1.1c0.3,0.3,0.7,0.4,1.1,0.4h3.1c0.4,0,0.8-0.1,1.1-0.4
			c0.3-0.3,0.5-0.6,0.5-1.1v-6.5h6.8c0.4,0,0.8-0.1,1.1-0.4c0,0,0.1-0.1,0.1-0.1c0.2-0.3,0.3-0.6,0.3-0.9v-3c0-0.4-0.2-0.8-0.5-1.1
			c-0.3-0.3-0.7-0.4-1.1-0.4h-6.8V6.3c0-0.4-0.2-0.8-0.5-1.1c-0.3-0.3-0.7-0.4-1.1-0.4H63c-0.4,0-0.8,0.1-1.1,0.4
			c-0.3,0.3-0.5,0.6-0.5,1.1v6.5h-6.8c-0.4,0-0.8,0.1-1.1,0.4c-0.3,0.3-0.5,0.6-0.5,1.1V16v1.2c0,0.4,0.2,0.8,0.5,1.1
			C53.8,18.6,54.2,18.7,54.7,18.7z"/>
	</g>
	<g>
		<path class="st1" d="M27.6,12.2H8.8c-1.2,0-2.1,0.9-2.1,2.1c0,1.2,0.9,2.1,2.1,2.1h19.7L27.6,12.2z"/>
		<path class="st1" d="M29.2,19.9h-14c-1.2,0-2.1,0.9-2.1,2.1c0,1.1,0.9,2.1,2.1,2.1h14.9L29.2,19.9z"/>
		<path class="st1" d="M20.2,27.6L20.2,27.6c-1.2,0-2.1,1-2.1,2.1c0,1.2,0.9,2.1,2.1,2.1h11.6l-0.9-4.2H20.2z"/>
		<circle class="st1" cx="48" cy="52.6" r="4.5"/>
		<circle class="st1" cx="69.2" cy="52.6" r="4.5"/>
		<path class="st1" d="M78.2,16.6l-0.3,0c-0.2,1-0.7,1.9-1.5,2.6c-1,1-2.4,1.5-3.8,1.5h-3v2.6c0,1.5-0.6,2.8-1.7,3.8
			c-1,1-2.3,1.5-3.8,1.5h-3.1c-1.4,0-2.7-0.5-3.8-1.5c-1.1-1-1.7-2.4-1.7-3.8v-2.6h-3c-1.4,0-2.7-0.5-3.8-1.5
			c-1.1-1-1.7-2.4-1.7-3.8v-1.6l-9.2-0.9c-0.2,0-0.4,0-0.6,0l-1.6-7.8c0-0.2-0.1-0.3-0.1-0.4c-0.2-0.6-0.8-1.1-1.4-1.3l-7.6-2.3
			c-1.2-0.3-2.4,0.3-2.8,1.5c-0.3,1.2,0.3,2.4,1.5,2.8l6.4,1.9l7.7,37c0.1,1.1,1.1,1.9,2.2,1.9l33,0c1.2,0,2.2-1,2.2-2.2
			c0-1.2-1-2.2-2.2-2.2l-31.2,0l-1.1-5.1h32.8c1.7,0,3.2-1.1,3.5-2.7l2.7-13.4C81.7,18.6,80.3,16.8,78.2,16.6z"/>
		<path class="st1" d="M52.7,16.8h6.8v6.5c0,0.4,0.2,0.8,0.5,1.1c0.3,0.3,0.7,0.4,1.1,0.4h3.1c0.4,0,0.8-0.1,1.1-0.4
			c0.3-0.3,0.5-0.6,0.5-1.1v-6.5h6.8c0.4,0,0.8-0.1,1.1-0.4c0,0,0.1-0.1,0.1-0.1c0.2-0.3,0.3-0.6,0.3-0.9v-3c0-0.4-0.2-0.8-0.5-1.1
			c-0.3-0.3-0.7-0.4-1.1-0.4h-6.8V4.4c0-0.4-0.2-0.8-0.5-1.1c-0.3-0.3-0.7-0.4-1.1-0.4h-3.1c-0.4,0-0.8,0.1-1.1,0.4
			c-0.3,0.3-0.5,0.6-0.5,1.1v6.5h-6.8c-0.4,0-0.8,0.1-1.1,0.4c-0.3,0.3-0.5,0.6-0.5,1.1v1.8v1.2c0,0.4,0.2,0.8,0.5,1.1
			C51.9,16.7,52.3,16.8,52.7,16.8z"/>
	</g>
</g>
</svg>
