<?xml version="1.0" encoding="utf-8"?>
<!-- Generator: Adobe Illustrator 21.1.0, SVG Export Plug-In . SVG Version: 6.00 Build 0)  -->
<svg version="1.1" id="Arrow_Right" xmlns="http://www.w3.org/2000/svg" xmlns:xlink="http://www.w3.org/1999/xlink" x="0px"
	 y="0px" viewBox="0 0 60 60" style="enable-background:new 0 0 60 60;" xml:space="preserve">
<style type="text/css">
	.st0{fill:#919395;}
</style>
<g>
	<path class="st0" d="M24.9,15.2h10.3c1.5,0,2.7-1.2,2.7-2.7v-1.8c0-1.5-1.2-2.7-2.7-2.7h-0.9V7c0-1.1-0.9-2-2-2h-4.5
		c-1.1,0-2,0.9-2,2V8h-0.9c-1.5,0-2.7,1.2-2.7,2.7v1.8C22.3,14,23.5,15.2,24.9,15.2L24.9,15.2z"/>
	<path class="st0" d="M52.6,11.9H40.2v0.6c0,2.8-2.3,5.1-5.1,5.1H24.9c-2.8,0-5.1-2.3-5.1-5.1v-0.6H7.4c-4.1,0-7.4,3.3-7.4,7.4v28.4
		c0,4.1,3.3,7.4,7.4,7.4h45.2c4.1,0,7.4-3.3,7.4-7.4V19.3C60,15.2,56.7,11.9,52.6,11.9L52.6,11.9z M18.5,46.3
		c-7.1,0-12.8-5.7-12.8-12.8s5.7-12.8,12.8-12.8s12.8,5.7,12.8,12.8S25.6,46.3,18.5,46.3L18.5,46.3z M52.8,40.6H36.5v-2.8h16.2
		L52.8,40.6L52.8,40.6z M52.8,34.8H36.5V32h16.2L52.8,34.8L52.8,34.8z M52.8,29H36.5v-2.8h16.2L52.8,29L52.8,29z"/>
	<path class="st0" d="M18.5,23.1c-5.7,0-10.3,4.6-10.3,10.3c0,2.5,0.9,4.7,2.3,6.4c0.1-0.9,0.4-1.8,1.5-2c2-0.5,3.6-1.7,3.6-1.7
		l1.5,4.8l0.2,0.6l0.6-1.9c-1.7-2.4,0.4-2.3,0.4-2.3s2.1-0.1,0.4,2.3l0.6,1.9l0.2-0.6l0,0l0.2-0.8l1.3-4.1c0,0,1.6,1.2,3.6,1.7
		c1.1,0.2,1.4,1.2,1.5,2c1.4-1.7,2.3-4,2.3-6.4C28.8,27.7,24.2,23.1,18.5,23.1L18.5,23.1z M22.6,32.3c-0.2,1-0.5,1.2-0.8,1.3
		c-0.2,1.2-1.1,2.6-2.5,3.1c-0.6,0.2-1.3,0.2-1.8,0c-1.4-0.5-2.4-1.9-2.5-3.1c-0.2,0-0.4-0.3-0.8-1.3c-0.3-1.3,0-1.5,0.3-1.5
		c-0.1-0.2-0.1-0.3-0.1-0.5c-0.1-0.6-0.1-1.2,0-1.7c0.2-0.8,0.5-1.3,1-1.7c0.3-0.3,0.6-0.5,1-0.8c0.3-0.2,0.5-0.3,0.9-0.4
		c0.2-0.1,0.5-0.1,0.9-0.1c0.9-0.1,1.6,0.1,2,0.4c0.8,0.4,1,1,1,1s1.6,0.1,1.1,3.5c0,0.2-0.1,0.3-0.1,0.5C22.6,30.8,23,31,22.6,32.3
		L22.6,32.3z"/>
</g>
</svg>
