<?xml version="1.0" encoding="utf-8"?>
<!-- Generator: Adobe Illustrator 21.1.0, SVG Export Plug-In . SVG Version: 6.00 Build 0)  -->
<svg version="1.1" id="Arrow_Right" xmlns="http://www.w3.org/2000/svg" xmlns:xlink="http://www.w3.org/1999/xlink" x="0px"
	 y="0px" viewBox="0 0 60 60" style="enable-background:new 0 0 60 60;" xml:space="preserve">
<style type="text/css">
	.st0{fill:#999999;}
</style>
<g>
	<path class="st0" d="M31.4,53.1l28-28c0.4-0.4,0.6-0.9,0.6-1.4c0-0.5-0.2-1-0.6-1.4l-3-3C56,19,55.5,18.8,55,18.8
		c-0.5,0-1,0.2-1.4,0.6L30,43L6.4,19.4C6,19,5.5,18.8,5,18.8c-0.5,0-1,0.2-1.4,0.6l-3,3C0.2,22.8,0,23.2,0,23.7c0,0.5,0.2,1,0.6,1.4
		l28,28c0.4,0.4,0.9,0.6,1.4,0.6C30.5,53.7,31,53.5,31.4,53.1L31.4,53.1z M31.4,53.1"/>
	<circle class="st0" cx="30" cy="15.3" r="9"/>
</g>
</svg>
