<?xml version="1.0" encoding="utf-8"?>
<!-- Generator: Adobe Illustrator 21.1.0, SVG Export Plug-In . SVG Version: 6.00 Build 0)  -->
<svg version="1.1" id="Map_Marker_-_Stocking_Dealer"
	 xmlns="http://www.w3.org/2000/svg" xmlns:xlink="http://www.w3.org/1999/xlink" x="0px" y="0px" viewBox="0 0 60 60"
	 style="enable-background:new 0 0 60 60;" xml:space="preserve">
<style type="text/css">
	.st0{opacity:0.75;fill:#333333;}
	.st1{fill:url(#SVGID_1_);}
	.st2{fill-rule:evenodd;clip-rule:evenodd;fill:#FFC816;}
</style>
<circle class="st0" cx="30" cy="22.8" r="20.7"/>
<linearGradient id="SVGID_1_" gradientUnits="userSpaceOnUse" x1="7.4997" y1="29.9995" x2="52.4993" y2="29.9995">
	<stop  offset="0" style="stop-color:#FEDD10"/>
	<stop  offset="0.5" style="stop-color:#FFC816"/>
	<stop  offset="1" style="stop-color:#FEDD10"/>
</linearGradient>
<path class="st1" d="M30,0C17.6,0,7.5,10.1,7.5,22.5C7.5,34.9,26.2,60,30,60c3.7,0,22.5-25.1,22.5-37.5C52.5,10.1,42.4,0,30,0z
	 M30,40.5c-9.8,0-17.7-7.9-17.7-17.7S20.2,5.1,30,5.1c9.8,0,17.7,7.9,17.7,17.7S39.8,40.5,30,40.5z"/>
<path class="st2" d="M42,20.5c0,1.7-1.3,3-3,3s-3-1.3-3-3c0,1.7-1.3,3-3,3s-3-1.3-3-3c0,1.7-1.3,3-3,3s-3-1.3-3-3c0,1.7-1.3,3-3,3
	s-3-1.3-3-3l2.1-5.6h19.8L42,20.5z M38.2,13.7H21.7c-0.6,0-1.1-0.5-1.1-1.1c0-0.6,0.5-1.1,1.1-1.1h16.5c0.6,0,1.1,0.5,1.1,1.1
	C39.4,13.2,38.9,13.7,38.2,13.7 M21.4,24.6L21.4,24.6c0.1,0,0.2,0,0.3,0c0,0,0,0,0.1,0c0,0,0.1,0,0.1,0c0.2,0,0.4-0.1,0.6-0.2v0v5.5
	h15v-5.5v0c0.2,0.1,0.4,0.1,0.6,0.2c0,0,0.1,0,0.1,0c0,0,0,0,0.1,0c0.1,0,0.2,0,0.3,0v0c0.1,0,0.2,0,0.4,0c0.3,0,0.5,0,0.8-0.1v7.6
	c0,0.6-0.5,1.1-1.1,1.1H21.4c-0.6,0-1.1-0.5-1.1-1.1v-7.6c0.2,0,0.5,0.1,0.8,0.1C21.1,24.6,21.3,24.6,21.4,24.6"/>
</svg>
