<?xml version="1.0" encoding="utf-8"?>
<!-- Generator: Adobe Illustrator 21.1.0, SVG Export Plug-In . SVG Version: 6.00 Build 0)  -->
<svg version="1.1" id="Map_Marker_-_Adv._Installer_copy"
	 xmlns="http://www.w3.org/2000/svg" xmlns:xlink="http://www.w3.org/1999/xlink" x="0px" y="0px" viewBox="0 0 60 60"
	 style="enable-background:new 0 0 60 60;" xml:space="preserve">
<style type="text/css">
	.st0{opacity:0.75;fill:#333333;}
	.st1{fill:url(#SVGID_1_);}
	.st2{fill:#FEDD10;}
</style>
<circle class="st0" cx="30" cy="22.8" r="20.7"/>
<linearGradient id="SVGID_1_" gradientUnits="userSpaceOnUse" x1="7.4997" y1="29.9995" x2="52.4993" y2="29.9995">
	<stop  offset="0" style="stop-color:#FFC816"/>
	<stop  offset="0.5" style="stop-color:#FEDD10"/>
	<stop  offset="1" style="stop-color:#FFC816"/>
</linearGradient>
<path class="st1" d="M30,0C17.6,0,7.5,10.1,7.5,22.5C7.5,34.9,26.2,60,30,60c3.7,0,22.5-25.1,22.5-37.5C52.5,10.1,42.4,0,30,0z
	 M30,40.5c-9.8,0-17.7-7.9-17.7-17.7S20.2,5.1,30,5.1c9.8,0,17.7,7.9,17.7,17.7S39.8,40.5,30,40.5z"/>
<g>
	<path class="st2" d="M39.3,27.4c0.3-0.6,0.3-1.2,0.1-1.7c-0.1-0.2-0.2-0.4-0.4-0.5c-0.3-0.3-0.6-0.4-0.8-0.5
		c0.2-0.6,0.1-1.2-0.1-1.6c-0.1-0.1-0.2-0.2-0.3-0.3c-0.7-0.7-1.3-0.5-1.3-0.5s0.3-1.2-0.6-2c-0.9-0.8-1.7-0.5-2.4,0.2l-3.5,3.5
		c-0.5-0.2-1.3-0.7-2.1-0.6c-1.4,0.2-1.8,1.1-2,1.9c-0.5,1.8-0.3,4.5-0.8,5.6c-0.6,1.3-1.9,2.4-1.9,2.4l4.9,4.9c2-2,3.9-2.5,5.4-3.1
		c3.3-1.4,4.9-3,5.7-3.9C40.9,29.3,39.6,27.7,39.3,27.4L39.3,27.4z M39.3,27.4"/>
	<path class="st2" d="M27.3,12.9l3.2-0.9c-0.2-0.4-0.4-0.8-0.7-1.1c-0.8-1-1.8-1.6-3.1-1.9c-0.1,0-0.3,0-0.4,0.1
		c-0.1,0.1-0.1,0.2-0.1,0.4L27.3,12.9z M27.3,12.9"/>
	<path class="st2" d="M26.6,19.4l2.6,3.3l3.5-3.2l-2.4-3c0.4-0.8,0.6-1.7,0.6-2.6c0-0.1-0.1-0.2-0.2-0.3c-0.1-0.1-0.2-0.1-0.3-0.1
		L24,15.4l-1.9-4.9c0-0.1-0.2-0.2-0.3-0.2c-0.1,0-0.3,0-0.3,0.1c-1.9,2-2,5-0.4,7.2c1,1.3,2.6,2.1,4.3,2.1
		C25.8,19.6,26.2,19.5,26.6,19.4L26.6,19.4z M26.6,19.4"/>
</g>
</svg>
