<?xml version="1.0" encoding="utf-8"?>
<!-- Generator: Adobe Illustrator 21.1.0, SVG Export Plug-In . SVG Version: 6.00 Build 0)  -->
<svg version="1.1" id="Acct" xmlns="http://www.w3.org/2000/svg" xmlns:xlink="http://www.w3.org/1999/xlink" x="0px" y="0px"
	 viewBox="0 0 60 60" style="enable-background:new 0 0 60 60;" xml:space="preserve">
<style type="text/css">
	.st0{fill:none;}
	.st1{fill:#333333;}
</style>
<path class="st0" d="M15,9c-1.5,0-2.7-0.5-3.6-1.4C10.5,6.7,10,5.5,10,4c0,1.5-0.5,2.7-1.6,3.6C7.5,8.5,6.4,9,5,9
	c1.4,0,2.5,0.5,3.4,1.6c1,0.9,1.6,2.1,1.6,3.4c0-1.4,0.5-2.5,1.4-3.4C12.3,9.5,13.5,9,15,9z"/>
<path class="st0" d="M35,9c-1.5,0-2.7-0.5-3.6-1.4C30.5,6.7,30,5.5,30,4c0,1.5-0.5,2.7-1.6,3.6C27.5,8.5,26.4,9,25,9
	c1.4,0,2.5,0.5,3.4,1.6c1,0.9,1.6,2.1,1.6,3.4c0-1.4,0.5-2.5,1.4-3.4C32.3,9.5,33.5,9,35,9z"/>
<path class="st0" d="M10,4c0-1.4,0.5-2.5,1.4-3.4C11.6,0.4,11.8,0.2,12,0H7.8C8,0.2,8.2,0.4,8.4,0.6C9.5,1.5,10,2.6,10,4z"/>
<path class="st0" d="M25,9c-1.5,0-2.7-0.5-3.6-1.4C20.5,6.7,20,5.5,20,4c0,1.5-0.5,2.7-1.6,3.6C17.5,8.5,16.4,9,15,9
	c1.4,0,2.5,0.5,3.4,1.6c1,0.9,1.6,2.1,1.6,3.4c0-1.4,0.5-2.5,1.4-3.4C22.3,9.5,23.5,9,25,9z"/>
<path class="st0" d="M20,4c0-1.4,0.5-2.5,1.4-3.4C21.6,0.4,21.8,0.2,22,0h-4.2c0.2,0.2,0.4,0.4,0.6,0.6C19.5,1.5,20,2.6,20,4z"/>
<path class="st0" d="M40,4c0-1.4,0.5-2.5,1.4-3.4C41.6,0.4,41.8,0.2,42,0h-4.2c0.2,0.2,0.4,0.4,0.6,0.6C39.5,1.5,40,2.6,40,4z"/>
<path class="st0" d="M50,4c0-1.4,0.5-2.5,1.4-3.4C51.6,0.4,51.8,0.2,52,0h-4.2c0.2,0.2,0.4,0.4,0.6,0.6C49.5,1.5,50,2.6,50,4z"/>
<path class="st0" d="M30,4c0-1.4,0.5-2.5,1.4-3.4C31.6,0.4,31.8,0.2,32,0h-4.2c0.2,0.2,0.4,0.4,0.6,0.6C29.5,1.5,30,2.6,30,4z"/>
<path class="st0" d="M45,9c-1.5,0-2.7-0.5-3.6-1.4C40.5,6.7,40,5.5,40,4c0,1.5-0.5,2.7-1.6,3.6C37.5,8.5,36.4,9,35,9
	c1.4,0,2.5,0.5,3.4,1.6c1,0.9,1.6,2.1,1.6,3.4c0-1.4,0.5-2.5,1.4-3.4C42.3,9.5,43.5,9,45,9z"/>
<path class="st0" d="M50,4c0,1.5-0.5,2.7-1.6,3.6C47.5,8.5,46.4,9,45,9c1.4,0,2.5,0.5,3.4,1.6c1,0.9,1.6,2.1,1.6,3.4
	c0-1.4,0.5-2.5,1.4-3.4C52.3,9.5,53.5,9,55,9c-1.5,0-2.7-0.5-3.6-1.4C50.5,6.7,50,5.5,50,4z"/>
<path class="st1" d="M15,30.1c-1,0-2,0.5-3,1.4c-0.7,0.8-1.1,1.7-1.1,2.5c0,1.1,0.5,2.1,1.4,3c0.8,0.7,1.7,1.1,2.7,1.1
	c1,0,2-0.4,2.8-1.1c0.7-0.8,1.1-1.8,1.1-3c0-0.9-0.5-1.9-1.4-2.8C16.7,30.5,15.8,30.1,15,30.1z"/>
<path class="st1" d="M15,20.1c-1,0-2,0.5-3,1.4c-0.7,0.8-1.1,1.7-1.1,2.5c0,1.1,0.5,2.1,1.4,3c0.8,0.7,1.7,1.1,2.7,1.1
	c1,0,2-0.4,2.8-1.1c0.7-0.8,1.1-1.8,1.1-3c0-0.9-0.5-1.9-1.4-2.8C16.7,20.5,15.8,20.1,15,20.1z"/>
<path class="st1" d="M25,30.1c-1,0-2,0.5-3,1.4c-0.7,0.8-1.1,1.7-1.1,2.5c0,1.1,0.5,2.1,1.4,3c0.8,0.7,1.7,1.1,2.7,1.1
	c1,0,2-0.4,2.8-1.1c0.7-0.8,1.1-1.8,1.1-3c0-0.9-0.5-1.9-1.4-2.8C26.7,30.5,25.8,30.1,25,30.1z"/>
<path class="st1" d="M15,41c-0.8,0-1.6,0.4-2.2,1.1c-0.6,0.6-0.9,1.3-0.9,1.9c0,0.8,0.4,1.6,1.1,2.2c0.6,0.6,1.3,0.9,2,0.9
	c0.8,0,1.5-0.3,2-0.9c0.6-0.6,0.9-1.4,0.9-2.2c0-0.7-0.4-1.4-1.1-2C16.3,41.3,15.6,41,15,41z"/>
<path class="st1" d="M5,41c-0.8,0-1.6,0.4-2.2,1.1c-0.6,0.6-0.9,1.3-0.9,1.9c0,0.8,0.4,1.6,1.1,2.2c0.6,0.6,1.3,0.9,2,0.9
	c0.8,0,1.5-0.3,2-0.9C7.7,45.6,8,44.8,8,44c0-0.7-0.4-1.4-1.1-2C6.2,41.3,5.6,41,5,41z"/>
<path class="st1" d="M5,30.1c-1,0-2,0.5-3,1.4c-0.7,0.8-1.1,1.7-1.1,2.5c0,1.1,0.5,2.1,1.4,3c0.8,0.7,1.7,1.1,2.7,1.1
	c1,0,2-0.4,2.8-1.1c0.7-0.8,1.1-1.8,1.1-3c0-0.9-0.5-1.9-1.4-2.8C6.7,30.5,5.8,30.1,5,30.1z"/>
<path class="st1" d="M5,20.1c-1,0-2,0.5-3,1.4c-0.7,0.8-1.1,1.7-1.1,2.5c0,1.1,0.5,2.1,1.4,3c0.8,0.7,1.7,1.1,2.7,1.1
	c1,0,2-0.4,2.8-1.1c0.7-0.8,1.1-1.8,1.1-3c0-0.9-0.5-1.9-1.4-2.8C6.7,20.5,5.8,20.1,5,20.1z"/>
<path class="st1" d="M10,4c0,1.5,0.5,2.7,1.4,3.6C12.3,8.5,13.5,9,15,9c1.4,0,2.5-0.5,3.4-1.4C19.5,6.7,20,5.5,20,4
	c0-1.4-0.5-2.5-1.6-3.4C18.2,0.4,18,0.2,17.8,0H12c-0.2,0.2-0.4,0.4-0.6,0.6C10.5,1.5,10,2.6,10,4z"/>
<path class="st1" d="M5,9c-1.5,0-2.7,0.5-3.6,1.6C0.5,11.5,0,12.6,0,14c0,1.5,0.5,2.7,1.4,3.6S3.5,19,5,19c1.4,0,2.5-0.5,3.4-1.4
	c1-0.9,1.6-2.1,1.6-3.6c0-1.4-0.5-2.5-1.6-3.4C7.5,9.5,6.4,9,5,9z"/>
<path class="st1" d="M20,4c0,1.5,0.5,2.7,1.4,3.6C22.3,8.5,23.5,9,25,9c1.4,0,2.5-0.5,3.4-1.4C29.5,6.7,30,5.5,30,4
	c0-1.4-0.5-2.5-1.6-3.4C28.2,0.4,28,0.2,27.8,0H22c-0.2,0.2-0.4,0.4-0.6,0.6C20.5,1.5,20,2.6,20,4z"/>
<path class="st1" d="M10,4c0-1.4-0.5-2.5-1.6-3.4C8.2,0.4,8,0.2,7.8,0H2C1.8,0.2,1.6,0.4,1.4,0.6C0.5,1.5,0,2.6,0,4
	c0,1.5,0.5,2.7,1.4,3.6C2.3,8.5,3.5,9,5,9c1.4,0,2.5-0.5,3.4-1.4C9.5,6.7,10,5.5,10,4z"/>
<path class="st1" d="M25,20.1c-1,0-2,0.5-3,1.4c-0.7,0.8-1.1,1.7-1.1,2.5c0,1.1,0.5,2.1,1.4,3c0.8,0.7,1.7,1.1,2.7,1.1
	c1,0,2-0.4,2.8-1.1c0.7-0.8,1.1-1.8,1.1-3c0-0.9-0.5-1.9-1.4-2.8C26.7,20.5,25.8,20.1,25,20.1z"/>
<path class="st1" d="M25,41c-0.8,0-1.6,0.4-2.2,1.1c-0.6,0.6-0.9,1.3-0.9,1.9c0,0.8,0.4,1.6,1.1,2.2c0.6,0.6,1.3,0.9,2,0.9
	c0.8,0,1.5-0.3,2-0.9c0.6-0.6,0.9-1.4,0.9-2.2c0-0.7-0.4-1.4-1.1-2C26.2,41.3,25.6,41,25,41z"/>
<path class="st1" d="M25,9c-1.5,0-2.7,0.5-3.6,1.6C20.5,11.5,20,12.6,20,14c0,1.5,0.5,2.7,1.4,3.6c0.9,0.9,2.1,1.4,3.6,1.4
	c1.4,0,2.5-0.5,3.4-1.4c1-0.9,1.6-2.1,1.6-3.6c0-1.4-0.5-2.5-1.6-3.4C27.5,9.5,26.4,9,25,9z"/>
<path class="st1" d="M15,9c-1.5,0-2.7,0.5-3.6,1.6C10.5,11.5,10,12.6,10,14c0,1.5,0.5,2.7,1.4,3.6c0.9,0.9,2.1,1.4,3.6,1.4
	c1.4,0,2.5-0.5,3.4-1.4c1-0.9,1.6-2.1,1.6-3.6c0-1.4-0.5-2.5-1.6-3.4C17.5,9.5,16.4,9,15,9z"/>
<path class="st1" d="M45,30.1c-1,0-2,0.5-3,1.4c-0.7,0.8-1.1,1.7-1.1,2.5c0,1.1,0.5,2.1,1.4,3c0.8,0.7,1.7,1.1,2.7,1.1
	c1,0,2-0.4,2.8-1.1c0.7-0.8,1.1-1.8,1.1-3c0-0.9-0.5-1.9-1.4-2.8C46.7,30.5,45.8,30.1,45,30.1z"/>
<path class="st1" d="M45,20.1c-1,0-2,0.5-3,1.4c-0.7,0.8-1.1,1.7-1.1,2.5c0,1.1,0.5,2.1,1.4,3c0.8,0.7,1.7,1.1,2.7,1.1
	c1,0,2-0.4,2.8-1.1c0.7-0.8,1.1-1.8,1.1-3c0-0.9-0.5-1.9-1.4-2.8C46.7,20.5,45.8,20.1,45,20.1z"/>
<path class="st1" d="M55,30.1c-1,0-2,0.5-3,1.4c-0.7,0.8-1.1,1.7-1.1,2.5c0,1.1,0.5,2.1,1.4,3c0.8,0.7,1.7,1.1,2.7,1.1
	c1,0,2-0.4,2.8-1.1c0.7-0.8,1.1-1.8,1.1-3c0-0.9-0.5-1.9-1.4-2.8C56.7,30.5,55.8,30.1,55,30.1z"/>
<path class="st1" d="M45,41c-0.8,0-1.6,0.4-2.2,1.1c-0.6,0.6-0.9,1.3-0.9,1.9c0,0.8,0.4,1.6,1.1,2.2c0.6,0.6,1.3,0.9,2,0.9
	c0.8,0,1.5-0.3,2-0.9c0.6-0.6,0.9-1.4,0.9-2.2c0-0.7-0.4-1.4-1.1-2C46.3,41.3,45.6,41,45,41z"/>
<path class="st1" d="M35,41c-0.8,0-1.6,0.4-2.2,1.1c-0.6,0.6-0.9,1.3-0.9,1.9c0,0.8,0.4,1.6,1.1,2.2c0.6,0.6,1.3,0.9,2,0.9
	c0.8,0,1.5-0.3,2-0.9c0.6-0.6,0.9-1.4,0.9-2.2c0-0.7-0.4-1.4-1.1-2C36.2,41.3,35.6,41,35,41z"/>
<path class="st1" d="M35,30.1c-1,0-2,0.5-3,1.4c-0.7,0.8-1.1,1.7-1.1,2.5c0,1.1,0.5,2.1,1.4,3c0.8,0.7,1.7,1.1,2.7,1.1
	c1,0,2-0.4,2.8-1.1c0.7-0.8,1.1-1.8,1.1-3c0-0.9-0.5-1.9-1.4-2.8C36.7,30.5,35.8,30.1,35,30.1z"/>
<path class="st1" d="M35,20.1c-1,0-2,0.5-3,1.4c-0.7,0.8-1.1,1.7-1.1,2.5c0,1.1,0.5,2.1,1.4,3c0.8,0.7,1.7,1.1,2.7,1.1
	c1,0,2-0.4,2.8-1.1c0.7-0.8,1.1-1.8,1.1-3c0-0.9-0.5-1.9-1.4-2.8C36.7,20.5,35.8,20.1,35,20.1z"/>
<path class="st1" d="M40,4c0,1.5,0.5,2.7,1.4,3.6C42.3,8.5,43.5,9,45,9c1.4,0,2.5-0.5,3.4-1.4C49.5,6.7,50,5.5,50,4
	c0-1.4-0.5-2.5-1.6-3.4C48.2,0.4,48,0.2,47.8,0H42c-0.2,0.2-0.4,0.4-0.6,0.6C40.5,1.5,40,2.6,40,4z"/>
<path class="st1" d="M35,9c-1.5,0-2.7,0.5-3.6,1.6C30.5,11.5,30,12.6,30,14c0,1.5,0.5,2.7,1.4,3.6S33.5,19,35,19
	c1.4,0,2.5-0.5,3.4-1.4c1-0.9,1.6-2.1,1.6-3.6c0-1.4-0.5-2.5-1.6-3.4C37.5,9.5,36.4,9,35,9z"/>
<path class="st1" d="M51.4,0.6C50.5,1.5,50,2.6,50,4c0,1.5,0.5,2.7,1.4,3.6C52.3,8.5,53.5,9,55,9c1.4,0,2.5-0.5,3.4-1.4
	C59.5,6.7,60,5.5,60,4c0-1.4-0.5-2.5-1.6-3.4C58.2,0.4,58,0.2,57.8,0H52C51.8,0.2,51.6,0.4,51.4,0.6z"/>
<path class="st1" d="M30,4c0,1.5,0.5,2.7,1.4,3.6C32.3,8.5,33.5,9,35,9c1.4,0,2.5-0.5,3.4-1.4C39.5,6.7,40,5.5,40,4
	c0-1.4-0.5-2.5-1.6-3.4C38.2,0.4,38,0.2,37.8,0H32c-0.2,0.2-0.4,0.4-0.6,0.6C30.5,1.5,30,2.6,30,4z"/>
<path class="st1" d="M55,20.1c-1,0-2,0.5-3,1.4c-0.7,0.8-1.1,1.7-1.1,2.5c0,1.1,0.5,2.1,1.4,3c0.8,0.7,1.7,1.1,2.7,1.1
	c1,0,2-0.4,2.8-1.1c0.7-0.8,1.1-1.8,1.1-3c0-0.9-0.5-1.9-1.4-2.8C56.7,20.5,55.8,20.1,55,20.1z"/>
<path class="st1" d="M55,41c-0.8,0-1.6,0.4-2.2,1.1c-0.6,0.6-0.9,1.3-0.9,1.9c0,0.8,0.4,1.6,1.1,2.2c0.6,0.6,1.3,0.9,2,0.9
	c0.8,0,1.5-0.3,2-0.9c0.6-0.6,0.9-1.4,0.9-2.2c0-0.7-0.4-1.4-1.1-2C56.2,41.3,55.6,41,55,41z"/>
<path class="st1" d="M50,14c0,1.5,0.5,2.7,1.4,3.6c0.9,0.9,2.1,1.4,3.6,1.4c1.4,0,2.5-0.5,3.4-1.4c1-0.9,1.6-2.1,1.6-3.6
	c0-1.4-0.5-2.5-1.6-3.4C57.5,9.5,56.4,9,55,9c-1.5,0-2.7,0.5-3.6,1.6C50.5,11.5,50,12.6,50,14z"/>
<path class="st1" d="M45,9c-1.5,0-2.7,0.5-3.6,1.6C40.5,11.5,40,12.6,40,14c0,1.5,0.5,2.7,1.4,3.6c0.9,0.9,2.1,1.4,3.6,1.4
	c1.4,0,2.5-0.5,3.4-1.4c1-0.9,1.6-2.1,1.6-3.6c0-1.4-0.5-2.5-1.6-3.4C47.5,9.5,46.4,9,45,9z"/>
</svg>
