<?xml version="1.0" encoding="utf-8"?>
<!-- Generator: Adobe Illustrator 21.1.0, SVG Export Plug-In . SVG Version: 6.00 Build 0)  -->
<svg version="1.1" id="BRAND_-_Philips" xmlns="http://www.w3.org/2000/svg" xmlns:xlink="http://www.w3.org/1999/xlink" x="0px"
	 y="0px" viewBox="0 0 60 60" style="enable-background:new 0 0 60 60;" xml:space="preserve">
<style type="text/css">
	.st0{fill:#666666;}
</style>
<g>
	<g>
		<path class="st0" d="M6,38.7H4.9v2.4h0.5v-0.7H6c0.5,0,0.9-0.3,0.9-0.9C6.9,38.9,6.5,38.7,6,38.7z M5.9,40H5.4v-0.9h0.6
			c0.2,0,0.4,0.2,0.4,0.4C6.4,39.8,6.2,40,5.9,40z"/>
		<polygon class="st0" points="9.5,41.1 11.4,41.1 11.4,40.7 10,40.7 10,40.1 11.2,40.1 11.2,39.6 10,39.6 10,39.1 11.4,39.1 
			11.4,38.7 9.5,38.7 		"/>
		<path class="st0" d="M16.1,39.5c0-0.5-0.4-0.8-1-0.8h-1.1v2.4h0.5v-0.9h0.3l0.8,0.9h0.6V41l-0.8-0.8
			C15.9,40.1,16.1,39.8,16.1,39.5z M14.6,39.8v-0.7h0.6c0.2,0,0.4,0.1,0.4,0.4c0,0.2-0.2,0.4-0.4,0.4H14.6z"/>
		<polygon class="st0" points="18.9,41.1 19.3,41.1 19.3,40.2 20.5,40.2 20.5,39.8 19.3,39.8 19.3,39.1 20.7,39.1 20.7,38.7 
			18.9,38.7 		"/>
		<path class="st0" d="M24.4,38.6c-0.7,0-1.2,0.5-1.2,1.3c0,0.7,0.5,1.2,1.2,1.2c0.7,0,1.3-0.5,1.3-1.2
			C25.6,39.2,25.1,38.6,24.4,38.6z M24.4,40.7c-0.4,0-0.8-0.3-0.8-0.8c0-0.4,0.3-0.8,0.8-0.8c0.4,0,0.8,0.3,0.8,0.8
			C25.2,40.3,24.8,40.7,24.4,40.7z"/>
		<path class="st0" d="M30.3,39.5c0-0.5-0.4-0.8-1-0.8h-1.1v2.4h0.5v-0.9h0.3l0.8,0.9h0.6V41l-0.8-0.8
			C30.1,40.1,30.3,39.8,30.3,39.5z M28.8,39.8v-0.7h0.6c0.2,0,0.4,0.1,0.4,0.4c0,0.2-0.2,0.4-0.4,0.4H28.8z"/>
		<polygon class="st0" points="34.4,39.8 33.5,38.7 33.1,38.7 33.1,41.1 33.6,41.1 33.6,39.5 34.4,40.4 34.5,40.4 35.3,39.5 
			35.3,41.1 35.8,41.1 35.8,38.7 35.3,38.7 		"/>
		<path class="st0" d="M39.3,38.7l-1,2.4h0.5l0.2-0.5h1.1l0.2,0.5h0.5l-0.9-2.4H39.3z M39.1,40.2l0.4-1.1l0.4,1.1H39.1z"/>
		<polygon class="st0" points="45.1,40.3 43.7,38.7 43.3,38.7 43.3,41.1 43.8,41.1 43.8,39.5 45.2,41.1 45.6,41.1 45.6,38.7 
			45.1,38.7 		"/>
		<path class="st0" d="M49.5,39.1c0.3,0,0.5,0.1,0.7,0.2l0.2-0.4c-0.3-0.2-0.6-0.4-1-0.4c-0.7,0-1.3,0.5-1.3,1.3s0.5,1.3,1.3,1.3
			c0.4,0,0.7-0.1,1-0.4l-0.2-0.4c-0.2,0.1-0.4,0.2-0.7,0.2c-0.5,0-0.8-0.3-0.8-0.8S49.1,39.1,49.5,39.1z"/>
		<polygon class="st0" points="55,39.1 55,38.7 53.1,38.7 53.1,41.1 55,41.1 55,40.7 53.6,40.7 53.6,40.1 54.8,40.1 54.8,39.6 
			53.6,39.6 53.6,39.1 		"/>
	</g>
	<g>
		<path class="st0" d="M37,28.1V27c0-0.2-0.1-0.3-0.3-0.3h-7.5c-0.2,0-0.3,0.1-0.3,0.3v0.3c0,0.1,0.1,0.3,0.3,0.3h0.5v6.4h-1.4
			c0,0,0,0,0,0s0,0,0,0H27V27c0-0.2-0.1-0.3-0.3-0.3h-6.6c-0.1,0-0.3,0.1-0.3,0.3v6.9h-1.4c0,0,0,0,0,0s0,0,0,0H17l-2.1-2.1h1.8
			c0.1,0,0.3-0.1,0.3-0.3V27c0-0.2-0.1-0.3-0.3-0.3H9.2c-0.2,0-0.3,0.1-0.3,0.3v0.3c0,0.1,0.1,0.3,0.3,0.3h0.5v6.4H8.4
			c-0.2,0-0.3,0.1-0.3,0.3v0.3c0,0.2,0.1,0.3,0.3,0.3h3.2c0.1,0,0.3-0.1,0.3-0.3v-2.7h0.4l2.9,2.9c0,0,0.1,0.1,0.2,0.1h3
			c0,0,0,0,0,0s0,0,0,0h10c0,0,0,0,0,0s0,0,0,0h1.4v1.9c0,0.1,0.1,0.2,0.2,0.3l1.5,0.6c0,0,0.1,0,0.1,0c0.2,0,0.3-0.1,0.3-0.3v-5.5
			h2.7c0.1,0,0.3-0.1,0.3-0.3v-0.3c0-0.1-0.1-0.3-0.3-0.3h-2.7v-3.4h3v0.5c0,0.2,0.1,0.3,0.3,0.3h1.5C36.8,28.4,37,28.3,37,28.1z
			 M11.9,30.9v-3.4h3v3.4H11.9z M24.9,33.9h-3v-6.4h3V33.9z"/>
		<path class="st0" d="M59.7,33.9h-5.8v-2.1h2.2c0.1,0,0.3-0.1,0.3-0.3v-0.4c0,0-0.1-0.2-0.1-0.2l-2.4-2.4v-0.9h3v0.5
			c0,0.2,0.1,0.3,0.3,0.3h1.5c0.1,0,0.3-0.1,0.3-0.3V27c0-0.2-0.1-0.3-0.3-0.3H52c-0.1,0-0.3,0.1-0.3,0.3v1.7c0,0,0.1,0.2,0.1,0.2
			l2,2H52c-0.1,0-0.3,0.1-0.3,0.3v2.7h-1.3v-0.5c0-0.2-0.1-0.3-0.3-0.3h-1.5c-0.2,0-0.3,0.1-0.3,0.3v0.5h-3V27
			c0-0.2-0.1-0.3-0.3-0.3h-2.4c-0.2,0-0.3,0.1-0.3,0.3v0.3c0,0.2,0.1,0.3,0.3,0.3h0.5v6.4h-1.4c0,0,0,0,0,0s0,0,0,0h-1.4v-6.4h0.6
			c0.2,0,0.3-0.1,0.3-0.3V27c0-0.2-0.1-0.3-0.3-0.3h-3.2c-0.2,0-0.3,0.1-0.3,0.3v0.3c0,0.2,0.1,0.3,0.3,0.3h0.5v6.4H37
			c-0.2,0-0.3,0.1-0.3,0.3v0.3c0,0.2,0.1,0.3,0.3,0.3h4.9c0,0,0,0,0,0s0,0,0,0h8.3c0,0,0.1,0,0.1,0c0,0,0,0,0.1,0h9.4
			c0.1,0,0.3-0.1,0.3-0.3v-0.2C60,34.1,59.9,33.9,59.7,33.9z"/>
		<path class="st0" d="M7.8,26.7H0.3C0.1,26.7,0,26.8,0,27v0.3c0,0.1,0.1,0.3,0.3,0.3h0.5l0,9.1c0,0.1,0.1,0.2,0.2,0.3l1.5,0.6
			c0,0,0.1,0,0.1,0c0.2,0,0.3-0.1,0.3-0.3l0-9.7h3v3.4H4.1c-0.1,0-0.3,0.1-0.3,0.3v0.3c0,0.2,0.1,0.3,0.3,0.3h3.7
			c0.1,0,0.3-0.1,0.3-0.3V27C8.1,26.8,7.9,26.7,7.8,26.7z"/>
	</g>
	<path class="st0" d="M40,16.6c-0.2-0.1-0.4-0.2-0.6,0l-3.2,2.2l0.3-3.4c0-0.2-0.1-0.3-0.2-0.4c-0.1-0.1-0.3-0.1-0.5,0l-3.1,2.3
		l-2.3-4.1c-0.2-0.3-0.6-0.3-0.8,0l-2.3,4.1l-3.1-2.2c-0.1-0.1-0.3-0.1-0.5,0c-0.1,0.1-0.2,0.2-0.2,0.4l0.3,3.4l-3.2-2.2
		c-0.2-0.1-0.4-0.1-0.6,0c-0.1,0.1-0.2,0.4-0.1,0.6l4.3,6.6c0,0,0,0,0,0c0,0,0,0,0,0c0,0,0,0,0,0c0,0,0.1,0.1,0.1,0.1c0,0,0,0,0,0
		c0,0,0,0,0,0c0,0,0,0,0,0c0,0,0,0,0,0c0,0,0,0,0,0c0,0,0,0,0,0c0,0,0.1,0,0.1,0h5.5h5.5c0,0,0.1,0,0.1,0c0,0,0,0,0,0c0,0,0,0,0,0
		c0,0,0,0,0,0c0,0,0,0,0,0c0,0,0,0,0,0c0,0,0,0,0,0c0,0,0.1-0.1,0.1-0.1c0,0,0,0,0,0c0,0,0,0,0,0c0,0,0,0,0,0l4.3-6.6
		C40.1,17,40.1,16.7,40,16.6z M35.5,16.2l-0.2,3.2l-1,0.7l-1.2-2.1L35.5,16.2z M26.4,21.6l-1.5,1.1l-0.2-2.2L26.4,21.6z M32.7,21.1
		l-2.1-1.5l1.7-1.2l1.2,2.1L32.7,21.1z M32,21.6l-2,1.4l-2-1.4l2-1.5L32,21.6z M27.1,21.1l-0.8-0.5l1.2-2.1l1.7,1.2L27.1,21.1z
		 M35.2,20.5L35,22.7l-1.5-1.1L35.2,20.5z M29.9,14.2l2,3.5l-2,1.4l-2-1.4L29.9,14.2z M24.3,16.2l2.5,1.8L25.6,20l-1-0.7L24.3,16.2z
		 M23.7,19.8l0.2,2l-2.2-3.3L23.7,19.8z M25.8,23.1l1.3-0.9l1.4,0.9H25.8z M31.4,23.1l1.4-0.9l1.3,0.9H31.4z M36,21.8l0.2-2l2-1.4
		L36,21.8z"/>
</g>
</svg>
