<?xml version="1.0" encoding="utf-8"?>
<!-- Generator: Adobe Illustrator 21.1.0, SVG Export Plug-In . SVG Version: 6.00 Build 0)  -->
<svg version="1.1" id="BRAND_-_Philips" xmlns="http://www.w3.org/2000/svg" xmlns:xlink="http://www.w3.org/1999/xlink" x="0px"
	 y="0px" viewBox="0 0 60 60" style="enable-background:new 0 0 60 60;" xml:space="preserve">
<style type="text/css">
	.st0{fill:#666666;}
</style>
<g>
	<path class="st0" d="M2.5,32.6C0.8,32.6,0,32,0,30.7v-3c0-1.2,0.8-1.8,2.5-1.8h3.3c0.3,0,0.4,0.1,0.4,0.4c0,0.3-0.1,0.4-0.4,0.4
		H2.5c-1.1,0-1.6,0.3-1.6,1v2.9c0,0.7,0.5,1.1,1.6,1.1h3.2c0.3,0,0.4,0.1,0.4,0.4c0,0.3-0.1,0.4-0.4,0.4H2.5z"/>
	<path class="st0" d="M8.9,32.6c-1.5,0-2.2-0.5-2.2-1.5v-1.6c0-1,0.7-1.5,2.2-1.5h1.7c1.5,0,2.2,0.5,2.2,1.5v1.6
		c0,1-0.7,1.5-2.2,1.5H8.9z M11.9,29.4c0-0.5-0.4-0.7-1.3-0.7H8.9c-0.9,0-1.3,0.2-1.3,0.7v1.6c0,0.5,0.4,0.7,1.3,0.7h1.7
		c0.9,0,1.3-0.2,1.3-0.7V29.4z"/>
	<path class="st0" d="M13.6,26.2c0-0.3,0.2-0.4,0.5-0.4c0.3,0,0.5,0.1,0.5,0.4v6.1c0,0.3-0.2,0.4-0.5,0.4c-0.3,0-0.5-0.1-0.5-0.4
		V26.2z"/>
	<path class="st0" d="M17.5,32.6c-1.5,0-2.2-0.5-2.2-1.5v-1.6c0-1,0.7-1.5,2.2-1.5h1.7c1.5,0,2.2,0.5,2.2,1.5v1.6
		c0,1-0.7,1.5-2.2,1.5H17.5z M20.5,29.4c0-0.5-0.4-0.7-1.3-0.7h-1.7c-0.9,0-1.3,0.2-1.3,0.7v1.6c0,0.5,0.4,0.7,1.3,0.7h1.7
		c0.9,0,1.3-0.2,1.3-0.7V29.4z"/>
	<path class="st0" d="M22.2,29.4c0-1,0.7-1.5,2.2-1.5h0.7c0.3,0,0.4,0.1,0.4,0.4c0,0.3-0.1,0.4-0.4,0.4h-0.7c-0.9,0-1.3,0.2-1.3,0.7
		v2.8c0,0.3-0.2,0.4-0.5,0.4c-0.3,0-0.5-0.1-0.5-0.4V29.4z"/>
	<path class="st0" d="M34.5,27.6l-3.3,4.7c0,0.1-0.1,0.1-0.2,0.2c-0.1,0.1-0.2,0.1-0.3,0.1c-0.1,0-0.2,0-0.3-0.1
		c-0.1-0.1-0.1-0.1-0.2-0.2L27,27.7v4.6c0,0.3-0.2,0.4-0.5,0.4c-0.3,0-0.5-0.1-0.5-0.4v-5.9c0-0.3,0.2-0.4,0.5-0.4
		c0.1,0,0.2,0,0.3,0.1c0.1,0.1,0.2,0.1,0.2,0.2l3.7,5.3l3.7-5.3c0.1-0.1,0.1-0.2,0.2-0.2c0.1-0.1,0.2-0.1,0.3-0.1
		c0.3,0,0.5,0.1,0.5,0.4v5.9c0,0.3-0.2,0.4-0.5,0.4c-0.3,0-0.5-0.1-0.5-0.4V27.6z"/>
	<path class="st0" d="M38.5,32.6c-1.5,0-2.2-0.5-2.2-1.5v-1.6c0-1,0.7-1.5,2.2-1.5h1.7c1.5,0,2.2,0.5,2.2,1.5v1.6
		c0,1-0.7,1.5-2.2,1.5H38.5z M41.5,29.4c0-0.5-0.4-0.7-1.3-0.7h-1.7c-0.9,0-1.3,0.2-1.3,0.7v1.6c0,0.5,0.4,0.7,1.3,0.7h1.7
		c0.9,0,1.3-0.2,1.3-0.7V29.4z"/>
	<path class="st0" d="M43.1,29.4c0-1,0.7-1.5,2.2-1.5H46c0.3,0,0.4,0.1,0.4,0.4c0,0.3-0.1,0.4-0.4,0.4h-0.7c-0.9,0-1.3,0.2-1.3,0.7
		v2.8c0,0.3-0.2,0.4-0.5,0.4c-0.3,0-0.5-0.1-0.5-0.4V29.4z"/>
	<path class="st0" d="M47.7,32.6v1.3c0,0.3-0.2,0.4-0.5,0.4c-0.3,0-0.5-0.1-0.5-0.4v-4.4c0-1,0.7-1.5,2.2-1.5h1.7
		c1.5,0,2.2,0.5,2.2,1.5v1.6c0,1-0.7,1.5-2.2,1.5H47.7z M47.7,31.8h3.1c0.9,0,1.3-0.2,1.3-0.7v-1.6c0-0.5-0.4-0.7-1.3-0.7H49
		c-0.9,0-1.3,0.2-1.3,0.7V31.8z"/>
	<path class="st0" d="M59.1,29.4c0-0.5-0.4-0.7-1.2-0.7h-3.1v3.5c0,0.3-0.2,0.4-0.5,0.4c-0.3,0-0.5-0.1-0.5-0.4v-6.1
		c0-0.3,0.2-0.4,0.5-0.4c0.3,0,0.5,0.1,0.5,0.4v1.8h3.1c1.5,0,2.2,0.5,2.2,1.5v2.8c0,0.3-0.2,0.4-0.5,0.4c-0.3,0-0.5-0.1-0.5-0.4
		V29.4z"/>
</g>
</svg>
