<?xml version="1.0" encoding="utf-8"?>
<!-- Generator: Adobe Illustrator 21.1.0, SVG Export Plug-In . SVG Version: 6.00 Build 0)  -->
<svg version="1.1" id="BRAND_-_Philips" xmlns="http://www.w3.org/2000/svg" xmlns:xlink="http://www.w3.org/1999/xlink" x="0px"
	 y="0px" viewBox="0 0 60 60" style="enable-background:new 0 0 60 60;" xml:space="preserve">
<style type="text/css">
	.st0{fill-rule:evenodd;clip-rule:evenodd;fill:#666666;}
</style>
<g>
	<g>
		<path class="st0" d="M14.3,29.6h1c0,0,1.3-0.1,1.3-1.6c0-1.4-1.4-1.5-1.4-1.5h-0.9V29.6L14.3,29.6L14.3,29.6z M11.8,24.5H16
			c0,0,3.2,0,3.2,3.6c0,3.4-3.3,3.6-3.3,3.6h-1.7v2.1h-2.5V24.5L11.8,24.5z"/>
		<path class="st0" d="M47.8,29.6h1c0,0,1.3-0.1,1.3-1.6c0-1.4-1.4-1.5-1.4-1.5h-0.9V29.6L47.8,29.6L47.8,29.6z M45.3,24.5h4.3
			c0,0,3.1,0.2,3.1,3.6c0,3.1-3.1,3.6-3.1,3.6h-1.8v2.1h-2.5V24.5L45.3,24.5z"/>
		<polygon class="st0" points="20.3,24.5 22.7,24.5 22.7,27.9 25.3,27.9 25.3,24.5 27.7,24.5 27.7,33.8 25.4,33.8 25.4,30 22.8,30 
			22.8,33.8 20.3,33.8 20.3,24.5 		"/>
		<polygon class="st0" points="30,24.5 32.3,24.5 32.3,33.8 30,33.8 30,24.5 		"/>
		<polygon class="st0" points="40.8,24.5 43.1,24.5 43.1,33.8 40.8,33.8 40.8,24.5 		"/>
		<polygon class="st0" points="34.6,24.5 37,24.5 37,31.6 39.5,31.6 39.5,33.8 34.6,33.8 34.6,24.5 		"/>
		<path class="st0" d="M59,24.4c0,0-0.9-0.1-1.8-0.1c-1.3,0-3.5,0.3-3.6,3c0,0-0.2,2.1,2.1,2.7c2.1,0.5,1.7,1,1.7,1
			c0,0,0,0.7-1.6,0.7c-1.6,0-2-0.3-2-0.3v2.2c0,0,0.4,0.2,2,0.3c2.1,0.2,4.1-0.7,4.1-3c0-0.9-0.4-2.3-2.5-2.8
			c-1.3-0.3-1.5-0.7-1.5-0.9c0,0-0.1-0.7,1.4-0.7c1.4,0,1.5,0.2,1.5,0.2L59,24.4L59,24.4z"/>
	</g>
	<path class="st0" d="M4.2,35.4c2.7,0,4-2.2,4-4c0-0.4,0-6.8,0-6.8H0.2c0,0,0,6.4,0,6.8C0.2,33.2,1.5,35.4,4.2,35.4L4.2,35.4
		L4.2,35.4L4.2,35.4z M4.1,35.7c-2.8,0-4.1-2.4-4.1-4.2c0-0.4,0-7,0-7h8.4c0,0,0,6.6,0,7C8.4,33.3,7,35.7,4.1,35.7
		C4.2,35.7,4.1,35.7,4.1,35.7L4.1,35.7z"/>
	<path class="st0" d="M4.2,35c1.9,0,3.5-1.6,3.5-3.5c0-1.9-1.6-3.5-3.5-3.5c-1.9,0-3.5,1.6-3.5,3.5C0.7,33.4,2.2,35,4.2,35L4.2,35
		L4.2,35z M0.5,31.5c0-2.1,1.7-3.7,3.7-3.7c2.1,0,3.7,1.7,3.7,3.7c0,2.1-1.7,3.7-3.7,3.7C2.1,35.2,0.5,33.6,0.5,31.5L0.5,31.5z"/>
	<polygon class="st0" points="2.5,28.4 2.7,29.5 3.8,29.7 2.7,30 2.5,31.1 2.2,30 1.1,29.7 2.2,29.5 2.5,28.4 	"/>
	<polygon class="st0" points="3.3,28 3.5,28.7 4.2,28.9 3.5,29 3.3,29.7 3.2,29 2.5,28.9 3.2,28.7 3.3,28 	"/>
	<polygon class="st0" points="6,34.6 5.7,33.5 4.6,33.3 5.7,33.1 6,31.9 6.2,33.1 7.3,33.3 6.2,33.5 6,34.6 	"/>
	<polygon class="st0" points="5.1,35 4.9,34.3 4.2,34.1 4.9,34 5.1,33.3 5.2,34 6,34.1 5.2,34.3 5.1,35 	"/>
	<path class="st0" d="M7.7,31c0,0-0.5,0.2-0.9,0.2C6.5,31.2,6,31,6,31s-0.5-0.3-1-0.3c-0.5,0-0.9,0.3-0.9,0.3s-0.5,0.2-0.9,0.2
		S2.5,31,2.5,31s-0.4-0.3-0.9-0.3C1,30.7,0.7,31,0.7,31l0,0.3c0,0,0.3-0.3,0.9-0.3c0.5,0,0.9,0.3,0.9,0.3s0.4,0.2,0.8,0.2
		s0.9-0.2,0.9-0.2S4.6,31,5,31c0.5,0,1,0.3,1,0.3s0.4,0.2,0.8,0.2c0.4,0,0.9-0.2,0.9-0.2L7.7,31L7.7,31z"/>
	<path class="st0" d="M7.7,31.8c0,0-0.5,0.2-0.9,0.2c-0.4,0-0.8-0.2-0.8-0.2s-0.5-0.3-1-0.3c-0.5,0-0.9,0.3-0.9,0.3
		s-0.5,0.2-0.9,0.2s-0.8-0.2-0.8-0.2s-0.4-0.3-0.9-0.3c-0.5,0-0.9,0.3-0.9,0.3l0,0.3c0,0,0.3-0.3,0.9-0.3c0.5,0,0.9,0.3,0.9,0.3
		s0.4,0.2,0.8,0.2s0.9-0.2,0.9-0.2s0.4-0.3,0.9-0.3c0.5,0,1,0.3,1,0.3s0.4,0.2,0.8,0.2c0.4,0,0.9-0.2,0.9-0.2L7.7,31.8L7.7,31.8z"/>
	<path class="st0" d="M7.7,31.4c0,0-0.5,0.2-0.9,0.2c-0.4,0-0.8-0.2-0.8-0.2s-0.5-0.3-1-0.3c-0.5,0-0.9,0.3-0.9,0.3
		s-0.5,0.2-0.9,0.2s-0.8-0.2-0.8-0.2s-0.4-0.3-0.9-0.3c-0.5,0-0.9,0.3-0.9,0.3l0,0.3c0,0,0.3-0.3,0.9-0.3c0.5,0,0.9,0.3,0.9,0.3
		s0.4,0.2,0.8,0.2s0.9-0.2,0.9-0.2s0.4-0.3,0.9-0.3c0.5,0,1,0.3,1,0.3s0.4,0.2,0.8,0.2c0.4,0,0.9-0.3,0.9-0.3L7.7,31.4L7.7,31.4z"/>
	<path class="st0" d="M1,26.3h0.1c0,0,0.2,0,0.2-0.2c0-0.2-0.2-0.2-0.2-0.2H1V26.3L1,26.3L1,26.3z M0.6,25.5h0.7c0,0,0.5,0,0.5,0.5
		c0,0.5-0.5,0.5-0.5,0.5H1V27H0.6V25.5L0.6,25.5z"/>
	<path class="st0" d="M6,26.3h0.1c0,0,0.2,0,0.2-0.2c0-0.2-0.2-0.2-0.2-0.2H6V26.3L6,26.3L6,26.3z M5.7,25.5h0.7c0,0,0.5,0,0.5,0.5
		c0,0.5-0.5,0.5-0.5,0.5H6V27H5.7V25.5L5.7,25.5z"/>
	<polygon class="st0" points="1.9,25.6 2.2,25.6 2.2,26.1 2.6,26.1 2.6,25.6 3,25.6 3,27 2.6,27 2.6,26.4 2.2,26.4 2.2,27 1.9,27 
		1.9,25.6 	"/>
	<polygon class="st0" points="3.3,25.5 3.7,25.5 3.7,27 3.3,27 3.3,25.5 	"/>
	<polygon class="st0" points="5,25.5 5.3,25.5 5.3,27 5,27 5,25.5 	"/>
	<polygon class="st0" points="4,25.6 4.4,25.6 4.4,26.6 4.8,26.6 4.8,27 4,27 4,25.6 	"/>
	<path class="st0" d="M7.7,25.5c0,0-0.1,0-0.3,0c-0.2,0-0.5,0.1-0.5,0.5c0,0,0,0.3,0.3,0.4c0.3,0.1,0.3,0.1,0.3,0.2
		c0,0,0,0.1-0.2,0.1c-0.2,0-0.3,0-0.3,0v0.3c0,0,0.1,0,0.3,0c0.3,0,0.6-0.1,0.6-0.5c0-0.1-0.1-0.4-0.4-0.4C7.3,26,7.3,26,7.3,26
		c0,0,0-0.1,0.2-0.1c0.2,0,0.2,0,0.2,0L7.7,25.5L7.7,25.5z"/>
</g>
</svg>
