<?xml version="1.0" encoding="utf-8"?>
<!-- Generator: Adobe Illustrator 21.1.0, SVG Export Plug-In . SVG Version: 6.00 Build 0)  -->
<svg version="1.1" id="LEDC" xmlns="http://www.w3.org/2000/svg" xmlns:xlink="http://www.w3.org/1999/xlink" x="0px" y="0px"
	 viewBox="0 0 158.8 94.1" style="enable-background:new 0 0 158.8 94.1;" xml:space="preserve">
<style type="text/css">
	.st0{opacity:0.25;}
</style>
<g class="st0">
	<g>
		<path d="M12.6,92.8c1.9-0.2,3.4-1.1,4.4-2.3l0.8,0.9c-1.1,1.5-2.9,2.5-5,2.7c-3.9,0.4-7.2-2.2-7.6-6.1c-0.4-3.9,2.2-7.2,6.2-7.6
			c2.1-0.2,4,0.3,5.5,1.6l-0.6,1c-1.2-1-2.8-1.6-4.8-1.4c-3.2,0.3-5.3,3-4.9,6.2C6.9,91,9.4,93.1,12.6,92.8z"/>
		<path d="M29.4,78.4c3.9-0.4,7.2,2.2,7.6,6.2c0.4,3.9-2.2,7.1-6.2,7.6c-3.9,0.4-7.1-2.2-7.6-6.1C22.9,82.1,25.5,78.8,29.4,78.4z
			 M30.7,90.9c3.2-0.3,5.3-3,5-6.2c-0.3-3.2-2.9-5.4-6.1-5c-3.2,0.3-5.3,3-5,6.2C24.9,89.1,27.5,91.2,30.7,90.9z"/>
		<path d="M45.1,79.1l1.2,11.2L45,90.5l-1.4-13.3l1.2-0.1l10.6,10.2L54.2,76l1.3-0.1l1.4,13.3l-1.2,0.1L45.1,79.1z"/>
		<path d="M71,86.7c1.9-0.2,3.4-1.1,4.4-2.3l0.8,0.9c-1.1,1.5-2.9,2.5-5,2.7c-3.9,0.4-7.2-2.2-7.6-6.1c-0.4-3.9,2.2-7.2,6.2-7.6
			c2.1-0.2,4,0.3,5.5,1.6l-0.6,1c-1.2-1-2.8-1.6-4.8-1.4c-3.2,0.3-5.3,3-4.9,6.2C65.2,84.8,67.8,87,71,86.7z"/>
		<path d="M83.5,86.4l-1.4-13.3L92.2,72l0.1,1.2l-8.8,0.9l0.5,4.6l7.4-0.8l0.1,1.2l-7.4,0.8l0.5,5.2l8.8-0.9l0.1,1.2L83.5,86.4z"/>
		<path d="M99.5,71.3l5.7-0.6c2.5-0.3,4.8,1,5.1,4.2c0.3,2.9-1.7,4.8-4.2,5.1l-4.4,0.5l0.4,4.1l-1.3,0.1L99.5,71.3z M101,72.3
			l0.7,6.9l4.2-0.4c1.9-0.2,3.3-1.6,3.1-3.8c-0.2-2.4-1.9-3.3-3.8-3.1L101,72.3z"/>
		<path d="M121.7,70.1l1.3,12.1l-1.3,0.1l-1.3-12.1l-5.2,0.5l-0.1-1.2l11.4-1.2l0.1,1.2L121.7,70.1z"/>
		<path d="M133.6,78.9c0.9,0.4,2.6,1,4.4,0.8c2.3-0.2,3.8-1.4,3.6-3.1c-0.1-1.2-1.1-1.7-3-1.9l-2.7-0.3c-2.2-0.3-3.4-1.3-3.6-3
			c-0.2-2,1.2-3.8,4.7-4.2c1.8-0.2,3.6,0.2,4.7,0.6l-0.3,1.3c-1-0.5-2.8-0.8-4.3-0.6c-2.6,0.3-3.5,1.5-3.4,2.7
			c0.1,1.1,0.9,1.7,2.5,1.9l2.8,0.4c2.4,0.3,3.8,1.1,4,3c0.3,2.4-1.8,4.2-4.9,4.5c-1.9,0.2-3.8-0.3-4.7-0.7L133.6,78.9z"/>
	</g>
	<path d="M116.2,6.1l-2.4,0.2c-1,0.1-1.9-0.6-2-1.6l-0.2-2.4c-0.1-1,0.6-1.9,1.6-2l2.4-0.2c1-0.1,1.9,0.6,2,1.6l0.2,2.4
		C117.9,5.1,117.2,6,116.2,6.1z M106.3,5.4l-0.5-1.1c-0.5-1.2-2-1.8-3.2-1.3l-1.1,0.5c-1.2,0.5-1.8,2-1.3,3.2l0.5,1.1
		c0.5,1.2,2,1.8,3.2,1.3l1.1-0.5C106.3,8.1,106.8,6.7,106.3,5.4z M96.4,11.3l-1.6-1.8c-0.7-0.8-1.8-0.8-2.6-0.2l-1.8,1.6
		c-0.8,0.7-0.8,1.8-0.2,2.6l1.6,1.8c0.7,0.8,1.8,0.8,2.6,0.2l1.8-1.6C97,13.2,97.1,12.1,96.4,11.3z M148.5,62.1l1.1,0.6
		c1.2,0.7,2.6,0.3,3.3-0.9l0.6-1.1c0.7-1.2,0.3-2.6-0.9-3.3l-1.1-0.6c-1.2-0.7-2.6-0.3-3.3,0.9l-0.6,1.1
		C147,59.9,147.4,61.4,148.5,62.1z M153.1,51.5l2.4,0.5c1,0.2,2-0.4,2.2-1.4l0.5-2.4c0.2-1-0.4-2-1.4-2.2l-2.4-0.5
		c-1-0.2-2,0.4-2.2,1.4l-0.5,2.4C151.5,50.4,152.1,51.3,153.1,51.5z M155.3,40.2l1.2-0.1c1.3-0.1,2.3-1.3,2.2-2.6l-0.1-1.2
		c-0.1-1.3-1.3-2.3-2.6-2.2l-1.2,0.1c-1.3,0.1-2.3,1.3-2.2,2.6l0.1,1.2C152.8,39.3,154,40.3,155.3,40.2z M152.8,29l2.2-1
		c0.9-0.4,1.3-1.5,0.9-2.4l-1-2.2c-0.4-0.9-1.5-1.3-2.4-0.9l-2.2,1c-0.9,0.4-1.3,1.5-0.9,2.4l1,2.2C150.8,28.9,151.9,29.4,152.8,29z
		 M148,18.4l0.9-0.8c1-0.9,1.1-2.4,0.2-3.4l-0.8-0.9c-0.9-1-2.4-1.1-3.4-0.2l-0.9,0.8c-1,0.9-1.1,2.4-0.2,3.4l0.8,0.9
		C145.4,19.2,147,19.3,148,18.4z M139.4,10.8l1.2-2.1c0.5-0.9,0.2-2-0.6-2.5L137.9,5c-0.9-0.5-2-0.2-2.5,0.6l-1.2,2.1
		c-0.5,0.9-0.2,2,0.6,2.5l2.1,1.2C137.7,12,138.8,11.7,139.4,10.8z M129.2,5.2l0.3-1.2c0.3-1.3-0.5-2.6-1.8-2.9l-1.2-0.3
		c-1.3-0.3-2.6,0.5-2.9,1.8l-0.3,1.2c-0.3,1.3,0.5,2.6,1.8,2.9l1.2,0.3C127.7,7.3,129,6.5,129.2,5.2z"/>
	<g>
		<path d="M35.3,34.5c-0.4-0.3-0.6-0.7-0.7-1.3c-0.1-0.5,0.1-1,0.4-1.3c0.3-0.4,0.7-0.7,1.3-0.7c0.5-0.1,1,0.1,1.3,0.4
			c0.4,0.3,0.7,0.7,0.7,1.2c0.1,0.5-0.1,1-0.4,1.4c-0.3,0.4-0.7,0.6-1.2,0.7C36.1,34.9,35.7,34.8,35.3,34.5z M35.7,38.2
			c-0.4-0.3-0.6-0.7-0.7-1.3c-0.1-0.5,0.1-1,0.4-1.3c0.3-0.4,0.7-0.7,1.3-0.7c0.5-0.1,1,0.1,1.3,0.4c0.4,0.3,0.7,0.7,0.7,1.2
			c0.1,0.5-0.1,1-0.4,1.4c-0.3,0.4-0.7,0.6-1.2,0.7C36.5,38.7,36.1,38.5,35.7,38.2z M36.4,41.7c-0.4-0.3-0.6-0.6-0.6-1.1
			c0-0.3,0.1-0.6,0.3-1c0.3-0.4,0.7-0.6,1.1-0.6c0.3,0,0.6,0.1,1,0.3c0.4,0.3,0.6,0.6,0.6,1c0,0.4-0.1,0.8-0.3,1.2
			c-0.3,0.3-0.6,0.5-1,0.5C37.1,42,36.7,41.9,36.4,41.7z M36.8,45.4c-0.4-0.3-0.6-0.6-0.6-1.1c0-0.3,0.1-0.6,0.3-1
			c0.3-0.4,0.7-0.6,1.1-0.6c0.3,0,0.6,0.1,1,0.3c0.4,0.3,0.6,0.6,0.6,1c0,0.4-0.1,0.8-0.3,1.2c-0.3,0.3-0.6,0.5-1,0.5
			C37.5,45.8,37.1,45.7,36.8,45.4z M38,56.7c-0.4-0.3-0.6-0.6-0.6-1.1c0-0.3,0.1-0.6,0.3-1c0.3-0.4,0.7-0.6,1.1-0.6
			c0.3,0,0.6,0.1,1,0.3c0.4,0.3,0.6,0.6,0.6,1c0,0.4-0.1,0.8-0.3,1.2c-0.3,0.3-0.6,0.5-1,0.5C38.7,57,38.3,56.9,38,56.7z M37.4,48.9
			c-0.3-0.2-0.5-0.5-0.5-0.8c0-0.2,0.1-0.5,0.3-0.7c0.2-0.3,0.5-0.5,0.8-0.5c0.2,0,0.5,0.1,0.7,0.3c0.3,0.2,0.5,0.4,0.5,0.7
			c0,0.3-0.1,0.6-0.3,0.9c-0.2,0.3-0.4,0.4-0.7,0.4C37.9,49.2,37.7,49.1,37.4,48.9z M37.8,52.6c-0.3-0.2-0.5-0.5-0.5-0.8
			c0-0.2,0.1-0.5,0.3-0.7c0.2-0.3,0.5-0.5,0.8-0.5c0.2,0,0.5,0.1,0.7,0.3c0.3,0.2,0.5,0.4,0.5,0.7c0,0.3-0.1,0.6-0.3,0.9
			c-0.2,0.3-0.4,0.4-0.7,0.4C38.3,52.9,38,52.8,37.8,52.6z M39,34.1c-0.4-0.3-0.6-0.7-0.7-1.3c-0.1-0.5,0.1-1,0.4-1.3
			c0.3-0.4,0.7-0.7,1.3-0.7c0.5-0.1,1,0.1,1.3,0.4c0.4,0.3,0.7,0.7,0.7,1.2c0.1,0.5-0.1,1-0.4,1.4c-0.3,0.4-0.7,0.6-1.2,0.7
			C39.9,34.5,39.4,34.4,39,34.1z M39.4,37.8c-0.4-0.3-0.6-0.7-0.7-1.3c-0.1-0.5,0.1-1,0.4-1.3c0.3-0.4,0.7-0.7,1.3-0.7
			c0.5-0.1,1,0.1,1.3,0.4c0.4,0.3,0.7,0.7,0.7,1.2c0.1,0.5-0.1,1-0.4,1.4c-0.3,0.4-0.7,0.6-1.2,0.7C40.3,38.3,39.8,38.2,39.4,37.8z
			 M40.1,41.3c-0.4-0.3-0.6-0.6-0.6-1.1c0-0.3,0.1-0.6,0.3-1c0.3-0.4,0.7-0.6,1.1-0.6c0.3,0,0.6,0.1,1,0.3c0.4,0.3,0.6,0.6,0.6,1
			c0,0.4-0.1,0.8-0.3,1.2c-0.3,0.3-0.6,0.5-1,0.5C40.8,41.6,40.5,41.5,40.1,41.3z M40.5,45c-0.4-0.3-0.6-0.6-0.6-1.1
			c0-0.3,0.1-0.6,0.3-1c0.3-0.4,0.7-0.6,1.1-0.6c0.3,0,0.6,0.1,1,0.3c0.4,0.3,0.6,0.6,0.6,1c0,0.4-0.1,0.8-0.3,1.2
			c-0.3,0.3-0.6,0.5-1,0.5C41.2,45.4,40.9,45.3,40.5,45z M41.7,56.3c-0.4-0.3-0.6-0.6-0.6-1.1c0-0.3,0.1-0.6,0.3-1
			c0.3-0.4,0.7-0.6,1.1-0.6c0.3,0,0.6,0.1,1,0.3c0.4,0.3,0.6,0.6,0.6,1c0,0.4-0.1,0.8-0.3,1.2c-0.3,0.3-0.6,0.5-1,0.5
			C42.4,56.6,42.1,56.5,41.7,56.3z M41.1,48.5c-0.3-0.2-0.5-0.5-0.5-0.8c0-0.2,0.1-0.5,0.3-0.7c0.2-0.3,0.5-0.5,0.8-0.5
			c0.2,0,0.5,0.1,0.7,0.3c0.3,0.2,0.5,0.4,0.5,0.7c0,0.3-0.1,0.6-0.3,0.9c-0.2,0.3-0.4,0.4-0.7,0.4C41.7,48.8,41.4,48.7,41.1,48.5z
			 M41.5,52.2c-0.3-0.2-0.5-0.5-0.5-0.8c0-0.2,0.1-0.5,0.3-0.7c0.2-0.3,0.5-0.5,0.8-0.5c0.2,0,0.5,0.1,0.7,0.3
			c0.3,0.2,0.5,0.4,0.5,0.7c0,0.3-0.1,0.6-0.3,0.9c-0.2,0.3-0.4,0.4-0.7,0.4C42.1,52.5,41.8,52.4,41.5,52.2z M42.8,33.7
			c-0.4-0.3-0.6-0.7-0.7-1.3c-0.1-0.5,0.1-1,0.4-1.3c0.3-0.4,0.7-0.7,1.3-0.7c0.5-0.1,1,0.1,1.3,0.4c0.4,0.3,0.7,0.7,0.7,1.2
			c0.1,0.5-0.1,1-0.4,1.4c-0.3,0.4-0.7,0.6-1.2,0.7C43.6,34.1,43.2,34,42.8,33.7z M43.2,37.4c-0.4-0.3-0.6-0.7-0.7-1.3
			c-0.1-0.5,0.1-1,0.4-1.3c0.3-0.4,0.7-0.7,1.3-0.7c0.5-0.1,1,0.1,1.3,0.4c0.4,0.3,0.7,0.7,0.7,1.2c0.1,0.5-0.1,1-0.4,1.4
			c-0.3,0.4-0.7,0.6-1.2,0.7C44,37.9,43.6,37.8,43.2,37.4z M43.9,40.9c-0.4-0.3-0.6-0.6-0.6-1.1c0-0.3,0.1-0.6,0.3-1
			c0.3-0.4,0.7-0.6,1.1-0.6c0.3,0,0.6,0.1,1,0.3c0.4,0.3,0.6,0.6,0.6,1c0,0.4-0.1,0.8-0.3,1.2c-0.3,0.3-0.6,0.5-1,0.5
			C44.6,41.3,44.2,41.2,43.9,40.9z M44.3,44.7c-0.4-0.3-0.6-0.6-0.6-1.1c0-0.3,0.1-0.6,0.3-1c0.3-0.4,0.7-0.6,1.1-0.6
			c0.3,0,0.6,0.1,1,0.3c0.4,0.3,0.6,0.6,0.6,1c0,0.4-0.1,0.8-0.3,1.2c-0.3,0.3-0.6,0.5-1,0.5C45,45,44.6,44.9,44.3,44.7z M45.5,55.9
			c-0.4-0.3-0.6-0.6-0.6-1.1c0-0.3,0.1-0.6,0.3-1c0.3-0.4,0.7-0.6,1.1-0.6c0.3,0,0.6,0.1,1,0.3c0.4,0.3,0.6,0.6,0.6,1
			c0,0.4-0.1,0.8-0.3,1.2c-0.3,0.3-0.6,0.5-1,0.5C46.1,56.2,45.8,56.1,45.5,55.9z M44.9,48.1c-0.3-0.2-0.5-0.5-0.5-0.8
			c0-0.2,0.1-0.5,0.3-0.7c0.2-0.3,0.5-0.5,0.8-0.5c0.2,0,0.5,0.1,0.7,0.3c0.3,0.2,0.5,0.4,0.5,0.7c0,0.3-0.1,0.6-0.3,0.9
			c-0.2,0.3-0.4,0.4-0.7,0.4C45.4,48.4,45.1,48.3,44.9,48.1z M45.3,51.8c-0.3-0.2-0.5-0.5-0.5-0.8c0-0.2,0.1-0.5,0.3-0.7
			c0.2-0.3,0.5-0.5,0.8-0.5c0.2,0,0.5,0.1,0.7,0.3c0.3,0.2,0.5,0.4,0.5,0.7c0,0.3-0.1,0.6-0.3,0.9c-0.2,0.3-0.4,0.4-0.7,0.4
			C45.8,52.1,45.5,52,45.3,51.8z M46.5,33.3c-0.4-0.3-0.6-0.7-0.7-1.3c-0.1-0.5,0.1-1,0.4-1.3c0.3-0.4,0.7-0.7,1.3-0.7
			c0.5-0.1,1,0.1,1.3,0.4c0.4,0.3,0.7,0.7,0.7,1.2c0.1,0.5-0.1,1-0.4,1.4c-0.3,0.4-0.7,0.6-1.2,0.7C47.4,33.8,46.9,33.6,46.5,33.3z
			 M46.9,37.1c-0.4-0.3-0.6-0.7-0.7-1.3c-0.1-0.5,0.1-1,0.4-1.3c0.3-0.4,0.7-0.7,1.3-0.7c0.5-0.1,1,0.1,1.3,0.4
			c0.4,0.3,0.7,0.7,0.7,1.2c0.1,0.5-0.1,1-0.4,1.4c-0.3,0.4-0.7,0.6-1.2,0.7C47.8,37.5,47.3,37.4,46.9,37.1z M48.6,47.7
			c-0.3-0.2-0.5-0.5-0.5-0.8c0-0.2,0.1-0.5,0.3-0.7c0.2-0.3,0.5-0.5,0.8-0.5c0.2,0,0.5,0.1,0.7,0.3c0.3,0.2,0.5,0.4,0.5,0.7
			c0,0.3-0.1,0.6-0.3,0.9c-0.2,0.3-0.4,0.4-0.7,0.4C49.1,48,48.9,47.9,48.6,47.7z M49,51.4c-0.3-0.2-0.5-0.5-0.5-0.8
			c0-0.2,0.1-0.5,0.3-0.7c0.2-0.3,0.5-0.5,0.8-0.5c0.2,0,0.5,0.1,0.7,0.3c0.3,0.2,0.5,0.4,0.5,0.7c0,0.3-0.1,0.6-0.3,0.9
			c-0.2,0.3-0.4,0.4-0.7,0.4C49.5,51.7,49.3,51.6,49,51.4z M50.3,32.9c-0.4-0.3-0.6-0.7-0.7-1.3c-0.1-0.5,0.1-1,0.4-1.3
			c0.3-0.4,0.7-0.7,1.3-0.7c0.5-0.1,1,0.1,1.3,0.4c0.4,0.3,0.7,0.7,0.7,1.2c0.1,0.5-0.1,1-0.4,1.4c-0.3,0.4-0.7,0.6-1.2,0.7
			C51.1,33.4,50.6,33.2,50.3,32.9z M50.6,36.7c-0.4-0.3-0.6-0.7-0.7-1.3c-0.1-0.5,0.1-1,0.4-1.3c0.3-0.4,0.7-0.7,1.3-0.7
			c0.5-0.1,1,0.1,1.3,0.4c0.4,0.3,0.7,0.7,0.7,1.2c0.1,0.5-0.1,1-0.4,1.4C53,36.8,52.5,37,52,37C51.5,37.1,51,37,50.6,36.7z
			 M52.4,47.3c-0.3-0.2-0.5-0.5-0.5-0.8c0-0.2,0.1-0.5,0.3-0.7c0.2-0.3,0.5-0.5,0.8-0.5c0.2,0,0.5,0.1,0.7,0.3
			c0.3,0.2,0.5,0.4,0.5,0.7c0,0.3-0.1,0.6-0.3,0.9c-0.2,0.3-0.4,0.4-0.7,0.4C52.9,47.6,52.6,47.5,52.4,47.3z M52.7,51
			c-0.3-0.2-0.5-0.5-0.5-0.8c0-0.2,0.1-0.5,0.3-0.7c0.2-0.3,0.5-0.5,0.8-0.5c0.2,0,0.5,0.1,0.7,0.3c0.3,0.2,0.5,0.4,0.5,0.7
			c0,0.3-0.1,0.6-0.3,0.9c-0.2,0.3-0.4,0.4-0.7,0.4C53.3,51.3,53,51.2,52.7,51z M54,32.5c-0.4-0.3-0.6-0.7-0.7-1.3
			c-0.1-0.5,0.1-1,0.4-1.3c0.3-0.4,0.7-0.7,1.3-0.7c0.5-0.1,1,0.1,1.3,0.4c0.4,0.3,0.7,0.7,0.7,1.2c0.1,0.5-0.1,1-0.4,1.4
			c-0.3,0.4-0.7,0.6-1.2,0.7C54.8,33,54.4,32.8,54,32.5z M54.4,36.3C54,36,53.8,35.5,53.7,35c-0.1-0.5,0.1-1,0.4-1.3
			c0.3-0.4,0.7-0.7,1.3-0.7c0.5-0.1,1,0.1,1.3,0.4c0.4,0.3,0.7,0.7,0.7,1.2c0.1,0.5-0.1,1-0.4,1.4c-0.3,0.4-0.7,0.6-1.2,0.7
			C55.2,36.7,54.8,36.6,54.4,36.3z M56.1,46.9c-0.3-0.2-0.5-0.5-0.5-0.8c0-0.2,0.1-0.5,0.3-0.7c0.2-0.3,0.5-0.5,0.8-0.5
			c0.2,0,0.5,0.1,0.7,0.3c0.3,0.2,0.5,0.4,0.5,0.7c0,0.3-0.1,0.6-0.3,0.9c-0.2,0.3-0.4,0.4-0.7,0.4C56.6,47.2,56.3,47.1,56.1,46.9z
			 M56.5,50.6c-0.3-0.2-0.5-0.5-0.5-0.8c0-0.2,0.1-0.5,0.3-0.7c0.2-0.3,0.5-0.5,0.8-0.5c0.2,0,0.5,0.1,0.7,0.3
			c0.3,0.2,0.5,0.4,0.5,0.7c0,0.3-0.1,0.6-0.3,0.9c-0.2,0.3-0.4,0.4-0.7,0.4C57,50.9,56.7,50.8,56.5,50.6z M57.7,32.1
			c-0.4-0.3-0.6-0.7-0.7-1.3c-0.1-0.5,0.1-1,0.4-1.3c0.3-0.4,0.7-0.7,1.3-0.7c0.5-0.1,1,0.1,1.3,0.4c0.4,0.3,0.7,0.7,0.7,1.2
			c0.1,0.5-0.1,1-0.4,1.4c-0.3,0.4-0.7,0.6-1.2,0.7C58.6,32.6,58.1,32.4,57.7,32.1z M58.1,35.9c-0.4-0.3-0.6-0.7-0.7-1.3
			c-0.1-0.5,0.1-1,0.4-1.3c0.3-0.4,0.7-0.7,1.3-0.7c0.5-0.1,1,0.1,1.3,0.4c0.4,0.3,0.7,0.7,0.7,1.2c0.1,0.5-0.1,1-0.4,1.4
			c-0.3,0.4-0.7,0.6-1.2,0.7C59,36.3,58.5,36.2,58.1,35.9z M60.9,62c-0.4-0.3-0.6-0.7-0.7-1.3c-0.1-0.5,0.1-1,0.4-1.3
			c0.3-0.4,0.7-0.7,1.3-0.7c0.5-0.1,1,0.1,1.3,0.4c0.4,0.3,0.7,0.7,0.7,1.2c0.1,0.5-0.1,1-0.4,1.4c-0.3,0.4-0.7,0.6-1.2,0.7
			C61.7,62.5,61.3,62.4,60.9,62z M61.3,65.8c-0.4-0.3-0.6-0.7-0.7-1.3c-0.1-0.5,0.1-1,0.4-1.3c0.3-0.4,0.7-0.7,1.3-0.7
			c0.5-0.1,1,0.1,1.3,0.4c0.4,0.3,0.7,0.7,0.7,1.2c0.1,0.5-0.1,1-0.4,1.4c-0.3,0.4-0.7,0.6-1.2,0.7C62.1,66.2,61.7,66.1,61.3,65.8z
			 M59.8,46.5c-0.3-0.2-0.5-0.5-0.5-0.8c0-0.2,0.1-0.5,0.3-0.7c0.2-0.3,0.5-0.5,0.8-0.5c0.2,0,0.5,0.1,0.7,0.3
			c0.3,0.2,0.5,0.4,0.5,0.7c0,0.3-0.1,0.6-0.3,0.9c-0.2,0.3-0.4,0.4-0.7,0.4C60.4,46.8,60.1,46.7,59.8,46.5z M60.2,50.2
			c-0.3-0.2-0.5-0.5-0.5-0.8c0-0.2,0.1-0.5,0.3-0.7c0.2-0.3,0.5-0.5,0.8-0.5c0.2,0,0.5,0.1,0.7,0.3c0.3,0.2,0.5,0.4,0.5,0.7
			c0,0.3-0.1,0.6-0.3,0.9c-0.2,0.3-0.4,0.4-0.7,0.4C60.7,50.5,60.5,50.5,60.2,50.2z M61.5,31.7c-0.4-0.3-0.6-0.7-0.7-1.3
			c-0.1-0.5,0.1-1,0.4-1.3c0.3-0.4,0.7-0.7,1.3-0.7c0.5-0.1,1,0.1,1.3,0.4c0.4,0.3,0.7,0.7,0.7,1.2c0.1,0.5-0.1,1-0.4,1.4
			c-0.3,0.4-0.7,0.6-1.2,0.7C62.3,32.2,61.9,32.1,61.5,31.7z M61.9,35.5c-0.4-0.3-0.6-0.7-0.7-1.3c-0.1-0.5,0.1-1,0.4-1.3
			c0.3-0.4,0.7-0.7,1.3-0.7c0.5-0.1,1,0.1,1.3,0.4c0.4,0.3,0.7,0.7,0.7,1.2c0.1,0.5-0.1,1-0.4,1.4c-0.3,0.4-0.7,0.6-1.2,0.7
			C62.7,35.9,62.2,35.8,61.9,35.5z M64.6,61.7c-0.4-0.3-0.6-0.7-0.7-1.3c-0.1-0.5,0.1-1,0.4-1.3c0.3-0.4,0.7-0.7,1.3-0.7
			c0.5-0.1,1,0.1,1.3,0.4c0.4,0.3,0.7,0.7,0.7,1.2c0.1,0.5-0.1,1-0.4,1.4C66.9,61.8,66.5,62,66,62C65.5,62.1,65,62,64.6,61.7z
			 M65,65.4c-0.4-0.3-0.6-0.7-0.7-1.3c-0.1-0.5,0.1-1,0.4-1.3c0.3-0.4,0.7-0.7,1.3-0.7c0.5-0.1,1,0.1,1.3,0.4
			c0.4,0.3,0.7,0.7,0.7,1.2c0.1,0.5-0.1,1-0.4,1.4c-0.3,0.4-0.7,0.6-1.2,0.7C65.9,65.8,65.4,65.7,65,65.4z M63.6,46.1
			c-0.3-0.2-0.5-0.5-0.5-0.8c0-0.2,0.1-0.5,0.3-0.7c0.2-0.3,0.5-0.5,0.8-0.5c0.2,0,0.5,0.1,0.7,0.3c0.3,0.2,0.5,0.4,0.5,0.7
			c0,0.3-0.1,0.6-0.3,0.9c-0.2,0.3-0.4,0.4-0.7,0.4C64.1,46.4,63.8,46.3,63.6,46.1z M64,49.9c-0.3-0.2-0.5-0.5-0.5-0.8
			c0-0.2,0.1-0.5,0.3-0.7c0.2-0.3,0.5-0.5,0.8-0.5c0.2,0,0.5,0.1,0.7,0.3c0.3,0.2,0.5,0.4,0.5,0.7c0,0.3-0.1,0.6-0.3,0.9
			c-0.2,0.3-0.4,0.4-0.7,0.4C64.5,50.1,64.2,50.1,64,49.9z M65.2,31.3c-0.4-0.3-0.6-0.7-0.7-1.3c-0.1-0.5,0.1-1,0.4-1.3
			c0.3-0.4,0.7-0.7,1.3-0.7c0.5-0.1,1,0.1,1.3,0.4c0.4,0.3,0.7,0.7,0.7,1.2c0.1,0.5-0.1,1-0.4,1.4c-0.3,0.4-0.7,0.6-1.2,0.7
			C66.1,31.8,65.6,31.7,65.2,31.3z M65.6,35.1c-0.4-0.3-0.6-0.7-0.7-1.3c-0.1-0.5,0.1-1,0.4-1.3c0.3-0.4,0.7-0.7,1.3-0.7
			c0.5-0.1,1,0.1,1.3,0.4c0.4,0.3,0.7,0.7,0.7,1.2c0.1,0.5-0.1,1-0.4,1.4c-0.3,0.4-0.7,0.6-1.2,0.7C66.5,35.5,66,35.4,65.6,35.1z
			 M68.3,61.3c-0.4-0.3-0.6-0.7-0.7-1.3c-0.1-0.5,0.1-1,0.4-1.3c0.3-0.4,0.7-0.7,1.3-0.7c0.5-0.1,1,0.1,1.3,0.4
			c0.4,0.3,0.7,0.7,0.7,1.2c0.1,0.5-0.1,1-0.4,1.4c-0.3,0.4-0.7,0.6-1.2,0.7C69.2,61.7,68.7,61.6,68.3,61.3z M68.7,65
			c-0.4-0.3-0.6-0.7-0.7-1.3c-0.1-0.5,0.1-1,0.4-1.3c0.3-0.4,0.7-0.7,1.3-0.7c0.5-0.1,1,0.1,1.3,0.4c0.4,0.3,0.7,0.7,0.7,1.2
			c0.1,0.5-0.1,1-0.4,1.4c-0.3,0.4-0.7,0.6-1.2,0.7C69.6,65.4,69.1,65.3,68.7,65z M67.3,45.7c-0.3-0.2-0.5-0.5-0.5-0.8
			c0-0.2,0.1-0.5,0.3-0.7c0.2-0.3,0.5-0.5,0.8-0.5c0.2,0,0.5,0.1,0.7,0.3c0.3,0.2,0.5,0.4,0.5,0.7c0,0.3-0.1,0.6-0.3,0.9
			c-0.2,0.3-0.4,0.4-0.7,0.4C67.8,46,67.6,45.9,67.3,45.7z M67.7,49.5c-0.3-0.2-0.5-0.5-0.5-0.8c0-0.2,0.1-0.5,0.3-0.7
			c0.2-0.3,0.5-0.5,0.8-0.5c0.2,0,0.5,0.1,0.7,0.3c0.3,0.2,0.5,0.4,0.5,0.7c0,0.3-0.1,0.6-0.3,0.9c-0.2,0.3-0.4,0.4-0.7,0.4
			C68.2,49.8,68,49.7,67.7,49.5z M68.9,31c-0.4-0.3-0.6-0.7-0.7-1.3c-0.1-0.5,0.1-1,0.4-1.3c0.3-0.4,0.7-0.7,1.3-0.7
			c0.5-0.1,1,0.1,1.3,0.4c0.4,0.3,0.7,0.7,0.7,1.2c0.1,0.5-0.1,1-0.4,1.4c-0.3,0.4-0.7,0.6-1.2,0.7C69.8,31.4,69.3,31.3,68.9,31z
			 M69.3,34.7c-0.4-0.3-0.6-0.7-0.7-1.3c-0.1-0.5,0.1-1,0.4-1.3c0.3-0.4,0.7-0.7,1.3-0.7c0.5-0.1,1,0.1,1.3,0.4
			c0.4,0.3,0.7,0.7,0.7,1.2c0.1,0.5-0.1,1-0.4,1.4c-0.3,0.4-0.7,0.6-1.2,0.7C70.2,35.1,69.7,35,69.3,34.7z M72.1,60.9
			c-0.4-0.3-0.6-0.7-0.7-1.3c-0.1-0.5,0.1-1,0.4-1.3c0.3-0.4,0.7-0.7,1.3-0.7c0.5-0.1,1,0.1,1.3,0.4c0.4,0.3,0.7,0.7,0.7,1.2
			c0.1,0.5-0.1,1-0.4,1.4c-0.3,0.4-0.7,0.6-1.2,0.7C72.9,61.3,72.5,61.2,72.1,60.9z M72.5,64.6c-0.4-0.3-0.6-0.7-0.7-1.3
			c-0.1-0.5,0.1-1,0.4-1.3c0.3-0.4,0.7-0.7,1.3-0.7c0.5-0.1,1,0.1,1.3,0.4c0.4,0.3,0.7,0.7,0.7,1.2c0.1,0.5-0.1,1-0.4,1.4
			c-0.3,0.4-0.7,0.6-1.2,0.7C73.3,65,72.9,64.9,72.5,64.6z M71,45.3c-0.3-0.2-0.5-0.5-0.5-0.8c0-0.2,0.1-0.5,0.3-0.7
			c0.2-0.3,0.5-0.5,0.8-0.5c0.2,0,0.5,0.1,0.7,0.3c0.3,0.2,0.5,0.4,0.5,0.7c0,0.3-0.1,0.6-0.3,0.9c-0.2,0.3-0.4,0.4-0.7,0.4
			C71.6,45.6,71.3,45.5,71,45.3z M71.4,49.1c-0.3-0.2-0.5-0.5-0.5-0.8c0-0.2,0.1-0.5,0.3-0.7c0.2-0.3,0.5-0.5,0.8-0.5
			c0.2,0,0.5,0.1,0.7,0.3c0.3,0.2,0.5,0.4,0.5,0.7c0,0.3-0.1,0.6-0.3,0.9c-0.2,0.3-0.4,0.4-0.7,0.4C72,49.4,71.7,49.3,71.4,49.1z
			 M72.7,30.6c-0.4-0.3-0.6-0.7-0.7-1.3c-0.1-0.5,0.1-1,0.4-1.3c0.3-0.4,0.7-0.7,1.3-0.7c0.5-0.1,1,0.1,1.3,0.4
			c0.4,0.3,0.7,0.7,0.7,1.2c0.1,0.5-0.1,1-0.4,1.4c-0.3,0.4-0.7,0.6-1.2,0.7C73.5,31,73.1,30.9,72.7,30.6z M73.1,34.3
			c-0.4-0.3-0.6-0.7-0.7-1.3c-0.1-0.5,0.1-1,0.4-1.3c0.3-0.4,0.7-0.7,1.3-0.7c0.5-0.1,1,0.1,1.3,0.4c0.4,0.3,0.7,0.7,0.7,1.2
			c0.1,0.5-0.1,1-0.4,1.4c-0.3,0.4-0.7,0.6-1.2,0.7C73.9,34.7,73.5,34.6,73.1,34.3z M75.8,60.5c-0.4-0.3-0.6-0.7-0.7-1.3
			c-0.1-0.5,0.1-1,0.4-1.3c0.3-0.4,0.7-0.7,1.3-0.7c0.5-0.1,1,0.1,1.3,0.4c0.4,0.3,0.7,0.7,0.7,1.2c0.1,0.5-0.1,1-0.4,1.4
			c-0.3,0.4-0.7,0.6-1.2,0.7C76.7,60.9,76.2,60.8,75.8,60.5z M76.2,64.2c-0.4-0.3-0.6-0.7-0.7-1.3c-0.1-0.5,0.1-1,0.4-1.3
			c0.3-0.4,0.7-0.7,1.3-0.7c0.5-0.1,1,0.1,1.3,0.4c0.4,0.3,0.7,0.7,0.7,1.2c0.1,0.5-0.1,1-0.4,1.4c-0.3,0.4-0.7,0.6-1.2,0.7
			C77.1,64.7,76.6,64.5,76.2,64.2z M76.4,30.2c-0.4-0.3-0.6-0.7-0.7-1.3c-0.1-0.5,0.1-1,0.4-1.3c0.3-0.4,0.7-0.7,1.3-0.7
			c0.5-0.1,1,0.1,1.3,0.4c0.4,0.3,0.7,0.7,0.7,1.2c0.1,0.5-0.1,1-0.4,1.4c-0.3,0.4-0.7,0.6-1.2,0.7C77.3,30.6,76.8,30.5,76.4,30.2z
			 M76.8,33.9c-0.4-0.3-0.6-0.7-0.7-1.3c-0.1-0.5,0.1-1,0.4-1.3c0.3-0.4,0.7-0.7,1.3-0.7c0.5-0.1,1,0.1,1.3,0.4
			c0.4,0.3,0.7,0.7,0.7,1.2c0.1,0.5-0.1,1-0.4,1.4c-0.3,0.4-0.7,0.6-1.2,0.7C77.7,34.4,77.2,34.2,76.8,33.9z M79.6,60.1
			c-0.4-0.3-0.6-0.7-0.7-1.3c-0.1-0.5,0.1-1,0.4-1.3c0.3-0.4,0.7-0.7,1.3-0.7c0.5-0.1,1,0.1,1.3,0.4c0.4,0.3,0.7,0.7,0.7,1.2
			c0.1,0.5-0.1,1-0.4,1.4c-0.3,0.4-0.7,0.6-1.2,0.7C80.4,60.5,80,60.4,79.6,60.1z M80,63.8c-0.4-0.3-0.6-0.7-0.7-1.3
			c-0.1-0.5,0.1-1,0.4-1.3c0.3-0.4,0.7-0.7,1.3-0.7c0.5-0.1,1,0.1,1.3,0.4c0.4,0.3,0.7,0.7,0.7,1.2c0.1,0.5-0.1,1-0.4,1.4
			c-0.3,0.4-0.7,0.6-1.2,0.7C80.8,64.3,80.3,64.1,80,63.8z M80.2,29.8c-0.4-0.3-0.6-0.7-0.7-1.3c-0.1-0.5,0.1-1,0.4-1.3
			c0.3-0.4,0.7-0.7,1.3-0.7c0.5-0.1,1,0.1,1.3,0.4c0.4,0.3,0.7,0.7,0.7,1.2c0.1,0.5-0.1,1-0.4,1.4c-0.3,0.4-0.7,0.6-1.2,0.7
			C81,30.2,80.5,30.1,80.2,29.8z M80.6,33.5c-0.4-0.3-0.6-0.7-0.7-1.3c-0.1-0.5,0.1-1,0.4-1.3c0.3-0.4,0.7-0.7,1.3-0.7
			c0.5-0.1,1,0.1,1.3,0.4c0.4,0.3,0.7,0.7,0.7,1.2c0.1,0.5-0.1,1-0.4,1.4c-0.3,0.4-0.7,0.6-1.2,0.7C81.4,34,80.9,33.8,80.6,33.5z
			 M83.3,59.7c-0.4-0.3-0.6-0.7-0.7-1.3c-0.1-0.5,0.1-1,0.4-1.3c0.3-0.4,0.7-0.7,1.3-0.7c0.5-0.1,1,0.1,1.3,0.4
			c0.4,0.3,0.7,0.7,0.7,1.2c0.1,0.5-0.1,1-0.4,1.4c-0.3,0.4-0.7,0.6-1.2,0.7C84.2,60.1,83.7,60,83.3,59.7z M83.7,63.4
			c-0.4-0.3-0.6-0.7-0.7-1.3c-0.1-0.5,0.1-1,0.4-1.3c0.3-0.4,0.7-0.7,1.3-0.7c0.5-0.1,1,0.1,1.3,0.4c0.4,0.3,0.7,0.7,0.7,1.2
			c0.1,0.5-0.1,1-0.4,1.4c-0.3,0.4-0.7,0.6-1.2,0.7C84.6,63.9,84.1,63.7,83.7,63.4z M91.7,28.6c-0.4-0.3-0.6-0.7-0.7-1.3
			c-0.1-0.5,0.1-1,0.4-1.3c0.3-0.4,0.7-0.7,1.3-0.7c0.5-0.1,1,0.1,1.3,0.4c0.4,0.3,0.7,0.7,0.7,1.2c0.1,0.5-0.1,1-0.4,1.4
			c-0.3,0.4-0.7,0.6-1.2,0.7C92.5,29,92,28.9,91.7,28.6z M92,32.3c-0.4-0.3-0.6-0.7-0.7-1.3c-0.1-0.5,0.1-1,0.4-1.3
			c0.3-0.4,0.7-0.7,1.3-0.7c0.5-0.1,1,0.1,1.3,0.4c0.4,0.3,0.7,0.7,0.7,1.2c0.1,0.5-0.1,1-0.4,1.4c-0.3,0.4-0.7,0.6-1.2,0.7
			C92.9,32.8,92.4,32.6,92,32.3z M94.8,58.5c-0.4-0.3-0.6-0.7-0.7-1.3c-0.1-0.5,0.1-1,0.4-1.3c0.3-0.4,0.7-0.7,1.3-0.7
			c0.5-0.1,1,0.1,1.3,0.4c0.4,0.3,0.7,0.7,0.7,1.2c0.1,0.5-0.1,1-0.4,1.4c-0.3,0.4-0.7,0.6-1.2,0.7C95.6,58.9,95.2,58.8,94.8,58.5z
			 M95.2,62.2c-0.4-0.3-0.6-0.7-0.7-1.3c-0.1-0.5,0.1-1,0.4-1.3c0.3-0.4,0.7-0.7,1.3-0.7c0.5-0.1,1,0.1,1.3,0.4
			c0.4,0.3,0.7,0.7,0.7,1.2c0.1,0.5-0.1,1-0.4,1.4c-0.3,0.4-0.7,0.6-1.2,0.7C96,62.7,95.6,62.5,95.2,62.2z M92.8,35.8
			c-0.4-0.3-0.6-0.6-0.6-1.1c0-0.3,0.1-0.6,0.3-1c0.3-0.4,0.7-0.6,1.1-0.6c0.3,0,0.6,0.1,1,0.3c0.4,0.3,0.6,0.6,0.6,1
			c0,0.4-0.1,0.8-0.3,1.2c-0.3,0.3-0.6,0.5-1,0.5C93.4,36.1,93.1,36,92.8,35.8z M93.2,39.5c-0.4-0.3-0.6-0.6-0.6-1.1
			c0-0.3,0.1-0.6,0.3-1c0.3-0.4,0.7-0.6,1.1-0.6c0.3,0,0.6,0.1,1,0.3c0.4,0.3,0.6,0.6,0.6,1c0,0.4-0.1,0.8-0.3,1.2
			c-0.3,0.3-0.6,0.5-1,0.5C93.8,39.9,93.5,39.8,93.2,39.5z M94.3,50.7c-0.4-0.3-0.6-0.6-0.6-1.1c0-0.3,0.1-0.6,0.3-1
			c0.3-0.4,0.7-0.6,1.1-0.6c0.3,0,0.6,0.1,1,0.3c0.4,0.3,0.6,0.6,0.6,1c0,0.4-0.1,0.8-0.3,1.2c-0.3,0.3-0.6,0.5-1,0.5
			C95,51.1,94.7,51,94.3,50.7z M94.7,54.5c-0.4-0.3-0.6-0.6-0.6-1.1c0-0.3,0.1-0.6,0.3-1c0.3-0.4,0.7-0.6,1.1-0.6
			c0.3,0,0.6,0.1,1,0.3c0.4,0.3,0.6,0.6,0.6,1c0,0.4-0.1,0.8-0.3,1.2c-0.3,0.3-0.6,0.5-1,0.5C95.4,54.8,95.1,54.7,94.7,54.5z
			 M93.8,42.9c-0.3-0.2-0.5-0.5-0.5-0.8c0-0.2,0.1-0.5,0.3-0.7c0.2-0.3,0.5-0.5,0.8-0.5c0.2,0,0.5,0.1,0.7,0.3
			c0.3,0.2,0.5,0.4,0.5,0.7c0,0.3-0.1,0.6-0.3,0.9c-0.2,0.3-0.4,0.4-0.7,0.4C94.3,43.2,94,43.1,93.8,42.9z M94.1,46.7
			c-0.3-0.2-0.5-0.5-0.5-0.8c0-0.2,0.1-0.5,0.3-0.7c0.2-0.3,0.5-0.5,0.8-0.5c0.2,0,0.5,0.1,0.7,0.3c0.3,0.2,0.5,0.4,0.5,0.7
			c0,0.3-0.1,0.6-0.3,0.9c-0.2,0.3-0.4,0.4-0.7,0.4C94.7,47,94.4,46.9,94.1,46.7z M95.4,28.2c-0.4-0.3-0.6-0.7-0.7-1.3
			c-0.1-0.5,0.1-1,0.4-1.3c0.3-0.4,0.7-0.7,1.3-0.7c0.5-0.1,1,0.1,1.3,0.4c0.4,0.3,0.7,0.7,0.7,1.2c0.1,0.5-0.1,1-0.4,1.4
			c-0.3,0.4-0.7,0.6-1.2,0.7C96.2,28.6,95.8,28.5,95.4,28.2z M95.8,31.9c-0.4-0.3-0.6-0.7-0.7-1.3c-0.1-0.5,0.1-1,0.4-1.3
			c0.3-0.4,0.7-0.7,1.3-0.7c0.5-0.1,1,0.1,1.3,0.4c0.4,0.3,0.7,0.7,0.7,1.2c0.1,0.5-0.1,1-0.4,1.4c-0.3,0.4-0.7,0.6-1.2,0.7
			C96.6,32.4,96.2,32.2,95.8,31.9z M98.5,58.1c-0.4-0.3-0.6-0.7-0.7-1.3c-0.1-0.5,0.1-1,0.4-1.3c0.3-0.4,0.7-0.7,1.3-0.7
			c0.5-0.1,1,0.1,1.3,0.4c0.4,0.3,0.7,0.7,0.7,1.2c0.1,0.5-0.1,1-0.4,1.4c-0.3,0.4-0.7,0.6-1.2,0.7C99.4,58.5,98.9,58.4,98.5,58.1z
			 M98.9,61.8c-0.4-0.3-0.6-0.7-0.7-1.3c-0.1-0.5,0.1-1,0.4-1.3c0.3-0.4,0.7-0.7,1.3-0.7c0.5-0.1,1,0.1,1.3,0.4
			c0.4,0.3,0.7,0.7,0.7,1.2c0.1,0.5-0.1,1-0.4,1.4c-0.3,0.4-0.7,0.6-1.2,0.7C99.8,62.3,99.3,62.1,98.9,61.8z M96.5,35.4
			c-0.4-0.3-0.6-0.6-0.6-1.1c0-0.3,0.1-0.6,0.3-1c0.3-0.4,0.7-0.6,1.1-0.6c0.3,0,0.6,0.1,1,0.3c0.4,0.3,0.6,0.6,0.6,1
			c0,0.4-0.1,0.8-0.3,1.2c-0.3,0.3-0.6,0.5-1,0.5C97.2,35.7,96.8,35.6,96.5,35.4z M96.9,39.1c-0.4-0.3-0.6-0.6-0.6-1.1
			c0-0.3,0.1-0.6,0.3-1c0.3-0.4,0.7-0.6,1.1-0.6c0.3,0,0.6,0.1,1,0.3c0.4,0.3,0.6,0.6,0.6,1c0,0.4-0.1,0.8-0.3,1.2
			c-0.3,0.3-0.6,0.5-1,0.5C97.6,39.5,97.2,39.4,96.9,39.1z M98.1,50.3c-0.4-0.3-0.6-0.6-0.6-1.1c0-0.3,0.1-0.6,0.3-1
			c0.3-0.4,0.7-0.6,1.1-0.6c0.3,0,0.6,0.1,1,0.3c0.4,0.3,0.6,0.6,0.6,1c0,0.4-0.1,0.8-0.3,1.2c-0.3,0.3-0.6,0.5-1,0.5
			C98.8,50.7,98.4,50.6,98.1,50.3z M98.5,54.1c-0.4-0.3-0.6-0.6-0.6-1.1c0-0.3,0.1-0.6,0.3-1c0.3-0.4,0.7-0.6,1.1-0.6
			c0.3,0,0.6,0.1,1,0.3c0.4,0.3,0.6,0.6,0.6,1c0,0.4-0.1,0.8-0.3,1.2c-0.3,0.3-0.6,0.5-1,0.5C99.2,54.4,98.8,54.3,98.5,54.1z
			 M97.5,42.5c-0.3-0.2-0.5-0.5-0.5-0.8c0-0.2,0.1-0.5,0.3-0.7c0.2-0.3,0.5-0.5,0.8-0.5c0.2,0,0.5,0.1,0.7,0.3
			c0.3,0.2,0.5,0.4,0.5,0.7c0,0.3-0.1,0.6-0.3,0.9c-0.2,0.3-0.4,0.4-0.7,0.4C98,42.8,97.8,42.8,97.5,42.5z M97.9,46.3
			c-0.3-0.2-0.5-0.5-0.5-0.8c0-0.2,0.1-0.5,0.3-0.7c0.2-0.3,0.5-0.5,0.8-0.5c0.2,0,0.5,0.1,0.7,0.3c0.3,0.2,0.5,0.4,0.5,0.7
			c0,0.3-0.1,0.6-0.3,0.9c-0.2,0.3-0.4,0.4-0.7,0.4C98.4,46.6,98.1,46.5,97.9,46.3z M99.1,27.8c-0.4-0.3-0.6-0.7-0.7-1.3
			c-0.1-0.5,0.1-1,0.4-1.3c0.3-0.4,0.7-0.7,1.3-0.7c0.5-0.1,1,0.1,1.3,0.4c0.4,0.3,0.7,0.7,0.7,1.2c0.1,0.5-0.1,1-0.4,1.4
			c-0.3,0.4-0.7,0.6-1.2,0.7C100,28.2,99.5,28.1,99.1,27.8z M99.5,31.5c-0.4-0.3-0.6-0.7-0.7-1.3c-0.1-0.5,0.1-1,0.4-1.3
			c0.3-0.4,0.7-0.7,1.3-0.7c0.5-0.1,1,0.1,1.3,0.4c0.4,0.3,0.7,0.7,0.7,1.2c0.1,0.5-0.1,1-0.4,1.4c-0.3,0.4-0.7,0.6-1.2,0.7
			C100.4,32,99.9,31.8,99.5,31.5z M102.3,57.7c-0.4-0.3-0.6-0.7-0.7-1.3c-0.1-0.5,0.1-1,0.4-1.3c0.3-0.4,0.7-0.7,1.3-0.7
			c0.5-0.1,1,0.1,1.3,0.4c0.4,0.3,0.7,0.7,0.7,1.2c0.1,0.5-0.1,1-0.4,1.4c-0.3,0.4-0.7,0.6-1.2,0.7C103.1,58.1,102.7,58,102.3,57.7z
			 M102.7,61.4c-0.4-0.3-0.6-0.7-0.7-1.3c-0.1-0.5,0.1-1,0.4-1.3c0.3-0.4,0.7-0.7,1.3-0.7c0.5-0.1,1,0.1,1.3,0.4
			c0.4,0.3,0.7,0.7,0.7,1.2c0.1,0.5-0.1,1-0.4,1.4c-0.3,0.4-0.7,0.6-1.2,0.7C103.5,61.9,103.1,61.7,102.7,61.4z M100.2,35
			c-0.4-0.3-0.6-0.6-0.6-1.1c0-0.3,0.1-0.6,0.3-1c0.3-0.4,0.7-0.6,1.1-0.6c0.3,0,0.6,0.1,1,0.3c0.4,0.3,0.6,0.6,0.6,1
			c0,0.4-0.1,0.8-0.3,1.2c-0.3,0.3-0.6,0.5-1,0.5C100.9,35.3,100.6,35.2,100.2,35z M100.6,38.7c-0.4-0.3-0.6-0.6-0.6-1.1
			c0-0.3,0.1-0.6,0.3-1c0.3-0.4,0.7-0.6,1.1-0.6c0.3,0,0.6,0.1,1,0.3c0.4,0.3,0.6,0.6,0.6,1c0,0.4-0.1,0.8-0.3,1.2
			c-0.3,0.3-0.6,0.5-1,0.5C101.3,39.1,101,39,100.6,38.7z M101.8,49.9c-0.4-0.3-0.6-0.6-0.6-1.1c0-0.3,0.1-0.6,0.3-1
			c0.3-0.4,0.7-0.6,1.1-0.6c0.3,0,0.6,0.1,1,0.3c0.4,0.3,0.6,0.6,0.6,1c0,0.4-0.1,0.8-0.3,1.2c-0.3,0.3-0.6,0.5-1,0.5
			C102.5,50.3,102.2,50.2,101.8,49.9z M102.2,53.7c-0.4-0.3-0.6-0.6-0.6-1.1c0-0.3,0.1-0.6,0.3-1c0.3-0.4,0.7-0.6,1.1-0.6
			c0.3,0,0.6,0.1,1,0.3c0.4,0.3,0.6,0.6,0.6,1c0,0.4-0.1,0.8-0.3,1.2c-0.3,0.3-0.6,0.5-1,0.5C102.9,54,102.5,53.9,102.2,53.7z
			 M101.2,42.2c-0.3-0.2-0.5-0.5-0.5-0.8c0-0.2,0.1-0.5,0.3-0.7c0.2-0.3,0.5-0.5,0.8-0.5c0.2,0,0.5,0.1,0.7,0.3
			c0.3,0.2,0.5,0.4,0.5,0.7c0,0.3-0.1,0.6-0.3,0.9c-0.2,0.3-0.4,0.4-0.7,0.4C101.8,42.5,101.5,42.4,101.2,42.2z M101.6,45.9
			c-0.3-0.2-0.5-0.5-0.5-0.8c0-0.2,0.1-0.5,0.3-0.7c0.2-0.3,0.5-0.5,0.8-0.5c0.2,0,0.5,0.1,0.7,0.3c0.3,0.2,0.5,0.4,0.5,0.7
			c0,0.3-0.1,0.6-0.3,0.9c-0.2,0.3-0.4,0.4-0.7,0.4C102.1,46.2,101.9,46.1,101.6,45.9z M102.9,27.4c-0.4-0.3-0.6-0.7-0.7-1.3
			c-0.1-0.5,0.1-1,0.4-1.3c0.3-0.4,0.7-0.7,1.3-0.7c0.5-0.1,1,0.1,1.3,0.4c0.4,0.3,0.7,0.7,0.7,1.2c0.1,0.5-0.1,1-0.4,1.4
			c-0.3,0.4-0.7,0.6-1.2,0.7C103.7,27.8,103.3,27.7,102.9,27.4z M103.3,31.1c-0.4-0.3-0.6-0.7-0.7-1.3c-0.1-0.5,0.1-1,0.4-1.3
			c0.3-0.4,0.7-0.7,1.3-0.7c0.5-0.1,1,0.1,1.3,0.4c0.4,0.3,0.7,0.7,0.7,1.2c0.1,0.5-0.1,1-0.4,1.4c-0.3,0.4-0.7,0.6-1.2,0.7
			C104.1,31.6,103.6,31.4,103.3,31.1z M106,57.3c-0.4-0.3-0.6-0.7-0.7-1.3c-0.1-0.5,0.1-1,0.4-1.3c0.3-0.4,0.7-0.7,1.3-0.7
			c0.5-0.1,1,0.1,1.3,0.4c0.4,0.3,0.7,0.7,0.7,1.2c0.1,0.5-0.1,1-0.4,1.4c-0.3,0.4-0.7,0.6-1.2,0.7C106.9,57.7,106.4,57.6,106,57.3z
			 M106.4,61c-0.4-0.3-0.6-0.7-0.7-1.3c-0.1-0.5,0.1-1,0.4-1.3c0.3-0.4,0.7-0.7,1.3-0.7c0.5-0.1,1,0.1,1.3,0.4
			c0.4,0.3,0.7,0.7,0.7,1.2c0.1,0.5-0.1,1-0.4,1.4c-0.3,0.4-0.7,0.6-1.2,0.7C107.3,61.5,106.8,61.4,106.4,61z M106.6,27
			c-0.4-0.3-0.6-0.7-0.7-1.3c-0.1-0.5,0.1-1,0.4-1.3c0.3-0.4,0.7-0.7,1.3-0.7c0.5-0.1,1,0.1,1.3,0.4c0.4,0.3,0.7,0.7,0.7,1.2
			c0.1,0.5-0.1,1-0.4,1.4c-0.3,0.4-0.7,0.6-1.2,0.7C107.5,27.4,107,27.3,106.6,27z M107,30.7c-0.4-0.3-0.6-0.7-0.7-1.3
			c-0.1-0.5,0.1-1,0.4-1.3c0.3-0.4,0.7-0.7,1.3-0.7c0.5-0.1,1,0.1,1.3,0.4c0.4,0.3,0.7,0.7,0.7,1.2c0.1,0.5-0.1,1-0.4,1.4
			c-0.3,0.4-0.7,0.6-1.2,0.7C107.9,31.2,107.4,31.1,107,30.7z M109.8,56.9c-0.4-0.3-0.6-0.7-0.7-1.3c-0.1-0.5,0.1-1,0.4-1.3
			c0.3-0.4,0.7-0.7,1.3-0.7c0.5-0.1,1,0.1,1.3,0.4c0.4,0.3,0.7,0.7,0.7,1.2c0.1,0.5-0.1,1-0.4,1.4c-0.3,0.4-0.7,0.6-1.2,0.7
			C110.6,57.4,110.1,57.2,109.8,56.9z M110.1,60.6c-0.4-0.3-0.6-0.7-0.7-1.3c-0.1-0.5,0.1-1,0.4-1.3c0.3-0.4,0.7-0.7,1.3-0.7
			c0.5-0.1,1,0.1,1.3,0.4c0.4,0.3,0.7,0.7,0.7,1.2c0.1,0.5-0.1,1-0.4,1.4c-0.3,0.4-0.7,0.6-1.2,0.7C111,61.1,110.5,61,110.1,60.6z
			 M110.3,26.6c-0.4-0.3-0.6-0.7-0.7-1.3c-0.1-0.5,0.1-1,0.4-1.3c0.3-0.4,0.7-0.7,1.3-0.7c0.5-0.1,1,0.1,1.3,0.4
			c0.4,0.3,0.7,0.7,0.7,1.2c0.1,0.5-0.1,1-0.4,1.4c-0.3,0.4-0.7,0.6-1.2,0.7C111.2,27,110.7,26.9,110.3,26.6z M110.7,30.3
			c-0.4-0.3-0.6-0.7-0.7-1.3c-0.1-0.5,0.1-1,0.4-1.3c0.3-0.4,0.7-0.7,1.3-0.7c0.5-0.1,1,0.1,1.3,0.4c0.4,0.3,0.7,0.7,0.7,1.2
			c0.1,0.5-0.1,1-0.4,1.4c-0.3,0.4-0.7,0.6-1.2,0.7C111.6,30.8,111.1,30.7,110.7,30.3z M113.5,56.5c-0.4-0.3-0.6-0.7-0.7-1.3
			c-0.1-0.5,0.1-1,0.4-1.3c0.3-0.4,0.7-0.7,1.3-0.7c0.5-0.1,1,0.1,1.3,0.4c0.4,0.3,0.7,0.7,0.7,1.2c0.1,0.5-0.1,1-0.4,1.4
			c-0.3,0.4-0.7,0.6-1.2,0.7C114.3,57,113.9,56.8,113.5,56.5z M113.9,60.3c-0.4-0.3-0.6-0.7-0.7-1.3c-0.1-0.5,0.1-1,0.4-1.3
			c0.3-0.4,0.7-0.7,1.3-0.7c0.5-0.1,1,0.1,1.3,0.4c0.4,0.3,0.7,0.7,0.7,1.2c0.1,0.5-0.1,1-0.4,1.4c-0.3,0.4-0.7,0.6-1.2,0.7
			C114.7,60.7,114.3,60.6,113.9,60.3z M114.1,26.2c-0.4-0.3-0.6-0.7-0.7-1.3c-0.1-0.5,0.1-1,0.4-1.3c0.3-0.4,0.7-0.7,1.3-0.7
			c0.5-0.1,1,0.1,1.3,0.4c0.4,0.3,0.7,0.7,0.7,1.2c0.1,0.5-0.1,1-0.4,1.4c-0.3,0.4-0.7,0.6-1.2,0.7
			C114.9,26.7,114.5,26.5,114.1,26.2z M114.5,30c-0.4-0.3-0.6-0.7-0.7-1.3c-0.1-0.5,0.1-1,0.4-1.3c0.3-0.4,0.7-0.7,1.3-0.7
			c0.5-0.1,1,0.1,1.3,0.4c0.4,0.3,0.7,0.7,0.7,1.2c0.1,0.5-0.1,1-0.4,1.4c-0.3,0.4-0.7,0.6-1.2,0.7C115.3,30.4,114.9,30.3,114.5,30z
			 M117.2,56.1c-0.4-0.3-0.6-0.7-0.7-1.3c-0.1-0.5,0.1-1,0.4-1.3c0.3-0.4,0.7-0.7,1.3-0.7c0.5-0.1,1,0.1,1.3,0.4
			c0.4,0.3,0.7,0.7,0.7,1.2c0.1,0.5-0.1,1-0.4,1.4c-0.3,0.4-0.7,0.6-1.2,0.7C118.1,56.6,117.6,56.4,117.2,56.1z M117.6,59.9
			c-0.4-0.3-0.6-0.7-0.7-1.3c-0.1-0.5,0.1-1,0.4-1.3c0.3-0.4,0.7-0.7,1.3-0.7c0.5-0.1,1,0.1,1.3,0.4c0.4,0.3,0.7,0.7,0.7,1.2
			c0.1,0.5-0.1,1-0.4,1.4c-0.3,0.4-0.7,0.6-1.2,0.7C118.5,60.3,118,60.2,117.6,59.9z M117.8,25.8c-0.4-0.3-0.6-0.7-0.7-1.3
			c-0.1-0.5,0.1-1,0.4-1.3c0.3-0.4,0.7-0.7,1.3-0.7c0.5-0.1,1,0.1,1.3,0.4c0.4,0.3,0.7,0.7,0.7,1.2c0.1,0.5-0.1,1-0.4,1.4
			c-0.3,0.4-0.7,0.6-1.2,0.7C118.7,26.3,118.2,26.1,117.8,25.8z M118.2,29.6c-0.4-0.3-0.6-0.7-0.7-1.3c-0.1-0.5,0.1-1,0.4-1.3
			c0.3-0.4,0.7-0.7,1.3-0.7c0.5-0.1,1,0.1,1.3,0.4c0.4,0.3,0.7,0.7,0.7,1.2c0.1,0.5-0.1,1-0.4,1.4c-0.3,0.4-0.7,0.6-1.2,0.7
			C119.1,30,118.6,29.9,118.2,29.6z M121,55.7c-0.4-0.3-0.6-0.7-0.7-1.3c-0.1-0.5,0.1-1,0.4-1.3c0.3-0.4,0.7-0.7,1.3-0.7
			c0.5-0.1,1,0.1,1.3,0.4c0.4,0.3,0.7,0.7,0.7,1.2c0.1,0.5-0.1,1-0.4,1.4c-0.3,0.4-0.7,0.6-1.2,0.7C121.8,56.2,121.4,56,121,55.7z
			 M121.4,59.5c-0.4-0.3-0.6-0.7-0.7-1.3c-0.1-0.5,0.1-1,0.4-1.3c0.3-0.4,0.7-0.7,1.3-0.7c0.5-0.1,1,0.1,1.3,0.4
			c0.4,0.3,0.7,0.7,0.7,1.2c0.1,0.5-0.1,1-0.4,1.4c-0.3,0.4-0.7,0.6-1.2,0.7C122.2,59.9,121.7,59.8,121.4,59.5z M121.6,25.4
			c-0.4-0.3-0.6-0.7-0.7-1.3c-0.1-0.5,0.1-1,0.4-1.3c0.3-0.4,0.7-0.7,1.3-0.7c0.5-0.1,1,0.1,1.3,0.4c0.4,0.3,0.7,0.7,0.7,1.2
			c0.1,0.5-0.1,1-0.4,1.4c-0.3,0.4-0.7,0.6-1.2,0.7C122.4,25.9,122,25.7,121.6,25.4z M122,29.2c-0.4-0.3-0.6-0.7-0.7-1.3
			c-0.1-0.5,0.1-1,0.4-1.3c0.3-0.4,0.7-0.7,1.3-0.7c0.5-0.1,1,0.1,1.3,0.4c0.4,0.3,0.7,0.7,0.7,1.2c0.1,0.5-0.1,1-0.4,1.4
			c-0.3,0.4-0.7,0.6-1.2,0.7C122.8,29.6,122.3,29.5,122,29.2z M124.7,55.3c-0.4-0.3-0.6-0.7-0.7-1.3c-0.1-0.5,0.1-1,0.4-1.3
			c0.3-0.4,0.7-0.7,1.3-0.7c0.5-0.1,1,0.1,1.3,0.4c0.4,0.3,0.7,0.7,0.7,1.2c0.1,0.5-0.1,1-0.4,1.4c-0.3,0.4-0.7,0.6-1.2,0.7
			C125.6,55.8,125.1,55.7,124.7,55.3z M125.1,59.1c-0.4-0.3-0.6-0.7-0.7-1.3c-0.1-0.5,0.1-1,0.4-1.3c0.3-0.4,0.7-0.7,1.3-0.7
			c0.5-0.1,1,0.1,1.3,0.4c0.4,0.3,0.7,0.7,0.7,1.2c0.1,0.5-0.1,1-0.4,1.4c-0.3,0.4-0.7,0.6-1.2,0.7C126,59.5,125.5,59.4,125.1,59.1z
			 M125.3,25c-0.4-0.3-0.6-0.7-0.7-1.3c-0.1-0.5,0.1-1,0.4-1.3c0.3-0.4,0.7-0.7,1.3-0.7c0.5-0.1,1,0.1,1.3,0.4
			c0.4,0.3,0.7,0.7,0.7,1.2c0.1,0.5-0.1,1-0.4,1.4c-0.3,0.4-0.7,0.6-1.2,0.7C126.2,25.5,125.7,25.3,125.3,25z M125.7,28.8
			c-0.4-0.3-0.6-0.7-0.7-1.3c-0.1-0.5,0.1-1,0.4-1.3c0.3-0.4,0.7-0.7,1.3-0.7c0.5-0.1,1,0.1,1.3,0.4c0.4,0.3,0.7,0.7,0.7,1.2
			c0.1,0.5-0.1,1-0.4,1.4c-0.3,0.4-0.7,0.6-1.2,0.7C126.5,29.2,126.1,29.1,125.7,28.8z M128.4,54.9c-0.4-0.3-0.6-0.7-0.7-1.3
			c-0.1-0.5,0.1-1,0.4-1.3c0.3-0.4,0.7-0.7,1.3-0.7c0.5-0.1,1,0.1,1.3,0.4c0.4,0.3,0.7,0.7,0.7,1.2c0.1,0.5-0.1,1-0.4,1.4
			c-0.3,0.4-0.7,0.6-1.2,0.7C129.3,55.4,128.8,55.3,128.4,54.9z M128.8,58.7c-0.4-0.3-0.6-0.7-0.7-1.3c-0.1-0.5,0.1-1,0.4-1.3
			c0.3-0.4,0.7-0.7,1.3-0.7c0.5-0.1,1,0.1,1.3,0.4c0.4,0.3,0.7,0.7,0.7,1.2c0.1,0.5-0.1,1-0.4,1.4c-0.3,0.4-0.7,0.6-1.2,0.7
			C129.7,59.1,129.2,59,128.8,58.7z M126.4,32.2c-0.4-0.3-0.6-0.6-0.6-1.1c0-0.3,0.1-0.6,0.3-1c0.3-0.4,0.7-0.6,1.1-0.6
			c0.3,0,0.6,0.1,1,0.3c0.4,0.3,0.6,0.6,0.6,1c0,0.4-0.1,0.8-0.3,1.2c-0.3,0.3-0.6,0.5-1,0.5C127.1,32.6,126.8,32.5,126.4,32.2z
			 M128.4,50.9c-0.4-0.3-0.6-0.6-0.6-1.1c0-0.3,0.1-0.6,0.3-1c0.3-0.4,0.7-0.6,1.1-0.6c0.3,0,0.6,0.1,1,0.3c0.4,0.3,0.6,0.6,0.6,1
			c0,0.4-0.1,0.8-0.3,1.2c-0.3,0.3-0.6,0.5-1,0.5C129.1,51.3,128.7,51.2,128.4,50.9z M129,24.6c-0.4-0.3-0.6-0.7-0.7-1.3
			c-0.1-0.5,0.1-1,0.4-1.3c0.3-0.4,0.7-0.7,1.3-0.7c0.5-0.1,1,0.1,1.3,0.4c0.4,0.3,0.7,0.7,0.7,1.2c0.1,0.5-0.1,1-0.4,1.4
			c-0.3,0.4-0.7,0.6-1.2,0.7C129.9,25.1,129.4,25,129,24.6z M129.4,28.4c-0.4-0.3-0.6-0.7-0.7-1.3c-0.1-0.5,0.1-1,0.4-1.3
			c0.3-0.4,0.7-0.7,1.3-0.7c0.5-0.1,1,0.1,1.3,0.4c0.4,0.3,0.7,0.7,0.7,1.2c0.1,0.5-0.1,1-0.4,1.4c-0.3,0.4-0.7,0.6-1.2,0.7
			C130.3,28.8,129.8,28.7,129.4,28.4z M132.2,54.6c-0.4-0.3-0.6-0.7-0.7-1.3c-0.1-0.5,0.1-1,0.4-1.3c0.3-0.4,0.7-0.7,1.3-0.7
			c0.5-0.1,1,0.1,1.3,0.4c0.4,0.3,0.7,0.7,0.7,1.2c0.1,0.5-0.1,1-0.4,1.4c-0.3,0.4-0.7,0.6-1.2,0.7C133,55,132.6,54.9,132.2,54.6z
			 M132.6,58.3c-0.4-0.3-0.6-0.7-0.7-1.3c-0.1-0.5,0.1-1,0.4-1.3c0.3-0.4,0.7-0.7,1.3-0.7c0.5-0.1,1,0.1,1.3,0.4
			c0.4,0.3,0.7,0.7,0.7,1.2c0.1,0.5-0.1,1-0.4,1.4c-0.3,0.4-0.7,0.6-1.2,0.7C133.4,58.7,133,58.6,132.6,58.3z M130.2,31.8
			c-0.4-0.3-0.6-0.6-0.6-1.1c0-0.3,0.1-0.6,0.3-1c0.3-0.4,0.7-0.6,1.1-0.6c0.3,0,0.6,0.1,1,0.3c0.4,0.3,0.6,0.6,0.6,1
			c0,0.4-0.1,0.8-0.3,1.2c-0.3,0.3-0.6,0.5-1,0.5C130.8,32.2,130.5,32.1,130.2,31.8z M130.5,35.6c-0.4-0.3-0.6-0.6-0.6-1.1
			c0-0.3,0.1-0.6,0.3-1c0.3-0.4,0.7-0.6,1.1-0.6c0.3,0,0.6,0.1,1,0.3c0.4,0.3,0.6,0.6,0.6,1c0,0.4-0.1,0.8-0.3,1.2
			c-0.3,0.3-0.6,0.5-1,0.5C131.2,35.9,130.9,35.8,130.5,35.6z M131.7,46.8c-0.4-0.3-0.6-0.6-0.6-1.1c0-0.3,0.1-0.6,0.3-1
			c0.3-0.4,0.7-0.6,1.1-0.6c0.3,0,0.6,0.1,1,0.3c0.4,0.3,0.6,0.6,0.6,1c0,0.4-0.1,0.8-0.3,1.2c-0.3,0.3-0.6,0.5-1,0.5
			C132.4,47.1,132.1,47,131.7,46.8z M132.1,50.5c-0.4-0.3-0.6-0.6-0.6-1.1c0-0.3,0.1-0.6,0.3-1c0.3-0.4,0.7-0.6,1.1-0.6
			c0.3,0,0.6,0.1,1,0.3c0.4,0.3,0.6,0.6,0.6,1c0,0.4-0.1,0.8-0.3,1.2c-0.3,0.3-0.6,0.5-1,0.5C132.8,50.9,132.5,50.8,132.1,50.5z
			 M131.1,39c-0.3-0.2-0.5-0.5-0.5-0.8c0-0.2,0.1-0.5,0.3-0.7c0.2-0.3,0.5-0.5,0.8-0.5c0.2,0,0.5,0.1,0.7,0.3
			c0.3,0.2,0.5,0.4,0.5,0.7c0,0.3-0.1,0.6-0.3,0.9c-0.2,0.3-0.4,0.4-0.7,0.4C131.7,39.3,131.4,39.2,131.1,39z M131.5,42.7
			c-0.3-0.2-0.5-0.5-0.5-0.8c0-0.2,0.1-0.5,0.3-0.7c0.2-0.3,0.5-0.5,0.8-0.5c0.2,0,0.5,0.1,0.7,0.3c0.3,0.2,0.5,0.4,0.5,0.7
			c0,0.3-0.1,0.6-0.3,0.9c-0.2,0.3-0.4,0.4-0.7,0.4C132.1,43,131.8,43,131.5,42.7z M133.2,28c-0.4-0.3-0.6-0.7-0.7-1.3
			c-0.1-0.5,0.1-1,0.4-1.3c0.3-0.4,0.7-0.7,1.3-0.7c0.5-0.1,1,0.1,1.3,0.4c0.4,0.3,0.7,0.7,0.7,1.2c0.1,0.5-0.1,1-0.4,1.4
			c-0.3,0.4-0.7,0.6-1.2,0.7C134,28.4,133.6,28.3,133.2,28z M135.9,54.2c-0.4-0.3-0.6-0.7-0.7-1.3c-0.1-0.5,0.1-1,0.4-1.3
			c0.3-0.4,0.7-0.7,1.3-0.7c0.5-0.1,1,0.1,1.3,0.4c0.4,0.3,0.7,0.7,0.7,1.2c0.1,0.5-0.1,1-0.4,1.4c-0.3,0.4-0.7,0.6-1.2,0.7
			C136.8,54.6,136.3,54.5,135.9,54.2z M133.9,31.5c-0.4-0.3-0.6-0.6-0.6-1.1c0-0.3,0.1-0.6,0.3-1c0.3-0.4,0.7-0.6,1.1-0.6
			c0.3,0,0.6,0.1,1,0.3c0.4,0.3,0.6,0.6,0.6,1c0,0.4-0.1,0.8-0.3,1.2c-0.3,0.3-0.6,0.5-1,0.5C134.6,31.8,134.2,31.7,133.9,31.5z
			 M134.3,35.2c-0.4-0.3-0.6-0.6-0.6-1.1c0-0.3,0.1-0.6,0.3-1c0.3-0.4,0.7-0.6,1.1-0.6c0.3,0,0.6,0.1,1,0.3c0.4,0.3,0.6,0.6,0.6,1
			c0,0.4-0.1,0.8-0.3,1.2c-0.3,0.3-0.6,0.5-1,0.5C135,35.5,134.6,35.4,134.3,35.2z M135.5,46.4c-0.4-0.3-0.6-0.6-0.6-1.1
			c0-0.3,0.1-0.6,0.3-1c0.3-0.4,0.7-0.6,1.1-0.6c0.3,0,0.6,0.1,1,0.3c0.4,0.3,0.6,0.6,0.6,1c0,0.4-0.1,0.8-0.3,1.2
			c-0.3,0.3-0.6,0.5-1,0.5C136.2,46.8,135.8,46.7,135.5,46.4z M135.9,50.1c-0.4-0.3-0.6-0.6-0.6-1.1c0-0.3,0.1-0.6,0.3-1
			c0.3-0.4,0.7-0.6,1.1-0.6c0.3,0,0.6,0.1,1,0.3c0.4,0.3,0.6,0.6,0.6,1c0,0.4-0.1,0.8-0.3,1.2c-0.3,0.3-0.6,0.5-1,0.5
			C136.5,50.5,136.2,50.4,135.9,50.1z M134.9,38.6c-0.3-0.2-0.5-0.5-0.5-0.8c0-0.2,0.1-0.5,0.3-0.7c0.2-0.3,0.5-0.5,0.8-0.5
			c0.2,0,0.5,0.1,0.7,0.3c0.3,0.2,0.5,0.4,0.5,0.7c0,0.3-0.1,0.6-0.3,0.9c-0.2,0.3-0.4,0.4-0.7,0.4
			C135.4,38.9,135.1,38.8,134.9,38.6z M135.3,42.4c-0.3-0.2-0.5-0.5-0.5-0.8c0-0.2,0.1-0.5,0.3-0.7c0.2-0.3,0.5-0.5,0.8-0.5
			c0.2,0,0.5,0.1,0.7,0.3c0.3,0.2,0.5,0.4,0.5,0.7c0,0.3-0.1,0.6-0.3,0.9c-0.2,0.3-0.4,0.4-0.7,0.4
			C135.8,42.7,135.5,42.6,135.3,42.4z M137.6,31.1c-0.4-0.3-0.6-0.6-0.6-1.1c0-0.3,0.1-0.6,0.3-1c0.3-0.4,0.7-0.6,1.1-0.6
			c0.3,0,0.6,0.1,1,0.3c0.4,0.3,0.6,0.6,0.6,1c0,0.4-0.1,0.8-0.3,1.2c-0.3,0.3-0.6,0.5-1,0.5C138.3,31.4,138,31.3,137.6,31.1z
			 M138,34.8c-0.4-0.3-0.6-0.6-0.6-1.1c0-0.3,0.1-0.6,0.3-1c0.3-0.4,0.7-0.6,1.1-0.6c0.3,0,0.6,0.1,1,0.3c0.4,0.3,0.6,0.6,0.6,1
			c0,0.4-0.1,0.8-0.3,1.2c-0.3,0.3-0.6,0.5-1,0.5C138.7,35.1,138.4,35,138,34.8z M139.2,46c-0.4-0.3-0.6-0.6-0.6-1.1
			c0-0.3,0.1-0.6,0.3-1c0.3-0.4,0.7-0.6,1.1-0.6c0.3,0,0.6,0.1,1,0.3c0.4,0.3,0.6,0.6,0.6,1c0,0.4-0.1,0.8-0.3,1.2
			c-0.3,0.3-0.6,0.5-1,0.5C139.9,46.4,139.5,46.3,139.2,46z M139.6,49.8c-0.4-0.3-0.6-0.6-0.6-1.1c0-0.3,0.1-0.6,0.3-1
			c0.3-0.4,0.7-0.6,1.1-0.6c0.3,0,0.6,0.1,1,0.3c0.4,0.3,0.6,0.6,0.6,1c0,0.4-0.1,0.8-0.3,1.2c-0.3,0.3-0.6,0.5-1,0.5
			C140.3,50.1,139.9,50,139.6,49.8z M138.6,38.2c-0.3-0.2-0.5-0.5-0.5-0.8c0-0.2,0.1-0.5,0.3-0.7c0.2-0.3,0.5-0.5,0.8-0.5
			c0.2,0,0.5,0.1,0.7,0.3c0.3,0.2,0.5,0.4,0.5,0.7c0,0.3-0.1,0.6-0.3,0.9c-0.2,0.3-0.4,0.4-0.7,0.4
			C139.1,38.5,138.9,38.4,138.6,38.2z M139,42c-0.3-0.2-0.5-0.5-0.5-0.8c0-0.2,0.1-0.5,0.3-0.7c0.2-0.3,0.5-0.5,0.8-0.5
			c0.2,0,0.5,0.1,0.7,0.3c0.3,0.2,0.5,0.4,0.5,0.7c0,0.3-0.1,0.6-0.3,0.9c-0.2,0.3-0.4,0.4-0.7,0.4C139.5,42.3,139.3,42.2,139,42z
			 M0.7,38.1c-0.4-0.3-0.6-0.7-0.7-1.3c-0.1-0.5,0.1-1,0.4-1.3c0.3-0.4,0.7-0.7,1.3-0.7c0.5-0.1,1,0.1,1.3,0.4
			c0.4,0.3,0.7,0.7,0.7,1.2c0.1,0.5-0.1,1-0.4,1.4c-0.3,0.4-0.7,0.6-1.2,0.7C1.5,38.6,1.1,38.4,0.7,38.1z M1.1,41.9
			c-0.4-0.3-0.6-0.7-0.7-1.3c-0.1-0.5,0.1-1,0.4-1.3c0.3-0.4,0.7-0.7,1.3-0.7c0.5-0.1,1,0.1,1.3,0.4c0.4,0.3,0.7,0.7,0.7,1.2
			c0.1,0.5-0.1,1-0.4,1.4C3.4,42,3,42.2,2.5,42.3C1.9,42.3,1.5,42.2,1.1,41.9z M3.8,68c-0.4-0.3-0.6-0.7-0.7-1.3
			c-0.1-0.5,0.1-1,0.4-1.3c0.3-0.4,0.7-0.7,1.3-0.7c0.5-0.1,1,0.1,1.3,0.4c0.4,0.3,0.7,0.7,0.7,1.2c0.1,0.5-0.1,1-0.4,1.4
			c-0.3,0.4-0.7,0.6-1.2,0.7C4.7,68.5,4.2,68.4,3.8,68z M4.2,71.8c-0.4-0.3-0.6-0.7-0.7-1.3c-0.1-0.5,0.1-1,0.4-1.3
			c0.3-0.4,0.7-0.7,1.3-0.7c0.5-0.1,1,0.1,1.3,0.4c0.4,0.3,0.7,0.7,0.7,1.2c0.1,0.5-0.1,1-0.4,1.4c-0.3,0.4-0.7,0.6-1.2,0.7
			C5.1,72.2,4.6,72.1,4.2,71.8z M1.8,45.3c-0.4-0.3-0.6-0.6-0.6-1.1c0-0.3,0.1-0.6,0.3-1c0.3-0.4,0.7-0.6,1.1-0.6
			c0.3,0,0.6,0.1,1,0.3c0.4,0.3,0.6,0.6,0.6,1c0,0.4-0.1,0.8-0.3,1.2c-0.3,0.3-0.6,0.5-1,0.5C2.5,45.7,2.1,45.6,1.8,45.3z M2.2,49.1
			c-0.4-0.3-0.6-0.6-0.6-1.1c0-0.3,0.1-0.6,0.3-1c0.3-0.4,0.7-0.6,1.1-0.6c0.3,0,0.6,0.1,1,0.3c0.4,0.3,0.6,0.6,0.6,1
			c0,0.4-0.1,0.8-0.3,1.2c-0.3,0.3-0.6,0.5-1,0.5C2.9,49.4,2.5,49.3,2.2,49.1z M3.4,60.3C3,60,2.8,59.7,2.7,59.2
			c0-0.3,0.1-0.6,0.3-1c0.3-0.4,0.7-0.6,1.1-0.6c0.3,0,0.6,0.1,1,0.3c0.4,0.3,0.6,0.6,0.6,1c0,0.4-0.1,0.8-0.3,1.2
			c-0.3,0.3-0.6,0.5-1,0.5C4,60.6,3.7,60.5,3.4,60.3z M3.8,64c-0.4-0.3-0.6-0.6-0.6-1.1c0-0.3,0.1-0.6,0.3-1
			c0.3-0.4,0.7-0.6,1.1-0.6c0.3,0,0.6,0.1,1,0.3c0.4,0.3,0.6,0.6,0.6,1c0,0.4-0.1,0.8-0.3,1.2c-0.3,0.3-0.6,0.5-1,0.5
			C4.4,64.4,4.1,64.3,3.8,64z M2.8,52.5c-0.3-0.2-0.5-0.5-0.5-0.8c0-0.2,0.1-0.5,0.3-0.7c0.2-0.3,0.5-0.5,0.8-0.5
			c0.2,0,0.5,0.1,0.7,0.3c0.3,0.2,0.5,0.4,0.5,0.7c0,0.3-0.1,0.6-0.3,0.9c-0.2,0.3-0.4,0.4-0.7,0.4C3.3,52.8,3,52.7,2.8,52.5z
			 M3.2,56.2c-0.3-0.2-0.5-0.5-0.5-0.8c0-0.2,0.1-0.5,0.3-0.7c0.2-0.3,0.5-0.5,0.8-0.5c0.2,0,0.5,0.1,0.7,0.3
			C4.8,54.7,4.9,55,5,55.2c0,0.3-0.1,0.6-0.3,0.9c-0.2,0.3-0.4,0.4-0.7,0.4C3.7,56.5,3.4,56.4,3.2,56.2z M4.4,37.7
			C4,37.4,3.8,37,3.8,36.5c-0.1-0.5,0.1-1,0.4-1.3c0.3-0.4,0.7-0.7,1.3-0.7c0.5-0.1,1,0.1,1.3,0.4c0.4,0.3,0.7,0.7,0.7,1.2
			c0.1,0.5-0.1,1-0.4,1.4c-0.3,0.4-0.7,0.6-1.2,0.7C5.3,38.2,4.8,38.1,4.4,37.7z M4.8,41.5c-0.4-0.3-0.6-0.7-0.7-1.3
			c-0.1-0.5,0.1-1,0.4-1.3c0.3-0.4,0.7-0.7,1.3-0.7c0.5-0.1,1,0.1,1.3,0.4c0.4,0.3,0.7,0.7,0.7,1.2c0.1,0.5-0.1,1-0.4,1.4
			c-0.3,0.4-0.7,0.6-1.2,0.7C5.7,41.9,5.2,41.8,4.8,41.5z M7.6,67.7c-0.4-0.3-0.6-0.7-0.7-1.3c-0.1-0.5,0.1-1,0.4-1.3
			c0.3-0.4,0.7-0.7,1.3-0.7c0.5-0.1,1,0.1,1.3,0.4c0.4,0.3,0.7,0.7,0.7,1.2c0.1,0.5-0.1,1-0.4,1.4C9.9,67.8,9.5,68,9,68
			C8.4,68.1,7.9,68,7.6,67.7z M8,71.4c-0.4-0.3-0.6-0.7-0.7-1.3c-0.1-0.5,0.1-1,0.4-1.3C8,68.3,8.4,68.1,9,68c0.5-0.1,1,0.1,1.3,0.4
			c0.4,0.3,0.7,0.7,0.7,1.2c0.1,0.5-0.1,1-0.4,1.4c-0.3,0.4-0.7,0.6-1.2,0.7C8.8,71.8,8.3,71.7,8,71.4z M5.5,44.9
			c-0.4-0.3-0.6-0.6-0.6-1.1c0-0.3,0.1-0.6,0.3-1c0.3-0.4,0.7-0.6,1.1-0.6c0.3,0,0.6,0.1,1,0.3c0.4,0.3,0.6,0.6,0.6,1
			c0,0.4-0.1,0.8-0.3,1.2c-0.3,0.3-0.6,0.5-1,0.5C6.2,45.3,5.9,45.2,5.5,44.9z M5.9,48.7c-0.4-0.3-0.6-0.6-0.6-1.1
			c0-0.3,0.1-0.6,0.3-1c0.3-0.4,0.7-0.6,1.1-0.6c0.3,0,0.6,0.1,1,0.3c0.4,0.3,0.6,0.6,0.6,1c0,0.4-0.1,0.8-0.3,1.2
			c-0.3,0.3-0.6,0.5-1,0.5C6.6,49,6.3,48.9,5.9,48.7z M7.1,59.9c-0.4-0.3-0.6-0.6-0.6-1.1c0-0.3,0.1-0.6,0.3-1
			c0.3-0.4,0.7-0.6,1.1-0.6c0.3,0,0.6,0.1,1,0.3c0.4,0.3,0.6,0.6,0.6,1c0,0.4-0.1,0.8-0.3,1.2c-0.3,0.3-0.6,0.5-1,0.5
			C7.8,60.2,7.4,60.1,7.1,59.9z M7.5,63.6c-0.4-0.3-0.6-0.6-0.6-1.1c0-0.3,0.1-0.6,0.3-1C7.5,61.2,7.8,61,8.2,61
			c0.3,0,0.6,0.1,1,0.3c0.4,0.3,0.6,0.6,0.6,1c0,0.4-0.1,0.8-0.3,1.2c-0.3,0.3-0.6,0.5-1,0.5C8.2,64,7.8,63.9,7.5,63.6z M6.5,52.1
			c-0.3-0.2-0.5-0.5-0.5-0.8c0-0.2,0.1-0.5,0.3-0.7c0.2-0.3,0.5-0.5,0.8-0.5c0.2,0,0.5,0.1,0.7,0.3c0.3,0.2,0.5,0.4,0.5,0.7
			c0,0.3-0.1,0.6-0.3,0.9c-0.2,0.3-0.4,0.4-0.7,0.4C7,52.4,6.8,52.3,6.5,52.1z M6.9,55.8c-0.3-0.2-0.5-0.5-0.5-0.8
			c0-0.2,0.1-0.5,0.3-0.7c0.2-0.3,0.5-0.5,0.8-0.5c0.2,0,0.5,0.1,0.7,0.3c0.3,0.2,0.5,0.4,0.5,0.7c0,0.3-0.1,0.6-0.3,0.9
			c-0.2,0.3-0.4,0.4-0.7,0.4C7.4,56.1,7.2,56.1,6.9,55.8z M8.2,37.3c-0.4-0.3-0.6-0.7-0.7-1.3c-0.1-0.5,0.1-1,0.4-1.3
			C8.2,34.3,8.6,34,9.2,34c0.5-0.1,1,0.1,1.3,0.4c0.4,0.3,0.7,0.7,0.7,1.2c0.1,0.5-0.1,1-0.4,1.4c-0.3,0.4-0.7,0.6-1.2,0.7
			C9,37.8,8.5,37.7,8.2,37.3z M8.5,41.1c-0.4-0.3-0.6-0.7-0.7-1.3c-0.1-0.5,0.1-1,0.4-1.3C8.6,38,9,37.8,9.6,37.7
			c0.5-0.1,1,0.1,1.3,0.4c0.4,0.3,0.7,0.7,0.7,1.2c0.1,0.5-0.1,1-0.4,1.4c-0.3,0.4-0.7,0.6-1.2,0.7C9.4,41.5,8.9,41.4,8.5,41.1z
			 M11.3,67.3c-0.4-0.3-0.6-0.7-0.7-1.3c-0.1-0.5,0.1-1,0.4-1.3c0.3-0.4,0.7-0.7,1.3-0.7c0.5-0.1,1,0.1,1.3,0.4
			c0.4,0.3,0.7,0.7,0.7,1.2c0.1,0.5-0.1,1-0.4,1.4c-0.3,0.4-0.7,0.6-1.2,0.7C12.2,67.7,11.7,67.6,11.3,67.3z M11.7,71
			c-0.4-0.3-0.6-0.7-0.7-1.3c-0.1-0.5,0.1-1,0.4-1.3c0.3-0.4,0.7-0.7,1.3-0.7c0.5-0.1,1,0.1,1.3,0.4c0.4,0.3,0.7,0.7,0.7,1.2
			c0.1,0.5-0.1,1-0.4,1.4c-0.3,0.4-0.7,0.6-1.2,0.7C12.5,71.4,12.1,71.3,11.7,71z M9.3,44.6c-0.4-0.3-0.6-0.6-0.6-1.1
			c0-0.3,0.1-0.6,0.3-1c0.3-0.4,0.7-0.6,1.1-0.6c0.3,0,0.6,0.1,1,0.3c0.4,0.3,0.6,0.6,0.6,1c0,0.4-0.1,0.8-0.3,1.2
			c-0.3,0.3-0.6,0.5-1,0.5C10,44.9,9.6,44.8,9.3,44.6z M9.7,48.3C9.3,48,9.1,47.7,9,47.2c0-0.3,0.1-0.6,0.3-1
			c0.3-0.4,0.7-0.6,1.1-0.6c0.3,0,0.6,0.1,1,0.3c0.4,0.3,0.6,0.6,0.6,1c0,0.4-0.1,0.8-0.3,1.2c-0.3,0.3-0.6,0.5-1,0.5
			C10.3,48.6,10,48.5,9.7,48.3z M10.8,59.5c-0.4-0.3-0.6-0.6-0.6-1.1c0-0.3,0.1-0.6,0.3-1c0.3-0.4,0.7-0.6,1.1-0.6
			c0.3,0,0.6,0.1,1,0.3c0.4,0.3,0.6,0.6,0.6,1c0,0.4-0.1,0.8-0.3,1.2c-0.3,0.3-0.6,0.5-1,0.5C11.5,59.9,11.2,59.7,10.8,59.5z
			 M11.2,63.2c-0.4-0.3-0.6-0.6-0.6-1.1c0-0.3,0.1-0.6,0.3-1c0.3-0.4,0.7-0.6,1.1-0.6c0.3,0,0.6,0.1,1,0.3c0.4,0.3,0.6,0.6,0.6,1
			c0,0.4-0.1,0.8-0.3,1.2c-0.3,0.3-0.6,0.5-1,0.5C11.9,63.6,11.6,63.5,11.2,63.2z M10.3,51.7c-0.3-0.2-0.5-0.5-0.5-0.8
			c0-0.2,0.1-0.5,0.3-0.7c0.2-0.3,0.5-0.5,0.8-0.5c0.2,0,0.5,0.1,0.7,0.3c0.3,0.2,0.5,0.4,0.5,0.7c0,0.3-0.1,0.6-0.3,0.9
			c-0.2,0.3-0.4,0.4-0.7,0.4C10.8,52,10.5,51.9,10.3,51.7z M10.7,55.5c-0.3-0.2-0.5-0.5-0.5-0.8c0-0.2,0.1-0.5,0.3-0.7
			c0.2-0.3,0.5-0.5,0.8-0.5c0.2,0,0.5,0.1,0.7,0.3c0.3,0.2,0.5,0.4,0.5,0.7c0,0.3-0.1,0.6-0.3,0.9c-0.2,0.3-0.4,0.4-0.7,0.4
			C11.2,55.8,10.9,55.7,10.7,55.5z M15,66.9c-0.4-0.3-0.6-0.7-0.7-1.3c-0.1-0.5,0.1-1,0.4-1.3c0.3-0.4,0.7-0.7,1.3-0.7
			c0.5-0.1,1,0.1,1.3,0.4c0.4,0.3,0.7,0.7,0.7,1.2c0.1,0.5-0.1,1-0.4,1.4c-0.3,0.4-0.7,0.6-1.2,0.7C15.9,67.3,15.4,67.2,15,66.9z
			 M15.4,70.6c-0.4-0.3-0.6-0.7-0.7-1.3c-0.1-0.5,0.1-1,0.4-1.3c0.3-0.4,0.7-0.7,1.3-0.7c0.5-0.1,1,0.1,1.3,0.4
			c0.4,0.3,0.7,0.7,0.7,1.2c0.1,0.5-0.1,1-0.4,1.4c-0.3,0.4-0.7,0.6-1.2,0.7C16.3,71,15.8,70.9,15.4,70.6z M18.8,66.5
			c-0.4-0.3-0.6-0.7-0.7-1.3c-0.1-0.5,0.1-1,0.4-1.3c0.3-0.4,0.7-0.7,1.3-0.7c0.5-0.1,1,0.1,1.3,0.4c0.4,0.3,0.7,0.7,0.7,1.2
			c0.1,0.5-0.1,1-0.4,1.4c-0.3,0.4-0.7,0.6-1.2,0.7C19.6,66.9,19.2,66.8,18.8,66.5z M19.2,70.2c-0.4-0.3-0.6-0.7-0.7-1.3
			c-0.1-0.5,0.1-1,0.4-1.3c0.3-0.4,0.7-0.7,1.3-0.7c0.5-0.1,1,0.1,1.3,0.4c0.4,0.3,0.7,0.7,0.7,1.2c0.1,0.5-0.1,1-0.4,1.4
			c-0.3,0.4-0.7,0.6-1.2,0.7C20,70.7,19.6,70.5,19.2,70.2z M22.5,66.1c-0.4-0.3-0.6-0.7-0.7-1.3c-0.1-0.5,0.1-1,0.4-1.3
			c0.3-0.4,0.7-0.7,1.3-0.7c0.5-0.1,1,0.1,1.3,0.4c0.4,0.3,0.7,0.7,0.7,1.2c0.1,0.5-0.1,1-0.4,1.4c-0.3,0.4-0.7,0.6-1.2,0.7
			C23.4,66.5,22.9,66.4,22.5,66.1z M22.9,69.8c-0.4-0.3-0.6-0.7-0.7-1.3c-0.1-0.5,0.1-1,0.4-1.3c0.3-0.4,0.7-0.7,1.3-0.7
			c0.5-0.1,1,0.1,1.3,0.4c0.4,0.3,0.7,0.7,0.7,1.2c0.1,0.5-0.1,1-0.4,1.4c-0.3,0.4-0.7,0.6-1.2,0.7C23.8,70.3,23.3,70.1,22.9,69.8z
			 M26.3,65.7c-0.4-0.3-0.6-0.7-0.7-1.3c-0.1-0.5,0.1-1,0.4-1.3c0.3-0.4,0.7-0.7,1.3-0.7c0.5-0.1,1,0.1,1.3,0.4
			c0.4,0.3,0.7,0.7,0.7,1.2c0.1,0.5-0.1,1-0.4,1.4c-0.3,0.4-0.7,0.6-1.2,0.7C27.1,66.1,26.6,66,26.3,65.7z M26.6,69.4
			c-0.4-0.3-0.6-0.7-0.7-1.3c-0.1-0.5,0.1-1,0.4-1.3c0.3-0.4,0.7-0.7,1.3-0.7c0.5-0.1,1,0.1,1.3,0.4c0.4,0.3,0.7,0.7,0.7,1.2
			c0.1,0.5-0.1,1-0.4,1.4c-0.3,0.4-0.7,0.6-1.2,0.7C27.5,69.9,27,69.7,26.6,69.4z M30,65.3c-0.4-0.3-0.6-0.7-0.7-1.3
			c-0.1-0.5,0.1-1,0.4-1.3c0.3-0.4,0.7-0.7,1.3-0.7c0.5-0.1,1,0.1,1.3,0.4c0.4,0.3,0.7,0.7,0.7,1.2c0.1,0.5-0.1,1-0.4,1.4
			c-0.3,0.4-0.7,0.6-1.2,0.7C30.8,65.7,30.4,65.6,30,65.3z M30.4,69c-0.4-0.3-0.6-0.7-0.7-1.3c-0.1-0.5,0.1-1,0.4-1.3
			c0.3-0.4,0.7-0.7,1.3-0.7c0.5-0.1,1,0.1,1.3,0.4c0.4,0.3,0.7,0.7,0.7,1.2c0.1,0.5-0.1,1-0.4,1.4c-0.3,0.4-0.7,0.6-1.2,0.7
			C31.2,69.5,30.8,69.3,30.4,69z M33.7,64.9c-0.4-0.3-0.6-0.7-0.7-1.3c-0.1-0.5,0.1-1,0.4-1.3c0.3-0.4,0.7-0.7,1.3-0.7
			c0.5-0.1,1,0.1,1.3,0.4c0.4,0.3,0.7,0.7,0.7,1.2c0.1,0.5-0.1,1-0.4,1.4c-0.3,0.4-0.7,0.6-1.2,0.7C34.6,65.3,34.1,65.2,33.7,64.9z
			 M34.1,68.6c-0.4-0.3-0.6-0.7-0.7-1.3c-0.1-0.5,0.1-1,0.4-1.3c0.3-0.4,0.7-0.7,1.3-0.7c0.5-0.1,1,0.1,1.3,0.4
			c0.4,0.3,0.7,0.7,0.7,1.2c0.1,0.5-0.1,1-0.4,1.4C36.4,68.8,36,69,35.5,69C35,69.1,34.5,69,34.1,68.6z M37.5,64.5
			c-0.4-0.3-0.6-0.7-0.7-1.3c-0.1-0.5,0.1-1,0.4-1.3c0.3-0.4,0.7-0.7,1.3-0.7c0.5-0.1,1,0.1,1.3,0.4c0.4,0.3,0.7,0.7,0.7,1.2
			c0.1,0.5-0.1,1-0.4,1.4c-0.3,0.4-0.7,0.6-1.2,0.7C38.3,64.9,37.9,64.8,37.5,64.5z M37.9,68.2c-0.4-0.3-0.6-0.7-0.7-1.3
			c-0.1-0.5,0.1-1,0.4-1.3c0.3-0.4,0.7-0.7,1.3-0.7c0.5-0.1,1,0.1,1.3,0.4c0.4,0.3,0.7,0.7,0.7,1.2c0.1,0.5-0.1,1-0.4,1.4
			c-0.3,0.4-0.7,0.6-1.2,0.7C38.7,68.7,38.3,68.6,37.9,68.2z M41.2,64.1c-0.4-0.3-0.6-0.7-0.7-1.3c-0.1-0.5,0.1-1,0.4-1.3
			c0.3-0.4,0.7-0.7,1.3-0.7c0.5-0.1,1,0.1,1.3,0.4c0.4,0.3,0.7,0.7,0.7,1.2c0.1,0.5-0.1,1-0.4,1.4c-0.3,0.4-0.7,0.6-1.2,0.7
			C42.1,64.6,41.6,64.4,41.2,64.1z M41.6,67.9c-0.4-0.3-0.6-0.7-0.7-1.3c-0.1-0.5,0.1-1,0.4-1.3c0.3-0.4,0.7-0.7,1.3-0.7
			c0.5-0.1,1,0.1,1.3,0.4c0.4,0.3,0.7,0.7,0.7,1.2c0.1,0.5-0.1,1-0.4,1.4c-0.3,0.4-0.7,0.6-1.2,0.7C42.5,68.3,42,68.2,41.6,67.9z
			 M45,63.7c-0.4-0.3-0.6-0.7-0.7-1.3c-0.1-0.5,0.1-1,0.4-1.3c0.3-0.4,0.7-0.7,1.3-0.7c0.5-0.1,1,0.1,1.3,0.4
			c0.4,0.3,0.7,0.7,0.7,1.2c0.1,0.5-0.1,1-0.4,1.4c-0.3,0.4-0.7,0.6-1.2,0.7C45.8,64.2,45.3,64,45,63.7z M45.3,67.5
			c-0.4-0.3-0.6-0.7-0.7-1.3c-0.1-0.5,0.1-1,0.4-1.3c0.3-0.4,0.7-0.7,1.3-0.7c0.5-0.1,1,0.1,1.3,0.4c0.4,0.3,0.7,0.7,0.7,1.2
			c0.1,0.5-0.1,1-0.4,1.4c-0.3,0.4-0.7,0.6-1.2,0.7C46.2,67.9,45.7,67.8,45.3,67.5z M48.7,63.3C48.3,63,48.1,62.6,48,62
			c-0.1-0.5,0.1-1,0.4-1.3c0.3-0.4,0.7-0.7,1.3-0.7c0.5-0.1,1,0.1,1.3,0.4c0.4,0.3,0.7,0.7,0.7,1.2c0.1,0.5-0.1,1-0.4,1.4
			c-0.3,0.4-0.7,0.6-1.2,0.7C49.5,63.8,49.1,63.6,48.7,63.3z M49.1,67.1c-0.4-0.3-0.6-0.7-0.7-1.3c-0.1-0.5,0.1-1,0.4-1.3
			c0.3-0.4,0.7-0.7,1.3-0.7c0.5-0.1,1,0.1,1.3,0.4c0.4,0.3,0.7,0.7,0.7,1.2c0.1,0.5-0.1,1-0.4,1.4c-0.3,0.4-0.7,0.6-1.2,0.7
			C49.9,67.5,49.5,67.4,49.1,67.1z"/>
	</g>
</g>
</svg>
