<?xml version="1.0" encoding="utf-8"?>
<!-- Generator: Adobe Illustrator 21.1.0, SVG Export Plug-In . SVG Version: 6.00 Build 0)  -->
<svg version="1.1" id="LOGOS" xmlns="http://www.w3.org/2000/svg" xmlns:xlink="http://www.w3.org/1999/xlink" x="0px" y="0px"
	 viewBox="0 0 288 150.857" style="enable-background:new 0 0 288 150.857;" xml:space="preserve">
<style type="text/css">
	.Arched_x0020_Green{fill:url(#SVGID_1_);stroke:#FFFFFF;stroke-width:0.25;stroke-miterlimit:1;}
	.st0{fill:#929497;}
	.st1{fill:url(#SVGID_2_);}
	.st2{fill:url(#SVGID_3_);}
</style>
<linearGradient id="SVGID_1_" gradientUnits="userSpaceOnUse" x1="361.3212" y1="214.1431" x2="362.0283" y2="213.436">
	<stop  offset="0" style="stop-color:#20AC4B"/>
	<stop  offset="0.9831" style="stop-color:#19361A"/>
</linearGradient>
<g>
	<g>
		<path class="st0" d="M12.637,148.559c3.518,0,6.426-1.365,8.365-3.411l1.221,1.758c-2.37,2.549-5.708,3.95-9.586,3.95
			C5.421,150.857,0,145.435,0,138.292c0-7.145,5.421-12.565,12.637-12.565c3.878,0,7.217,1.399,9.586,3.948l-1.221,1.76
			c-1.94-2.048-4.847-3.411-8.365-3.411c-5.888,0-10.124,4.416-10.124,10.268S6.749,148.559,12.637,148.559z"/>
		<path class="st0" d="M45.72,125.726c7.217,0,12.601,5.385,12.601,12.601c0,7.143-5.385,12.529-12.601,12.529
			c-7.145,0-12.529-5.386-12.529-12.529C33.191,131.111,38.575,125.726,45.72,125.726z M45.756,148.559
			c5.888,0,10.16-4.381,10.16-10.232c0-5.924-4.272-10.268-10.16-10.268c-5.852,0-10.16,4.344-10.16,10.268
			C35.596,144.178,39.904,148.559,45.756,148.559z"/>
		<path class="st0" d="M74.098,129.998v20.499h-2.44v-24.413h2.19l17.305,20.571v-20.571h2.441v24.413h-2.155L74.098,129.998z"/>
		<path class="st0" d="M119.567,148.559c3.518,0,6.426-1.365,8.365-3.411l1.221,1.758c-2.37,2.549-5.708,3.95-9.586,3.95
			c-7.217,0-12.637-5.422-12.637-12.565c0-7.145,5.421-12.565,12.637-12.565c3.878,0,7.217,1.399,9.586,3.948l-1.221,1.76
			c-1.94-2.048-4.847-3.411-8.365-3.411c-5.888,0-10.124,4.416-10.124,10.268S113.679,148.559,119.567,148.559z"/>
		<path class="st0" d="M142.274,150.498v-24.413h18.524v2.19h-16.19v8.401h13.57v2.19h-13.57v9.442h16.19v2.19H142.274z"/>
		<path class="st0" d="M174.137,126.084h10.482c4.561,0,8.509,2.693,8.509,8.545c0,5.277-3.948,8.436-8.509,8.436h-8.042v7.432
			h-2.44V126.084z M176.577,128.274v12.601h7.684c3.482,0,6.354-2.298,6.354-6.246c0-4.308-2.871-6.355-6.354-6.355H176.577z"/>
		<path class="st0" d="M214.509,128.274v22.223h-2.441v-22.223h-9.478v-2.19h20.823v2.19H214.509z"/>
		<path class="st0" d="M234.418,146.369c1.544,0.933,4.523,2.226,7.756,2.226c4.164,0,7.179-1.832,7.179-4.847
			c0-2.154-1.579-3.303-5.025-4.094l-4.739-1.113c-3.842-0.933-5.924-2.979-5.924-6.066c0-3.59,2.871-6.713,9.299-6.713
			c3.267,0,6.534,0.969,8.329,1.974l-0.719,2.226c-1.651-1.005-4.917-1.938-7.682-1.938c-4.703,0-6.713,2.01-6.713,4.272
			c0,2.046,1.4,3.231,4.128,3.876l4.991,1.221c4.2,1.077,6.605,2.765,6.605,6.212c0,4.38-4.092,7.253-9.764,7.253
			c-3.447,0-6.785-1.221-8.329-2.154L234.418,146.369z"/>
	</g>
	<linearGradient id="SVGID_2_" gradientUnits="userSpaceOnUse" x1="227.8549" y1="121.0339" x2="227.8549" y2="-9.094947e-13">
		<stop  offset="0" style="stop-color:#FFC917"/>
		<stop  offset="1" style="stop-color:#FEDD10"/>
	</linearGradient>
	<path class="st1" d="M216.752,11.131l-4.459-0.047c-1.83-0.019-3.297-1.518-3.278-3.348l0.047-4.459
		c0.019-1.83,1.518-3.297,3.348-3.278l4.459,0.047c1.83,0.019,3.297,1.518,3.278,3.348L220.1,7.853
		C220.081,9.683,218.582,11.15,216.752,11.131z M198.978,8.116l-0.673-2.147c-0.73-2.328-3.208-3.624-5.536-2.894l-2.147,0.673
		c-2.328,0.73-3.624,3.208-2.894,5.536l0.673,2.147c0.73,2.328,3.208,3.624,5.536,2.894l2.147-0.673
		C198.412,12.923,199.707,10.444,198.978,8.116z M179.941,16.848l-2.583-3.634c-1.06-1.491-3.128-1.841-4.62-0.781l-3.634,2.583
		c-1.491,1.06-1.841,3.128-0.781,4.62l2.583,3.634c1.06,1.491,3.128,1.841,4.62,0.781l3.635-2.583
		C180.651,20.408,181.001,18.34,179.941,16.848z M264.718,118.821l1.806,1.342c1.959,1.455,4.725,1.046,6.18-0.913l1.342-1.806
		c1.455-1.959,1.046-4.725-0.913-6.18l-1.806-1.342c-1.959-1.455-4.725-1.046-6.18,0.913l-1.342,1.806
		C262.35,114.6,262.759,117.366,264.718,118.821z M274.986,100.567l4.226,1.422c1.734,0.584,3.613-0.349,4.197-2.083l1.422-4.226
		c0.584-1.734-0.349-3.613-2.083-4.197l-4.226-1.422c-1.734-0.584-3.613,0.349-4.197,2.083l-1.422,4.226
		C272.32,98.105,273.252,99.984,274.986,100.567z M281.263,80.398l2.25,0.024c2.439,0.026,4.438-1.931,4.463-4.371L288,73.8
		c0.026-2.439-1.931-4.438-4.371-4.463l-2.25-0.024c-2.439-0.026-4.438,1.931-4.463,4.371l-0.024,2.25
		C276.866,78.374,278.823,80.372,281.263,80.398z M278.841,59.594l4.255-1.333c1.746-0.547,2.718-2.406,2.171-4.152l-1.333-4.255
		c-0.547-1.746-2.406-2.718-4.152-2.171l-4.255,1.333c-1.746,0.547-2.718,2.406-2.171,4.152l1.333,4.255
		C275.236,59.17,277.095,60.141,278.841,59.594z M272.064,39.587l1.834-1.303c1.989-1.413,2.455-4.171,1.042-6.16l-1.303-1.834
		c-1.413-1.989-4.171-2.455-6.16-1.042l-1.834,1.303c-1.989,1.413-2.455,4.171-1.042,6.16l1.303,1.834
		C267.317,40.534,270.075,41.001,272.064,39.587z M257.876,24.181l2.658-3.58c1.091-1.469,0.785-3.544-0.684-4.635l-3.58-2.658
		c-1.469-1.091-3.544-0.785-4.635,0.684l-2.658,3.58c-1.091,1.469-0.785,3.544,0.684,4.635l3.58,2.658
		C254.71,25.956,256.786,25.649,257.876,24.181z M240.633,11.978l0.718-2.133c0.778-2.312-0.465-4.817-2.778-5.596l-2.133-0.718
		c-2.312-0.778-4.817,0.465-5.596,2.778l-0.718,2.133c-0.778,2.312,0.465,4.817,2.778,5.596l2.133,0.718
		C237.35,15.534,239.855,14.291,240.633,11.978z"/>
	<g>
		<linearGradient id="SVGID_3_" gradientUnits="userSpaceOnUse" x1="127.9081" y1="109.8581" x2="127.9081" y2="41.3573">
			<stop  offset="0" style="stop-color:#BBBDBF"/>
			<stop  offset="0.2377" style="stop-color:#808184"/>
			<stop  offset="0.5617" style="stop-color:#F2F2F2"/>
			<stop  offset="0.616" style="stop-color:#FFFFFF"/>
			<stop  offset="1" style="stop-color:#D0D2D3"/>
		</linearGradient>
		<path class="st2" d="M64.804,47.244c-0.643-0.643-0.963-1.462-0.963-2.461c0-0.927,0.321-1.714,0.963-2.355
			c0.643-0.713,1.462-1.071,2.462-1.071c0.926,0,1.712,0.358,2.355,1.071c0.711,0.641,1.069,1.427,1.069,2.355
			c0,0.999-0.358,1.818-1.069,2.461c-0.643,0.643-1.429,0.963-2.355,0.963C66.266,48.207,65.447,47.886,64.804,47.244z
			 M64.804,54.095c-0.643-0.643-0.963-1.462-0.963-2.462c0-0.927,0.321-1.712,0.963-2.355c0.643-0.713,1.462-1.071,2.462-1.071
			c0.926,0,1.712,0.358,2.355,1.071c0.711,0.643,1.069,1.427,1.069,2.355c0,1.001-0.358,1.82-1.069,2.462
			c-0.643,0.641-1.429,0.963-2.355,0.963C66.266,55.058,65.447,54.736,64.804,54.095z M65.447,60.516
			c-0.643-0.571-0.963-1.248-0.963-2.034c0-0.569,0.249-1.14,0.749-1.712c0.643-0.643,1.32-0.963,2.034-0.963
			c0.569,0,1.14,0.25,1.712,0.749c0.643,0.643,0.963,1.285,0.963,1.926c0,0.786-0.25,1.463-0.749,2.034
			c-0.572,0.5-1.215,0.749-1.926,0.749C66.624,61.265,66.017,61.017,65.447,60.516z M65.447,67.366
			c-0.643-0.569-0.963-1.248-0.963-2.033c0-0.571,0.249-1.141,0.749-1.714c0.643-0.641,1.32-0.963,2.034-0.963
			c0.569,0,1.14,0.252,1.712,0.749c0.643,0.643,0.963,1.285,0.963,1.928c0,0.785-0.25,1.463-0.749,2.033
			c-0.572,0.5-1.215,0.749-1.926,0.749C66.624,68.115,66.017,67.866,65.447,67.366z M65.447,87.916
			c-0.643-0.571-0.963-1.248-0.963-2.034c0-0.569,0.249-1.14,0.749-1.712c0.643-0.643,1.32-0.963,2.034-0.963
			c0.569,0,1.14,0.252,1.712,0.749c0.643,0.643,0.963,1.285,0.963,1.926c0,0.786-0.25,1.463-0.749,2.034
			c-0.572,0.5-1.215,0.749-1.926,0.749C66.624,88.665,66.017,88.417,65.447,87.916z M65.875,73.681
			c-0.5-0.428-0.75-0.926-0.75-1.498c0-0.428,0.214-0.857,0.643-1.285c0.428-0.497,0.927-0.749,1.499-0.749
			c0.427,0,0.855,0.214,1.284,0.643c0.499,0.428,0.749,0.893,0.749,1.391c0,0.572-0.214,1.069-0.641,1.498
			c-0.358,0.428-0.822,0.643-1.391,0.643C66.766,74.323,66.303,74.109,65.875,73.681z M65.875,80.532
			c-0.5-0.428-0.75-0.927-0.75-1.499c0-0.428,0.214-0.855,0.643-1.284c0.428-0.499,0.927-0.75,1.499-0.75
			c0.427,0,0.855,0.214,1.284,0.643c0.499,0.428,0.749,0.893,0.749,1.391c0,0.572-0.214,1.071-0.641,1.499
			c-0.358,0.427-0.822,0.641-1.391,0.641C66.766,81.173,66.303,80.959,65.875,80.532z M71.654,47.244
			c-0.641-0.643-0.963-1.462-0.963-2.461c0-0.927,0.322-1.714,0.963-2.355c0.643-0.713,1.462-1.071,2.462-1.071
			c0.926,0,1.712,0.358,2.355,1.071c0.713,0.641,1.071,1.427,1.071,2.355c0,0.999-0.358,1.818-1.071,2.461
			c-0.643,0.643-1.429,0.963-2.355,0.963C73.116,48.207,72.296,47.886,71.654,47.244z M71.654,54.095
			c-0.641-0.643-0.963-1.462-0.963-2.462c0-0.927,0.322-1.712,0.963-2.355c0.643-0.713,1.462-1.071,2.462-1.071
			c0.926,0,1.712,0.358,2.355,1.071c0.713,0.643,1.071,1.427,1.071,2.355c0,1.001-0.358,1.82-1.071,2.462
			c-0.643,0.641-1.429,0.963-2.355,0.963C73.116,55.058,72.296,54.736,71.654,54.095z M72.296,60.516
			c-0.643-0.571-0.963-1.248-0.963-2.034c0-0.569,0.249-1.14,0.749-1.712c0.643-0.643,1.32-0.963,2.034-0.963
			c0.571,0,1.14,0.25,1.712,0.749c0.643,0.643,0.963,1.285,0.963,1.926c0,0.786-0.25,1.463-0.749,2.034
			c-0.572,0.5-1.213,0.749-1.926,0.749C73.474,61.265,72.867,61.017,72.296,60.516z M72.296,67.366
			c-0.643-0.569-0.963-1.248-0.963-2.033c0-0.571,0.249-1.141,0.749-1.714c0.643-0.641,1.32-0.963,2.034-0.963
			c0.571,0,1.14,0.252,1.712,0.749c0.643,0.643,0.963,1.285,0.963,1.928c0,0.785-0.25,1.463-0.749,2.033
			c-0.572,0.5-1.213,0.749-1.926,0.749C73.474,68.115,72.867,67.866,72.296,67.366z M72.296,87.916
			c-0.643-0.571-0.963-1.248-0.963-2.034c0-0.569,0.249-1.14,0.749-1.712c0.643-0.643,1.32-0.963,2.034-0.963
			c0.571,0,1.14,0.252,1.712,0.749c0.643,0.643,0.963,1.285,0.963,1.926c0,0.786-0.25,1.463-0.749,2.034
			c-0.572,0.5-1.213,0.749-1.926,0.749C73.474,88.665,72.867,88.417,72.296,87.916z M72.725,73.681
			c-0.5-0.428-0.749-0.926-0.749-1.498c0-0.428,0.214-0.857,0.643-1.285c0.427-0.497,0.926-0.749,1.498-0.749
			c0.428,0,0.857,0.214,1.284,0.643c0.499,0.428,0.75,0.893,0.75,1.391c0,0.572-0.214,1.069-0.643,1.498
			c-0.358,0.428-0.821,0.643-1.391,0.643C73.616,74.323,73.153,74.109,72.725,73.681z M72.725,80.532
			c-0.5-0.428-0.749-0.927-0.749-1.499c0-0.428,0.214-0.855,0.643-1.284c0.427-0.499,0.926-0.75,1.498-0.75
			c0.428,0,0.857,0.214,1.284,0.643c0.499,0.428,0.75,0.893,0.75,1.391c0,0.572-0.214,1.071-0.643,1.499
			c-0.358,0.427-0.821,0.641-1.391,0.641C73.616,81.173,73.153,80.959,72.725,80.532z M78.505,47.244
			c-0.643-0.643-0.963-1.462-0.963-2.461c0-0.927,0.321-1.714,0.963-2.355c0.641-0.713,1.462-1.071,2.461-1.071
			c0.927,0,1.714,0.358,2.355,1.071c0.713,0.641,1.071,1.427,1.071,2.355c0,0.999-0.358,1.818-1.071,2.461
			c-0.641,0.643-1.427,0.963-2.355,0.963C79.967,48.207,79.146,47.886,78.505,47.244z M78.505,54.095
			c-0.643-0.643-0.963-1.462-0.963-2.462c0-0.927,0.321-1.712,0.963-2.355c0.641-0.713,1.462-1.071,2.461-1.071
			c0.927,0,1.714,0.358,2.355,1.071c0.713,0.643,1.071,1.427,1.071,2.355c0,1.001-0.358,1.82-1.071,2.462
			c-0.641,0.641-1.427,0.963-2.355,0.963C79.967,55.058,79.146,54.736,78.505,54.095z M79.146,60.516
			c-0.641-0.571-0.963-1.248-0.963-2.034c0-0.569,0.25-1.14,0.75-1.712c0.641-0.643,1.318-0.963,2.033-0.963
			c0.571,0,1.141,0.25,1.714,0.749c0.641,0.643,0.963,1.285,0.963,1.926c0,0.786-0.252,1.463-0.75,2.034
			c-0.571,0.5-1.213,0.749-1.926,0.749C80.323,61.265,79.717,61.017,79.146,60.516z M79.146,67.366
			c-0.641-0.569-0.963-1.248-0.963-2.033c0-0.571,0.25-1.141,0.75-1.714c0.641-0.641,1.318-0.963,2.033-0.963
			c0.571,0,1.141,0.252,1.714,0.749c0.641,0.643,0.963,1.285,0.963,1.928c0,0.785-0.252,1.463-0.75,2.033
			c-0.571,0.5-1.213,0.749-1.926,0.749C80.323,68.115,79.717,67.866,79.146,67.366z M79.146,87.916
			c-0.641-0.571-0.963-1.248-0.963-2.034c0-0.569,0.25-1.14,0.75-1.712c0.641-0.643,1.318-0.963,2.033-0.963
			c0.571,0,1.141,0.252,1.714,0.749c0.641,0.643,0.963,1.285,0.963,1.926c0,0.786-0.252,1.463-0.75,2.034
			c-0.571,0.5-1.213,0.749-1.926,0.749C80.323,88.665,79.717,88.417,79.146,87.916z M79.574,73.681
			c-0.5-0.428-0.749-0.926-0.749-1.498c0-0.428,0.214-0.857,0.643-1.285c0.428-0.497,0.926-0.749,1.498-0.749
			c0.428,0,0.857,0.214,1.285,0.643C82.748,71.22,83,71.684,83,72.183c0,0.572-0.214,1.069-0.643,1.498
			c-0.358,0.428-0.821,0.643-1.391,0.643C80.466,74.323,80.003,74.109,79.574,73.681z M79.574,80.532
			c-0.5-0.428-0.749-0.927-0.749-1.499c0-0.428,0.214-0.855,0.643-1.284c0.428-0.499,0.926-0.75,1.498-0.75
			c0.428,0,0.857,0.214,1.285,0.643C82.748,78.069,83,78.534,83,79.033c0,0.572-0.214,1.071-0.643,1.499
			c-0.358,0.427-0.821,0.641-1.391,0.641C80.466,81.173,80.003,80.959,79.574,80.532z M85.354,47.244
			c-0.643-0.643-0.963-1.462-0.963-2.461c0-0.927,0.321-1.714,0.963-2.355c0.643-0.713,1.462-1.071,2.462-1.071
			c0.926,0,1.712,0.358,2.355,1.071c0.711,0.641,1.069,1.427,1.069,2.355c0,0.999-0.358,1.818-1.069,2.461
			c-0.643,0.643-1.429,0.963-2.355,0.963C86.816,48.207,85.997,47.886,85.354,47.244z M85.354,54.095
			c-0.643-0.643-0.963-1.462-0.963-2.462c0-0.927,0.321-1.712,0.963-2.355c0.643-0.713,1.462-1.071,2.462-1.071
			c0.926,0,1.712,0.358,2.355,1.071c0.711,0.643,1.069,1.427,1.069,2.355c0,1.001-0.358,1.82-1.069,2.462
			c-0.643,0.641-1.429,0.963-2.355,0.963C86.816,55.058,85.997,54.736,85.354,54.095z M86.425,73.681
			c-0.5-0.428-0.75-0.926-0.75-1.498c0-0.428,0.214-0.857,0.643-1.285c0.428-0.497,0.927-0.749,1.499-0.749
			c0.427,0,0.855,0.214,1.284,0.643c0.499,0.428,0.749,0.893,0.749,1.391c0,0.572-0.214,1.069-0.643,1.498
			c-0.356,0.428-0.821,0.643-1.39,0.643C87.317,74.323,86.852,74.109,86.425,73.681z M86.425,80.532
			c-0.5-0.428-0.75-0.927-0.75-1.499c0-0.428,0.214-0.855,0.643-1.284c0.428-0.499,0.927-0.75,1.499-0.75
			c0.427,0,0.855,0.214,1.284,0.643c0.499,0.428,0.749,0.893,0.749,1.391c0,0.572-0.214,1.071-0.643,1.499
			c-0.356,0.427-0.821,0.641-1.39,0.641C87.317,81.173,86.852,80.959,86.425,80.532z M92.204,47.244
			c-0.641-0.643-0.963-1.462-0.963-2.461c0-0.927,0.322-1.714,0.963-2.355c0.643-0.713,1.462-1.071,2.462-1.071
			c0.926,0,1.712,0.358,2.355,1.071c0.713,0.641,1.069,1.427,1.069,2.355c0,0.999-0.356,1.818-1.069,2.461
			c-0.643,0.643-1.429,0.963-2.355,0.963C93.666,48.207,92.847,47.886,92.204,47.244z M92.204,54.095
			c-0.641-0.643-0.963-1.462-0.963-2.462c0-0.927,0.322-1.712,0.963-2.355c0.643-0.713,1.462-1.071,2.462-1.071
			c0.926,0,1.712,0.358,2.355,1.071c0.713,0.643,1.069,1.427,1.069,2.355c0,1.001-0.356,1.82-1.069,2.462
			c-0.643,0.641-1.429,0.963-2.355,0.963C93.666,55.058,92.847,54.736,92.204,54.095z M93.275,73.681
			c-0.5-0.428-0.749-0.926-0.749-1.498c0-0.428,0.214-0.857,0.641-1.285c0.428-0.497,0.927-0.749,1.499-0.749
			c0.428,0,0.855,0.214,1.284,0.643c0.499,0.428,0.75,0.893,0.75,1.391c0,0.572-0.214,1.069-0.643,1.498
			c-0.358,0.428-0.821,0.643-1.391,0.643C94.166,74.323,93.703,74.109,93.275,73.681z M93.275,80.532
			c-0.5-0.428-0.749-0.927-0.749-1.499c0-0.428,0.214-0.855,0.641-1.284c0.428-0.499,0.927-0.75,1.499-0.75
			c0.428,0,0.855,0.214,1.284,0.643c0.499,0.428,0.75,0.893,0.75,1.391c0,0.572-0.214,1.071-0.643,1.499
			c-0.358,0.427-0.821,0.641-1.391,0.641C94.166,81.173,93.703,80.959,93.275,80.532z M99.055,47.244
			c-0.643-0.643-0.965-1.462-0.965-2.461c0-0.927,0.322-1.714,0.965-2.355c0.641-0.713,1.46-1.071,2.461-1.071
			c0.927,0,1.712,0.358,2.355,1.071c0.713,0.641,1.071,1.427,1.071,2.355c0,0.999-0.358,1.818-1.071,2.461
			c-0.643,0.643-1.427,0.963-2.355,0.963C100.516,48.207,99.696,47.886,99.055,47.244z M99.055,54.095
			c-0.643-0.643-0.965-1.462-0.965-2.462c0-0.927,0.322-1.712,0.965-2.355c0.641-0.713,1.46-1.071,2.461-1.071
			c0.927,0,1.712,0.358,2.355,1.071c0.713,0.643,1.071,1.427,1.071,2.355c0,1.001-0.358,1.82-1.071,2.462
			c-0.643,0.641-1.427,0.963-2.355,0.963C100.516,55.058,99.696,54.736,99.055,54.095z M100.125,73.681
			c-0.5-0.428-0.749-0.926-0.749-1.498c0-0.428,0.214-0.857,0.643-1.285c0.428-0.497,0.926-0.749,1.498-0.749
			c0.428,0,0.857,0.214,1.285,0.643c0.497,0.428,0.749,0.893,0.749,1.391c0,0.572-0.214,1.069-0.643,1.498
			c-0.358,0.428-0.821,0.643-1.391,0.643C101.016,74.323,100.553,74.109,100.125,73.681z M100.125,80.532
			c-0.5-0.428-0.749-0.927-0.749-1.499c0-0.428,0.214-0.855,0.643-1.284c0.428-0.499,0.926-0.75,1.498-0.75
			c0.428,0,0.857,0.214,1.285,0.643c0.497,0.428,0.749,0.893,0.749,1.391c0,0.572-0.214,1.071-0.643,1.499
			c-0.358,0.427-0.821,0.641-1.391,0.641C101.016,81.173,100.553,80.959,100.125,80.532z M105.905,47.244
			c-0.643-0.643-0.963-1.462-0.963-2.461c0-0.927,0.321-1.714,0.963-2.355c0.643-0.713,1.462-1.071,2.461-1.071
			c0.927,0,1.714,0.358,2.355,1.071c0.713,0.641,1.071,1.427,1.071,2.355c0,0.999-0.358,1.818-1.071,2.461
			c-0.641,0.643-1.427,0.963-2.355,0.963C107.367,48.207,106.547,47.886,105.905,47.244z M105.905,54.095
			c-0.643-0.643-0.963-1.462-0.963-2.462c0-0.927,0.321-1.712,0.963-2.355c0.643-0.713,1.462-1.071,2.461-1.071
			c0.927,0,1.714,0.358,2.355,1.071c0.713,0.643,1.071,1.427,1.071,2.355c0,1.001-0.358,1.82-1.071,2.462
			c-0.641,0.641-1.427,0.963-2.355,0.963C107.367,55.058,106.547,54.736,105.905,54.095z M105.905,102.045
			c-0.643-0.643-0.963-1.462-0.963-2.462c0-0.926,0.321-1.712,0.963-2.355c0.643-0.713,1.462-1.071,2.461-1.071
			c0.927,0,1.714,0.358,2.355,1.071c0.713,0.643,1.071,1.429,1.071,2.355c0,1.001-0.358,1.82-1.071,2.462
			c-0.641,0.641-1.427,0.963-2.355,0.963C107.367,103.008,106.547,102.686,105.905,102.045z M105.905,108.895
			c-0.643-0.643-0.963-1.462-0.963-2.462c0-0.926,0.321-1.712,0.963-2.355c0.643-0.711,1.462-1.069,2.461-1.069
			c0.927,0,1.714,0.358,2.355,1.069c0.713,0.643,1.071,1.429,1.071,2.355c0,1.001-0.358,1.82-1.071,2.462
			c-0.641,0.643-1.427,0.963-2.355,0.963C107.367,109.858,106.547,109.538,105.905,108.895z M106.974,73.681
			c-0.499-0.428-0.749-0.926-0.749-1.498c0-0.428,0.214-0.857,0.643-1.285c0.428-0.497,0.927-0.749,1.498-0.749
			c0.428,0,0.857,0.214,1.285,0.643c0.499,0.428,0.749,0.893,0.749,1.391c0,0.572-0.214,1.069-0.643,1.498
			c-0.358,0.428-0.821,0.643-1.391,0.643C107.867,74.323,107.403,74.109,106.974,73.681z M106.974,80.532
			c-0.499-0.428-0.749-0.927-0.749-1.499c0-0.428,0.214-0.855,0.643-1.284c0.428-0.499,0.927-0.75,1.498-0.75
			c0.428,0,0.857,0.214,1.285,0.643c0.499,0.428,0.749,0.893,0.749,1.391c0,0.572-0.214,1.071-0.643,1.499
			c-0.358,0.427-0.821,0.641-1.391,0.641C107.867,81.173,107.403,80.959,106.974,80.532z M112.754,47.244
			c-0.643-0.643-0.963-1.462-0.963-2.461c0-0.927,0.321-1.714,0.963-2.355c0.643-0.713,1.462-1.071,2.462-1.071
			c0.926,0,1.712,0.358,2.355,1.071c0.711,0.641,1.069,1.427,1.069,2.355c0,0.999-0.358,1.818-1.069,2.461
			c-0.643,0.643-1.429,0.963-2.355,0.963C114.216,48.207,113.397,47.886,112.754,47.244z M112.754,54.095
			c-0.643-0.643-0.963-1.462-0.963-2.462c0-0.927,0.321-1.712,0.963-2.355c0.643-0.713,1.462-1.071,2.462-1.071
			c0.926,0,1.712,0.358,2.355,1.071c0.711,0.643,1.069,1.427,1.069,2.355c0,1.001-0.358,1.82-1.069,2.462
			c-0.643,0.641-1.429,0.963-2.355,0.963C114.216,55.058,113.397,54.736,112.754,54.095z M112.754,102.045
			c-0.643-0.643-0.963-1.462-0.963-2.462c0-0.926,0.321-1.712,0.963-2.355c0.643-0.713,1.462-1.071,2.462-1.071
			c0.926,0,1.712,0.358,2.355,1.071c0.711,0.643,1.069,1.429,1.069,2.355c0,1.001-0.358,1.82-1.069,2.462
			c-0.643,0.641-1.429,0.963-2.355,0.963C114.216,103.008,113.397,102.686,112.754,102.045z M112.754,108.895
			c-0.643-0.643-0.963-1.462-0.963-2.462c0-0.926,0.321-1.712,0.963-2.355c0.643-0.711,1.462-1.069,2.462-1.069
			c0.926,0,1.712,0.358,2.355,1.069c0.711,0.643,1.069,1.429,1.069,2.355c0,1.001-0.358,1.82-1.069,2.462
			c-0.643,0.643-1.429,0.963-2.355,0.963C114.216,109.858,113.397,109.538,112.754,108.895z M113.825,73.681
			c-0.5-0.428-0.749-0.926-0.749-1.498c0-0.428,0.213-0.857,0.641-1.285c0.428-0.497,0.927-0.749,1.499-0.749
			c0.428,0,0.855,0.214,1.284,0.643c0.499,0.428,0.749,0.893,0.749,1.391c0,0.572-0.214,1.069-0.641,1.498
			c-0.358,0.428-0.822,0.643-1.391,0.643C114.717,74.323,114.254,74.109,113.825,73.681z M113.825,80.532
			c-0.5-0.428-0.749-0.927-0.749-1.499c0-0.428,0.213-0.855,0.641-1.284c0.428-0.499,0.927-0.75,1.499-0.75
			c0.428,0,0.855,0.214,1.284,0.643c0.499,0.428,0.749,0.893,0.749,1.391c0,0.572-0.214,1.071-0.641,1.499
			c-0.358,0.427-0.822,0.641-1.391,0.641C114.717,81.173,114.254,80.959,113.825,80.532z M119.604,47.244
			c-0.641-0.643-0.963-1.462-0.963-2.461c0-0.927,0.322-1.714,0.963-2.355c0.643-0.713,1.462-1.071,2.462-1.071
			c0.927,0,1.712,0.358,2.355,1.071c0.713,0.641,1.071,1.427,1.071,2.355c0,0.999-0.358,1.818-1.071,2.461
			c-0.643,0.643-1.427,0.963-2.355,0.963C121.066,48.207,120.247,47.886,119.604,47.244z M119.604,54.095
			c-0.641-0.643-0.963-1.462-0.963-2.462c0-0.927,0.322-1.712,0.963-2.355c0.643-0.713,1.462-1.071,2.462-1.071
			c0.927,0,1.712,0.358,2.355,1.071c0.713,0.643,1.071,1.427,1.071,2.355c0,1.001-0.358,1.82-1.071,2.462
			c-0.643,0.641-1.427,0.963-2.355,0.963C121.066,55.058,120.247,54.736,119.604,54.095z M119.604,102.045
			c-0.641-0.643-0.963-1.462-0.963-2.462c0-0.926,0.322-1.712,0.963-2.355c0.643-0.713,1.462-1.071,2.462-1.071
			c0.927,0,1.712,0.358,2.355,1.071c0.713,0.643,1.071,1.429,1.071,2.355c0,1.001-0.358,1.82-1.071,2.462
			c-0.643,0.641-1.427,0.963-2.355,0.963C121.066,103.008,120.247,102.686,119.604,102.045z M119.604,108.895
			c-0.641-0.643-0.963-1.462-0.963-2.462c0-0.926,0.322-1.712,0.963-2.355c0.643-0.711,1.462-1.069,2.462-1.069
			c0.927,0,1.712,0.358,2.355,1.069c0.713,0.643,1.071,1.429,1.071,2.355c0,1.001-0.358,1.82-1.071,2.462
			c-0.643,0.643-1.427,0.963-2.355,0.963C121.066,109.858,120.247,109.538,119.604,108.895z M120.675,73.681
			c-0.5-0.428-0.749-0.926-0.749-1.498c0-0.428,0.214-0.857,0.643-1.285c0.427-0.497,0.926-0.749,1.498-0.749
			c0.428,0,0.857,0.214,1.284,0.643c0.499,0.428,0.75,0.893,0.75,1.391c0,0.572-0.214,1.069-0.643,1.498
			c-0.358,0.428-0.821,0.643-1.391,0.643C121.566,74.323,121.103,74.109,120.675,73.681z M120.675,80.532
			c-0.5-0.428-0.749-0.927-0.749-1.499c0-0.428,0.214-0.855,0.643-1.284c0.427-0.499,0.926-0.75,1.498-0.75
			c0.428,0,0.857,0.214,1.284,0.643c0.499,0.428,0.75,0.893,0.75,1.391c0,0.572-0.214,1.071-0.643,1.499
			c-0.358,0.427-0.821,0.641-1.391,0.641C121.566,81.173,121.103,80.959,120.675,80.532z M126.455,47.244
			c-0.643-0.643-0.963-1.462-0.963-2.461c0-0.927,0.321-1.714,0.963-2.355c0.643-0.713,1.462-1.071,2.461-1.071
			c0.927,0,1.714,0.358,2.355,1.071c0.713,0.641,1.071,1.427,1.071,2.355c0,0.999-0.358,1.818-1.071,2.461
			c-0.641,0.643-1.427,0.963-2.355,0.963C127.917,48.207,127.098,47.886,126.455,47.244z M126.455,54.095
			c-0.643-0.643-0.963-1.462-0.963-2.462c0-0.927,0.321-1.712,0.963-2.355c0.643-0.713,1.462-1.071,2.461-1.071
			c0.927,0,1.714,0.358,2.355,1.071c0.713,0.643,1.071,1.427,1.071,2.355c0,1.001-0.358,1.82-1.071,2.462
			c-0.641,0.641-1.427,0.963-2.355,0.963C127.917,55.058,127.098,54.736,126.455,54.095z M126.455,102.045
			c-0.643-0.643-0.963-1.462-0.963-2.462c0-0.926,0.321-1.712,0.963-2.355c0.643-0.713,1.462-1.071,2.461-1.071
			c0.927,0,1.714,0.358,2.355,1.071c0.713,0.643,1.071,1.429,1.071,2.355c0,1.001-0.358,1.82-1.071,2.462
			c-0.641,0.641-1.427,0.963-2.355,0.963C127.917,103.008,127.098,102.686,126.455,102.045z M126.455,108.895
			c-0.643-0.643-0.963-1.462-0.963-2.462c0-0.926,0.321-1.712,0.963-2.355c0.643-0.711,1.462-1.069,2.461-1.069
			c0.927,0,1.714,0.358,2.355,1.069c0.713,0.643,1.071,1.429,1.071,2.355c0,1.001-0.358,1.82-1.071,2.462
			c-0.641,0.643-1.427,0.963-2.355,0.963C127.917,109.858,127.098,109.538,126.455,108.895z M127.525,73.681
			c-0.5-0.428-0.749-0.926-0.749-1.498c0-0.428,0.214-0.857,0.643-1.285c0.428-0.497,0.926-0.749,1.498-0.749
			c0.428,0,0.857,0.214,1.285,0.643c0.499,0.428,0.749,0.893,0.749,1.391c0,0.572-0.214,1.069-0.643,1.498
			c-0.358,0.428-0.821,0.643-1.391,0.643C128.416,74.323,127.953,74.109,127.525,73.681z M127.525,80.532
			c-0.5-0.428-0.749-0.927-0.749-1.499c0-0.428,0.214-0.855,0.643-1.284c0.428-0.499,0.926-0.75,1.498-0.75
			c0.428,0,0.857,0.214,1.285,0.643c0.499,0.428,0.749,0.893,0.749,1.391c0,0.572-0.214,1.071-0.643,1.499
			c-0.358,0.427-0.821,0.641-1.391,0.641C128.416,81.173,127.953,80.959,127.525,80.532z M133.305,47.244
			c-0.643-0.643-0.963-1.462-0.963-2.461c0-0.927,0.321-1.714,0.963-2.355c0.643-0.713,1.462-1.071,2.462-1.071
			c0.926,0,1.712,0.358,2.355,1.071c0.711,0.641,1.069,1.427,1.069,2.355c0,0.999-0.358,1.818-1.069,2.461
			c-0.643,0.643-1.429,0.963-2.355,0.963C134.767,48.207,133.947,47.886,133.305,47.244z M133.305,54.095
			c-0.643-0.643-0.963-1.462-0.963-2.462c0-0.927,0.321-1.712,0.963-2.355c0.643-0.713,1.462-1.071,2.462-1.071
			c0.926,0,1.712,0.358,2.355,1.071c0.711,0.643,1.069,1.427,1.069,2.355c0,1.001-0.358,1.82-1.069,2.462
			c-0.643,0.641-1.429,0.963-2.355,0.963C134.767,55.058,133.947,54.736,133.305,54.095z M133.305,102.045
			c-0.643-0.643-0.963-1.462-0.963-2.462c0-0.926,0.321-1.712,0.963-2.355c0.643-0.713,1.462-1.071,2.462-1.071
			c0.926,0,1.712,0.358,2.355,1.071c0.711,0.643,1.069,1.429,1.069,2.355c0,1.001-0.358,1.82-1.069,2.462
			c-0.643,0.641-1.429,0.963-2.355,0.963C134.767,103.008,133.947,102.686,133.305,102.045z M133.305,108.895
			c-0.643-0.643-0.963-1.462-0.963-2.462c0-0.926,0.321-1.712,0.963-2.355c0.643-0.711,1.462-1.069,2.462-1.069
			c0.926,0,1.712,0.358,2.355,1.069c0.711,0.643,1.069,1.429,1.069,2.355c0,1.001-0.358,1.82-1.069,2.462
			c-0.643,0.643-1.429,0.963-2.355,0.963C134.767,109.858,133.947,109.538,133.305,108.895z M140.154,47.244
			c-0.641-0.643-0.963-1.462-0.963-2.461c0-0.927,0.322-1.714,0.963-2.355c0.643-0.713,1.462-1.071,2.462-1.071
			c0.926,0,1.712,0.358,2.355,1.071c0.713,0.641,1.071,1.427,1.071,2.355c0,0.999-0.358,1.818-1.071,2.461
			c-0.643,0.643-1.429,0.963-2.355,0.963C141.616,48.207,140.797,47.886,140.154,47.244z M140.154,54.095
			c-0.641-0.643-0.963-1.462-0.963-2.462c0-0.927,0.322-1.712,0.963-2.355c0.643-0.713,1.462-1.071,2.462-1.071
			c0.926,0,1.712,0.358,2.355,1.071c0.713,0.643,1.071,1.427,1.071,2.355c0,1.001-0.358,1.82-1.071,2.462
			c-0.643,0.641-1.429,0.963-2.355,0.963C141.616,55.058,140.797,54.736,140.154,54.095z M140.154,102.045
			c-0.641-0.643-0.963-1.462-0.963-2.462c0-0.926,0.322-1.712,0.963-2.355c0.643-0.713,1.462-1.071,2.462-1.071
			c0.926,0,1.712,0.358,2.355,1.071c0.713,0.643,1.071,1.429,1.071,2.355c0,1.001-0.358,1.82-1.071,2.462
			c-0.643,0.641-1.429,0.963-2.355,0.963C141.616,103.008,140.797,102.686,140.154,102.045z M140.154,108.895
			c-0.641-0.643-0.963-1.462-0.963-2.462c0-0.926,0.322-1.712,0.963-2.355c0.643-0.711,1.462-1.069,2.462-1.069
			c0.926,0,1.712,0.358,2.355,1.069c0.713,0.643,1.071,1.429,1.071,2.355c0,1.001-0.358,1.82-1.071,2.462
			c-0.643,0.643-1.429,0.963-2.355,0.963C141.616,109.858,140.797,109.538,140.154,108.895z M147.006,47.244
			c-0.643-0.643-0.963-1.462-0.963-2.461c0-0.927,0.321-1.714,0.963-2.355c0.641-0.713,1.46-1.071,2.461-1.071
			c0.927,0,1.712,0.358,2.355,1.071c0.713,0.641,1.071,1.427,1.071,2.355c0,0.999-0.358,1.818-1.071,2.461
			c-0.643,0.643-1.427,0.963-2.355,0.963C148.466,48.207,147.647,47.886,147.006,47.244z M147.006,54.095
			c-0.643-0.643-0.963-1.462-0.963-2.462c0-0.927,0.321-1.712,0.963-2.355c0.641-0.713,1.46-1.071,2.461-1.071
			c0.927,0,1.712,0.358,2.355,1.071c0.713,0.643,1.071,1.427,1.071,2.355c0,1.001-0.358,1.82-1.071,2.462
			c-0.643,0.641-1.427,0.963-2.355,0.963C148.466,55.058,147.647,54.736,147.006,54.095z M147.006,102.045
			c-0.643-0.643-0.963-1.462-0.963-2.462c0-0.926,0.321-1.712,0.963-2.355c0.641-0.713,1.46-1.071,2.461-1.071
			c0.927,0,1.712,0.358,2.355,1.071c0.713,0.643,1.071,1.429,1.071,2.355c0,1.001-0.358,1.82-1.071,2.462
			c-0.643,0.641-1.427,0.963-2.355,0.963C148.466,103.008,147.647,102.686,147.006,102.045z M147.006,108.895
			c-0.643-0.643-0.963-1.462-0.963-2.462c0-0.926,0.321-1.712,0.963-2.355c0.641-0.711,1.46-1.069,2.461-1.069
			c0.927,0,1.712,0.358,2.355,1.069c0.713,0.643,1.071,1.429,1.071,2.355c0,1.001-0.358,1.82-1.071,2.462
			c-0.643,0.643-1.427,0.963-2.355,0.963C148.466,109.858,147.647,109.538,147.006,108.895z M168.055,47.244
			c-0.643-0.643-0.963-1.462-0.963-2.461c0-0.927,0.321-1.714,0.963-2.355c0.643-0.713,1.462-1.071,2.462-1.071
			c0.926,0,1.712,0.358,2.355,1.071c0.711,0.641,1.069,1.427,1.069,2.355c0,0.999-0.358,1.818-1.069,2.461
			c-0.643,0.643-1.429,0.963-2.355,0.963C169.517,48.207,168.697,47.886,168.055,47.244z M168.055,54.095
			c-0.643-0.643-0.963-1.462-0.963-2.462c0-0.927,0.321-1.712,0.963-2.355c0.643-0.713,1.462-1.071,2.462-1.071
			c0.926,0,1.712,0.358,2.355,1.071c0.711,0.643,1.069,1.427,1.069,2.355c0,1.001-0.358,1.82-1.069,2.462
			c-0.643,0.641-1.429,0.963-2.355,0.963C169.517,55.058,168.697,54.736,168.055,54.095z M168.055,102.045
			c-0.643-0.643-0.963-1.462-0.963-2.462c0-0.926,0.321-1.712,0.963-2.355c0.643-0.713,1.462-1.071,2.462-1.071
			c0.926,0,1.712,0.358,2.355,1.071c0.711,0.643,1.069,1.429,1.069,2.355c0,1.001-0.358,1.82-1.069,2.462
			c-0.643,0.641-1.429,0.963-2.355,0.963C169.517,103.008,168.697,102.686,168.055,102.045z M168.055,108.895
			c-0.643-0.643-0.963-1.462-0.963-2.462c0-0.926,0.321-1.712,0.963-2.355c0.643-0.711,1.462-1.069,2.462-1.069
			c0.926,0,1.712,0.358,2.355,1.069c0.711,0.643,1.069,1.429,1.069,2.355c0,1.001-0.358,1.82-1.069,2.462
			c-0.643,0.643-1.429,0.963-2.355,0.963C169.517,109.858,168.697,109.538,168.055,108.895z M168.697,60.516
			c-0.643-0.571-0.963-1.248-0.963-2.034c0-0.569,0.249-1.14,0.749-1.712c0.643-0.643,1.32-0.963,2.034-0.963
			c0.569,0,1.14,0.25,1.712,0.749c0.643,0.643,0.963,1.285,0.963,1.926c0,0.786-0.25,1.463-0.749,2.034
			c-0.572,0.5-1.215,0.749-1.926,0.749C169.875,61.265,169.268,61.017,168.697,60.516z M168.697,67.366
			c-0.643-0.569-0.963-1.248-0.963-2.033c0-0.571,0.249-1.141,0.749-1.714c0.643-0.641,1.32-0.963,2.034-0.963
			c0.569,0,1.14,0.252,1.712,0.749c0.643,0.643,0.963,1.285,0.963,1.928c0,0.785-0.25,1.463-0.749,2.033
			c-0.572,0.5-1.215,0.749-1.926,0.749C169.875,68.115,169.268,67.866,168.697,67.366z M168.697,87.916
			c-0.643-0.571-0.963-1.248-0.963-2.034c0-0.569,0.249-1.14,0.749-1.712c0.643-0.643,1.32-0.963,2.034-0.963
			c0.569,0,1.14,0.252,1.712,0.749c0.643,0.643,0.963,1.285,0.963,1.926c0,0.786-0.25,1.463-0.749,2.034
			c-0.572,0.5-1.215,0.749-1.926,0.749C169.875,88.665,169.268,88.417,168.697,87.916z M168.697,94.766
			c-0.643-0.569-0.963-1.246-0.963-2.033c0-0.571,0.249-1.141,0.749-1.714c0.643-0.641,1.32-0.963,2.034-0.963
			c0.569,0,1.14,0.252,1.712,0.75c0.643,0.641,0.963,1.284,0.963,1.926c0,0.786-0.25,1.463-0.749,2.033
			c-0.572,0.5-1.215,0.75-1.926,0.75C169.875,95.516,169.268,95.266,168.697,94.766z M169.126,73.681
			c-0.5-0.428-0.75-0.926-0.75-1.498c0-0.428,0.214-0.857,0.643-1.285c0.428-0.497,0.927-0.749,1.499-0.749
			c0.427,0,0.855,0.214,1.284,0.643c0.499,0.428,0.749,0.893,0.749,1.391c0,0.572-0.214,1.069-0.641,1.498
			c-0.358,0.428-0.822,0.643-1.391,0.643C170.017,74.323,169.554,74.109,169.126,73.681z M169.126,80.532
			c-0.5-0.428-0.75-0.927-0.75-1.499c0-0.428,0.214-0.855,0.643-1.284c0.428-0.499,0.927-0.75,1.499-0.75
			c0.427,0,0.855,0.214,1.284,0.643c0.499,0.428,0.749,0.893,0.749,1.391c0,0.572-0.214,1.071-0.641,1.499
			c-0.358,0.427-0.822,0.641-1.391,0.641C170.017,81.173,169.554,80.959,169.126,80.532z M174.904,47.244
			c-0.641-0.643-0.963-1.462-0.963-2.461c0-0.927,0.322-1.714,0.963-2.355c0.643-0.713,1.462-1.071,2.462-1.071
			c0.926,0,1.712,0.358,2.355,1.071c0.713,0.641,1.071,1.427,1.071,2.355c0,0.999-0.358,1.818-1.071,2.461
			c-0.643,0.643-1.429,0.963-2.355,0.963C176.366,48.207,175.547,47.886,174.904,47.244z M174.904,54.095
			c-0.641-0.643-0.963-1.462-0.963-2.462c0-0.927,0.322-1.712,0.963-2.355c0.643-0.713,1.462-1.071,2.462-1.071
			c0.926,0,1.712,0.358,2.355,1.071c0.713,0.643,1.071,1.427,1.071,2.355c0,1.001-0.358,1.82-1.071,2.462
			c-0.643,0.641-1.429,0.963-2.355,0.963C176.366,55.058,175.547,54.736,174.904,54.095z M174.904,102.045
			c-0.641-0.643-0.963-1.462-0.963-2.462c0-0.926,0.322-1.712,0.963-2.355c0.643-0.713,1.462-1.071,2.462-1.071
			c0.926,0,1.712,0.358,2.355,1.071c0.713,0.643,1.071,1.429,1.071,2.355c0,1.001-0.358,1.82-1.071,2.462
			c-0.643,0.641-1.429,0.963-2.355,0.963C176.366,103.008,175.547,102.686,174.904,102.045z M174.904,108.895
			c-0.641-0.643-0.963-1.462-0.963-2.462c0-0.926,0.322-1.712,0.963-2.355c0.643-0.711,1.462-1.069,2.462-1.069
			c0.926,0,1.712,0.358,2.355,1.069c0.713,0.643,1.071,1.429,1.071,2.355c0,1.001-0.358,1.82-1.071,2.462
			c-0.643,0.643-1.429,0.963-2.355,0.963C176.366,109.858,175.547,109.538,174.904,108.895z M175.547,60.516
			c-0.643-0.571-0.963-1.248-0.963-2.034c0-0.569,0.249-1.14,0.749-1.712c0.643-0.643,1.32-0.963,2.034-0.963
			c0.571,0,1.14,0.25,1.712,0.749c0.643,0.643,0.963,1.285,0.963,1.926c0,0.786-0.25,1.463-0.749,2.034
			c-0.572,0.5-1.213,0.749-1.926,0.749C176.724,61.265,176.118,61.017,175.547,60.516z M175.547,67.366
			c-0.643-0.569-0.963-1.248-0.963-2.033c0-0.571,0.249-1.141,0.749-1.714c0.643-0.641,1.32-0.963,2.034-0.963
			c0.571,0,1.14,0.252,1.712,0.749c0.643,0.643,0.963,1.285,0.963,1.928c0,0.785-0.25,1.463-0.749,2.033
			c-0.572,0.5-1.213,0.749-1.926,0.749C176.724,68.115,176.118,67.866,175.547,67.366z M175.547,87.916
			c-0.643-0.571-0.963-1.248-0.963-2.034c0-0.569,0.249-1.14,0.749-1.712c0.643-0.643,1.32-0.963,2.034-0.963
			c0.571,0,1.14,0.252,1.712,0.749c0.643,0.643,0.963,1.285,0.963,1.926c0,0.786-0.25,1.463-0.749,2.034
			c-0.572,0.5-1.213,0.749-1.926,0.749C176.724,88.665,176.118,88.417,175.547,87.916z M175.547,94.766
			c-0.643-0.569-0.963-1.246-0.963-2.033c0-0.571,0.249-1.141,0.749-1.714c0.643-0.641,1.32-0.963,2.034-0.963
			c0.571,0,1.14,0.252,1.712,0.75c0.643,0.641,0.963,1.284,0.963,1.926c0,0.786-0.25,1.463-0.749,2.033
			c-0.572,0.5-1.213,0.75-1.926,0.75C176.724,95.516,176.118,95.266,175.547,94.766z M175.975,73.681
			c-0.5-0.428-0.749-0.926-0.749-1.498c0-0.428,0.214-0.857,0.643-1.285c0.427-0.497,0.926-0.749,1.498-0.749
			c0.428,0,0.857,0.214,1.284,0.643c0.499,0.428,0.75,0.893,0.75,1.391c0,0.572-0.214,1.069-0.643,1.498
			c-0.358,0.428-0.821,0.643-1.391,0.643C176.867,74.323,176.404,74.109,175.975,73.681z M175.975,80.532
			c-0.5-0.428-0.749-0.927-0.749-1.499c0-0.428,0.214-0.855,0.643-1.284c0.427-0.499,0.926-0.75,1.498-0.75
			c0.428,0,0.857,0.214,1.284,0.643c0.499,0.428,0.75,0.893,0.75,1.391c0,0.572-0.214,1.071-0.643,1.499
			c-0.358,0.427-0.821,0.641-1.391,0.641C176.867,81.173,176.404,80.959,175.975,80.532z M181.756,47.244
			c-0.643-0.643-0.963-1.462-0.963-2.461c0-0.927,0.321-1.714,0.963-2.355c0.641-0.713,1.462-1.071,2.461-1.071
			c0.927,0,1.714,0.358,2.355,1.071c0.713,0.641,1.071,1.427,1.071,2.355c0,0.999-0.358,1.818-1.071,2.461
			c-0.641,0.643-1.427,0.963-2.355,0.963C183.217,48.207,182.397,47.886,181.756,47.244z M181.756,54.095
			c-0.643-0.643-0.963-1.462-0.963-2.462c0-0.927,0.321-1.712,0.963-2.355c0.641-0.713,1.462-1.071,2.461-1.071
			c0.927,0,1.714,0.358,2.355,1.071c0.713,0.643,1.071,1.427,1.071,2.355c0,1.001-0.358,1.82-1.071,2.462
			c-0.641,0.641-1.427,0.963-2.355,0.963C183.217,55.058,182.397,54.736,181.756,54.095z M181.756,102.045
			c-0.643-0.643-0.963-1.462-0.963-2.462c0-0.926,0.321-1.712,0.963-2.355c0.641-0.713,1.462-1.071,2.461-1.071
			c0.927,0,1.714,0.358,2.355,1.071c0.713,0.643,1.071,1.429,1.071,2.355c0,1.001-0.358,1.82-1.071,2.462
			c-0.641,0.641-1.427,0.963-2.355,0.963C183.217,103.008,182.397,102.686,181.756,102.045z M181.756,108.895
			c-0.643-0.643-0.963-1.462-0.963-2.462c0-0.926,0.321-1.712,0.963-2.355c0.641-0.711,1.462-1.069,2.461-1.069
			c0.927,0,1.714,0.358,2.355,1.069c0.713,0.643,1.071,1.429,1.071,2.355c0,1.001-0.358,1.82-1.071,2.462
			c-0.641,0.643-1.427,0.963-2.355,0.963C183.217,109.858,182.397,109.538,181.756,108.895z M182.397,60.516
			c-0.641-0.571-0.963-1.248-0.963-2.034c0-0.569,0.25-1.14,0.75-1.712c0.641-0.643,1.318-0.963,2.033-0.963
			c0.571,0,1.141,0.25,1.714,0.749c0.641,0.643,0.963,1.285,0.963,1.926c0,0.786-0.252,1.463-0.75,2.034
			c-0.571,0.5-1.213,0.749-1.926,0.749C183.574,61.265,182.967,61.017,182.397,60.516z M182.397,67.366
			c-0.641-0.569-0.963-1.248-0.963-2.033c0-0.571,0.25-1.141,0.75-1.714c0.641-0.641,1.318-0.963,2.033-0.963
			c0.571,0,1.141,0.252,1.714,0.749c0.641,0.643,0.963,1.285,0.963,1.928c0,0.785-0.252,1.463-0.75,2.033
			c-0.571,0.5-1.213,0.749-1.926,0.749C183.574,68.115,182.967,67.866,182.397,67.366z M182.397,87.916
			c-0.641-0.571-0.963-1.248-0.963-2.034c0-0.569,0.25-1.14,0.75-1.712c0.641-0.643,1.318-0.963,2.033-0.963
			c0.571,0,1.141,0.252,1.714,0.749c0.641,0.643,0.963,1.285,0.963,1.926c0,0.786-0.252,1.463-0.75,2.034
			c-0.571,0.5-1.213,0.749-1.926,0.749C183.574,88.665,182.967,88.417,182.397,87.916z M182.397,94.766
			c-0.641-0.569-0.963-1.246-0.963-2.033c0-0.571,0.25-1.141,0.75-1.714c0.641-0.641,1.318-0.963,2.033-0.963
			c0.571,0,1.141,0.252,1.714,0.75c0.641,0.641,0.963,1.284,0.963,1.926c0,0.786-0.252,1.463-0.75,2.033
			c-0.571,0.5-1.213,0.75-1.926,0.75C183.574,95.516,182.967,95.266,182.397,94.766z M182.825,73.681
			c-0.5-0.428-0.749-0.926-0.749-1.498c0-0.428,0.214-0.857,0.643-1.285c0.428-0.497,0.926-0.749,1.498-0.749
			c0.428,0,0.857,0.214,1.285,0.643c0.497,0.428,0.749,0.893,0.749,1.391c0,0.572-0.214,1.069-0.643,1.498
			c-0.358,0.428-0.821,0.643-1.391,0.643C183.716,74.323,183.253,74.109,182.825,73.681z M182.825,80.532
			c-0.5-0.428-0.749-0.927-0.749-1.499c0-0.428,0.214-0.855,0.643-1.284c0.428-0.499,0.926-0.75,1.498-0.75
			c0.428,0,0.857,0.214,1.285,0.643c0.497,0.428,0.749,0.893,0.749,1.391c0,0.572-0.214,1.071-0.643,1.499
			c-0.358,0.427-0.821,0.641-1.391,0.641C183.716,81.173,183.253,80.959,182.825,80.532z M188.605,47.244
			c-0.643-0.643-0.963-1.462-0.963-2.461c0-0.927,0.321-1.714,0.963-2.355c0.643-0.713,1.462-1.071,2.462-1.071
			c0.926,0,1.712,0.358,2.355,1.071c0.711,0.641,1.069,1.427,1.069,2.355c0,0.999-0.358,1.818-1.069,2.461
			c-0.643,0.643-1.429,0.963-2.355,0.963C190.067,48.207,189.248,47.886,188.605,47.244z M188.605,54.095
			c-0.643-0.643-0.963-1.462-0.963-2.462c0-0.927,0.321-1.712,0.963-2.355c0.643-0.713,1.462-1.071,2.462-1.071
			c0.926,0,1.712,0.358,2.355,1.071c0.711,0.643,1.069,1.427,1.069,2.355c0,1.001-0.358,1.82-1.069,2.462
			c-0.643,0.641-1.429,0.963-2.355,0.963C190.067,55.058,189.248,54.736,188.605,54.095z M188.605,102.045
			c-0.643-0.643-0.963-1.462-0.963-2.462c0-0.926,0.321-1.712,0.963-2.355c0.643-0.713,1.462-1.071,2.462-1.071
			c0.926,0,1.712,0.358,2.355,1.071c0.711,0.643,1.069,1.429,1.069,2.355c0,1.001-0.358,1.82-1.069,2.462
			c-0.643,0.641-1.429,0.963-2.355,0.963C190.067,103.008,189.248,102.686,188.605,102.045z M188.605,108.895
			c-0.643-0.643-0.963-1.462-0.963-2.462c0-0.926,0.321-1.712,0.963-2.355c0.643-0.711,1.462-1.069,2.462-1.069
			c0.926,0,1.712,0.358,2.355,1.069c0.711,0.643,1.069,1.429,1.069,2.355c0,1.001-0.358,1.82-1.069,2.462
			c-0.643,0.643-1.429,0.963-2.355,0.963C190.067,109.858,189.248,109.538,188.605,108.895z M195.455,47.244
			c-0.641-0.643-0.963-1.462-0.963-2.461c0-0.927,0.322-1.714,0.963-2.355c0.643-0.713,1.462-1.071,2.462-1.071
			c0.926,0,1.712,0.358,2.355,1.071c0.713,0.641,1.069,1.427,1.069,2.355c0,0.999-0.356,1.818-1.069,2.461
			c-0.643,0.643-1.429,0.963-2.355,0.963C196.917,48.207,196.097,47.886,195.455,47.244z M195.455,54.095
			c-0.641-0.643-0.963-1.462-0.963-2.462c0-0.927,0.322-1.712,0.963-2.355c0.643-0.713,1.462-1.071,2.462-1.071
			c0.926,0,1.712,0.358,2.355,1.071c0.713,0.643,1.069,1.427,1.069,2.355c0,1.001-0.356,1.82-1.069,2.462
			c-0.643,0.641-1.429,0.963-2.355,0.963C196.917,55.058,196.097,54.736,195.455,54.095z M195.455,102.045
			c-0.641-0.643-0.963-1.462-0.963-2.462c0-0.926,0.322-1.712,0.963-2.355c0.643-0.713,1.462-1.071,2.462-1.071
			c0.926,0,1.712,0.358,2.355,1.071c0.713,0.643,1.069,1.429,1.069,2.355c0,1.001-0.356,1.82-1.069,2.462
			c-0.643,0.641-1.429,0.963-2.355,0.963C196.917,103.008,196.097,102.686,195.455,102.045z M195.455,108.895
			c-0.641-0.643-0.963-1.462-0.963-2.462c0-0.926,0.322-1.712,0.963-2.355c0.643-0.711,1.462-1.069,2.462-1.069
			c0.926,0,1.712,0.358,2.355,1.069c0.713,0.643,1.069,1.429,1.069,2.355c0,1.001-0.356,1.82-1.069,2.462
			c-0.643,0.643-1.429,0.963-2.355,0.963C196.917,109.858,196.097,109.538,195.455,108.895z M202.306,47.244
			c-0.643-0.643-0.965-1.462-0.965-2.461c0-0.927,0.322-1.714,0.965-2.355c0.641-0.713,1.46-1.071,2.461-1.071
			c0.927,0,1.712,0.358,2.355,1.071c0.713,0.641,1.071,1.427,1.071,2.355c0,0.999-0.358,1.818-1.071,2.461
			c-0.643,0.643-1.427,0.963-2.355,0.963C203.766,48.207,202.947,47.886,202.306,47.244z M202.306,54.095
			c-0.643-0.643-0.965-1.462-0.965-2.462c0-0.927,0.322-1.712,0.965-2.355c0.641-0.713,1.46-1.071,2.461-1.071
			c0.927,0,1.712,0.358,2.355,1.071c0.713,0.643,1.071,1.427,1.071,2.355c0,1.001-0.358,1.82-1.071,2.462
			c-0.643,0.641-1.427,0.963-2.355,0.963C203.766,55.058,202.947,54.736,202.306,54.095z M202.306,102.045
			c-0.643-0.643-0.965-1.462-0.965-2.462c0-0.926,0.322-1.712,0.965-2.355c0.641-0.713,1.46-1.071,2.461-1.071
			c0.927,0,1.712,0.358,2.355,1.071c0.713,0.643,1.071,1.429,1.071,2.355c0,1.001-0.358,1.82-1.071,2.462
			c-0.643,0.641-1.427,0.963-2.355,0.963C203.766,103.008,202.947,102.686,202.306,102.045z M202.306,108.895
			c-0.643-0.643-0.965-1.462-0.965-2.462c0-0.926,0.322-1.712,0.965-2.355c0.641-0.711,1.46-1.069,2.461-1.069
			c0.927,0,1.712,0.358,2.355,1.069c0.713,0.643,1.071,1.429,1.071,2.355c0,1.001-0.358,1.82-1.071,2.462
			c-0.643,0.643-1.427,0.963-2.355,0.963C203.766,109.858,202.947,109.538,202.306,108.895z M209.156,47.244
			c-0.643-0.643-0.963-1.462-0.963-2.461c0-0.927,0.321-1.714,0.963-2.355c0.643-0.713,1.462-1.071,2.461-1.071
			c0.927,0,1.714,0.358,2.355,1.071c0.713,0.641,1.071,1.427,1.071,2.355c0,0.999-0.358,1.818-1.071,2.461
			c-0.641,0.643-1.427,0.963-2.355,0.963C210.617,48.207,209.798,47.886,209.156,47.244z M209.156,54.095
			c-0.643-0.643-0.963-1.462-0.963-2.462c0-0.927,0.321-1.712,0.963-2.355c0.643-0.713,1.462-1.071,2.461-1.071
			c0.927,0,1.714,0.358,2.355,1.071c0.713,0.643,1.071,1.427,1.071,2.355c0,1.001-0.358,1.82-1.071,2.462
			c-0.641,0.641-1.427,0.963-2.355,0.963C210.617,55.058,209.798,54.736,209.156,54.095z M209.156,102.045
			c-0.643-0.643-0.963-1.462-0.963-2.462c0-0.926,0.321-1.712,0.963-2.355c0.643-0.713,1.462-1.071,2.461-1.071
			c0.927,0,1.714,0.358,2.355,1.071c0.713,0.643,1.071,1.429,1.071,2.355c0,1.001-0.358,1.82-1.071,2.462
			c-0.641,0.641-1.427,0.963-2.355,0.963C210.617,103.008,209.798,102.686,209.156,102.045z M209.156,108.895
			c-0.643-0.643-0.963-1.462-0.963-2.462c0-0.926,0.321-1.712,0.963-2.355c0.643-0.711,1.462-1.069,2.461-1.069
			c0.927,0,1.714,0.358,2.355,1.069c0.713,0.643,1.071,1.429,1.071,2.355c0,1.001-0.358,1.82-1.071,2.462
			c-0.641,0.643-1.427,0.963-2.355,0.963C210.617,109.858,209.798,109.538,209.156,108.895z M216.005,47.244
			c-0.643-0.643-0.963-1.462-0.963-2.461c0-0.927,0.321-1.714,0.963-2.355c0.643-0.713,1.462-1.071,2.462-1.071
			c0.926,0,1.712,0.358,2.355,1.071c0.711,0.641,1.069,1.427,1.069,2.355c0,0.999-0.358,1.818-1.069,2.461
			c-0.643,0.643-1.429,0.963-2.355,0.963C217.467,48.207,216.648,47.886,216.005,47.244z M216.005,54.095
			c-0.643-0.643-0.963-1.462-0.963-2.462c0-0.927,0.321-1.712,0.963-2.355c0.643-0.713,1.462-1.071,2.462-1.071
			c0.926,0,1.712,0.358,2.355,1.071c0.711,0.643,1.069,1.427,1.069,2.355c0,1.001-0.358,1.82-1.069,2.462
			c-0.643,0.641-1.429,0.963-2.355,0.963C217.467,55.058,216.648,54.736,216.005,54.095z M216.005,102.045
			c-0.643-0.643-0.963-1.462-0.963-2.462c0-0.926,0.321-1.712,0.963-2.355c0.643-0.713,1.462-1.071,2.462-1.071
			c0.926,0,1.712,0.358,2.355,1.071c0.711,0.643,1.069,1.429,1.069,2.355c0,1.001-0.358,1.82-1.069,2.462
			c-0.643,0.641-1.429,0.963-2.355,0.963C217.467,103.008,216.648,102.686,216.005,102.045z M216.005,108.895
			c-0.643-0.643-0.963-1.462-0.963-2.462c0-0.926,0.321-1.712,0.963-2.355c0.643-0.711,1.462-1.069,2.462-1.069
			c0.926,0,1.712,0.358,2.355,1.069c0.711,0.643,1.069,1.429,1.069,2.355c0,1.001-0.358,1.82-1.069,2.462
			c-0.643,0.643-1.429,0.963-2.355,0.963C217.467,109.858,216.648,109.538,216.005,108.895z M222.855,47.244
			c-0.641-0.643-0.963-1.462-0.963-2.461c0-0.927,0.322-1.714,0.963-2.355c0.643-0.713,1.462-1.071,2.462-1.071
			c0.927,0,1.712,0.358,2.355,1.071c0.713,0.641,1.071,1.427,1.071,2.355c0,0.999-0.358,1.818-1.071,2.461
			c-0.643,0.643-1.427,0.963-2.355,0.963C224.317,48.207,223.497,47.886,222.855,47.244z M222.855,54.095
			c-0.641-0.643-0.963-1.462-0.963-2.462c0-0.927,0.322-1.712,0.963-2.355c0.643-0.713,1.462-1.071,2.462-1.071
			c0.927,0,1.712,0.358,2.355,1.071c0.713,0.643,1.071,1.427,1.071,2.355c0,1.001-0.358,1.82-1.071,2.462
			c-0.643,0.641-1.427,0.963-2.355,0.963C224.317,55.058,223.497,54.736,222.855,54.095z M222.855,102.045
			c-0.641-0.643-0.963-1.462-0.963-2.462c0-0.926,0.322-1.712,0.963-2.355c0.643-0.713,1.462-1.071,2.462-1.071
			c0.927,0,1.712,0.358,2.355,1.071c0.713,0.643,1.071,1.429,1.071,2.355c0,1.001-0.358,1.82-1.071,2.462
			c-0.643,0.641-1.427,0.963-2.355,0.963C224.317,103.008,223.497,102.686,222.855,102.045z M222.855,108.895
			c-0.641-0.643-0.963-1.462-0.963-2.462c0-0.926,0.322-1.712,0.963-2.355c0.643-0.711,1.462-1.069,2.462-1.069
			c0.927,0,1.712,0.358,2.355,1.069c0.713,0.643,1.071,1.429,1.071,2.355c0,1.001-0.358,1.82-1.071,2.462
			c-0.643,0.643-1.427,0.963-2.355,0.963C224.317,109.858,223.497,109.538,222.855,108.895z M229.706,47.244
			c-0.643-0.643-0.963-1.462-0.963-2.461c0-0.927,0.321-1.714,0.963-2.355c0.643-0.713,1.462-1.071,2.461-1.071
			c0.927,0,1.714,0.358,2.355,1.071c0.713,0.641,1.071,1.427,1.071,2.355c0,0.999-0.358,1.818-1.071,2.461
			c-0.641,0.643-1.427,0.963-2.355,0.963C231.168,48.207,230.348,47.886,229.706,47.244z M229.706,54.095
			c-0.643-0.643-0.963-1.462-0.963-2.462c0-0.927,0.321-1.712,0.963-2.355c0.643-0.713,1.462-1.071,2.461-1.071
			c0.927,0,1.714,0.358,2.355,1.071c0.713,0.643,1.071,1.427,1.071,2.355c0,1.001-0.358,1.82-1.071,2.462
			c-0.641,0.641-1.427,0.963-2.355,0.963C231.168,55.058,230.348,54.736,229.706,54.095z M229.706,102.045
			c-0.643-0.643-0.963-1.462-0.963-2.462c0-0.926,0.321-1.712,0.963-2.355c0.643-0.713,1.462-1.071,2.461-1.071
			c0.927,0,1.714,0.358,2.355,1.071c0.713,0.643,1.071,1.429,1.071,2.355c0,1.001-0.358,1.82-1.071,2.462
			c-0.641,0.641-1.427,0.963-2.355,0.963C231.168,103.008,230.348,102.686,229.706,102.045z M229.706,108.895
			c-0.643-0.643-0.963-1.462-0.963-2.462c0-0.926,0.321-1.712,0.963-2.355c0.643-0.711,1.462-1.069,2.461-1.069
			c0.927,0,1.714,0.358,2.355,1.069c0.713,0.643,1.071,1.429,1.071,2.355c0,1.001-0.358,1.82-1.071,2.462
			c-0.641,0.643-1.427,0.963-2.355,0.963C231.168,109.858,230.348,109.538,229.706,108.895z M230.348,60.516
			c-0.643-0.571-0.965-1.248-0.965-2.034c0-0.569,0.25-1.14,0.75-1.712c0.641-0.643,1.32-0.963,2.033-0.963
			c0.571,0,1.141,0.25,1.714,0.749c0.641,0.643,0.963,1.285,0.963,1.926c0,0.786-0.252,1.463-0.749,2.034
			c-0.572,0.5-1.215,0.749-1.928,0.749C231.526,61.265,230.918,61.017,230.348,60.516z M230.348,94.766
			c-0.643-0.569-0.965-1.246-0.965-2.033c0-0.571,0.25-1.141,0.75-1.714c0.641-0.641,1.32-0.963,2.033-0.963
			c0.571,0,1.141,0.252,1.714,0.75c0.641,0.641,0.963,1.284,0.963,1.926c0,0.786-0.252,1.463-0.749,2.033
			c-0.572,0.5-1.215,0.75-1.928,0.75C231.526,95.516,230.918,95.266,230.348,94.766z M236.556,47.244
			c-0.643-0.643-0.963-1.462-0.963-2.461c0-0.927,0.321-1.714,0.963-2.355c0.643-0.713,1.462-1.071,2.462-1.071
			c0.926,0,1.712,0.358,2.355,1.071c0.711,0.641,1.069,1.427,1.069,2.355c0,0.999-0.358,1.818-1.069,2.461
			c-0.643,0.643-1.429,0.963-2.355,0.963C238.017,48.207,237.198,47.886,236.556,47.244z M236.556,54.095
			c-0.643-0.643-0.963-1.462-0.963-2.462c0-0.927,0.321-1.712,0.963-2.355c0.643-0.713,1.462-1.071,2.462-1.071
			c0.926,0,1.712,0.358,2.355,1.071c0.711,0.643,1.069,1.427,1.069,2.355c0,1.001-0.358,1.82-1.069,2.462
			c-0.643,0.641-1.429,0.963-2.355,0.963C238.017,55.058,237.198,54.736,236.556,54.095z M236.556,102.045
			c-0.643-0.643-0.963-1.462-0.963-2.462c0-0.926,0.321-1.712,0.963-2.355c0.643-0.713,1.462-1.071,2.462-1.071
			c0.926,0,1.712,0.358,2.355,1.071c0.711,0.643,1.069,1.429,1.069,2.355c0,1.001-0.358,1.82-1.069,2.462
			c-0.643,0.641-1.429,0.963-2.355,0.963C238.017,103.008,237.198,102.686,236.556,102.045z M236.556,108.895
			c-0.643-0.643-0.963-1.462-0.963-2.462c0-0.926,0.321-1.712,0.963-2.355c0.643-0.711,1.462-1.069,2.462-1.069
			c0.926,0,1.712,0.358,2.355,1.069c0.711,0.643,1.069,1.429,1.069,2.355c0,1.001-0.358,1.82-1.069,2.462
			c-0.643,0.643-1.429,0.963-2.355,0.963C238.017,109.858,237.198,109.538,236.556,108.895z M237.198,60.516
			c-0.643-0.571-0.963-1.248-0.963-2.034c0-0.569,0.249-1.14,0.749-1.712c0.643-0.643,1.32-0.963,2.034-0.963
			c0.569,0,1.14,0.25,1.712,0.749c0.643,0.643,0.963,1.285,0.963,1.926c0,0.786-0.25,1.463-0.749,2.034
			c-0.572,0.5-1.215,0.749-1.926,0.749C238.375,61.265,237.769,61.017,237.198,60.516z M237.198,67.366
			c-0.643-0.569-0.963-1.248-0.963-2.033c0-0.571,0.249-1.141,0.749-1.714c0.643-0.641,1.32-0.963,2.034-0.963
			c0.569,0,1.14,0.252,1.712,0.749c0.643,0.643,0.963,1.285,0.963,1.928c0,0.785-0.25,1.463-0.749,2.033
			c-0.572,0.5-1.215,0.749-1.926,0.749C238.375,68.115,237.769,67.866,237.198,67.366z M237.198,87.916
			c-0.643-0.571-0.963-1.248-0.963-2.034c0-0.569,0.249-1.14,0.749-1.712c0.643-0.643,1.32-0.963,2.034-0.963
			c0.569,0,1.14,0.252,1.712,0.749c0.643,0.643,0.963,1.285,0.963,1.926c0,0.786-0.25,1.463-0.749,2.034
			c-0.572,0.5-1.215,0.749-1.926,0.749C238.375,88.665,237.769,88.417,237.198,87.916z M237.198,94.766
			c-0.643-0.569-0.963-1.246-0.963-2.033c0-0.571,0.249-1.141,0.749-1.714c0.643-0.641,1.32-0.963,2.034-0.963
			c0.569,0,1.14,0.252,1.712,0.75c0.643,0.641,0.963,1.284,0.963,1.926c0,0.786-0.25,1.463-0.749,2.033
			c-0.572,0.5-1.215,0.75-1.926,0.75C238.375,95.516,237.769,95.266,237.198,94.766z M237.626,73.681
			c-0.5-0.428-0.75-0.926-0.75-1.498c0-0.428,0.214-0.857,0.643-1.285c0.428-0.497,0.927-0.749,1.499-0.749
			c0.427,0,0.855,0.214,1.284,0.643c0.499,0.428,0.749,0.893,0.749,1.391c0,0.572-0.214,1.069-0.641,1.498
			c-0.358,0.428-0.822,0.643-1.391,0.643C238.518,74.323,238.053,74.109,237.626,73.681z M237.626,80.532
			c-0.5-0.428-0.75-0.927-0.75-1.499c0-0.428,0.214-0.855,0.643-1.284c0.428-0.499,0.927-0.75,1.499-0.75
			c0.427,0,0.855,0.214,1.284,0.643c0.499,0.428,0.749,0.893,0.749,1.391c0,0.572-0.214,1.071-0.641,1.499
			c-0.358,0.427-0.822,0.641-1.391,0.641C238.518,81.173,238.053,80.959,237.626,80.532z M243.405,54.095
			c-0.641-0.643-0.963-1.462-0.963-2.462c0-0.927,0.322-1.712,0.963-2.355c0.643-0.713,1.462-1.071,2.462-1.071
			c0.926,0,1.712,0.358,2.355,1.071c0.713,0.643,1.071,1.427,1.071,2.355c0,1.001-0.358,1.82-1.071,2.462
			c-0.643,0.641-1.429,0.963-2.355,0.963C244.867,55.058,244.048,54.736,243.405,54.095z M243.405,102.045
			c-0.641-0.643-0.963-1.462-0.963-2.462c0-0.926,0.322-1.712,0.963-2.355c0.643-0.713,1.462-1.071,2.462-1.071
			c0.926,0,1.712,0.358,2.355,1.071c0.713,0.643,1.071,1.429,1.071,2.355c0,1.001-0.358,1.82-1.071,2.462
			c-0.643,0.641-1.429,0.963-2.355,0.963C244.867,103.008,244.048,102.686,243.405,102.045z M244.048,60.516
			c-0.643-0.571-0.963-1.248-0.963-2.034c0-0.569,0.249-1.14,0.749-1.712c0.643-0.643,1.32-0.963,2.034-0.963
			c0.571,0,1.14,0.25,1.712,0.749c0.643,0.643,0.963,1.285,0.963,1.926c0,0.786-0.25,1.463-0.749,2.034
			c-0.572,0.5-1.213,0.749-1.926,0.749C245.225,61.265,244.618,61.017,244.048,60.516z M244.048,67.366
			c-0.643-0.569-0.963-1.248-0.963-2.033c0-0.571,0.249-1.141,0.749-1.714c0.643-0.641,1.32-0.963,2.034-0.963
			c0.571,0,1.14,0.252,1.712,0.749c0.643,0.643,0.963,1.285,0.963,1.928c0,0.785-0.25,1.463-0.749,2.033
			c-0.572,0.5-1.213,0.749-1.926,0.749C245.225,68.115,244.618,67.866,244.048,67.366z M244.048,87.916
			c-0.643-0.571-0.963-1.248-0.963-2.034c0-0.569,0.249-1.14,0.749-1.712c0.643-0.643,1.32-0.963,2.034-0.963
			c0.571,0,1.14,0.252,1.712,0.749c0.643,0.643,0.963,1.285,0.963,1.926c0,0.786-0.25,1.463-0.749,2.034
			c-0.572,0.5-1.213,0.749-1.926,0.749C245.225,88.665,244.618,88.417,244.048,87.916z M244.048,94.766
			c-0.643-0.569-0.963-1.246-0.963-2.033c0-0.571,0.249-1.141,0.749-1.714c0.643-0.641,1.32-0.963,2.034-0.963
			c0.571,0,1.14,0.252,1.712,0.75c0.643,0.641,0.963,1.284,0.963,1.926c0,0.786-0.25,1.463-0.749,2.033
			c-0.572,0.5-1.213,0.75-1.926,0.75C245.225,95.516,244.618,95.266,244.048,94.766z M244.476,73.681
			c-0.5-0.428-0.749-0.926-0.749-1.498c0-0.428,0.214-0.857,0.641-1.285c0.428-0.497,0.927-0.749,1.499-0.749
			c0.428,0,0.857,0.214,1.284,0.643c0.499,0.428,0.75,0.893,0.75,1.391c0,0.572-0.214,1.069-0.643,1.498
			c-0.358,0.428-0.821,0.643-1.391,0.643C245.367,74.323,244.904,74.109,244.476,73.681z M244.476,80.532
			c-0.5-0.428-0.749-0.927-0.749-1.499c0-0.428,0.214-0.855,0.641-1.284c0.428-0.499,0.927-0.75,1.499-0.75
			c0.428,0,0.857,0.214,1.284,0.643c0.499,0.428,0.75,0.893,0.75,1.391c0,0.572-0.214,1.071-0.643,1.499
			c-0.358,0.427-0.821,0.641-1.391,0.641C245.367,81.173,244.904,80.959,244.476,80.532z M250.897,60.516
			c-0.641-0.571-0.963-1.248-0.963-2.034c0-0.569,0.25-1.14,0.749-1.712c0.643-0.643,1.32-0.963,2.034-0.963
			c0.571,0,1.141,0.25,1.712,0.749c0.643,0.643,0.965,1.285,0.965,1.926c0,0.786-0.252,1.463-0.75,2.034
			c-0.571,0.5-1.213,0.749-1.926,0.749C252.075,61.265,251.468,61.017,250.897,60.516z M250.897,67.366
			c-0.641-0.569-0.963-1.248-0.963-2.033c0-0.571,0.25-1.141,0.749-1.714c0.643-0.641,1.32-0.963,2.034-0.963
			c0.571,0,1.141,0.252,1.712,0.749c0.643,0.643,0.965,1.285,0.965,1.928c0,0.785-0.252,1.463-0.75,2.033
			c-0.571,0.5-1.213,0.749-1.926,0.749C252.075,68.115,251.468,67.866,250.897,67.366z M250.897,87.916
			c-0.641-0.571-0.963-1.248-0.963-2.034c0-0.569,0.25-1.14,0.749-1.712c0.643-0.643,1.32-0.963,2.034-0.963
			c0.571,0,1.141,0.252,1.712,0.749c0.643,0.643,0.965,1.285,0.965,1.926c0,0.786-0.252,1.463-0.75,2.034
			c-0.571,0.5-1.213,0.749-1.926,0.749C252.075,88.665,251.468,88.417,250.897,87.916z M250.897,94.766
			c-0.641-0.569-0.963-1.246-0.963-2.033c0-0.571,0.25-1.141,0.749-1.714c0.643-0.641,1.32-0.963,2.034-0.963
			c0.571,0,1.141,0.252,1.712,0.75c0.643,0.641,0.965,1.284,0.965,1.926c0,0.786-0.252,1.463-0.75,2.033
			c-0.571,0.5-1.213,0.75-1.926,0.75C252.075,95.516,251.468,95.266,250.897,94.766z M251.326,73.681
			c-0.5-0.428-0.749-0.926-0.749-1.498c0-0.428,0.214-0.857,0.643-1.285c0.428-0.497,0.926-0.749,1.498-0.749
			c0.428,0,0.857,0.214,1.285,0.643c0.497,0.428,0.749,0.893,0.749,1.391c0,0.572-0.214,1.069-0.643,1.498
			c-0.358,0.428-0.821,0.643-1.391,0.643C252.217,74.323,251.754,74.109,251.326,73.681z M251.326,80.532
			c-0.5-0.428-0.749-0.927-0.749-1.499c0-0.428,0.214-0.855,0.643-1.284c0.428-0.499,0.926-0.75,1.498-0.75
			c0.428,0,0.857,0.214,1.285,0.643c0.497,0.428,0.749,0.893,0.749,1.391c0,0.572-0.214,1.071-0.643,1.499
			c-0.358,0.427-0.821,0.641-1.391,0.641C252.217,81.173,251.754,80.959,251.326,80.532z M1.386,47.244
			c-0.643-0.643-0.963-1.462-0.963-2.461c0-0.927,0.321-1.714,0.963-2.355c0.643-0.713,1.462-1.071,2.462-1.071
			c0.926,0,1.712,0.358,2.355,1.071c0.711,0.641,1.069,1.427,1.069,2.355c0,0.999-0.358,1.818-1.069,2.461
			c-0.643,0.643-1.429,0.963-2.355,0.963C2.847,48.207,2.028,47.886,1.386,47.244z M1.386,54.095
			c-0.643-0.643-0.963-1.462-0.963-2.462c0-0.927,0.321-1.712,0.963-2.355c0.643-0.713,1.462-1.071,2.462-1.071
			c0.926,0,1.712,0.358,2.355,1.071c0.711,0.643,1.069,1.427,1.069,2.355c0,1.001-0.358,1.82-1.069,2.462
			c-0.643,0.641-1.429,0.963-2.355,0.963C2.847,55.058,2.028,54.736,1.386,54.095z M1.386,102.045
			c-0.643-0.643-0.963-1.462-0.963-2.462c0-0.926,0.321-1.712,0.963-2.355c0.643-0.713,1.462-1.071,2.462-1.071
			c0.926,0,1.712,0.358,2.355,1.071c0.711,0.643,1.069,1.429,1.069,2.355c0,1.001-0.358,1.82-1.069,2.462
			c-0.643,0.641-1.429,0.963-2.355,0.963C2.847,103.008,2.028,102.686,1.386,102.045z M1.386,108.895
			c-0.643-0.643-0.963-1.462-0.963-2.462c0-0.926,0.321-1.712,0.963-2.355c0.643-0.711,1.462-1.069,2.462-1.069
			c0.926,0,1.712,0.358,2.355,1.069c0.711,0.643,1.069,1.429,1.069,2.355c0,1.001-0.358,1.82-1.069,2.462
			c-0.643,0.643-1.429,0.963-2.355,0.963C2.847,109.858,2.028,109.538,1.386,108.895z M2.028,60.516
			c-0.643-0.571-0.963-1.248-0.963-2.034c0-0.569,0.249-1.14,0.749-1.712c0.643-0.643,1.32-0.963,2.034-0.963
			c0.569,0,1.14,0.25,1.712,0.749c0.643,0.643,0.963,1.285,0.963,1.926c0,0.786-0.25,1.463-0.749,2.034
			c-0.572,0.5-1.215,0.749-1.926,0.749C3.205,61.265,2.599,61.017,2.028,60.516z M2.028,67.366
			c-0.643-0.569-0.963-1.248-0.963-2.033c0-0.571,0.249-1.141,0.749-1.714c0.643-0.641,1.32-0.963,2.034-0.963
			c0.569,0,1.14,0.252,1.712,0.749c0.643,0.643,0.963,1.285,0.963,1.928c0,0.785-0.25,1.463-0.749,2.033
			c-0.572,0.5-1.215,0.749-1.926,0.749C3.205,68.115,2.599,67.866,2.028,67.366z M2.028,87.916
			c-0.643-0.571-0.963-1.248-0.963-2.034c0-0.569,0.249-1.14,0.749-1.712c0.643-0.643,1.32-0.963,2.034-0.963
			c0.569,0,1.14,0.252,1.712,0.749c0.643,0.643,0.963,1.285,0.963,1.926c0,0.786-0.25,1.463-0.749,2.034
			c-0.572,0.5-1.215,0.749-1.926,0.749C3.205,88.665,2.599,88.417,2.028,87.916z M2.028,94.766
			c-0.643-0.569-0.963-1.246-0.963-2.033c0-0.571,0.249-1.141,0.749-1.714c0.643-0.641,1.32-0.963,2.034-0.963
			c0.569,0,1.14,0.252,1.712,0.75c0.643,0.641,0.963,1.284,0.963,1.926c0,0.786-0.25,1.463-0.749,2.033
			c-0.572,0.5-1.215,0.75-1.926,0.75C3.205,95.516,2.599,95.266,2.028,94.766z M2.456,73.681c-0.5-0.428-0.75-0.926-0.75-1.498
			c0-0.428,0.214-0.857,0.643-1.285c0.428-0.497,0.927-0.749,1.499-0.749c0.427,0,0.855,0.214,1.284,0.643
			c0.499,0.428,0.749,0.893,0.749,1.391c0,0.572-0.214,1.069-0.641,1.498c-0.358,0.428-0.822,0.643-1.391,0.643
			C3.348,74.323,2.885,74.109,2.456,73.681z M2.456,80.532c-0.5-0.428-0.75-0.927-0.75-1.499c0-0.428,0.214-0.855,0.643-1.284
			c0.428-0.499,0.927-0.75,1.499-0.75c0.427,0,0.855,0.214,1.284,0.643c0.499,0.428,0.749,0.893,0.749,1.391
			c0,0.572-0.214,1.071-0.641,1.499c-0.358,0.427-0.822,0.641-1.391,0.641C3.348,81.173,2.885,80.959,2.456,80.532z M8.235,47.244
			c-0.641-0.643-0.963-1.462-0.963-2.461c0-0.927,0.322-1.714,0.963-2.355c0.643-0.713,1.462-1.071,2.462-1.071
			c0.926,0,1.712,0.358,2.355,1.071c0.713,0.641,1.071,1.427,1.071,2.355c0,0.999-0.358,1.818-1.071,2.461
			c-0.643,0.643-1.429,0.963-2.355,0.963C9.697,48.207,8.878,47.886,8.235,47.244z M8.235,54.095
			c-0.641-0.643-0.963-1.462-0.963-2.462c0-0.927,0.322-1.712,0.963-2.355c0.643-0.713,1.462-1.071,2.462-1.071
			c0.926,0,1.712,0.358,2.355,1.071c0.713,0.643,1.071,1.427,1.071,2.355c0,1.001-0.358,1.82-1.071,2.462
			c-0.643,0.641-1.429,0.963-2.355,0.963C9.697,55.058,8.878,54.736,8.235,54.095z M8.235,102.045
			c-0.641-0.643-0.963-1.462-0.963-2.462c0-0.926,0.322-1.712,0.963-2.355c0.643-0.713,1.462-1.071,2.462-1.071
			c0.926,0,1.712,0.358,2.355,1.071c0.713,0.643,1.071,1.429,1.071,2.355c0,1.001-0.358,1.82-1.071,2.462
			c-0.643,0.641-1.429,0.963-2.355,0.963C9.697,103.008,8.878,102.686,8.235,102.045z M8.235,108.895
			c-0.641-0.643-0.963-1.462-0.963-2.462c0-0.926,0.322-1.712,0.963-2.355c0.643-0.711,1.462-1.069,2.462-1.069
			c0.926,0,1.712,0.358,2.355,1.069c0.713,0.643,1.071,1.429,1.071,2.355c0,1.001-0.358,1.82-1.071,2.462
			c-0.643,0.643-1.429,0.963-2.355,0.963C9.697,109.858,8.878,109.538,8.235,108.895z M8.878,60.516
			c-0.643-0.571-0.963-1.248-0.963-2.034c0-0.569,0.249-1.14,0.749-1.712c0.643-0.643,1.32-0.963,2.034-0.963
			c0.571,0,1.14,0.25,1.712,0.749c0.643,0.643,0.963,1.285,0.963,1.926c0,0.786-0.25,1.463-0.749,2.034
			c-0.572,0.5-1.213,0.749-1.926,0.749C10.055,61.265,9.448,61.017,8.878,60.516z M8.878,67.366
			c-0.643-0.569-0.963-1.248-0.963-2.033c0-0.571,0.249-1.141,0.749-1.714c0.643-0.641,1.32-0.963,2.034-0.963
			c0.571,0,1.14,0.252,1.712,0.749c0.643,0.643,0.963,1.285,0.963,1.928c0,0.785-0.25,1.463-0.749,2.033
			c-0.572,0.5-1.213,0.749-1.926,0.749C10.055,68.115,9.448,67.866,8.878,67.366z M8.878,87.916
			c-0.643-0.571-0.963-1.248-0.963-2.034c0-0.569,0.249-1.14,0.749-1.712c0.643-0.643,1.32-0.963,2.034-0.963
			c0.571,0,1.14,0.252,1.712,0.749c0.643,0.643,0.963,1.285,0.963,1.926c0,0.786-0.25,1.463-0.749,2.034
			c-0.572,0.5-1.213,0.749-1.926,0.749C10.055,88.665,9.448,88.417,8.878,87.916z M8.878,94.766
			c-0.643-0.569-0.963-1.246-0.963-2.033c0-0.571,0.249-1.141,0.749-1.714c0.643-0.641,1.32-0.963,2.034-0.963
			c0.571,0,1.14,0.252,1.712,0.75c0.643,0.641,0.963,1.284,0.963,1.926c0,0.786-0.25,1.463-0.749,2.033
			c-0.572,0.5-1.213,0.75-1.926,0.75C10.055,95.516,9.448,95.266,8.878,94.766z M9.306,73.681c-0.5-0.428-0.749-0.926-0.749-1.498
			c0-0.428,0.214-0.857,0.643-1.285c0.427-0.497,0.926-0.749,1.498-0.749c0.428,0,0.857,0.214,1.284,0.643
			c0.499,0.428,0.75,0.893,0.75,1.391c0,0.572-0.214,1.069-0.643,1.498c-0.358,0.428-0.821,0.643-1.391,0.643
			C10.197,74.323,9.734,74.109,9.306,73.681z M9.306,80.532c-0.5-0.428-0.749-0.927-0.749-1.499c0-0.428,0.214-0.855,0.643-1.284
			c0.427-0.499,0.926-0.75,1.498-0.75c0.428,0,0.857,0.214,1.284,0.643c0.499,0.428,0.75,0.893,0.75,1.391
			c0,0.572-0.214,1.071-0.643,1.499c-0.358,0.427-0.821,0.641-1.391,0.641C10.197,81.173,9.734,80.959,9.306,80.532z M15.086,47.244
			c-0.643-0.643-0.963-1.462-0.963-2.461c0-0.927,0.321-1.714,0.963-2.355c0.641-0.713,1.462-1.071,2.461-1.071
			c0.927,0,1.714,0.358,2.355,1.071c0.713,0.641,1.071,1.427,1.071,2.355c0,0.999-0.358,1.818-1.071,2.461
			c-0.641,0.643-1.427,0.963-2.355,0.963C16.548,48.207,15.727,47.886,15.086,47.244z M15.086,54.095
			c-0.643-0.643-0.963-1.462-0.963-2.462c0-0.927,0.321-1.712,0.963-2.355c0.641-0.713,1.462-1.071,2.461-1.071
			c0.927,0,1.714,0.358,2.355,1.071c0.713,0.643,1.071,1.427,1.071,2.355c0,1.001-0.358,1.82-1.071,2.462
			c-0.641,0.641-1.427,0.963-2.355,0.963C16.548,55.058,15.727,54.736,15.086,54.095z M15.086,102.045
			c-0.643-0.643-0.963-1.462-0.963-2.462c0-0.926,0.321-1.712,0.963-2.355c0.641-0.713,1.462-1.071,2.461-1.071
			c0.927,0,1.714,0.358,2.355,1.071c0.713,0.643,1.071,1.429,1.071,2.355c0,1.001-0.358,1.82-1.071,2.462
			c-0.641,0.641-1.427,0.963-2.355,0.963C16.548,103.008,15.727,102.686,15.086,102.045z M15.086,108.895
			c-0.643-0.643-0.963-1.462-0.963-2.462c0-0.926,0.321-1.712,0.963-2.355c0.641-0.711,1.462-1.069,2.461-1.069
			c0.927,0,1.714,0.358,2.355,1.069c0.713,0.643,1.071,1.429,1.071,2.355c0,1.001-0.358,1.82-1.071,2.462
			c-0.641,0.643-1.427,0.963-2.355,0.963C16.548,109.858,15.727,109.538,15.086,108.895z M15.727,60.516
			c-0.641-0.571-0.963-1.248-0.963-2.034c0-0.569,0.25-1.14,0.75-1.712c0.641-0.643,1.318-0.963,2.033-0.963
			c0.571,0,1.141,0.25,1.714,0.749c0.641,0.643,0.963,1.285,0.963,1.926c0,0.786-0.252,1.463-0.75,2.034
			c-0.571,0.5-1.213,0.749-1.926,0.749C16.905,61.265,16.298,61.017,15.727,60.516z M15.727,67.366
			c-0.641-0.569-0.963-1.248-0.963-2.033c0-0.571,0.25-1.141,0.75-1.714c0.641-0.641,1.318-0.963,2.033-0.963
			c0.571,0,1.141,0.252,1.714,0.749c0.641,0.643,0.963,1.285,0.963,1.928c0,0.785-0.252,1.463-0.75,2.033
			c-0.571,0.5-1.213,0.749-1.926,0.749C16.905,68.115,16.298,67.866,15.727,67.366z M15.727,87.916
			c-0.641-0.571-0.963-1.248-0.963-2.034c0-0.569,0.25-1.14,0.75-1.712c0.641-0.643,1.318-0.963,2.033-0.963
			c0.571,0,1.141,0.252,1.714,0.749c0.641,0.643,0.963,1.285,0.963,1.926c0,0.786-0.252,1.463-0.75,2.034
			c-0.571,0.5-1.213,0.749-1.926,0.749C16.905,88.665,16.298,88.417,15.727,87.916z M15.727,94.766
			c-0.641-0.569-0.963-1.246-0.963-2.033c0-0.571,0.25-1.141,0.75-1.714c0.641-0.641,1.318-0.963,2.033-0.963
			c0.571,0,1.141,0.252,1.714,0.75c0.641,0.641,0.963,1.284,0.963,1.926c0,0.786-0.252,1.463-0.75,2.033
			c-0.571,0.5-1.213,0.75-1.926,0.75C16.905,95.516,16.298,95.266,15.727,94.766z M16.156,73.681
			c-0.5-0.428-0.749-0.926-0.749-1.498c0-0.428,0.214-0.857,0.643-1.285c0.428-0.497,0.926-0.749,1.498-0.749
			c0.428,0,0.857,0.214,1.285,0.643c0.497,0.428,0.749,0.893,0.749,1.391c0,0.572-0.214,1.069-0.643,1.498
			c-0.358,0.428-0.821,0.643-1.391,0.643C17.047,74.323,16.584,74.109,16.156,73.681z M16.156,80.532
			c-0.5-0.428-0.749-0.927-0.749-1.499c0-0.428,0.214-0.855,0.643-1.284c0.428-0.499,0.926-0.75,1.498-0.75
			c0.428,0,0.857,0.214,1.285,0.643c0.497,0.428,0.749,0.893,0.749,1.391c0,0.572-0.214,1.071-0.643,1.499
			c-0.358,0.427-0.821,0.641-1.391,0.641C17.047,81.173,16.584,80.959,16.156,80.532z M21.936,102.045
			c-0.643-0.643-0.963-1.462-0.963-2.462c0-0.926,0.321-1.712,0.963-2.355c0.643-0.713,1.462-1.071,2.462-1.071
			c0.926,0,1.712,0.358,2.355,1.071c0.711,0.643,1.069,1.429,1.069,2.355c0,1.001-0.358,1.82-1.069,2.462
			c-0.643,0.641-1.429,0.963-2.355,0.963C23.398,103.008,22.578,102.686,21.936,102.045z M21.936,108.895
			c-0.643-0.643-0.963-1.462-0.963-2.462c0-0.926,0.321-1.712,0.963-2.355c0.643-0.711,1.462-1.069,2.462-1.069
			c0.926,0,1.712,0.358,2.355,1.069c0.711,0.643,1.069,1.429,1.069,2.355c0,1.001-0.358,1.82-1.069,2.462
			c-0.643,0.643-1.429,0.963-2.355,0.963C23.398,109.858,22.578,109.538,21.936,108.895z M28.786,102.045
			c-0.641-0.643-0.963-1.462-0.963-2.462c0-0.926,0.322-1.712,0.963-2.355c0.643-0.713,1.462-1.071,2.462-1.071
			c0.926,0,1.712,0.358,2.355,1.071c0.713,0.643,1.069,1.429,1.069,2.355c0,1.001-0.356,1.82-1.069,2.462
			c-0.643,0.641-1.429,0.963-2.355,0.963C30.247,103.008,29.428,102.686,28.786,102.045z M28.786,108.895
			c-0.641-0.643-0.963-1.462-0.963-2.462c0-0.926,0.322-1.712,0.963-2.355c0.643-0.711,1.462-1.069,2.462-1.069
			c0.926,0,1.712,0.358,2.355,1.069c0.713,0.643,1.069,1.429,1.069,2.355c0,1.001-0.356,1.82-1.069,2.462
			c-0.643,0.643-1.429,0.963-2.355,0.963C30.247,109.858,29.428,109.538,28.786,108.895z M35.637,102.045
			c-0.643-0.643-0.965-1.462-0.965-2.462c0-0.926,0.322-1.712,0.965-2.355c0.641-0.713,1.46-1.071,2.461-1.071
			c0.927,0,1.712,0.358,2.355,1.071c0.713,0.643,1.071,1.429,1.071,2.355c0,1.001-0.358,1.82-1.071,2.462
			c-0.643,0.641-1.427,0.963-2.355,0.963C37.097,103.008,36.278,102.686,35.637,102.045z M35.637,108.895
			c-0.643-0.643-0.965-1.462-0.965-2.462c0-0.926,0.322-1.712,0.965-2.355c0.641-0.711,1.46-1.069,2.461-1.069
			c0.927,0,1.712,0.358,2.355,1.069c0.713,0.643,1.071,1.429,1.071,2.355c0,1.001-0.358,1.82-1.071,2.462
			c-0.643,0.643-1.427,0.963-2.355,0.963C37.097,109.858,36.278,109.538,35.637,108.895z M42.486,102.045
			c-0.643-0.643-0.963-1.462-0.963-2.462c0-0.926,0.321-1.712,0.963-2.355c0.643-0.713,1.462-1.071,2.461-1.071
			c0.927,0,1.714,0.358,2.355,1.071c0.713,0.643,1.071,1.429,1.071,2.355c0,1.001-0.358,1.82-1.071,2.462
			c-0.641,0.641-1.427,0.963-2.355,0.963C43.948,103.008,43.129,102.686,42.486,102.045z M42.486,108.895
			c-0.643-0.643-0.963-1.462-0.963-2.462c0-0.926,0.321-1.712,0.963-2.355c0.643-0.711,1.462-1.069,2.461-1.069
			c0.927,0,1.714,0.358,2.355,1.069c0.713,0.643,1.071,1.429,1.071,2.355c0,1.001-0.358,1.82-1.071,2.462
			c-0.641,0.643-1.427,0.963-2.355,0.963C43.948,109.858,43.129,109.538,42.486,108.895z M49.336,102.045
			c-0.643-0.643-0.963-1.462-0.963-2.462c0-0.926,0.321-1.712,0.963-2.355c0.643-0.713,1.462-1.071,2.462-1.071
			c0.926,0,1.712,0.358,2.355,1.071c0.711,0.643,1.069,1.429,1.069,2.355c0,1.001-0.358,1.82-1.069,2.462
			c-0.643,0.641-1.429,0.963-2.355,0.963C50.798,103.008,49.978,102.686,49.336,102.045z M49.336,108.895
			c-0.643-0.643-0.963-1.462-0.963-2.462c0-0.926,0.321-1.712,0.963-2.355c0.643-0.711,1.462-1.069,2.462-1.069
			c0.926,0,1.712,0.358,2.355,1.069c0.711,0.643,1.069,1.429,1.069,2.355c0,1.001-0.358,1.82-1.069,2.462
			c-0.643,0.643-1.429,0.963-2.355,0.963C50.798,109.858,49.978,109.538,49.336,108.895z M56.186,102.045
			c-0.641-0.643-0.963-1.462-0.963-2.462c0-0.926,0.322-1.712,0.963-2.355c0.643-0.713,1.462-1.071,2.462-1.071
			c0.927,0,1.712,0.358,2.355,1.071c0.713,0.643,1.071,1.429,1.071,2.355c0,1.001-0.358,1.82-1.071,2.462
			c-0.643,0.641-1.427,0.963-2.355,0.963C57.647,103.008,56.828,102.686,56.186,102.045z M56.186,108.895
			c-0.641-0.643-0.963-1.462-0.963-2.462c0-0.926,0.322-1.712,0.963-2.355c0.643-0.711,1.462-1.069,2.462-1.069
			c0.927,0,1.712,0.358,2.355,1.069c0.713,0.643,1.071,1.429,1.071,2.355c0,1.001-0.358,1.82-1.071,2.462
			c-0.643,0.643-1.427,0.963-2.355,0.963C57.647,109.858,56.828,109.538,56.186,108.895z M63.037,102.045
			c-0.643-0.643-0.963-1.462-0.963-2.462c0-0.926,0.321-1.712,0.963-2.355c0.643-0.713,1.462-1.071,2.461-1.071
			c0.927,0,1.714,0.358,2.355,1.071c0.713,0.643,1.071,1.429,1.071,2.355c0,1.001-0.358,1.82-1.071,2.462
			c-0.641,0.641-1.427,0.963-2.355,0.963C64.499,103.008,63.679,102.686,63.037,102.045z M63.037,108.895
			c-0.643-0.643-0.963-1.462-0.963-2.462c0-0.926,0.321-1.712,0.963-2.355c0.643-0.711,1.462-1.069,2.461-1.069
			c0.927,0,1.714,0.358,2.355,1.069c0.713,0.643,1.071,1.429,1.071,2.355c0,1.001-0.358,1.82-1.071,2.462
			c-0.641,0.643-1.427,0.963-2.355,0.963C64.499,109.858,63.679,109.538,63.037,108.895z M69.886,102.045
			c-0.643-0.643-0.963-1.462-0.963-2.462c0-0.926,0.321-1.712,0.963-2.355c0.643-0.713,1.462-1.071,2.462-1.071
			c0.926,0,1.712,0.358,2.355,1.071c0.711,0.643,1.069,1.429,1.069,2.355c0,1.001-0.358,1.82-1.069,2.462
			c-0.643,0.641-1.429,0.963-2.355,0.963C71.348,103.008,70.529,102.686,69.886,102.045z M69.886,108.895
			c-0.643-0.643-0.963-1.462-0.963-2.462c0-0.926,0.321-1.712,0.963-2.355c0.643-0.711,1.462-1.069,2.462-1.069
			c0.926,0,1.712,0.358,2.355,1.069c0.711,0.643,1.069,1.429,1.069,2.355c0,1.001-0.358,1.82-1.069,2.462
			c-0.643,0.643-1.429,0.963-2.355,0.963C71.348,109.858,70.529,109.538,69.886,108.895z M76.736,102.045
			c-0.641-0.643-0.963-1.462-0.963-2.462c0-0.926,0.322-1.712,0.963-2.355c0.643-0.713,1.462-1.071,2.462-1.071
			c0.926,0,1.712,0.358,2.355,1.071c0.713,0.643,1.071,1.429,1.071,2.355c0,1.001-0.358,1.82-1.071,2.462
			c-0.643,0.641-1.429,0.963-2.355,0.963C78.198,103.008,77.378,102.686,76.736,102.045z M76.736,108.895
			c-0.641-0.643-0.963-1.462-0.963-2.462c0-0.926,0.322-1.712,0.963-2.355c0.643-0.711,1.462-1.069,2.462-1.069
			c0.926,0,1.712,0.358,2.355,1.069c0.713,0.643,1.071,1.429,1.071,2.355c0,1.001-0.358,1.82-1.071,2.462
			c-0.643,0.643-1.429,0.963-2.355,0.963C78.198,109.858,77.378,109.538,76.736,108.895z M83.587,102.045
			c-0.643-0.643-0.963-1.462-0.963-2.462c0-0.926,0.321-1.712,0.963-2.355c0.641-0.713,1.46-1.071,2.461-1.071
			c0.927,0,1.712,0.358,2.355,1.071c0.713,0.643,1.071,1.429,1.071,2.355c0,1.001-0.358,1.82-1.071,2.462
			c-0.643,0.641-1.427,0.963-2.355,0.963C85.047,103.008,84.228,102.686,83.587,102.045z M83.587,108.895
			c-0.643-0.643-0.963-1.462-0.963-2.462c0-0.926,0.321-1.712,0.963-2.355c0.641-0.711,1.46-1.069,2.461-1.069
			c0.927,0,1.712,0.358,2.355,1.069c0.713,0.643,1.071,1.429,1.071,2.355c0,1.001-0.358,1.82-1.071,2.462
			c-0.643,0.643-1.427,0.963-2.355,0.963C85.047,109.858,84.228,109.538,83.587,108.895z"/>
	</g>
</g>
</svg>
