<?xml version="1.0" encoding="utf-8"?>
<!-- Generator: Adobe Illustrator 21.1.0, SVG Export Plug-In . SVG Version: 6.00 Build 0)  -->
<svg version="1.1" id="Layer_84" xmlns="http://www.w3.org/2000/svg" xmlns:xlink="http://www.w3.org/1999/xlink" x="0px" y="0px"
	 viewBox="0 0 60 60" style="enable-background:new 0 0 60 60;" xml:space="preserve">
<style type="text/css">
	.st0{fill:#666666;}
	.st1{fill:#FFFFFF;}
</style>
<g>
	<g>
		<polygon class="st0" points="30,0 4,15 4,45 30,60 56,45 56,15 		"/>
	</g>
	<g>
		<g>
			<path class="st1" d="M50,29c-0.8-2.7-3.4-3.7-5.8-4.6c-2.2-0.8-4.1-1.6-4.1-3.4c0-1.5,1.4-2.3,2.9-2.3c1.7,0,2.6,0.8,3.9,2.3
				l0.1,0.2l2.5-2L49.3,19c-1-1.4-2.8-3.2-6.2-3.2c-3.7,0-6.4,2.2-6.4,5.3c0,4.2,3.2,5.3,6.1,6.3c2.2,0.8,4.1,1.4,4.1,3.3
				c0,2-1.1,3-3.5,3c-1.4,0-2.1-0.5-4.3-2.3l-8.5-7.8c4.4-0.3,6.6-2.3,6.6-6c0-3.6-2.7-5.8-7.1-5.8h-8.4v8.9H10v2.7h5.3
				c0,2,0,17.4-0.1,21.2l3.3,1.9l0-23.1h3.1v24.9l3.5,2V23.7h1.1l8.5,8.2l0.1,0.1h0c3.6,3.3,5.8,4.8,8.3,4.8c4,0,6.2-2,6.8-4.4
				c0.2-0.6,0.2-1.1,0.2-1.7C50.2,30.1,50.2,29.5,50,29z M25.1,20.9v-6.3h4.2c1.4,0,2.6,0.2,3.2,0.6c0.9,0.6,1.3,1.4,1.3,2.5
				c0,2-1.6,3.2-4.5,3.2H25.1z"/>
		</g>
	</g>
</g>
</svg>
